# MagicaVoxel @ Ephtracy

# group
o 

# material
mtllib GreenCorall9.mtl
usemtl palette

# normals
vn -1 0 0
vn 1 0 0
vn 0 0 1
vn 0 0 -1
vn 0 -1 0
vn 0 1 0

# texcoords
vt 0.744141 0.5
vt 0.763672 0.5
vt 0.791016 0.5

# verts
v 0 2 0
v 0 2 -0.8
v 0 2.1 0
v 0 2.1 -0.3
v 0 2.1 -0.4
v 0 2.1 -0.8
v 0 2.2 0
v 0 2.2 -0.3
v 0 2.2 -0.4
v 0 2.2 -0.8
v 0.1 2.1 -0.3
v 0.1 2.1 -0.4
v 0.1 2.2 -0.2
v 0.1 2.2 -0.3
v 0.1 2.2 -0.4
v 0.1 2.3 -0.2
v 0.1 2.3 -0.3
v 0.1 2.4 -0.3
v 0.1 2.4 -0.4
v 0.2 2.1 -0.1
v 0.2 2.1 -0.2
v 0.2 2.1 -0.6
v 0.2 2.1 -0.7
v 0.2 2.2 -0.1
v 0.2 2.2 -0.2
v 0.2 2.2 -0.5
v 0.2 2.2 -0.6
v 0.2 2.2 -0.7
v 0.2 2.3 -0.5
v 0.2 2.3 -0.6
v 0.4 2.1 -0.3
v 0.4 2.1 -0.5
v 0.4 2.2 -0.3
v 0.4 2.2 -0.5
v 0.5 2.1 0
v 0.5 2.1 -0.1
v 0.5 2.1 -0.7
v 0.5 2.1 -0.8
v 0.5 2.2 0
v 0.5 2.2 -0.1
v 0.5 2.2 -0.7
v 0.5 2.2 -0.8
v 0.7 2.1 -0.1
v 0.7 2.1 -0.2
v 0.7 2.1 -0.3
v 0.7 2.1 -0.4
v 0.7 2.1 -0.7
v 0.7 2.2 -0.1
v 0.7 2.2 -0.3
v 0.7 2.2 -0.4
v 0.7 2.2 -0.7
v 0.1 2.1 -0.1
v 0.1 2.1 -0.2
v 0.1 2.1 -0.6
v 0.1 2.1 -0.7
v 0.1 2.2 -0.1
v 0.1 2.2 -0.2
v 0.1 2.2 -0.6
v 0.1 2.2 -0.7
v 0.2 2.2 -0.2
v 0.2 2.2 -0.3
v 0.2 2.2 -0.4
v 0.2 2.3 -0.2
v 0.2 2.3 -0.3
v 0.2 2.4 -0.3
v 0.2 2.4 -0.4
v 0.3 2.1 0
v 0.3 2.1 -0.1
v 0.3 2.1 -0.3
v 0.3 2.1 -0.5
v 0.3 2.1 -0.7
v 0.3 2.1 -0.8
v 0.3 2.2 0
v 0.3 2.2 -0.1
v 0.3 2.2 -0.3
v 0.3 2.2 -0.5
v 0.3 2.2 -0.6
v 0.3 2.2 -0.7
v 0.3 2.2 -0.8
v 0.3 2.3 -0.5
v 0.3 2.3 -0.6
v 0.5 2.1 -0.5
v 0.5 2.1 -0.6
v 0.5 2.2 -0.5
v 0.5 2.2 -0.6
v 0.6 2.1 -0.1
v 0.6 2.1 -0.2
v 0.6 2.1 -0.3
v 0.6 2.1 -0.5
v 0.6 2.1 -0.6
v 0.6 2.1 -0.7
v 0.6 2.2 -0.1
v 0.6 2.2 -0.5
v 0.6 2.2 -0.6
v 0.6 2.2 -0.7
v 0.8 2 0
v 0.8 2 -0.8
v 0.8 2.1 0
v 0.8 2.1 -0.3
v 0.8 2.1 -0.4
v 0.8 2.1 -0.8
v 0.8 2.2 0
v 0.8 2.2 -0.3
v 0.8 2.2 -0.4
v 0.8 2.2 -0.8
v 0 2 0
v 0 2.1 0
v 0 2.2 0
v 0.3 2.1 0
v 0.3 2.2 0
v 0.5 2.1 0
v 0.5 2.2 0
v 0.8 2 0
v 0.8 2.1 0
v 0.8 2.2 0
v 0.3 2.1 -0.1
v 0.3 2.2 -0.1
v 0.5 2.1 -0.1
v 0.5 2.2 -0.1
v 0.1 2.1 -0.2
v 0.1 2.2 -0.2
v 0.1 2.3 -0.2
v 0.2 2.1 -0.2
v 0.2 2.2 -0.2
v 0.2 2.3 -0.2
v 0.1 2.3 -0.3
v 0.1 2.4 -0.3
v 0.2 2.3 -0.3
v 0.2 2.4 -0.3
v 0 2.1 -0.4
v 0 2.2 -0.4
v 0.1 2.1 -0.4
v 0.1 2.2 -0.4
v 0.7 2.1 -0.4
v 0.7 2.2 -0.4
v 0.8 2.1 -0.4
v 0.8 2.2 -0.4
v 0.2 2.2 -0.5
v 0.2 2.3 -0.5
v 0.3 2.1 -0.5
v 0.3 2.2 -0.5
v 0.3 2.3 -0.5
v 0.4 2.1 -0.5
v 0.4 2.2 -0.5
v 0.5 2.1 -0.6
v 0.5 2.2 -0.6
v 0.6 2.1 -0.6
v 0.6 2.2 -0.6
v 0.1 2.1 -0.7
v 0.1 2.2 -0.7
v 0.2 2.1 -0.7
v 0.2 2.2 -0.7
v 0.6 2.1 -0.7
v 0.6 2.2 -0.7
v 0.7 2.1 -0.7
v 0.7 2.2 -0.7
v 0.1 2.1 -0.1
v 0.1 2.2 -0.1
v 0.2 2.1 -0.1
v 0.2 2.2 -0.1
v 0.6 2.1 -0.1
v 0.6 2.2 -0.1
v 0.7 2.1 -0.1
v 0.7 2.2 -0.1
v 0 2.1 -0.3
v 0 2.2 -0.3
v 0.1 2.1 -0.3
v 0.1 2.2 -0.3
v 0.3 2.1 -0.3
v 0.3 2.2 -0.3
v 0.4 2.1 -0.3
v 0.4 2.2 -0.3
v 0.7 2.1 -0.3
v 0.7 2.2 -0.3
v 0.8 2.1 -0.3
v 0.8 2.2 -0.3
v 0.1 2.2 -0.4
v 0.1 2.4 -0.4
v 0.2 2.2 -0.4
v 0.2 2.4 -0.4
v 0.5 2.1 -0.5
v 0.5 2.2 -0.5
v 0.6 2.1 -0.5
v 0.6 2.2 -0.5
v 0.1 2.1 -0.6
v 0.1 2.2 -0.6
v 0.2 2.1 -0.6
v 0.2 2.2 -0.6
v 0.2 2.3 -0.6
v 0.3 2.2 -0.6
v 0.3 2.3 -0.6
v 0.3 2.1 -0.7
v 0.3 2.2 -0.7
v 0.5 2.1 -0.7
v 0.5 2.2 -0.7
v 0 2 -0.8
v 0 2.1 -0.8
v 0 2.2 -0.8
v 0.3 2.1 -0.8
v 0.3 2.2 -0.8
v 0.5 2.1 -0.8
v 0.5 2.2 -0.8
v 0.8 2 -0.8
v 0.8 2.1 -0.8
v 0.8 2.2 -0.8
v 0 2 0
v 0.8 2 0
v 0.6 2 -0.1
v 0.7 2 -0.1
v 0.3 2 -0.2
v 0.4 2 -0.2
v 0.5 2 -0.2
v 0.6 2 -0.2
v 0.7 2 -0.2
v 0.1 2 -0.3
v 0.2 2 -0.3
v 0.5 2 -0.3
v 0.7 2 -0.3
v 0.1 2 -0.4
v 0.2 2 -0.4
v 0.4 2 -0.4
v 0.5 2 -0.4
v 0.1 2 -0.5
v 0.3 2 -0.5
v 0.4 2 -0.5
v 0.5 2 -0.5
v 0.6 2 -0.5
v 0.4 2 -0.6
v 0.5 2 -0.6
v 0.6 2 -0.6
v 0.1 2 -0.7
v 0.3 2 -0.7
v 0 2 -0.8
v 0.8 2 -0.8
v 0.3 2.1 0
v 0.5 2.1 0
v 0.1 2.1 -0.1
v 0.2 2.1 -0.1
v 0.3 2.1 -0.1
v 0.5 2.1 -0.1
v 0.6 2.1 -0.1
v 0.7 2.1 -0.1
v 0.1 2.1 -0.2
v 0.2 2.1 -0.2
v 0.6 2.1 -0.2
v 0.7 2.1 -0.2
v 0 2.1 -0.3
v 0.1 2.1 -0.3
v 0.3 2.1 -0.3
v 0.4 2.1 -0.3
v 0.6 2.1 -0.3
v 0.7 2.1 -0.3
v 0.8 2.1 -0.3
v 0 2.1 -0.4
v 0.1 2.1 -0.4
v 0.7 2.1 -0.4
v 0.8 2.1 -0.4
v 0.3 2.1 -0.5
v 0.4 2.1 -0.5
v 0.5 2.1 -0.5
v 0.6 2.1 -0.5
v 0.1 2.1 -0.6
v 0.2 2.1 -0.6
v 0.5 2.1 -0.6
v 0.6 2.1 -0.6
v 0.1 2.1 -0.7
v 0.2 2.1 -0.7
v 0.3 2.1 -0.7
v 0.5 2.1 -0.7
v 0.6 2.1 -0.7
v 0.7 2.1 -0.7
v 0.3 2.1 -0.8
v 0.5 2.1 -0.8
v 0 2.2 0
v 0.3 2.2 0
v 0.5 2.2 0
v 0.8 2.2 0
v 0.1 2.2 -0.1
v 0.2 2.2 -0.1
v 0.3 2.2 -0.1
v 0.5 2.2 -0.1
v 0.6 2.2 -0.1
v 0.7 2.2 -0.1
v 0.1 2.2 -0.2
v 0.2 2.2 -0.2
v 0 2.2 -0.3
v 0.1 2.2 -0.3
v 0.2 2.2 -0.3
v 0.3 2.2 -0.3
v 0.4 2.2 -0.3
v 0.7 2.2 -0.3
v 0.8 2.2 -0.3
v 0 2.2 -0.4
v 0.1 2.2 -0.4
v 0.2 2.2 -0.4
v 0.7 2.2 -0.4
v 0.8 2.2 -0.4
v 0.2 2.2 -0.5
v 0.3 2.2 -0.5
v 0.4 2.2 -0.5
v 0.5 2.2 -0.5
v 0.6 2.2 -0.5
v 0.1 2.2 -0.6
v 0.2 2.2 -0.6
v 0.3 2.2 -0.6
v 0.5 2.2 -0.6
v 0.6 2.2 -0.6
v 0.1 2.2 -0.7
v 0.2 2.2 -0.7
v 0.3 2.2 -0.7
v 0.5 2.2 -0.7
v 0.6 2.2 -0.7
v 0.7 2.2 -0.7
v 0 2.2 -0.8
v 0.3 2.2 -0.8
v 0.5 2.2 -0.8
v 0.8 2.2 -0.8
v 0.1 2.3 -0.2
v 0.2 2.3 -0.2
v 0.1 2.3 -0.3
v 0.2 2.3 -0.3
v 0.2 2.3 -0.5
v 0.3 2.3 -0.5
v 0.2 2.3 -0.6
v 0.3 2.3 -0.6
v 0.1 2.4 -0.3
v 0.2 2.4 -0.3
v 0.1 2.4 -0.4
v 0.2 2.4 -0.4

# faces
f 3/1/1 2/1/1 1/1/1
f 4/1/1 2/1/1 3/1/1
f 5/1/1 2/1/1 4/1/1
f 6/1/1 2/1/1 5/1/1
f 7/3/1 4/3/1 3/3/1
f 8/3/1 4/3/1 7/3/1
f 9/3/1 6/3/1 5/3/1
f 10/3/1 6/3/1 9/3/1
f 14/3/1 12/3/1 11/3/1
f 15/3/1 12/3/1 14/3/1
f 16/2/1 14/2/1 13/2/1
f 17/3/1 15/3/1 14/3/1
f 17/2/1 14/2/1 16/2/1
f 18/3/1 15/3/1 17/3/1
f 19/3/1 15/3/1 18/3/1
f 24/3/1 21/3/1 20/3/1
f 25/3/1 21/3/1 24/3/1
f 27/3/1 23/3/1 22/3/1
f 28/3/1 23/3/1 27/3/1
f 29/2/1 27/2/1 26/2/1
f 30/2/1 27/2/1 29/2/1
f 33/3/1 32/3/1 31/3/1
f 34/3/1 32/3/1 33/3/1
f 39/3/1 36/3/1 35/3/1
f 40/3/1 36/3/1 39/3/1
f 41/3/1 38/3/1 37/3/1
f 42/3/1 38/3/1 41/3/1
f 48/3/1 44/3/1 43/3/1
f 48/3/1 45/3/1 44/3/1
f 49/3/1 45/3/1 48/3/1
f 50/3/1 47/3/1 46/3/1
f 51/3/1 47/3/1 50/3/1
f 52/3/2 53/3/2 56/3/2
f 56/3/2 53/3/2 57/3/2
f 54/3/2 55/3/2 58/3/2
f 58/3/2 55/3/2 59/3/2
f 60/2/2 61/2/2 63/2/2
f 61/3/2 62/3/2 64/3/2
f 63/2/2 61/2/2 64/2/2
f 64/3/2 62/3/2 65/3/2
f 65/3/2 62/3/2 66/3/2
f 67/3/2 68/3/2 73/3/2
f 73/3/2 68/3/2 74/3/2
f 69/3/2 70/3/2 75/3/2
f 75/3/2 70/3/2 76/3/2
f 71/3/2 72/3/2 78/3/2
f 78/3/2 72/3/2 79/3/2
f 76/2/2 77/2/2 80/2/2
f 80/2/2 77/2/2 81/2/2
f 82/3/2 83/3/2 84/3/2
f 84/3/2 83/3/2 85/3/2
f 86/3/2 87/3/2 92/3/2
f 87/3/2 88/3/2 92/3/2
f 88/3/2 89/3/2 92/3/2
f 92/3/2 89/3/2 93/3/2
f 90/3/2 91/3/2 94/3/2
f 94/3/2 91/3/2 95/3/2
f 96/1/2 97/1/2 98/1/2
f 98/1/2 97/1/2 99/1/2
f 99/1/2 97/1/2 100/1/2
f 100/1/2 97/1/2 101/1/2
f 98/3/2 99/3/2 102/3/2
f 102/3/2 99/3/2 103/3/2
f 100/3/2 101/3/2 104/3/2
f 104/3/2 101/3/2 105/3/2
f 109/1/3 107/1/3 106/1/3
f 109/3/3 108/3/3 107/3/3
f 110/3/3 108/3/3 109/3/3
f 111/1/3 109/1/3 106/1/3
f 113/1/3 111/1/3 106/1/3
f 114/3/3 112/3/3 111/3/3
f 114/1/3 111/1/3 113/1/3
f 115/3/3 112/3/3 114/3/3
f 118/3/3 117/3/3 116/3/3
f 119/3/3 117/3/3 118/3/3
f 123/3/3 121/3/3 120/3/3
f 124/2/3 122/2/3 121/2/3
f 124/3/3 121/3/3 123/3/3
f 125/2/3 122/2/3 124/2/3
f 128/3/3 127/3/3 126/3/3
f 129/3/3 127/3/3 128/3/3
f 132/3/3 131/3/3 130/3/3
f 133/3/3 131/3/3 132/3/3
f 136/3/3 135/3/3 134/3/3
f 137/3/3 135/3/3 136/3/3
f 141/2/3 139/2/3 138/2/3
f 142/2/3 139/2/3 141/2/3
f 143/3/3 141/3/3 140/3/3
f 144/3/3 141/3/3 143/3/3
f 147/3/3 146/3/3 145/3/3
f 148/3/3 146/3/3 147/3/3
f 151/3/3 150/3/3 149/3/3
f 152/3/3 150/3/3 151/3/3
f 155/3/3 154/3/3 153/3/3
f 156/3/3 154/3/3 155/3/3
f 157/3/4 158/3/4 159/3/4
f 159/3/4 158/3/4 160/3/4
f 161/3/4 162/3/4 163/3/4
f 163/3/4 162/3/4 164/3/4
f 165/3/4 166/3/4 167/3/4
f 167/3/4 166/3/4 168/3/4
f 169/3/4 170/3/4 171/3/4
f 171/3/4 170/3/4 172/3/4
f 173/3/4 174/3/4 175/3/4
f 175/3/4 174/3/4 176/3/4
f 177/3/4 178/3/4 179/3/4
f 179/3/4 178/3/4 180/3/4
f 181/3/4 182/3/4 183/3/4
f 183/3/4 182/3/4 184/3/4
f 185/3/4 186/3/4 187/3/4
f 187/3/4 186/3/4 188/3/4
f 188/2/4 189/2/4 190/2/4
f 190/2/4 189/2/4 191/2/4
f 192/3/4 193/3/4 194/3/4
f 194/3/4 193/3/4 195/3/4
f 196/1/4 197/1/4 199/1/4
f 197/3/4 198/3/4 199/3/4
f 199/3/4 198/3/4 200/3/4
f 196/1/4 199/1/4 201/1/4
f 196/1/4 201/1/4 203/1/4
f 201/3/4 202/3/4 204/3/4
f 203/1/4 201/1/4 204/1/4
f 204/3/4 202/3/4 205/3/4
f 208/1/5 207/1/5 206/1/5
f 209/1/5 207/1/5 208/1/5
f 210/1/5 208/1/5 206/1/5
f 211/1/5 208/1/5 210/1/5
f 212/1/5 208/1/5 211/1/5
f 213/2/5 209/2/5 208/2/5
f 213/1/5 208/1/5 212/1/5
f 214/1/5 207/1/5 209/1/5
f 214/2/5 209/2/5 213/2/5
f 215/1/5 210/1/5 206/1/5
f 216/1/5 210/1/5 215/1/5
f 217/3/5 213/3/5 212/3/5
f 217/1/5 212/1/5 211/1/5
f 217/3/5 214/3/5 213/3/5
f 218/1/5 207/1/5 214/1/5
f 218/3/5 214/3/5 217/3/5
f 219/3/5 216/3/5 215/3/5
f 219/1/5 215/1/5 206/1/5
f 220/1/5 210/1/5 216/1/5
f 220/3/5 216/3/5 219/3/5
f 221/1/5 217/1/5 211/1/5
f 221/3/5 211/3/5 210/3/5
f 221/1/5 218/1/5 217/1/5
f 222/1/5 218/1/5 221/1/5
f 223/1/5 219/1/5 206/1/5
f 223/1/5 220/1/5 219/1/5
f 224/1/5 210/1/5 220/1/5
f 224/1/5 220/1/5 223/1/5
f 224/3/5 222/3/5 221/3/5
f 224/3/5 221/3/5 210/3/5
f 225/3/5 222/3/5 224/3/5
f 226/1/5 218/1/5 222/1/5
f 226/3/5 222/3/5 225/3/5
f 227/1/5 218/1/5 226/1/5
f 228/1/5 225/1/5 224/1/5
f 228/3/5 226/3/5 225/3/5
f 229/2/5 227/2/5 226/2/5
f 229/3/5 226/3/5 228/3/5
f 230/1/5 218/1/5 227/1/5
f 230/2/5 227/2/5 229/2/5
f 231/1/5 223/1/5 206/1/5
f 231/3/5 224/3/5 223/3/5
f 232/1/5 229/1/5 228/1/5
f 232/3/5 224/3/5 231/3/5
f 232/1/5 230/1/5 229/1/5
f 232/1/5 228/1/5 224/1/5
f 233/1/5 231/1/5 206/1/5
f 233/1/5 232/1/5 231/1/5
f 234/1/5 230/1/5 232/1/5
f 234/1/5 232/1/5 233/1/5
f 234/1/5 207/1/5 218/1/5
f 234/1/5 218/1/5 230/1/5
f 235/1/6 236/1/6 239/1/6
f 239/1/6 236/1/6 240/1/6
f 237/1/6 238/1/6 243/1/6
f 243/1/6 238/1/6 244/1/6
f 241/2/6 242/2/6 245/2/6
f 245/2/6 242/2/6 246/2/6
f 245/3/6 246/3/6 251/3/6
f 251/3/6 246/3/6 252/3/6
f 247/1/6 248/1/6 254/1/6
f 254/1/6 248/1/6 255/1/6
f 251/1/6 252/1/6 256/1/6
f 252/1/6 253/1/6 256/1/6
f 256/1/6 253/1/6 257/1/6
f 249/3/6 250/3/6 258/3/6
f 258/3/6 250/3/6 259/3/6
f 251/1/6 256/1/6 261/1/6
f 260/2/6 261/2/6 264/2/6
f 261/1/6 256/1/6 265/1/6
f 264/2/6 261/2/6 265/2/6
f 262/3/6 263/3/6 266/3/6
f 266/3/6 263/3/6 267/3/6
f 265/1/6 256/1/6 270/1/6
f 270/1/6 256/1/6 271/1/6
f 268/1/6 269/1/6 272/1/6
f 272/1/6 269/1/6 273/1/6
f 274/3/6 275/3/6 278/3/6
f 278/3/6 275/3/6 279/3/6
f 279/3/6 275/3/6 280/3/6
f 276/3/6 277/3/6 281/3/6
f 281/3/6 277/3/6 282/3/6
f 282/3/6 277/3/6 283/3/6
f 274/3/6 278/3/6 284/3/6
f 279/3/6 280/3/6 285/3/6
f 281/3/6 282/3/6 285/3/6
f 280/3/6 281/3/6 285/3/6
f 274/3/6 284/3/6 286/3/6
f 286/3/6 284/3/6 287/3/6
f 285/3/6 282/3/6 288/3/6
f 288/3/6 282/3/6 289/3/6
f 289/3/6 282/3/6 290/3/6
f 283/3/6 277/3/6 291/3/6
f 291/3/6 277/3/6 292/3/6
f 288/3/6 289/3/6 295/3/6
f 293/3/6 294/3/6 298/3/6
f 295/3/6 289/3/6 298/3/6
f 294/3/6 295/3/6 298/3/6
f 298/3/6 289/3/6 299/3/6
f 290/3/6 282/3/6 300/3/6
f 300/3/6 282/3/6 301/3/6
f 301/3/6 282/3/6 302/3/6
f 293/3/6 298/3/6 303/3/6
f 303/3/6 298/3/6 304/3/6
f 300/3/6 301/3/6 305/3/6
f 299/3/6 300/3/6 305/3/6
f 305/3/6 301/3/6 306/3/6
f 293/3/6 303/3/6 308/3/6
f 306/3/6 307/3/6 309/3/6
f 305/3/6 306/3/6 309/3/6
f 304/3/6 305/3/6 309/3/6
f 309/3/6 307/3/6 310/3/6
f 310/3/6 307/3/6 311/3/6
f 311/3/6 307/3/6 312/3/6
f 296/3/6 297/3/6 313/3/6
f 293/3/6 308/3/6 314/3/6
f 308/3/6 309/3/6 314/3/6
f 309/3/6 310/3/6 314/3/6
f 314/3/6 310/3/6 315/3/6
f 311/3/6 312/3/6 316/3/6
f 312/3/6 313/3/6 316/3/6
f 313/3/6 297/3/6 317/3/6
f 316/3/6 313/3/6 317/3/6
f 318/2/6 319/2/6 320/2/6
f 320/2/6 319/2/6 321/2/6
f 322/2/6 323/2/6 324/2/6
f 324/2/6 323/2/6 325/2/6
f 326/3/6 327/3/6 328/3/6
f 328/3/6 327/3/6 329/3/6
