# MagicaVoxel @ Ephtracy

# group
o 

# material
mtllib GreenCorall5.mtl
usemtl palette

# normals
vn -1 0 0
vn 1 0 0
vn 0 0 1
vn 0 0 -1
vn 0 -1 0
vn 0 1 0

# texcoords
vt 0.744141 0.5
vt 0.763672 0.5
vt 0.791016 0.5

# verts
v 0 2 0
v 0 2 -0.8
v 0 2.1 0
v 0 2.1 -0.4
v 0 2.1 -0.5
v 0 2.1 -0.8
v 0 2.2 0
v 0 2.2 -0.4
v 0 2.2 -0.5
v 0 2.2 -0.8
v 0.4 2.1 -0.3
v 0.4 2.1 -0.5
v 0.4 2.1 -0.7
v 0.4 2.2 -0.3
v 0.4 2.2 -0.7
v 0.5 2.1 0
v 0.5 2.1 -0.1
v 0.5 2.1 -0.7
v 0.5 2.1 -0.8
v 0.5 2.2 0
v 0.5 2.2 -0.1
v 0.5 2.2 -0.5
v 0.5 2.2 -0.6
v 0.5 2.2 -0.7
v 0.5 2.3 -0.5
v 0.5 2.3 -0.6
v 0.5 2.3 -0.7
v 0.5 2.3 -0.8
v 0.6 2.1 -0.2
v 0.6 2.1 -0.3
v 0.6 2.2 -0.2
v 0.6 2.2 -0.3
v 0.7 2.1 -0.1
v 0.7 2.1 -0.2
v 0.7 2.1 -0.3
v 0.7 2.1 -0.4
v 0.7 2.1 -0.5
v 0.7 2.1 -0.7
v 0.7 2.2 -0.1
v 0.7 2.2 -0.2
v 0.7 2.2 -0.3
v 0.7 2.2 -0.4
v 0.7 2.2 -0.5
v 0.7 2.2 -0.7
v 0.1 2.1 -0.1
v 0.1 2.1 -0.3
v 0.1 2.1 -0.4
v 0.1 2.1 -0.5
v 0.1 2.1 -0.7
v 0.1 2.2 -0.1
v 0.1 2.2 -0.4
v 0.1 2.2 -0.5
v 0.1 2.2 -0.7
v 0.3 2.1 0
v 0.3 2.1 -0.1
v 0.3 2.1 -0.7
v 0.3 2.1 -0.8
v 0.3 2.2 0
v 0.3 2.2 -0.1
v 0.3 2.2 -0.7
v 0.3 2.2 -0.8
v 0.5 2.1 -0.3
v 0.5 2.1 -0.4
v 0.5 2.2 -0.3
v 0.5 2.2 -0.4
v 0.6 2.1 -0.4
v 0.6 2.1 -0.7
v 0.6 2.2 -0.4
v 0.6 2.2 -0.5
v 0.6 2.2 -0.6
v 0.6 2.2 -0.7
v 0.6 2.3 -0.5
v 0.6 2.3 -0.6
v 0.7 2.2 -0.7
v 0.7 2.2 -0.8
v 0.7 2.3 -0.7
v 0.7 2.3 -0.8
v 0.8 2 0
v 0.8 2 -0.8
v 0.8 2.1 0
v 0.8 2.1 -0.4
v 0.8 2.1 -0.5
v 0.8 2.1 -0.8
v 0.8 2.2 0
v 0.8 2.2 -0.4
v 0.8 2.2 -0.5
v 0.8 2.2 -0.8
v 0 2 0
v 0 2.1 0
v 0 2.2 0
v 0.3 2.1 0
v 0.3 2.2 0
v 0.5 2.1 0
v 0.5 2.2 0
v 0.8 2 0
v 0.8 2.1 0
v 0.8 2.2 0
v 0.6 2.1 -0.2
v 0.6 2.2 -0.2
v 0.7 2.1 -0.2
v 0.7 2.2 -0.2
v 0.4 2.1 -0.3
v 0.4 2.2 -0.3
v 0.5 2.1 -0.3
v 0.5 2.2 -0.3
v 0.5 2.1 -0.4
v 0.5 2.2 -0.4
v 0.6 2.1 -0.4
v 0.6 2.2 -0.4
v 0 2.1 -0.5
v 0 2.2 -0.5
v 0.1 2.1 -0.5
v 0.1 2.2 -0.5
v 0.5 2.2 -0.5
v 0.5 2.3 -0.5
v 0.6 2.2 -0.5
v 0.6 2.3 -0.5
v 0.7 2.1 -0.5
v 0.7 2.2 -0.5
v 0.8 2.1 -0.5
v 0.8 2.2 -0.5
v 0.1 2.1 -0.7
v 0.1 2.2 -0.7
v 0.3 2.1 -0.7
v 0.3 2.2 -0.7
v 0.5 2.2 -0.7
v 0.5 2.3 -0.7
v 0.6 2.1 -0.7
v 0.6 2.2 -0.7
v 0.7 2.1 -0.7
v 0.7 2.2 -0.7
v 0.7 2.3 -0.7
v 0.1 2.1 -0.1
v 0.1 2.2 -0.1
v 0.3 2.1 -0.1
v 0.3 2.2 -0.1
v 0.5 2.1 -0.1
v 0.5 2.2 -0.1
v 0.6 2.1 -0.1
v 0.7 2.1 -0.1
v 0.7 2.2 -0.1
v 0.6 2.1 -0.3
v 0.6 2.2 -0.3
v 0.7 2.1 -0.3
v 0.7 2.2 -0.3
v 0 2.1 -0.4
v 0 2.2 -0.4
v 0.1 2.1 -0.4
v 0.1 2.2 -0.4
v 0.7 2.1 -0.4
v 0.7 2.2 -0.4
v 0.8 2.1 -0.4
v 0.8 2.2 -0.4
v 0.5 2.2 -0.6
v 0.5 2.3 -0.6
v 0.6 2.2 -0.6
v 0.6 2.3 -0.6
v 0.4 2.1 -0.7
v 0.4 2.2 -0.7
v 0.5 2.1 -0.7
v 0.5 2.2 -0.7
v 0 2 -0.8
v 0 2.1 -0.8
v 0 2.2 -0.8
v 0.3 2.1 -0.8
v 0.3 2.2 -0.8
v 0.5 2.1 -0.8
v 0.5 2.3 -0.8
v 0.7 2.2 -0.8
v 0.7 2.3 -0.8
v 0.8 2 -0.8
v 0.8 2.1 -0.8
v 0.8 2.2 -0.8
v 0 2 0
v 0.8 2 0
v 0.6 2 -0.1
v 0.7 2 -0.1
v 0.3 2 -0.2
v 0.4 2 -0.2
v 0.5 2 -0.2
v 0.6 2 -0.2
v 0.7 2 -0.2
v 0.1 2 -0.3
v 0.2 2 -0.3
v 0.5 2 -0.3
v 0.7 2 -0.3
v 0.1 2 -0.4
v 0.2 2 -0.4
v 0.4 2 -0.4
v 0.5 2 -0.4
v 0.1 2 -0.5
v 0.3 2 -0.5
v 0.4 2 -0.5
v 0.5 2 -0.5
v 0.6 2 -0.5
v 0.4 2 -0.6
v 0.6 2 -0.6
v 0.1 2 -0.7
v 0.3 2 -0.7
v 0 2 -0.8
v 0.8 2 -0.8
v 0.3 2.1 0
v 0.5 2.1 0
v 0.1 2.1 -0.1
v 0.3 2.1 -0.1
v 0.5 2.1 -0.1
v 0.6 2.1 -0.1
v 0.7 2.1 -0.1
v 0.3 2.1 -0.2
v 0.4 2.1 -0.2
v 0.5 2.1 -0.2
v 0.6 2.1 -0.2
v 0.7 2.1 -0.2
v 0.1 2.1 -0.3
v 0.2 2.1 -0.3
v 0.4 2.1 -0.3
v 0.5 2.1 -0.3
v 0.6 2.1 -0.3
v 0.7 2.1 -0.3
v 0 2.1 -0.4
v 0.1 2.1 -0.4
v 0.2 2.1 -0.4
v 0.5 2.1 -0.4
v 0.6 2.1 -0.4
v 0.7 2.1 -0.4
v 0.8 2.1 -0.4
v 0 2.1 -0.5
v 0.1 2.1 -0.5
v 0.3 2.1 -0.5
v 0.4 2.1 -0.5
v 0.7 2.1 -0.5
v 0.8 2.1 -0.5
v 0.1 2.1 -0.7
v 0.3 2.1 -0.7
v 0.4 2.1 -0.7
v 0.5 2.1 -0.7
v 0.6 2.1 -0.7
v 0.7 2.1 -0.7
v 0.3 2.1 -0.8
v 0.5 2.1 -0.8
v 0 2.2 0
v 0.3 2.2 0
v 0.5 2.2 0
v 0.8 2.2 0
v 0.1 2.2 -0.1
v 0.3 2.2 -0.1
v 0.5 2.2 -0.1
v 0.7 2.2 -0.1
v 0.6 2.2 -0.2
v 0.7 2.2 -0.2
v 0.4 2.2 -0.3
v 0.5 2.2 -0.3
v 0.6 2.2 -0.3
v 0.7 2.2 -0.3
v 0 2.2 -0.4
v 0.1 2.2 -0.4
v 0.5 2.2 -0.4
v 0.6 2.2 -0.4
v 0.7 2.2 -0.4
v 0.8 2.2 -0.4
v 0 2.2 -0.5
v 0.1 2.2 -0.5
v 0.5 2.2 -0.5
v 0.6 2.2 -0.5
v 0.7 2.2 -0.5
v 0.8 2.2 -0.5
v 0.5 2.2 -0.6
v 0.6 2.2 -0.6
v 0.1 2.2 -0.7
v 0.3 2.2 -0.7
v 0.4 2.2 -0.7
v 0.5 2.2 -0.7
v 0.6 2.2 -0.7
v 0.7 2.2 -0.7
v 0 2.2 -0.8
v 0.3 2.2 -0.8
v 0.7 2.2 -0.8
v 0.8 2.2 -0.8
v 0.5 2.3 -0.5
v 0.6 2.3 -0.5
v 0.5 2.3 -0.6
v 0.6 2.3 -0.6
v 0.5 2.3 -0.7
v 0.7 2.3 -0.7
v 0.5 2.3 -0.8
v 0.7 2.3 -0.8

# faces
f 3/1/1 2/1/1 1/1/1
f 4/1/1 2/1/1 3/1/1
f 5/1/1 2/1/1 4/1/1
f 6/1/1 2/1/1 5/1/1
f 7/3/1 4/3/1 3/3/1
f 8/3/1 4/3/1 7/3/1
f 9/3/1 6/3/1 5/3/1
f 10/3/1 6/3/1 9/3/1
f 14/3/1 12/3/1 11/3/1
f 14/3/1 13/3/1 12/3/1
f 15/3/1 13/3/1 14/3/1
f 20/3/1 17/3/1 16/3/1
f 21/3/1 17/3/1 20/3/1
f 24/3/1 19/3/1 18/3/1
f 25/3/1 23/3/1 22/3/1
f 26/3/1 23/3/1 25/3/1
f 27/3/1 19/3/1 24/3/1
f 28/3/1 19/3/1 27/3/1
f 31/3/1 30/3/1 29/3/1
f 32/3/1 30/3/1 31/3/1
f 39/3/1 34/3/1 33/3/1
f 40/3/1 34/3/1 39/3/1
f 41/3/1 36/3/1 35/3/1
f 42/3/1 36/3/1 41/3/1
f 43/3/1 38/3/1 37/3/1
f 44/3/1 38/3/1 43/3/1
f 45/3/2 46/3/2 50/3/2
f 46/3/2 47/3/2 50/3/2
f 50/3/2 47/3/2 51/3/2
f 48/3/2 49/3/2 52/3/2
f 52/3/2 49/3/2 53/3/2
f 54/3/2 55/3/2 58/3/2
f 58/3/2 55/3/2 59/3/2
f 56/3/2 57/3/2 60/3/2
f 60/3/2 57/3/2 61/3/2
f 62/3/2 63/3/2 64/3/2
f 64/3/2 63/3/2 65/3/2
f 66/3/2 67/3/2 68/3/2
f 68/3/2 67/3/2 69/3/2
f 69/3/2 67/3/2 70/3/2
f 70/3/2 67/3/2 71/3/2
f 69/3/2 70/3/2 72/3/2
f 72/3/2 70/3/2 73/3/2
f 74/3/2 75/3/2 76/3/2
f 76/3/2 75/3/2 77/3/2
f 78/1/2 79/1/2 80/1/2
f 80/1/2 79/1/2 81/1/2
f 81/1/2 79/1/2 82/1/2
f 82/1/2 79/1/2 83/1/2
f 80/3/2 81/3/2 84/3/2
f 84/3/2 81/3/2 85/3/2
f 82/3/2 83/3/2 86/3/2
f 86/3/2 83/3/2 87/3/2
f 91/1/3 89/1/3 88/1/3
f 91/3/3 90/3/3 89/3/3
f 92/3/3 90/3/3 91/3/3
f 93/1/3 91/1/3 88/1/3
f 95/1/3 93/1/3 88/1/3
f 96/3/3 94/3/3 93/3/3
f 96/1/3 93/1/3 95/1/3
f 97/3/3 94/3/3 96/3/3
f 100/3/3 99/3/3 98/3/3
f 101/3/3 99/3/3 100/3/3
f 104/3/3 103/3/3 102/3/3
f 105/3/3 103/3/3 104/3/3
f 108/3/3 107/3/3 106/3/3
f 109/3/3 107/3/3 108/3/3
f 112/3/3 111/3/3 110/3/3
f 113/3/3 111/3/3 112/3/3
f 116/3/3 115/3/3 114/3/3
f 117/3/3 115/3/3 116/3/3
f 120/3/3 119/3/3 118/3/3
f 121/3/3 119/3/3 120/3/3
f 124/3/3 123/3/3 122/3/3
f 125/3/3 123/3/3 124/3/3
f 129/3/3 127/3/3 126/3/3
f 130/3/3 129/3/3 128/3/3
f 131/3/3 127/3/3 129/3/3
f 131/3/3 129/3/3 130/3/3
f 132/3/3 127/3/3 131/3/3
f 133/3/4 134/3/4 135/3/4
f 135/3/4 134/3/4 136/3/4
f 137/3/4 138/3/4 139/3/4
f 139/3/4 138/3/4 140/3/4
f 140/3/4 138/3/4 141/3/4
f 142/3/4 143/3/4 144/3/4
f 144/3/4 143/3/4 145/3/4
f 146/3/4 147/3/4 148/3/4
f 148/3/4 147/3/4 149/3/4
f 150/3/4 151/3/4 152/3/4
f 152/3/4 151/3/4 153/3/4
f 154/3/4 155/3/4 156/3/4
f 156/3/4 155/3/4 157/3/4
f 158/3/4 159/3/4 160/3/4
f 160/3/4 159/3/4 161/3/4
f 162/1/4 163/1/4 165/1/4
f 163/3/4 164/3/4 165/3/4
f 165/3/4 164/3/4 166/3/4
f 162/1/4 165/1/4 167/1/4
f 167/3/4 168/3/4 169/3/4
f 169/3/4 168/3/4 170/3/4
f 162/1/4 167/1/4 171/1/4
f 167/3/4 169/3/4 172/3/4
f 171/1/4 167/1/4 172/1/4
f 172/3/4 169/3/4 173/3/4
f 176/1/5 175/1/5 174/1/5
f 177/1/5 175/1/5 176/1/5
f 178/1/5 176/1/5 174/1/5
f 179/1/5 176/1/5 178/1/5
f 180/1/5 176/1/5 179/1/5
f 181/2/5 177/2/5 176/2/5
f 181/1/5 176/1/5 180/1/5
f 182/1/5 175/1/5 177/1/5
f 182/2/5 177/2/5 181/2/5
f 183/1/5 178/1/5 174/1/5
f 184/1/5 178/1/5 183/1/5
f 185/3/5 181/3/5 180/3/5
f 185/1/5 180/1/5 179/1/5
f 185/3/5 182/3/5 181/3/5
f 186/1/5 175/1/5 182/1/5
f 186/3/5 182/3/5 185/3/5
f 187/3/5 184/3/5 183/3/5
f 187/1/5 183/1/5 174/1/5
f 188/1/5 178/1/5 184/1/5
f 188/3/5 184/3/5 187/3/5
f 189/1/5 185/1/5 179/1/5
f 189/3/5 179/3/5 178/3/5
f 189/1/5 186/1/5 185/1/5
f 190/1/5 186/1/5 189/1/5
f 191/1/5 187/1/5 174/1/5
f 191/1/5 188/1/5 187/1/5
f 192/1/5 178/1/5 188/1/5
f 192/1/5 188/1/5 191/1/5
f 192/3/5 190/3/5 189/3/5
f 192/3/5 189/3/5 178/3/5
f 193/3/5 190/3/5 192/3/5
f 194/1/5 186/1/5 190/1/5
f 194/3/5 190/3/5 193/3/5
f 195/1/5 186/1/5 194/1/5
f 196/1/5 193/1/5 192/1/5
f 196/3/5 194/3/5 193/3/5
f 196/3/5 195/3/5 194/3/5
f 197/1/5 186/1/5 195/1/5
f 197/3/5 195/3/5 196/3/5
f 198/1/5 191/1/5 174/1/5
f 198/3/5 192/3/5 191/3/5
f 199/1/5 196/1/5 192/1/5
f 199/3/5 192/3/5 198/3/5
f 199/1/5 197/1/5 196/1/5
f 200/1/5 198/1/5 174/1/5
f 200/1/5 199/1/5 198/1/5
f 201/1/5 197/1/5 199/1/5
f 201/1/5 199/1/5 200/1/5
f 201/1/5 175/1/5 186/1/5
f 201/1/5 186/1/5 197/1/5
f 202/1/6 203/1/6 205/1/6
f 205/1/6 203/1/6 206/1/6
f 204/1/6 205/1/6 209/1/6
f 205/1/6 206/1/6 209/1/6
f 206/1/6 207/1/6 209/1/6
f 209/1/6 207/1/6 210/1/6
f 210/1/6 207/1/6 211/1/6
f 207/2/6 208/2/6 212/2/6
f 211/1/6 207/1/6 212/1/6
f 212/2/6 208/2/6 213/2/6
f 204/1/6 209/1/6 214/1/6
f 214/1/6 209/1/6 215/1/6
f 210/1/6 211/1/6 216/1/6
f 209/3/6 210/3/6 216/3/6
f 211/3/6 212/3/6 217/3/6
f 216/1/6 211/1/6 217/1/6
f 217/3/6 212/3/6 218/3/6
f 214/3/6 215/3/6 221/3/6
f 215/1/6 209/1/6 222/1/6
f 221/3/6 215/3/6 222/3/6
f 217/1/6 218/1/6 223/1/6
f 218/1/6 219/1/6 223/1/6
f 223/1/6 219/1/6 224/1/6
f 224/1/6 219/1/6 225/1/6
f 220/1/6 221/1/6 227/1/6
f 221/1/6 222/1/6 227/1/6
f 227/1/6 222/1/6 228/1/6
f 222/1/6 209/1/6 229/1/6
f 228/1/6 222/1/6 229/1/6
f 209/3/6 216/3/6 229/3/6
f 229/3/6 216/3/6 230/3/6
f 225/1/6 226/1/6 231/1/6
f 224/1/6 225/1/6 231/1/6
f 231/1/6 226/1/6 232/1/6
f 228/3/6 229/3/6 233/3/6
f 229/1/6 230/1/6 234/1/6
f 233/3/6 229/3/6 234/3/6
f 234/1/6 230/1/6 235/1/6
f 224/1/6 231/1/6 237/1/6
f 237/1/6 231/1/6 238/1/6
f 235/1/6 236/1/6 239/1/6
f 234/1/6 235/1/6 239/1/6
f 239/1/6 236/1/6 240/1/6
f 241/3/6 242/3/6 245/3/6
f 245/3/6 242/3/6 246/3/6
f 243/3/6 244/3/6 247/3/6
f 247/3/6 244/3/6 248/3/6
f 248/3/6 244/3/6 250/3/6
f 249/3/6 250/3/6 253/3/6
f 250/3/6 244/3/6 254/3/6
f 253/3/6 250/3/6 254/3/6
f 241/3/6 245/3/6 255/3/6
f 255/3/6 245/3/6 256/3/6
f 251/3/6 252/3/6 257/3/6
f 254/3/6 244/3/6 259/3/6
f 259/3/6 244/3/6 260/3/6
f 257/3/6 258/3/6 263/3/6
f 251/3/6 257/3/6 263/3/6
f 263/3/6 258/3/6 264/3/6
f 251/3/6 263/3/6 267/3/6
f 261/3/6 262/3/6 269/3/6
f 267/3/6 268/3/6 271/3/6
f 251/3/6 267/3/6 271/3/6
f 271/3/6 268/3/6 272/3/6
f 272/3/6 268/3/6 273/3/6
f 265/3/6 266/3/6 274/3/6
f 269/3/6 270/3/6 275/3/6
f 261/3/6 269/3/6 275/3/6
f 275/3/6 270/3/6 276/3/6
f 274/3/6 266/3/6 277/3/6
f 277/3/6 266/3/6 278/3/6
f 279/3/6 280/3/6 281/3/6
f 281/3/6 280/3/6 282/3/6
f 283/3/6 284/3/6 285/3/6
f 285/3/6 284/3/6 286/3/6
