# MagicaVoxel @ Ephtracy

# group
o 

# material
mtllib GreenCorall1.mtl
usemtl palette

# normals
vn -1 0 0
vn 1 0 0
vn 0 0 1
vn 0 0 -1
vn 0 -1 0
vn 0 1 0

# texcoords
vt 0.744141 0.5
vt 0.763672 0.5
vt 0.791016 0.5

# verts
v 0 2 0
v 0 2 -0.8
v 0 2.1 0
v 0 2.1 -0.4
v 0 2.1 -0.5
v 0 2.1 -0.8
v 0 2.2 0
v 0 2.2 -0.4
v 0 2.2 -0.5
v 0 2.2 -0.8
v 0.1 2.2 -0.6
v 0.1 2.2 -0.7
v 0.1 2.3 -0.6
v 0.1 2.3 -0.7
v 0.2 2.1 -0.1
v 0.2 2.1 -0.2
v 0.2 2.1 -0.3
v 0.2 2.1 -0.4
v 0.2 2.2 -0.1
v 0.2 2.2 -0.2
v 0.2 2.2 -0.3
v 0.2 2.2 -0.4
v 0.2 2.2 -0.5
v 0.2 2.2 -0.6
v 0.2 2.3 -0.2
v 0.2 2.3 -0.3
v 0.2 2.3 -0.5
v 0.2 2.3 -0.6
v 0.3 2.2 -0.1
v 0.3 2.2 -0.2
v 0.3 2.3 -0.1
v 0.3 2.3 -0.2
v 0.4 2.1 -0.2
v 0.4 2.1 -0.3
v 0.4 2.1 -0.4
v 0.4 2.1 -0.5
v 0.4 2.2 -0.2
v 0.4 2.2 -0.3
v 0.4 2.2 -0.4
v 0.4 2.2 -0.5
v 0.4 2.2 -0.6
v 0.4 2.2 -0.7
v 0.4 2.3 -0.4
v 0.4 2.3 -0.5
v 0.4 2.3 -0.6
v 0.4 2.3 -0.7
v 0.5 2.1 0
v 0.5 2.1 -0.1
v 0.5 2.1 -0.2
v 0.5 2.1 -0.3
v 0.5 2.1 -0.4
v 0.5 2.1 -0.7
v 0.5 2.1 -0.8
v 0.5 2.2 0
v 0.5 2.2 -0.1
v 0.5 2.2 -0.2
v 0.5 2.2 -0.3
v 0.5 2.2 -0.4
v 0.5 2.2 -0.5
v 0.5 2.2 -0.6
v 0.5 2.2 -0.7
v 0.5 2.2 -0.8
v 0.5 2.3 -0.2
v 0.5 2.3 -0.3
v 0.5 2.3 -0.5
v 0.5 2.3 -0.6
v 0.5 2.4 -0.5
v 0.5 2.4 -0.6
v 0.6 2.3 -0.6
v 0.6 2.3 -0.7
v 0.6 2.4 -0.6
v 0.6 2.4 -0.7
v 0.7 2.1 -0.1
v 0.7 2.1 -0.2
v 0.7 2.1 -0.3
v 0.7 2.1 -0.4
v 0.7 2.2 -0.1
v 0.7 2.2 -0.2
v 0.7 2.2 -0.3
v 0.7 2.2 -0.4
v 0.1 2.1 -0.1
v 0.1 2.1 -0.2
v 0.1 2.1 -0.3
v 0.1 2.1 -0.4
v 0.1 2.2 -0.1
v 0.1 2.2 -0.2
v 0.1 2.2 -0.3
v 0.1 2.2 -0.4
v 0.2 2.2 -0.6
v 0.2 2.2 -0.7
v 0.2 2.3 -0.6
v 0.2 2.3 -0.7
v 0.3 2.1 -0.2
v 0.3 2.1 -0.3
v 0.3 2.2 -0.3
v 0.3 2.2 -0.5
v 0.3 2.2 -0.6
v 0.3 2.3 -0.2
v 0.3 2.3 -0.3
v 0.3 2.3 -0.5
v 0.3 2.3 -0.6
v 0.4 2.1 0
v 0.4 2.1 -0.2
v 0.4 2.1 -0.3
v 0.4 2.1 -0.4
v 0.4 2.1 -0.7
v 0.4 2.1 -0.8
v 0.4 2.2 0
v 0.4 2.2 -0.1
v 0.4 2.2 -0.2
v 0.4 2.2 -0.3
v 0.4 2.2 -0.4
v 0.4 2.2 -0.7
v 0.4 2.2 -0.8
v 0.4 2.3 -0.1
v 0.4 2.3 -0.2
v 0.6 2.1 -0.1
v 0.6 2.1 -0.2
v 0.6 2.1 -0.3
v 0.6 2.1 -0.4
v 0.6 2.2 -0.1
v 0.6 2.2 -0.2
v 0.6 2.2 -0.3
v 0.6 2.2 -0.4
v 0.6 2.3 -0.2
v 0.6 2.3 -0.3
v 0.6 2.3 -0.5
v 0.6 2.3 -0.6
v 0.6 2.4 -0.5
v 0.6 2.4 -0.6
v 0.7 2.1 -0.4
v 0.7 2.1 -0.5
v 0.7 2.2 -0.4
v 0.7 2.2 -0.5
v 0.7 2.2 -0.7
v 0.7 2.3 -0.4
v 0.7 2.3 -0.6
v 0.7 2.3 -0.7
v 0.7 2.4 -0.6
v 0.7 2.4 -0.7
v 0.8 2 0
v 0.8 2 -0.8
v 0.8 2.1 0
v 0.8 2.1 -0.4
v 0.8 2.1 -0.5
v 0.8 2.1 -0.8
v 0.8 2.2 0
v 0.8 2.2 -0.4
v 0.8 2.2 -0.5
v 0.8 2.2 -0.8
v 0 2 0
v 0 2.1 0
v 0 2.2 0
v 0.4 2.1 0
v 0.4 2.2 0
v 0.5 2.1 0
v 0.5 2.2 0
v 0.8 2 0
v 0.8 2.1 0
v 0.8 2.2 0
v 0.3 2.2 -0.1
v 0.3 2.3 -0.1
v 0.4 2.2 -0.1
v 0.4 2.3 -0.1
v 0.1 2.1 -0.2
v 0.1 2.2 -0.2
v 0.2 2.1 -0.2
v 0.2 2.2 -0.2
v 0.2 2.3 -0.2
v 0.3 2.2 -0.2
v 0.3 2.3 -0.2
v 0.4 2.1 -0.2
v 0.4 2.2 -0.2
v 0.5 2.1 -0.2
v 0.5 2.2 -0.2
v 0.5 2.3 -0.2
v 0.6 2.1 -0.2
v 0.6 2.2 -0.2
v 0.6 2.3 -0.2
v 0.7 2.1 -0.2
v 0.7 2.2 -0.2
v 0.3 2.1 -0.3
v 0.3 2.2 -0.3
v 0.4 2.1 -0.3
v 0.4 2.2 -0.3
v 0.4 2.1 -0.4
v 0.4 2.2 -0.4
v 0.4 2.3 -0.4
v 0.5 2.1 -0.4
v 0.5 2.2 -0.4
v 0.5 2.3 -0.4
v 0.6 2.1 -0.4
v 0.6 2.2 -0.4
v 0.7 2.1 -0.4
v 0.7 2.2 -0.4
v 0.7 2.3 -0.4
v 0 2.1 -0.5
v 0 2.2 -0.5
v 0.2 2.2 -0.5
v 0.2 2.3 -0.5
v 0.3 2.2 -0.5
v 0.3 2.3 -0.5
v 0.4 2.1 -0.5
v 0.4 2.2 -0.5
v 0.5 2.3 -0.5
v 0.5 2.4 -0.5
v 0.6 2.3 -0.5
v 0.6 2.4 -0.5
v 0.7 2.1 -0.5
v 0.7 2.2 -0.5
v 0.8 2.1 -0.5
v 0.8 2.2 -0.5
v 0.1 2.2 -0.6
v 0.1 2.3 -0.6
v 0.2 2.2 -0.6
v 0.2 2.3 -0.6
v 0.4 2.2 -0.6
v 0.4 2.3 -0.6
v 0.5 2.2 -0.6
v 0.5 2.3 -0.6
v 0.6 2.3 -0.6
v 0.6 2.4 -0.6
v 0.7 2.3 -0.6
v 0.7 2.4 -0.6
v 0.1 2.1 -0.1
v 0.1 2.2 -0.1
v 0.2 2.1 -0.1
v 0.2 2.2 -0.1
v 0.6 2.1 -0.1
v 0.6 2.2 -0.1
v 0.7 2.1 -0.1
v 0.7 2.2 -0.1
v 0.3 2.1 -0.2
v 0.3 2.3 -0.2
v 0.4 2.1 -0.2
v 0.4 2.2 -0.2
v 0.4 2.3 -0.2
v 0.1 2.1 -0.3
v 0.1 2.2 -0.3
v 0.2 2.1 -0.3
v 0.2 2.2 -0.3
v 0.2 2.3 -0.3
v 0.3 2.2 -0.3
v 0.3 2.3 -0.3
v 0.4 2.1 -0.3
v 0.4 2.2 -0.3
v 0.5 2.1 -0.3
v 0.5 2.2 -0.3
v 0.5 2.3 -0.3
v 0.6 2.1 -0.3
v 0.6 2.2 -0.3
v 0.6 2.3 -0.3
v 0.7 2.1 -0.3
v 0.7 2.2 -0.3
v 0 2.1 -0.4
v 0 2.2 -0.4
v 0.1 2.1 -0.4
v 0.1 2.2 -0.4
v 0.2 2.1 -0.4
v 0.2 2.2 -0.4
v 0.4 2.1 -0.4
v 0.4 2.2 -0.4
v 0.7 2.1 -0.4
v 0.7 2.2 -0.4
v 0.8 2.1 -0.4
v 0.8 2.2 -0.4
v 0.4 2.2 -0.5
v 0.4 2.3 -0.5
v 0.5 2.2 -0.5
v 0.5 2.3 -0.5
v 0.2 2.2 -0.6
v 0.2 2.3 -0.6
v 0.3 2.2 -0.6
v 0.3 2.3 -0.6
v 0.5 2.3 -0.6
v 0.5 2.4 -0.6
v 0.6 2.3 -0.6
v 0.6 2.4 -0.6
v 0.1 2.2 -0.7
v 0.1 2.3 -0.7
v 0.2 2.2 -0.7
v 0.2 2.3 -0.7
v 0.4 2.1 -0.7
v 0.4 2.2 -0.7
v 0.4 2.3 -0.7
v 0.5 2.1 -0.7
v 0.5 2.2 -0.7
v 0.6 2.3 -0.7
v 0.6 2.4 -0.7
v 0.7 2.2 -0.7
v 0.7 2.3 -0.7
v 0.7 2.4 -0.7
v 0 2 -0.8
v 0 2.1 -0.8
v 0 2.2 -0.8
v 0.4 2.1 -0.8
v 0.4 2.2 -0.8
v 0.5 2.1 -0.8
v 0.5 2.2 -0.8
v 0.8 2 -0.8
v 0.8 2.1 -0.8
v 0.8 2.2 -0.8
v 0 2 0
v 0.8 2 0
v 0.1 2 -0.3
v 0.2 2 -0.3
v 0.6 2 -0.3
v 0.7 2 -0.3
v 0.1 2 -0.4
v 0.2 2 -0.4
v 0.6 2 -0.4
v 0.7 2 -0.4
v 0 2 -0.8
v 0.8 2 -0.8
v 0.4 2.1 0
v 0.5 2.1 0
v 0.1 2.1 -0.1
v 0.2 2.1 -0.1
v 0.5 2.1 -0.1
v 0.6 2.1 -0.1
v 0.7 2.1 -0.1
v 0.1 2.1 -0.2
v 0.2 2.1 -0.2
v 0.3 2.1 -0.2
v 0.4 2.1 -0.2
v 0.5 2.1 -0.2
v 0.6 2.1 -0.2
v 0.7 2.1 -0.2
v 0.1 2.1 -0.3
v 0.2 2.1 -0.3
v 0.3 2.1 -0.3
v 0.4 2.1 -0.3
v 0.5 2.1 -0.3
v 0.6 2.1 -0.3
v 0.7 2.1 -0.3
v 0 2.1 -0.4
v 0.1 2.1 -0.4
v 0.2 2.1 -0.4
v 0.4 2.1 -0.4
v 0.5 2.1 -0.4
v 0.6 2.1 -0.4
v 0.7 2.1 -0.4
v 0.8 2.1 -0.4
v 0 2.1 -0.5
v 0.4 2.1 -0.5
v 0.7 2.1 -0.5
v 0.8 2.1 -0.5
v 0.4 2.1 -0.7
v 0.5 2.1 -0.7
v 0.4 2.1 -0.8
v 0.5 2.1 -0.8
v 0 2.2 0
v 0.4 2.2 0
v 0.5 2.2 0
v 0.8 2.2 0
v 0.1 2.2 -0.1
v 0.2 2.2 -0.1
v 0.3 2.2 -0.1
v 0.4 2.2 -0.1
v 0.5 2.2 -0.1
v 0.6 2.2 -0.1
v 0.7 2.2 -0.1
v 0.1 2.2 -0.2
v 0.2 2.2 -0.2
v 0.3 2.2 -0.2
v 0.4 2.2 -0.2
v 0.5 2.2 -0.2
v 0.6 2.2 -0.2
v 0.7 2.2 -0.2
v 0.1 2.2 -0.3
v 0.2 2.2 -0.3
v 0.3 2.2 -0.3
v 0.4 2.2 -0.3
v 0.5 2.2 -0.3
v 0.6 2.2 -0.3
v 0.7 2.2 -0.3
v 0 2.2 -0.4
v 0.1 2.2 -0.4
v 0.2 2.2 -0.4
v 0.4 2.2 -0.4
v 0.5 2.2 -0.4
v 0.6 2.2 -0.4
v 0.7 2.2 -0.4
v 0.8 2.2 -0.4
v 0 2.2 -0.5
v 0.2 2.2 -0.5
v 0.3 2.2 -0.5
v 0.4 2.2 -0.5
v 0.5 2.2 -0.5
v 0.7 2.2 -0.5
v 0.8 2.2 -0.5
v 0.1 2.2 -0.6
v 0.2 2.2 -0.6
v 0.3 2.2 -0.6
v 0.4 2.2 -0.6
v 0.5 2.2 -0.6
v 0.1 2.2 -0.7
v 0.2 2.2 -0.7
v 0.4 2.2 -0.7
v 0.5 2.2 -0.7
v 0.7 2.2 -0.7
v 0 2.2 -0.8
v 0.4 2.2 -0.8
v 0.5 2.2 -0.8
v 0.8 2.2 -0.8
v 0.3 2.3 -0.1
v 0.4 2.3 -0.1
v 0.2 2.3 -0.2
v 0.3 2.3 -0.2
v 0.4 2.3 -0.2
v 0.5 2.3 -0.2
v 0.6 2.3 -0.2
v 0.2 2.3 -0.3
v 0.3 2.3 -0.3
v 0.5 2.3 -0.3
v 0.6 2.3 -0.3
v 0.4 2.3 -0.4
v 0.5 2.3 -0.4
v 0.7 2.3 -0.4
v 0.2 2.3 -0.5
v 0.3 2.3 -0.5
v 0.4 2.3 -0.5
v 0.5 2.3 -0.5
v 0.6 2.3 -0.5
v 0.1 2.3 -0.6
v 0.2 2.3 -0.6
v 0.3 2.3 -0.6
v 0.4 2.3 -0.6
v 0.5 2.3 -0.6
v 0.6 2.3 -0.6
v 0.7 2.3 -0.6
v 0.1 2.3 -0.7
v 0.2 2.3 -0.7
v 0.4 2.3 -0.7
v 0.6 2.3 -0.7
v 0.5 2.4 -0.5
v 0.6 2.4 -0.5
v 0.5 2.4 -0.6
v 0.6 2.4 -0.6
v 0.7 2.4 -0.6
v 0.6 2.4 -0.7
v 0.7 2.4 -0.7

# faces
f 3/1/1 2/1/1 1/1/1
f 4/1/1 2/1/1 3/1/1
f 5/1/1 2/1/1 4/1/1
f 6/1/1 2/1/1 5/1/1
f 7/3/1 4/3/1 3/3/1
f 8/3/1 4/3/1 7/3/1
f 9/3/1 6/3/1 5/3/1
f 10/3/1 6/3/1 9/3/1
f 13/2/1 12/2/1 11/2/1
f 14/2/1 12/2/1 13/2/1
f 19/3/1 16/3/1 15/3/1
f 20/3/1 16/3/1 19/3/1
f 21/3/1 18/3/1 17/3/1
f 22/3/1 18/3/1 21/3/1
f 25/3/1 21/3/1 20/3/1
f 26/3/1 21/3/1 25/3/1
f 27/3/1 24/3/1 23/3/1
f 28/3/1 24/3/1 27/3/1
f 31/3/1 30/3/1 29/3/1
f 32/3/1 30/3/1 31/3/1
f 37/3/1 34/3/1 33/3/1
f 38/3/1 34/3/1 37/3/1
f 39/3/1 36/3/1 35/3/1
f 40/3/1 36/3/1 39/3/1
f 43/2/1 40/2/1 39/2/1
f 44/2/1 40/2/1 43/2/1
f 45/3/1 42/3/1 41/3/1
f 46/3/1 42/3/1 45/3/1
f 54/3/1 48/3/1 47/3/1
f 55/2/1 49/2/1 48/2/1
f 55/3/1 48/3/1 54/3/1
f 56/2/1 49/2/1 55/2/1
f 57/3/1 51/3/1 50/3/1
f 58/3/1 51/3/1 57/3/1
f 61/3/1 53/3/1 52/3/1
f 62/3/1 53/3/1 61/3/1
f 63/3/1 57/3/1 56/3/1
f 64/3/1 57/3/1 63/3/1
f 65/3/1 60/3/1 59/3/1
f 66/3/1 60/3/1 65/3/1
f 67/3/1 66/3/1 65/3/1
f 68/3/1 66/3/1 67/3/1
f 71/2/1 70/2/1 69/2/1
f 72/2/1 70/2/1 71/2/1
f 77/3/1 74/3/1 73/3/1
f 78/3/1 74/3/1 77/3/1
f 79/3/1 76/3/1 75/3/1
f 80/3/1 76/3/1 79/3/1
f 81/3/2 82/3/2 85/3/2
f 85/3/2 82/3/2 86/3/2
f 83/3/2 84/3/2 87/3/2
f 87/3/2 84/3/2 88/3/2
f 89/2/2 90/2/2 91/2/2
f 91/2/2 90/2/2 92/2/2
f 93/3/2 94/3/2 95/3/2
f 93/3/2 95/3/2 98/3/2
f 98/3/2 95/3/2 99/3/2
f 96/3/2 97/3/2 100/3/2
f 100/3/2 97/3/2 101/3/2
f 102/3/2 103/3/2 108/3/2
f 108/3/2 103/3/2 109/3/2
f 109/3/2 103/3/2 110/3/2
f 104/3/2 105/3/2 111/3/2
f 111/3/2 105/3/2 112/3/2
f 106/3/2 107/3/2 113/3/2
f 113/3/2 107/3/2 114/3/2
f 109/3/2 110/3/2 115/3/2
f 115/3/2 110/3/2 116/3/2
f 117/2/2 118/2/2 121/2/2
f 121/2/2 118/2/2 122/2/2
f 119/3/2 120/3/2 123/3/2
f 123/3/2 120/3/2 124/3/2
f 122/3/2 123/3/2 125/3/2
f 125/3/2 123/3/2 126/3/2
f 127/3/2 128/3/2 129/3/2
f 129/3/2 128/3/2 130/3/2
f 131/3/2 132/3/2 133/3/2
f 133/3/2 132/3/2 134/3/2
f 133/3/2 134/3/2 136/3/2
f 134/3/2 135/3/2 136/3/2
f 136/3/2 135/3/2 137/3/2
f 137/3/2 135/3/2 138/3/2
f 137/2/2 138/2/2 139/2/2
f 139/2/2 138/2/2 140/2/2
f 141/1/2 142/1/2 143/1/2
f 143/1/2 142/1/2 144/1/2
f 144/1/2 142/1/2 145/1/2
f 145/1/2 142/1/2 146/1/2
f 143/3/2 144/3/2 147/3/2
f 147/3/2 144/3/2 148/3/2
f 145/3/2 146/3/2 149/3/2
f 149/3/2 146/3/2 150/3/2
f 154/1/3 152/1/3 151/1/3
f 154/3/3 153/3/3 152/3/3
f 155/3/3 153/3/3 154/3/3
f 156/1/3 154/1/3 151/1/3
f 158/1/3 156/1/3 151/1/3
f 159/3/3 157/3/3 156/3/3
f 159/1/3 156/1/3 158/1/3
f 160/3/3 157/3/3 159/3/3
f 163/3/3 162/3/3 161/3/3
f 164/3/3 162/3/3 163/3/3
f 167/3/3 166/3/3 165/3/3
f 168/3/3 166/3/3 167/3/3
f 170/3/3 169/3/3 168/3/3
f 171/3/3 169/3/3 170/3/3
f 174/3/3 173/3/3 172/3/3
f 175/3/3 173/3/3 174/3/3
f 178/3/3 176/3/3 175/3/3
f 179/3/3 176/3/3 178/3/3
f 180/3/3 178/3/3 177/3/3
f 181/3/3 178/3/3 180/3/3
f 184/3/3 183/3/3 182/3/3
f 185/3/3 183/3/3 184/3/3
f 189/3/3 187/3/3 186/3/3
f 190/2/3 188/2/3 187/2/3
f 190/3/3 187/3/3 189/3/3
f 191/2/3 188/2/3 190/2/3
f 193/3/3 191/3/3 190/3/3
f 194/3/3 193/3/3 192/3/3
f 195/3/3 191/3/3 193/3/3
f 195/3/3 193/3/3 194/3/3
f 196/3/3 191/3/3 195/3/3
f 199/3/3 198/3/3 197/3/3
f 201/3/3 199/3/3 197/3/3
f 201/3/3 200/3/3 199/3/3
f 202/3/3 200/3/3 201/3/3
f 203/3/3 201/3/3 197/3/3
f 204/3/3 201/3/3 203/3/3
f 207/3/3 206/3/3 205/3/3
f 208/3/3 206/3/3 207/3/3
f 211/3/3 210/3/3 209/3/3
f 212/3/3 210/3/3 211/3/3
f 215/2/3 214/2/3 213/2/3
f 216/2/3 214/2/3 215/2/3
f 219/3/3 218/3/3 217/3/3
f 220/3/3 218/3/3 219/3/3
f 223/2/3 222/2/3 221/2/3
f 224/2/3 222/2/3 223/2/3
f 225/3/4 226/3/4 227/3/4
f 227/3/4 226/3/4 228/3/4
f 229/3/4 230/3/4 231/3/4
f 231/3/4 230/3/4 232/3/4
f 233/3/4 234/3/4 235/3/4
f 235/3/4 234/3/4 236/3/4
f 236/3/4 234/3/4 237/3/4
f 238/3/4 239/3/4 240/3/4
f 240/3/4 239/3/4 241/3/4
f 241/3/4 242/3/4 243/3/4
f 243/3/4 242/3/4 244/3/4
f 245/3/4 246/3/4 247/3/4
f 247/3/4 246/3/4 248/3/4
f 248/3/4 249/3/4 251/3/4
f 251/3/4 249/3/4 252/3/4
f 250/3/4 251/3/4 253/3/4
f 253/3/4 251/3/4 254/3/4
f 255/3/4 256/3/4 257/3/4
f 257/3/4 256/3/4 258/3/4
f 259/3/4 260/3/4 261/3/4
f 261/3/4 260/3/4 262/3/4
f 263/3/4 264/3/4 265/3/4
f 265/3/4 264/3/4 266/3/4
f 267/2/4 268/2/4 269/2/4
f 269/2/4 268/2/4 270/2/4
f 271/3/4 272/3/4 273/3/4
f 273/3/4 272/3/4 274/3/4
f 275/3/4 276/3/4 277/3/4
f 277/3/4 276/3/4 278/3/4
f 279/2/4 280/2/4 281/2/4
f 281/2/4 280/2/4 282/2/4
f 283/3/4 284/3/4 286/3/4
f 284/3/4 285/3/4 286/3/4
f 286/3/4 285/3/4 287/3/4
f 287/3/4 285/3/4 288/3/4
f 287/3/4 288/3/4 290/3/4
f 288/2/4 289/2/4 291/2/4
f 290/3/4 288/3/4 291/3/4
f 291/2/4 289/2/4 292/2/4
f 293/1/4 294/1/4 296/1/4
f 294/3/4 295/3/4 296/3/4
f 296/3/4 295/3/4 297/3/4
f 293/1/4 296/1/4 298/1/4
f 293/1/4 298/1/4 300/1/4
f 298/3/4 299/3/4 301/3/4
f 300/1/4 298/1/4 301/1/4
f 301/3/4 299/3/4 302/3/4
f 305/1/5 304/1/5 303/1/5
f 306/1/5 304/1/5 305/1/5
f 307/1/5 304/1/5 306/1/5
f 308/1/5 304/1/5 307/1/5
f 309/1/5 305/1/5 303/1/5
f 309/2/5 306/2/5 305/2/5
f 310/1/5 307/1/5 306/1/5
f 310/2/5 306/2/5 309/2/5
f 311/2/5 308/2/5 307/2/5
f 311/1/5 307/1/5 310/1/5
f 312/1/5 304/1/5 308/1/5
f 312/2/5 308/2/5 311/2/5
f 313/1/5 311/1/5 310/1/5
f 313/1/5 310/1/5 309/1/5
f 313/1/5 312/1/5 311/1/5
f 313/1/5 309/1/5 303/1/5
f 314/1/5 304/1/5 312/1/5
f 314/1/5 312/1/5 313/1/5
f 315/1/6 316/1/6 319/1/6
f 317/1/6 318/1/6 322/1/6
f 322/1/6 318/1/6 323/1/6
f 315/1/6 319/1/6 325/1/6
f 325/1/6 319/1/6 326/1/6
f 320/1/6 321/1/6 327/1/6
f 327/1/6 321/1/6 328/1/6
f 324/1/6 325/1/6 331/1/6
f 331/1/6 325/1/6 332/1/6
f 329/2/6 330/2/6 337/2/6
f 337/2/6 330/2/6 338/2/6
f 332/1/6 333/1/6 339/1/6
f 339/1/6 333/1/6 340/1/6
f 334/2/6 335/2/6 341/2/6
f 341/2/6 335/2/6 342/2/6
f 337/1/6 338/1/6 344/1/6
f 338/1/6 339/1/6 344/1/6
f 336/1/6 337/1/6 344/1/6
f 344/1/6 339/1/6 345/1/6
f 342/1/6 343/1/6 346/1/6
f 346/1/6 343/1/6 347/1/6
f 348/1/6 349/1/6 350/1/6
f 350/1/6 349/1/6 351/1/6
f 352/3/6 353/3/6 356/3/6
f 356/3/6 353/3/6 357/3/6
f 357/3/6 353/3/6 358/3/6
f 358/3/6 353/3/6 359/3/6
f 354/3/6 355/3/6 360/3/6
f 360/3/6 355/3/6 361/3/6
f 361/3/6 355/3/6 362/3/6
f 352/3/6 356/3/6 363/3/6
f 357/3/6 358/3/6 364/3/6
f 364/3/6 358/3/6 365/3/6
f 360/2/6 361/2/6 367/2/6
f 367/2/6 361/2/6 368/2/6
f 362/3/6 355/3/6 369/3/6
f 352/3/6 363/3/6 370/3/6
f 363/3/6 364/3/6 370/3/6
f 370/3/6 364/3/6 371/3/6
f 366/3/6 367/3/6 373/3/6
f 373/3/6 367/3/6 374/3/6
f 368/3/6 369/3/6 375/3/6
f 369/3/6 355/3/6 376/3/6
f 375/3/6 369/3/6 376/3/6
f 352/3/6 370/3/6 377/3/6
f 377/3/6 370/3/6 378/3/6
f 371/3/6 372/3/6 379/3/6
f 372/3/6 373/3/6 379/3/6
f 379/3/6 373/3/6 380/3/6
f 374/3/6 375/3/6 381/3/6
f 381/3/6 375/3/6 382/3/6
f 376/3/6 355/3/6 383/3/6
f 383/3/6 355/3/6 384/3/6
f 385/3/6 386/3/6 392/3/6
f 392/3/6 386/3/6 393/3/6
f 387/3/6 388/3/6 394/3/6
f 388/3/6 389/3/6 394/3/6
f 394/3/6 389/3/6 395/3/6
f 395/3/6 389/3/6 396/3/6
f 385/3/6 392/3/6 397/3/6
f 394/3/6 395/3/6 398/3/6
f 393/3/6 394/3/6 398/3/6
f 398/3/6 395/3/6 399/3/6
f 390/3/6 391/3/6 401/3/6
f 398/3/6 399/3/6 402/3/6
f 397/3/6 398/3/6 402/3/6
f 385/3/6 397/3/6 402/3/6
f 402/3/6 399/3/6 403/3/6
f 400/3/6 401/3/6 404/3/6
f 401/3/6 391/3/6 405/3/6
f 404/3/6 401/3/6 405/3/6
f 406/3/6 407/3/6 409/3/6
f 409/3/6 407/3/6 410/3/6
f 408/3/6 409/3/6 413/3/6
f 413/3/6 409/3/6 414/3/6
f 411/3/6 412/3/6 415/3/6
f 415/3/6 412/3/6 416/3/6
f 417/2/6 418/2/6 422/2/6
f 418/3/6 419/3/6 423/3/6
f 422/2/6 418/2/6 423/2/6
f 423/3/6 419/3/6 424/3/6
f 420/3/6 421/3/6 426/3/6
f 426/3/6 421/3/6 427/3/6
f 424/3/6 419/3/6 430/3/6
f 430/3/6 419/3/6 431/3/6
f 425/2/6 426/2/6 432/2/6
f 432/2/6 426/2/6 433/2/6
f 428/3/6 429/3/6 434/3/6
f 429/3/6 430/3/6 434/3/6
f 434/3/6 430/3/6 435/3/6
f 436/3/6 437/3/6 438/3/6
f 438/3/6 437/3/6 439/3/6
f 439/2/6 440/2/6 441/2/6
f 441/2/6 440/2/6 442/2/6
