# MagicaVoxel @ Ephtracy

# group
o 

# material
mtllib GreenCorall7.mtl
usemtl palette

# normals
vn -1 0 0
vn 1 0 0
vn 0 0 1
vn 0 0 -1
vn 0 -1 0
vn 0 1 0

# texcoords
vt 0.744141 0.5
vt 0.763672 0.5
vt 0.791016 0.5

# verts
v 0 2 0
v 0 2 -0.8
v 0 2.1 0
v 0 2.1 -0.4
v 0 2.1 -0.5
v 0 2.1 -0.8
v 0 2.2 0
v 0 2.2 -0.4
v 0 2.2 -0.5
v 0 2.2 -0.8
v 0.1 2.1 -0.4
v 0.1 2.1 -0.5
v 0.1 2.2 0
v 0.1 2.2 -0.1
v 0.1 2.2 -0.2
v 0.1 2.2 -0.3
v 0.1 2.2 -0.4
v 0.1 2.2 -0.5
v 0.1 2.3 0
v 0.1 2.3 -0.1
v 0.1 2.3 -0.2
v 0.1 2.3 -0.3
v 0.1 2.4 -0.3
v 0.1 2.4 -0.4
v 0.2 2.1 -0.1
v 0.2 2.1 -0.2
v 0.2 2.1 -0.6
v 0.2 2.1 -0.7
v 0.2 2.2 -0.1
v 0.2 2.2 -0.2
v 0.2 2.2 -0.5
v 0.2 2.2 -0.6
v 0.2 2.2 -0.7
v 0.2 2.3 -0.5
v 0.2 2.3 -0.6
v 0.4 2.1 -0.3
v 0.4 2.1 -0.5
v 0.4 2.2 -0.3
v 0.4 2.2 -0.5
v 0.5 2.1 0
v 0.5 2.1 -0.1
v 0.5 2.1 -0.7
v 0.5 2.1 -0.8
v 0.5 2.2 0
v 0.5 2.2 -0.1
v 0.5 2.2 -0.7
v 0.5 2.3 -0.7
v 0.5 2.3 -0.8
v 0.7 2.1 -0.1
v 0.7 2.1 -0.2
v 0.7 2.1 -0.3
v 0.7 2.1 -0.4
v 0.7 2.1 -0.5
v 0.7 2.1 -0.7
v 0.7 2.2 -0.1
v 0.7 2.2 -0.4
v 0.7 2.2 -0.5
v 0.7 2.2 -0.7
v 0.1 2.1 -0.1
v 0.1 2.1 -0.2
v 0.1 2.1 -0.6
v 0.1 2.1 -0.7
v 0.1 2.2 -0.1
v 0.1 2.2 -0.2
v 0.1 2.2 -0.6
v 0.1 2.2 -0.7
v 0.2 2.2 -0.2
v 0.2 2.2 -0.3
v 0.2 2.2 -0.4
v 0.2 2.3 -0.2
v 0.2 2.3 -0.3
v 0.2 2.4 -0.3
v 0.2 2.4 -0.4
v 0.3 2.1 0
v 0.3 2.1 -0.1
v 0.3 2.1 -0.3
v 0.3 2.1 -0.5
v 0.3 2.1 -0.7
v 0.3 2.1 -0.8
v 0.3 2.2 -0.1
v 0.3 2.2 -0.3
v 0.3 2.2 -0.5
v 0.3 2.2 -0.6
v 0.3 2.2 -0.7
v 0.3 2.2 -0.8
v 0.3 2.3 0
v 0.3 2.3 -0.1
v 0.3 2.3 -0.5
v 0.3 2.3 -0.6
v 0.5 2.1 -0.5
v 0.5 2.1 -0.6
v 0.5 2.2 -0.5
v 0.5 2.2 -0.6
v 0.6 2.1 -0.1
v 0.6 2.1 -0.2
v 0.6 2.1 -0.3
v 0.6 2.1 -0.5
v 0.6 2.1 -0.6
v 0.6 2.1 -0.7
v 0.6 2.2 -0.1
v 0.6 2.2 -0.5
v 0.6 2.2 -0.6
v 0.6 2.2 -0.7
v 0.7 2 -0.2
v 0.7 2 -0.3
v 0.7 2.1 -0.2
v 0.7 2.1 -0.3
v 0.7 2.2 -0.7
v 0.7 2.2 -0.8
v 0.7 2.3 -0.7
v 0.7 2.3 -0.8
v 0.8 2 0
v 0.8 2 -0.2
v 0.8 2 -0.3
v 0.8 2 -0.8
v 0.8 2.1 0
v 0.8 2.1 -0.2
v 0.8 2.1 -0.3
v 0.8 2.1 -0.4
v 0.8 2.1 -0.5
v 0.8 2.1 -0.8
v 0.8 2.2 0
v 0.8 2.2 -0.4
v 0.8 2.2 -0.5
v 0.8 2.2 -0.8
v 0 2 0
v 0 2.1 0
v 0 2.2 0
v 0.1 2.2 0
v 0.1 2.3 0
v 0.3 2.1 0
v 0.3 2.3 0
v 0.5 2.1 0
v 0.5 2.2 0
v 0.8 2 0
v 0.8 2.1 0
v 0.8 2.2 0
v 0.3 2.1 -0.1
v 0.3 2.2 -0.1
v 0.5 2.1 -0.1
v 0.5 2.2 -0.1
v 0.1 2.1 -0.2
v 0.1 2.2 -0.2
v 0.1 2.3 -0.2
v 0.2 2.1 -0.2
v 0.2 2.2 -0.2
v 0.2 2.3 -0.2
v 0.1 2.3 -0.3
v 0.1 2.4 -0.3
v 0.2 2.3 -0.3
v 0.2 2.4 -0.3
v 0.7 2 -0.3
v 0.7 2.1 -0.3
v 0.8 2 -0.3
v 0.8 2.1 -0.3
v 0 2.1 -0.5
v 0 2.2 -0.5
v 0.1 2.1 -0.5
v 0.1 2.2 -0.5
v 0.2 2.2 -0.5
v 0.2 2.3 -0.5
v 0.3 2.1 -0.5
v 0.3 2.2 -0.5
v 0.3 2.3 -0.5
v 0.4 2.1 -0.5
v 0.4 2.2 -0.5
v 0.7 2.1 -0.5
v 0.7 2.2 -0.5
v 0.8 2.1 -0.5
v 0.8 2.2 -0.5
v 0.5 2.1 -0.6
v 0.5 2.2 -0.6
v 0.6 2.1 -0.6
v 0.6 2.2 -0.6
v 0.1 2.1 -0.7
v 0.1 2.2 -0.7
v 0.2 2.1 -0.7
v 0.2 2.2 -0.7
v 0.5 2.2 -0.7
v 0.5 2.3 -0.7
v 0.6 2.1 -0.7
v 0.6 2.2 -0.7
v 0.7 2.1 -0.7
v 0.7 2.2 -0.7
v 0.7 2.3 -0.7
v 0.1 2.1 -0.1
v 0.1 2.2 -0.1
v 0.1 2.3 -0.1
v 0.2 2.1 -0.1
v 0.2 2.2 -0.1
v 0.3 2.2 -0.1
v 0.3 2.3 -0.1
v 0.6 2.1 -0.1
v 0.6 2.2 -0.1
v 0.7 2.1 -0.1
v 0.7 2.2 -0.1
v 0.7 2 -0.2
v 0.7 2.1 -0.2
v 0.8 2 -0.2
v 0.8 2.1 -0.2
v 0.3 2.1 -0.3
v 0.3 2.2 -0.3
v 0.4 2.1 -0.3
v 0.4 2.2 -0.3
v 0 2.1 -0.4
v 0 2.2 -0.4
v 0.1 2.1 -0.4
v 0.1 2.2 -0.4
v 0.1 2.4 -0.4
v 0.2 2.2 -0.4
v 0.2 2.4 -0.4
v 0.7 2.1 -0.4
v 0.7 2.2 -0.4
v 0.8 2.1 -0.4
v 0.8 2.2 -0.4
v 0.5 2.1 -0.5
v 0.5 2.2 -0.5
v 0.6 2.1 -0.5
v 0.6 2.2 -0.5
v 0.1 2.1 -0.6
v 0.1 2.2 -0.6
v 0.2 2.1 -0.6
v 0.2 2.2 -0.6
v 0.2 2.3 -0.6
v 0.3 2.2 -0.6
v 0.3 2.3 -0.6
v 0.3 2.1 -0.7
v 0.3 2.2 -0.7
v 0.5 2.1 -0.7
v 0.5 2.2 -0.7
v 0 2 -0.8
v 0 2.1 -0.8
v 0 2.2 -0.8
v 0.3 2.1 -0.8
v 0.3 2.2 -0.8
v 0.5 2.1 -0.8
v 0.5 2.3 -0.8
v 0.7 2.2 -0.8
v 0.7 2.3 -0.8
v 0.8 2 -0.8
v 0.8 2.1 -0.8
v 0.8 2.2 -0.8
v 0 2 0
v 0.8 2 0
v 0.6 2 -0.1
v 0.7 2 -0.1
v 0.3 2 -0.2
v 0.4 2 -0.2
v 0.5 2 -0.2
v 0.6 2 -0.2
v 0.7 2 -0.2
v 0.8 2 -0.2
v 0.1 2 -0.3
v 0.2 2 -0.3
v 0.5 2 -0.3
v 0.7 2 -0.3
v 0.8 2 -0.3
v 0.1 2 -0.4
v 0.2 2 -0.4
v 0.4 2 -0.4
v 0.5 2 -0.4
v 0.1 2 -0.5
v 0.3 2 -0.5
v 0.4 2 -0.5
v 0.5 2 -0.5
v 0.6 2 -0.5
v 0.4 2 -0.6
v 0.5 2 -0.6
v 0.6 2 -0.6
v 0.1 2 -0.7
v 0.3 2 -0.7
v 0 2 -0.8
v 0.8 2 -0.8
v 0.7 2.1 -0.2
v 0.8 2.1 -0.2
v 0.7 2.1 -0.3
v 0.8 2.1 -0.3
v 0.3 2.1 0
v 0.5 2.1 0
v 0.1 2.1 -0.1
v 0.2 2.1 -0.1
v 0.3 2.1 -0.1
v 0.5 2.1 -0.1
v 0.6 2.1 -0.1
v 0.7 2.1 -0.1
v 0.1 2.1 -0.2
v 0.2 2.1 -0.2
v 0.6 2.1 -0.2
v 0.7 2.1 -0.2
v 0.3 2.1 -0.3
v 0.4 2.1 -0.3
v 0.6 2.1 -0.3
v 0.7 2.1 -0.3
v 0 2.1 -0.4
v 0.1 2.1 -0.4
v 0.7 2.1 -0.4
v 0.8 2.1 -0.4
v 0 2.1 -0.5
v 0.1 2.1 -0.5
v 0.3 2.1 -0.5
v 0.4 2.1 -0.5
v 0.5 2.1 -0.5
v 0.6 2.1 -0.5
v 0.7 2.1 -0.5
v 0.8 2.1 -0.5
v 0.1 2.1 -0.6
v 0.2 2.1 -0.6
v 0.5 2.1 -0.6
v 0.6 2.1 -0.6
v 0.1 2.1 -0.7
v 0.2 2.1 -0.7
v 0.3 2.1 -0.7
v 0.5 2.1 -0.7
v 0.6 2.1 -0.7
v 0.7 2.1 -0.7
v 0.3 2.1 -0.8
v 0.5 2.1 -0.8
v 0 2.2 0
v 0.1 2.2 0
v 0.5 2.2 0
v 0.8 2.2 0
v 0.1 2.2 -0.1
v 0.2 2.2 -0.1
v 0.3 2.2 -0.1
v 0.5 2.2 -0.1
v 0.6 2.2 -0.1
v 0.7 2.2 -0.1
v 0.1 2.2 -0.2
v 0.2 2.2 -0.2
v 0.1 2.2 -0.3
v 0.2 2.2 -0.3
v 0.3 2.2 -0.3
v 0.4 2.2 -0.3
v 0 2.2 -0.4
v 0.1 2.2 -0.4
v 0.2 2.2 -0.4
v 0.7 2.2 -0.4
v 0.8 2.2 -0.4
v 0 2.2 -0.5
v 0.1 2.2 -0.5
v 0.2 2.2 -0.5
v 0.3 2.2 -0.5
v 0.4 2.2 -0.5
v 0.5 2.2 -0.5
v 0.6 2.2 -0.5
v 0.7 2.2 -0.5
v 0.8 2.2 -0.5
v 0.1 2.2 -0.6
v 0.2 2.2 -0.6
v 0.3 2.2 -0.6
v 0.5 2.2 -0.6
v 0.6 2.2 -0.6
v 0.1 2.2 -0.7
v 0.2 2.2 -0.7
v 0.3 2.2 -0.7
v 0.5 2.2 -0.7
v 0.6 2.2 -0.7
v 0.7 2.2 -0.7
v 0 2.2 -0.8
v 0.3 2.2 -0.8
v 0.7 2.2 -0.8
v 0.8 2.2 -0.8
v 0.1 2.3 0
v 0.3 2.3 0
v 0.1 2.3 -0.1
v 0.3 2.3 -0.1
v 0.1 2.3 -0.2
v 0.2 2.3 -0.2
v 0.1 2.3 -0.3
v 0.2 2.3 -0.3
v 0.2 2.3 -0.5
v 0.3 2.3 -0.5
v 0.2 2.3 -0.6
v 0.3 2.3 -0.6
v 0.5 2.3 -0.7
v 0.7 2.3 -0.7
v 0.5 2.3 -0.8
v 0.7 2.3 -0.8
v 0.1 2.4 -0.3
v 0.2 2.4 -0.3
v 0.1 2.4 -0.4
v 0.2 2.4 -0.4

# faces
f 3/1/1 2/1/1 1/1/1
f 4/1/1 2/1/1 3/1/1
f 5/1/1 2/1/1 4/1/1
f 6/1/1 2/1/1 5/1/1
f 7/3/1 4/3/1 3/3/1
f 8/3/1 4/3/1 7/3/1
f 9/3/1 6/3/1 5/3/1
f 10/3/1 6/3/1 9/3/1
f 17/3/1 12/3/1 11/3/1
f 18/3/1 12/3/1 17/3/1
f 19/3/1 14/3/1 13/3/1
f 20/3/1 14/3/1 19/3/1
f 21/2/1 16/2/1 15/2/1
f 22/3/1 17/3/1 16/3/1
f 22/2/1 16/2/1 21/2/1
f 23/3/1 17/3/1 22/3/1
f 24/3/1 17/3/1 23/3/1
f 29/3/1 26/3/1 25/3/1
f 30/3/1 26/3/1 29/3/1
f 32/3/1 28/3/1 27/3/1
f 33/3/1 28/3/1 32/3/1
f 34/2/1 32/2/1 31/2/1
f 35/2/1 32/2/1 34/2/1
f 38/3/1 37/3/1 36/3/1
f 39/3/1 37/3/1 38/3/1
f 44/3/1 41/3/1 40/3/1
f 45/3/1 41/3/1 44/3/1
f 46/3/1 43/3/1 42/3/1
f 47/3/1 43/3/1 46/3/1
f 48/3/1 43/3/1 47/3/1
f 55/3/1 50/3/1 49/3/1
f 55/3/1 51/3/1 50/3/1
f 55/3/1 52/3/1 51/3/1
f 56/3/1 52/3/1 55/3/1
f 57/3/1 54/3/1 53/3/1
f 58/3/1 54/3/1 57/3/1
f 59/3/2 60/3/2 63/3/2
f 63/3/2 60/3/2 64/3/2
f 61/3/2 62/3/2 65/3/2
f 65/3/2 62/3/2 66/3/2
f 67/2/2 68/2/2 70/2/2
f 68/3/2 69/3/2 71/3/2
f 70/2/2 68/2/2 71/2/2
f 71/3/2 69/3/2 72/3/2
f 72/3/2 69/3/2 73/3/2
f 74/3/2 75/3/2 80/3/2
f 76/3/2 77/3/2 81/3/2
f 81/3/2 77/3/2 82/3/2
f 78/3/2 79/3/2 84/3/2
f 84/3/2 79/3/2 85/3/2
f 74/3/2 80/3/2 86/3/2
f 86/3/2 80/3/2 87/3/2
f 82/2/2 83/2/2 88/2/2
f 88/2/2 83/2/2 89/2/2
f 90/3/2 91/3/2 92/3/2
f 92/3/2 91/3/2 93/3/2
f 94/3/2 95/3/2 100/3/2
f 95/3/2 96/3/2 100/3/2
f 96/3/2 97/3/2 100/3/2
f 100/3/2 97/3/2 101/3/2
f 98/3/2 99/3/2 102/3/2
f 102/3/2 99/3/2 103/3/2
f 104/3/2 105/3/2 106/3/2
f 106/3/2 105/3/2 107/3/2
f 108/3/2 109/3/2 110/3/2
f 110/3/2 109/3/2 111/3/2
f 112/1/2 113/1/2 116/1/2
f 116/1/2 113/1/2 117/1/2
f 114/1/2 115/1/2 118/1/2
f 118/1/2 115/1/2 119/1/2
f 119/1/2 115/1/2 120/1/2
f 120/1/2 115/1/2 121/1/2
f 116/3/2 117/3/2 122/3/2
f 117/3/2 118/3/2 122/3/2
f 118/3/2 119/3/2 122/3/2
f 122/3/2 119/3/2 123/3/2
f 120/3/2 121/3/2 124/3/2
f 124/3/2 121/3/2 125/3/2
f 129/3/3 128/3/3 127/3/3
f 131/1/3 127/1/3 126/1/3
f 131/3/3 130/3/3 129/3/3
f 131/3/3 129/3/3 127/3/3
f 132/3/3 130/3/3 131/3/3
f 133/1/3 131/1/3 126/1/3
f 135/1/3 133/1/3 126/1/3
f 136/3/3 134/3/3 133/3/3
f 136/1/3 133/1/3 135/1/3
f 137/3/3 134/3/3 136/3/3
f 140/3/3 139/3/3 138/3/3
f 141/3/3 139/3/3 140/3/3
f 145/3/3 143/3/3 142/3/3
f 146/2/3 144/2/3 143/2/3
f 146/3/3 143/3/3 145/3/3
f 147/2/3 144/2/3 146/2/3
f 150/3/3 149/3/3 148/3/3
f 151/3/3 149/3/3 150/3/3
f 154/1/3 153/1/3 152/1/3
f 155/1/3 153/1/3 154/1/3
f 158/3/3 157/3/3 156/3/3
f 159/3/3 157/3/3 158/3/3
f 163/2/3 161/2/3 160/2/3
f 164/2/3 161/2/3 163/2/3
f 165/3/3 163/3/3 162/3/3
f 166/3/3 163/3/3 165/3/3
f 169/3/3 168/3/3 167/3/3
f 170/3/3 168/3/3 169/3/3
f 173/3/3 172/3/3 171/3/3
f 174/3/3 172/3/3 173/3/3
f 177/3/3 176/3/3 175/3/3
f 178/3/3 176/3/3 177/3/3
f 182/3/3 180/3/3 179/3/3
f 183/3/3 182/3/3 181/3/3
f 184/3/3 180/3/3 182/3/3
f 184/3/3 182/3/3 183/3/3
f 185/3/3 180/3/3 184/3/3
f 186/3/4 187/3/4 189/3/4
f 187/3/4 188/3/4 189/3/4
f 189/3/4 188/3/4 190/3/4
f 190/3/4 188/3/4 191/3/4
f 191/3/4 188/3/4 192/3/4
f 193/3/4 194/3/4 195/3/4
f 195/3/4 194/3/4 196/3/4
f 197/1/4 198/1/4 199/1/4
f 199/1/4 198/1/4 200/1/4
f 201/3/4 202/3/4 203/3/4
f 203/3/4 202/3/4 204/3/4
f 205/3/4 206/3/4 207/3/4
f 207/3/4 206/3/4 208/3/4
f 208/3/4 209/3/4 210/3/4
f 210/3/4 209/3/4 211/3/4
f 212/3/4 213/3/4 214/3/4
f 214/3/4 213/3/4 215/3/4
f 216/3/4 217/3/4 218/3/4
f 218/3/4 217/3/4 219/3/4
f 220/3/4 221/3/4 222/3/4
f 222/3/4 221/3/4 223/3/4
f 223/2/4 224/2/4 225/2/4
f 225/2/4 224/2/4 226/2/4
f 227/3/4 228/3/4 229/3/4
f 229/3/4 228/3/4 230/3/4
f 231/1/4 232/1/4 234/1/4
f 232/3/4 233/3/4 234/3/4
f 234/3/4 233/3/4 235/3/4
f 231/1/4 234/1/4 236/1/4
f 236/3/4 237/3/4 238/3/4
f 238/3/4 237/3/4 239/3/4
f 231/1/4 236/1/4 240/1/4
f 236/3/4 238/3/4 241/3/4
f 240/1/4 236/1/4 241/1/4
f 241/3/4 238/3/4 242/3/4
f 245/1/5 244/1/5 243/1/5
f 246/1/5 244/1/5 245/1/5
f 247/1/5 245/1/5 243/1/5
f 248/1/5 245/1/5 247/1/5
f 249/1/5 245/1/5 248/1/5
f 250/2/5 246/2/5 245/2/5
f 250/1/5 245/1/5 249/1/5
f 251/1/5 244/1/5 246/1/5
f 251/2/5 246/2/5 250/2/5
f 252/1/5 244/1/5 251/1/5
f 253/1/5 247/1/5 243/1/5
f 254/1/5 247/1/5 253/1/5
f 255/3/5 250/3/5 249/3/5
f 255/1/5 249/1/5 248/1/5
f 255/3/5 251/3/5 250/3/5
f 256/3/5 251/3/5 255/3/5
f 258/3/5 254/3/5 253/3/5
f 258/1/5 253/1/5 243/1/5
f 259/1/5 247/1/5 254/1/5
f 259/3/5 254/3/5 258/3/5
f 260/1/5 257/1/5 256/1/5
f 260/3/5 248/3/5 247/3/5
f 260/1/5 256/1/5 255/1/5
f 260/1/5 255/1/5 248/1/5
f 261/1/5 257/1/5 260/1/5
f 262/1/5 258/1/5 243/1/5
f 262/1/5 259/1/5 258/1/5
f 263/1/5 247/1/5 259/1/5
f 263/1/5 259/1/5 262/1/5
f 263/3/5 261/3/5 260/3/5
f 263/3/5 260/3/5 247/3/5
f 264/3/5 261/3/5 263/3/5
f 265/1/5 257/1/5 261/1/5
f 265/3/5 261/3/5 264/3/5
f 266/1/5 257/1/5 265/1/5
f 267/1/5 264/1/5 263/1/5
f 267/3/5 265/3/5 264/3/5
f 268/2/5 266/2/5 265/2/5
f 268/3/5 265/3/5 267/3/5
f 269/1/5 257/1/5 266/1/5
f 269/2/5 266/2/5 268/2/5
f 270/1/5 262/1/5 243/1/5
f 270/3/5 263/3/5 262/3/5
f 271/1/5 268/1/5 267/1/5
f 271/3/5 263/3/5 270/3/5
f 271/1/5 269/1/5 268/1/5
f 271/1/5 267/1/5 263/1/5
f 272/1/5 270/1/5 243/1/5
f 272/1/5 271/1/5 270/1/5
f 273/1/5 269/1/5 271/1/5
f 273/1/5 271/1/5 272/1/5
f 273/1/5 257/1/5 269/1/5
f 276/3/5 275/3/5 274/3/5
f 277/3/5 275/3/5 276/3/5
f 278/1/6 279/1/6 282/1/6
f 282/1/6 279/1/6 283/1/6
f 280/1/6 281/1/6 286/1/6
f 286/1/6 281/1/6 287/1/6
f 284/2/6 285/2/6 288/2/6
f 288/2/6 285/2/6 289/2/6
f 288/3/6 289/3/6 292/3/6
f 292/3/6 289/3/6 293/3/6
f 292/1/6 293/1/6 296/1/6
f 294/1/6 295/1/6 298/1/6
f 298/1/6 295/1/6 299/1/6
f 290/3/6 291/3/6 300/3/6
f 300/3/6 291/3/6 301/3/6
f 292/1/6 296/1/6 303/1/6
f 296/1/6 297/1/6 303/1/6
f 303/1/6 297/1/6 304/1/6
f 304/1/6 297/1/6 305/1/6
f 302/2/6 303/2/6 308/2/6
f 303/1/6 304/1/6 309/1/6
f 308/2/6 303/2/6 309/2/6
f 306/3/6 307/3/6 310/3/6
f 310/3/6 307/3/6 311/3/6
f 309/1/6 304/1/6 314/1/6
f 314/1/6 304/1/6 315/1/6
f 312/1/6 313/1/6 316/1/6
f 316/1/6 313/1/6 317/1/6
f 318/3/6 319/3/6 322/3/6
f 320/3/6 321/3/6 325/3/6
f 325/3/6 321/3/6 326/3/6
f 326/3/6 321/3/6 327/3/6
f 318/3/6 322/3/6 328/3/6
f 323/3/6 324/3/6 329/3/6
f 324/3/6 325/3/6 329/3/6
f 325/3/6 326/3/6 329/3/6
f 318/3/6 328/3/6 330/3/6
f 329/3/6 326/3/6 331/3/6
f 331/3/6 326/3/6 332/3/6
f 332/3/6 326/3/6 333/3/6
f 318/3/6 330/3/6 334/3/6
f 334/3/6 330/3/6 335/3/6
f 331/3/6 332/3/6 336/3/6
f 327/3/6 321/3/6 337/3/6
f 337/3/6 321/3/6 338/3/6
f 335/3/6 336/3/6 340/3/6
f 336/3/6 332/3/6 341/3/6
f 340/3/6 336/3/6 341/3/6
f 341/3/6 332/3/6 342/3/6
f 333/3/6 326/3/6 343/3/6
f 343/3/6 326/3/6 344/3/6
f 344/3/6 326/3/6 345/3/6
f 339/3/6 340/3/6 348/3/6
f 340/3/6 341/3/6 348/3/6
f 348/3/6 341/3/6 349/3/6
f 343/3/6 344/3/6 350/3/6
f 342/3/6 343/3/6 350/3/6
f 350/3/6 344/3/6 351/3/6
f 339/3/6 348/3/6 353/3/6
f 351/3/6 352/3/6 354/3/6
f 350/3/6 351/3/6 354/3/6
f 349/3/6 350/3/6 354/3/6
f 354/3/6 352/3/6 355/3/6
f 355/3/6 352/3/6 356/3/6
f 356/3/6 352/3/6 357/3/6
f 346/3/6 347/3/6 358/3/6
f 339/3/6 353/3/6 359/3/6
f 353/3/6 354/3/6 359/3/6
f 354/3/6 355/3/6 359/3/6
f 359/3/6 355/3/6 360/3/6
f 358/3/6 347/3/6 361/3/6
f 361/3/6 347/3/6 362/3/6
f 363/3/6 364/3/6 365/3/6
f 365/3/6 364/3/6 366/3/6
f 367/2/6 368/2/6 369/2/6
f 369/2/6 368/2/6 370/2/6
f 371/2/6 372/2/6 373/2/6
f 373/2/6 372/2/6 374/2/6
f 375/3/6 376/3/6 377/3/6
f 377/3/6 376/3/6 378/3/6
f 379/3/6 380/3/6 381/3/6
f 381/3/6 380/3/6 382/3/6
