# MagicaVoxel @ Ephtracy

# group
o 

# material
mtllib GreenCorall6.mtl
usemtl palette

# normals
vn -1 0 0
vn 1 0 0
vn 0 0 1
vn 0 0 -1
vn 0 -1 0
vn 0 1 0

# texcoords
vt 0.744141 0.5
vt 0.763672 0.5
vt 0.791016 0.5

# verts
v 0 2 0
v 0 2 -0.8
v 0 2.1 0
v 0 2.1 -0.4
v 0 2.1 -0.5
v 0 2.1 -0.8
v 0 2.2 0
v 0 2.2 -0.4
v 0 2.2 -0.5
v 0 2.2 -0.8
v 0.1 2.1 -0.4
v 0.1 2.1 -0.5
v 0.1 2.2 0
v 0.1 2.2 -0.1
v 0.1 2.2 -0.2
v 0.1 2.2 -0.4
v 0.1 2.2 -0.5
v 0.1 2.3 0
v 0.1 2.3 -0.1
v 0.1 2.3 -0.2
v 0.1 2.3 -0.3
v 0.1 2.4 -0.3
v 0.1 2.4 -0.4
v 0.2 2.1 -0.1
v 0.2 2.1 -0.2
v 0.2 2.1 -0.6
v 0.2 2.1 -0.7
v 0.2 2.2 -0.1
v 0.2 2.2 -0.2
v 0.2 2.2 -0.5
v 0.2 2.2 -0.6
v 0.2 2.2 -0.7
v 0.2 2.3 -0.5
v 0.2 2.3 -0.6
v 0.3 2.2 -0.1
v 0.3 2.2 -0.2
v 0.3 2.2 -0.3
v 0.3 2.2 -0.5
v 0.3 2.3 -0.1
v 0.3 2.3 -0.2
v 0.3 2.3 -0.3
v 0.3 2.3 -0.4
v 0.3 2.3 -0.5
v 0.3 2.4 -0.4
v 0.3 2.4 -0.5
v 0.4 2.2 -0.2
v 0.4 2.2 -0.3
v 0.4 2.3 -0.2
v 0.4 2.3 -0.3
v 0.4 2.4 -0.2
v 0.4 2.4 -0.3
v 0.5 2.1 0
v 0.5 2.1 -0.1
v 0.5 2.1 -0.7
v 0.5 2.1 -0.8
v 0.5 2.2 0
v 0.5 2.2 -0.1
v 0.5 2.2 -0.5
v 0.5 2.2 -0.6
v 0.5 2.2 -0.7
v 0.5 2.3 -0.5
v 0.5 2.3 -0.6
v 0.5 2.3 -0.7
v 0.5 2.3 -0.8
v 0.7 2.1 -0.1
v 0.7 2.1 -0.2
v 0.7 2.1 -0.3
v 0.7 2.1 -0.4
v 0.7 2.1 -0.5
v 0.7 2.1 -0.7
v 0.7 2.2 -0.1
v 0.7 2.2 -0.4
v 0.7 2.2 -0.5
v 0.7 2.2 -0.7
v 0.1 2.1 -0.1
v 0.1 2.1 -0.2
v 0.1 2.1 -0.6
v 0.1 2.1 -0.7
v 0.1 2.2 -0.1
v 0.1 2.2 -0.2
v 0.1 2.2 -0.6
v 0.1 2.2 -0.7
v 0.2 2.2 -0.2
v 0.2 2.2 -0.4
v 0.2 2.3 -0.2
v 0.2 2.3 -0.3
v 0.2 2.4 -0.3
v 0.2 2.4 -0.4
v 0.3 2.1 0
v 0.3 2.1 -0.1
v 0.3 2.1 -0.7
v 0.3 2.1 -0.8
v 0.3 2.2 -0.5
v 0.3 2.2 -0.6
v 0.3 2.2 -0.7
v 0.3 2.2 -0.8
v 0.3 2.3 0
v 0.3 2.3 -0.1
v 0.3 2.3 -0.5
v 0.3 2.3 -0.6
v 0.4 2.2 -0.1
v 0.4 2.2 -0.2
v 0.4 2.3 -0.1
v 0.4 2.3 -0.2
v 0.4 2.3 -0.4
v 0.4 2.3 -0.5
v 0.4 2.4 -0.4
v 0.4 2.4 -0.5
v 0.5 2.2 -0.2
v 0.5 2.2 -0.5
v 0.5 2.3 -0.3
v 0.5 2.3 -0.5
v 0.5 2.4 -0.2
v 0.5 2.4 -0.3
v 0.6 2.1 -0.1
v 0.6 2.1 -0.2
v 0.6 2.1 -0.3
v 0.6 2.1 -0.4
v 0.6 2.1 -0.5
v 0.6 2.1 -0.7
v 0.6 2.2 -0.1
v 0.6 2.2 -0.4
v 0.6 2.2 -0.5
v 0.6 2.2 -0.6
v 0.6 2.2 -0.7
v 0.6 2.3 -0.5
v 0.6 2.3 -0.6
v 0.7 2 -0.2
v 0.7 2 -0.3
v 0.7 2.1 -0.2
v 0.7 2.1 -0.3
v 0.7 2.1 -0.4
v 0.7 2.1 -0.5
v 0.7 2.2 -0.4
v 0.7 2.2 -0.5
v 0.7 2.2 -0.7
v 0.7 2.2 -0.8
v 0.7 2.3 -0.7
v 0.7 2.3 -0.8
v 0.8 2 0
v 0.8 2 -0.2
v 0.8 2 -0.3
v 0.8 2 -0.8
v 0.8 2.1 0
v 0.8 2.1 -0.2
v 0.8 2.1 -0.3
v 0.8 2.1 -0.4
v 0.8 2.1 -0.5
v 0.8 2.1 -0.8
v 0.8 2.2 0
v 0.8 2.2 -0.4
v 0.8 2.2 -0.5
v 0.8 2.2 -0.8
v 0 2 0
v 0 2.1 0
v 0 2.2 0
v 0.1 2.2 0
v 0.1 2.3 0
v 0.3 2.1 0
v 0.3 2.3 0
v 0.5 2.1 0
v 0.5 2.2 0
v 0.8 2 0
v 0.8 2.1 0
v 0.8 2.2 0
v 0.3 2.1 -0.1
v 0.3 2.3 -0.1
v 0.4 2.2 -0.1
v 0.4 2.3 -0.1
v 0.5 2.1 -0.1
v 0.5 2.2 -0.1
v 0.1 2.1 -0.2
v 0.1 2.2 -0.2
v 0.1 2.3 -0.2
v 0.2 2.1 -0.2
v 0.2 2.2 -0.2
v 0.2 2.3 -0.2
v 0.4 2.2 -0.2
v 0.4 2.3 -0.2
v 0.4 2.4 -0.2
v 0.5 2.2 -0.2
v 0.5 2.4 -0.2
v 0.1 2.3 -0.3
v 0.1 2.4 -0.3
v 0.2 2.3 -0.3
v 0.2 2.4 -0.3
v 0.3 2.2 -0.3
v 0.3 2.3 -0.3
v 0.4 2.2 -0.3
v 0.4 2.3 -0.3
v 0.7 2 -0.3
v 0.7 2.1 -0.3
v 0.8 2 -0.3
v 0.8 2.1 -0.3
v 0.3 2.3 -0.4
v 0.3 2.4 -0.4
v 0.4 2.3 -0.4
v 0.4 2.4 -0.4
v 0.6 2.1 -0.4
v 0.6 2.2 -0.4
v 0.7 2.1 -0.4
v 0.7 2.2 -0.4
v 0 2.1 -0.5
v 0 2.2 -0.5
v 0.1 2.1 -0.5
v 0.1 2.2 -0.5
v 0.2 2.2 -0.5
v 0.2 2.3 -0.5
v 0.3 2.2 -0.5
v 0.3 2.3 -0.5
v 0.5 2.2 -0.5
v 0.5 2.3 -0.5
v 0.6 2.2 -0.5
v 0.6 2.3 -0.5
v 0.7 2.1 -0.5
v 0.7 2.2 -0.5
v 0.8 2.1 -0.5
v 0.8 2.2 -0.5
v 0.1 2.1 -0.7
v 0.1 2.2 -0.7
v 0.2 2.1 -0.7
v 0.2 2.2 -0.7
v 0.5 2.2 -0.7
v 0.5 2.3 -0.7
v 0.6 2.1 -0.7
v 0.6 2.2 -0.7
v 0.7 2.1 -0.7
v 0.7 2.2 -0.7
v 0.7 2.3 -0.7
v 0.1 2.1 -0.1
v 0.1 2.2 -0.1
v 0.1 2.3 -0.1
v 0.2 2.1 -0.1
v 0.2 2.2 -0.1
v 0.3 2.2 -0.1
v 0.3 2.3 -0.1
v 0.6 2.1 -0.1
v 0.6 2.2 -0.1
v 0.7 2.1 -0.1
v 0.7 2.2 -0.1
v 0.3 2.2 -0.2
v 0.3 2.3 -0.2
v 0.4 2.2 -0.2
v 0.4 2.3 -0.2
v 0.7 2 -0.2
v 0.7 2.1 -0.2
v 0.8 2 -0.2
v 0.8 2.1 -0.2
v 0.4 2.3 -0.3
v 0.4 2.4 -0.3
v 0.5 2.3 -0.3
v 0.5 2.4 -0.3
v 0 2.1 -0.4
v 0 2.2 -0.4
v 0.1 2.1 -0.4
v 0.1 2.2 -0.4
v 0.1 2.4 -0.4
v 0.2 2.2 -0.4
v 0.2 2.4 -0.4
v 0.7 2.1 -0.4
v 0.7 2.2 -0.4
v 0.8 2.1 -0.4
v 0.8 2.2 -0.4
v 0.3 2.2 -0.5
v 0.3 2.3 -0.5
v 0.3 2.4 -0.5
v 0.4 2.3 -0.5
v 0.4 2.4 -0.5
v 0.5 2.2 -0.5
v 0.5 2.3 -0.5
v 0.6 2.1 -0.5
v 0.6 2.2 -0.5
v 0.7 2.1 -0.5
v 0.7 2.2 -0.5
v 0.1 2.1 -0.6
v 0.1 2.2 -0.6
v 0.2 2.1 -0.6
v 0.2 2.2 -0.6
v 0.2 2.3 -0.6
v 0.3 2.2 -0.6
v 0.3 2.3 -0.6
v 0.5 2.2 -0.6
v 0.5 2.3 -0.6
v 0.6 2.2 -0.6
v 0.6 2.3 -0.6
v 0.3 2.1 -0.7
v 0.3 2.2 -0.7
v 0.5 2.1 -0.7
v 0.5 2.2 -0.7
v 0 2 -0.8
v 0 2.1 -0.8
v 0 2.2 -0.8
v 0.3 2.1 -0.8
v 0.3 2.2 -0.8
v 0.5 2.1 -0.8
v 0.5 2.3 -0.8
v 0.7 2.2 -0.8
v 0.7 2.3 -0.8
v 0.8 2 -0.8
v 0.8 2.1 -0.8
v 0.8 2.2 -0.8
v 0 2 0
v 0.8 2 0
v 0.6 2 -0.1
v 0.7 2 -0.1
v 0.3 2 -0.2
v 0.4 2 -0.2
v 0.5 2 -0.2
v 0.6 2 -0.2
v 0.7 2 -0.2
v 0.8 2 -0.2
v 0.1 2 -0.3
v 0.2 2 -0.3
v 0.5 2 -0.3
v 0.7 2 -0.3
v 0.8 2 -0.3
v 0.1 2 -0.4
v 0.2 2 -0.4
v 0.4 2 -0.4
v 0.5 2 -0.4
v 0.1 2 -0.5
v 0.3 2 -0.5
v 0.4 2 -0.5
v 0.5 2 -0.5
v 0.6 2 -0.5
v 0.4 2 -0.6
v 0.6 2 -0.6
v 0.1 2 -0.7
v 0.3 2 -0.7
v 0 2 -0.8
v 0.8 2 -0.8
v 0.7 2.1 -0.2
v 0.8 2.1 -0.2
v 0.7 2.1 -0.3
v 0.8 2.1 -0.3
v 0.3 2.1 0
v 0.5 2.1 0
v 0.1 2.1 -0.1
v 0.2 2.1 -0.1
v 0.3 2.1 -0.1
v 0.5 2.1 -0.1
v 0.6 2.1 -0.1
v 0.7 2.1 -0.1
v 0.1 2.1 -0.2
v 0.2 2.1 -0.2
v 0.6 2.1 -0.2
v 0.7 2.1 -0.2
v 0.6 2.1 -0.3
v 0.7 2.1 -0.3
v 0 2.1 -0.4
v 0.1 2.1 -0.4
v 0.6 2.1 -0.4
v 0.7 2.1 -0.4
v 0.8 2.1 -0.4
v 0 2.1 -0.5
v 0.1 2.1 -0.5
v 0.6 2.1 -0.5
v 0.7 2.1 -0.5
v 0.8 2.1 -0.5
v 0.1 2.1 -0.6
v 0.2 2.1 -0.6
v 0.1 2.1 -0.7
v 0.2 2.1 -0.7
v 0.3 2.1 -0.7
v 0.5 2.1 -0.7
v 0.6 2.1 -0.7
v 0.7 2.1 -0.7
v 0.3 2.1 -0.8
v 0.5 2.1 -0.8
v 0 2.2 0
v 0.1 2.2 0
v 0.5 2.2 0
v 0.8 2.2 0
v 0.1 2.2 -0.1
v 0.2 2.2 -0.1
v 0.3 2.2 -0.1
v 0.4 2.2 -0.1
v 0.5 2.2 -0.1
v 0.6 2.2 -0.1
v 0.7 2.2 -0.1
v 0.1 2.2 -0.2
v 0.2 2.2 -0.2
v 0.3 2.2 -0.2
v 0.4 2.2 -0.2
v 0.5 2.2 -0.2
v 0.3 2.2 -0.3
v 0.4 2.2 -0.3
v 0 2.2 -0.4
v 0.1 2.2 -0.4
v 0.2 2.2 -0.4
v 0.6 2.2 -0.4
v 0.7 2.2 -0.4
v 0.8 2.2 -0.4
v 0 2.2 -0.5
v 0.1 2.2 -0.5
v 0.2 2.2 -0.5
v 0.3 2.2 -0.5
v 0.5 2.2 -0.5
v 0.6 2.2 -0.5
v 0.7 2.2 -0.5
v 0.8 2.2 -0.5
v 0.1 2.2 -0.6
v 0.2 2.2 -0.6
v 0.3 2.2 -0.6
v 0.5 2.2 -0.6
v 0.6 2.2 -0.6
v 0.1 2.2 -0.7
v 0.2 2.2 -0.7
v 0.3 2.2 -0.7
v 0.5 2.2 -0.7
v 0.6 2.2 -0.7
v 0.7 2.2 -0.7
v 0 2.2 -0.8
v 0.3 2.2 -0.8
v 0.7 2.2 -0.8
v 0.8 2.2 -0.8
v 0.1 2.3 0
v 0.3 2.3 0
v 0.1 2.3 -0.1
v 0.3 2.3 -0.1
v 0.4 2.3 -0.1
v 0.1 2.3 -0.2
v 0.2 2.3 -0.2
v 0.3 2.3 -0.2
v 0.4 2.3 -0.2
v 0.1 2.3 -0.3
v 0.2 2.3 -0.3
v 0.3 2.3 -0.3
v 0.4 2.3 -0.3
v 0.5 2.3 -0.3
v 0.3 2.3 -0.4
v 0.4 2.3 -0.4
v 0.2 2.3 -0.5
v 0.3 2.3 -0.5
v 0.4 2.3 -0.5
v 0.5 2.3 -0.5
v 0.6 2.3 -0.5
v 0.2 2.3 -0.6
v 0.3 2.3 -0.6
v 0.5 2.3 -0.6
v 0.6 2.3 -0.6
v 0.5 2.3 -0.7
v 0.7 2.3 -0.7
v 0.5 2.3 -0.8
v 0.7 2.3 -0.8
v 0.4 2.4 -0.2
v 0.5 2.4 -0.2
v 0.1 2.4 -0.3
v 0.2 2.4 -0.3
v 0.4 2.4 -0.3
v 0.5 2.4 -0.3
v 0.1 2.4 -0.4
v 0.2 2.4 -0.4
v 0.3 2.4 -0.4
v 0.4 2.4 -0.4
v 0.3 2.4 -0.5
v 0.4 2.4 -0.5

# faces
f 3/1/1 2/1/1 1/1/1
f 4/1/1 2/1/1 3/1/1
f 5/1/1 2/1/1 4/1/1
f 6/1/1 2/1/1 5/1/1
f 7/3/1 4/3/1 3/3/1
f 8/3/1 4/3/1 7/3/1
f 9/3/1 6/3/1 5/3/1
f 10/3/1 6/3/1 9/3/1
f 16/3/1 12/3/1 11/3/1
f 17/3/1 12/3/1 16/3/1
f 18/3/1 14/3/1 13/3/1
f 19/3/1 14/3/1 18/3/1
f 20/3/1 16/3/1 15/3/1
f 21/3/1 16/3/1 20/3/1
f 22/3/1 16/3/1 21/3/1
f 23/3/1 16/3/1 22/3/1
f 28/3/1 25/3/1 24/3/1
f 29/3/1 25/3/1 28/3/1
f 31/3/1 27/3/1 26/3/1
f 32/3/1 27/3/1 31/3/1
f 33/2/1 31/2/1 30/2/1
f 34/2/1 31/2/1 33/2/1
f 39/3/1 36/3/1 35/3/1
f 40/3/1 36/3/1 39/3/1
f 41/3/1 38/3/1 37/3/1
f 42/3/1 38/3/1 41/3/1
f 43/3/1 38/3/1 42/3/1
f 44/2/1 43/2/1 42/2/1
f 45/2/1 43/2/1 44/2/1
f 48/3/1 47/3/1 46/3/1
f 49/3/1 47/3/1 48/3/1
f 50/3/1 49/3/1 48/3/1
f 51/3/1 49/3/1 50/3/1
f 56/3/1 53/3/1 52/3/1
f 57/3/1 53/3/1 56/3/1
f 60/3/1 55/3/1 54/3/1
f 61/3/1 59/3/1 58/3/1
f 62/3/1 59/3/1 61/3/1
f 63/3/1 55/3/1 60/3/1
f 64/3/1 55/3/1 63/3/1
f 71/3/1 66/3/1 65/3/1
f 71/3/1 67/3/1 66/3/1
f 71/3/1 68/3/1 67/3/1
f 72/3/1 68/3/1 71/3/1
f 73/3/1 70/3/1 69/3/1
f 74/3/1 70/3/1 73/3/1
f 75/3/2 76/3/2 79/3/2
f 79/3/2 76/3/2 80/3/2
f 77/3/2 78/3/2 81/3/2
f 81/3/2 78/3/2 82/3/2
f 83/3/2 84/3/2 85/3/2
f 85/3/2 84/3/2 86/3/2
f 86/3/2 84/3/2 87/3/2
f 87/3/2 84/3/2 88/3/2
f 91/3/2 92/3/2 95/3/2
f 95/3/2 92/3/2 96/3/2
f 89/3/2 90/3/2 97/3/2
f 97/3/2 90/3/2 98/3/2
f 93/2/2 94/2/2 99/2/2
f 99/2/2 94/2/2 100/2/2
f 101/3/2 102/3/2 103/3/2
f 103/3/2 102/3/2 104/3/2
f 105/2/2 106/2/2 107/2/2
f 107/2/2 106/2/2 108/2/2
f 109/3/2 110/3/2 111/3/2
f 111/3/2 110/3/2 112/3/2
f 109/3/2 111/3/2 113/3/2
f 113/3/2 111/3/2 114/3/2
f 115/3/2 116/3/2 121/3/2
f 116/3/2 117/3/2 121/3/2
f 117/3/2 118/3/2 121/3/2
f 121/3/2 118/3/2 122/3/2
f 119/3/2 120/3/2 123/3/2
f 123/3/2 120/3/2 124/3/2
f 124/3/2 120/3/2 125/3/2
f 123/3/2 124/3/2 126/3/2
f 126/3/2 124/3/2 127/3/2
f 128/3/2 129/3/2 130/3/2
f 130/3/2 129/3/2 131/3/2
f 132/2/2 133/2/2 134/2/2
f 134/2/2 133/2/2 135/2/2
f 136/3/2 137/3/2 138/3/2
f 138/3/2 137/3/2 139/3/2
f 140/1/2 141/1/2 144/1/2
f 144/1/2 141/1/2 145/1/2
f 142/1/2 143/1/2 146/1/2
f 146/1/2 143/1/2 147/1/2
f 147/1/2 143/1/2 148/1/2
f 148/1/2 143/1/2 149/1/2
f 144/3/2 145/3/2 150/3/2
f 145/3/2 146/3/2 150/3/2
f 146/3/2 147/3/2 150/3/2
f 150/3/2 147/3/2 151/3/2
f 148/3/2 149/3/2 152/3/2
f 152/3/2 149/3/2 153/3/2
f 157/3/3 156/3/3 155/3/3
f 159/1/3 155/1/3 154/1/3
f 159/3/3 158/3/3 157/3/3
f 159/3/3 157/3/3 155/3/3
f 160/3/3 158/3/3 159/3/3
f 161/1/3 159/1/3 154/1/3
f 163/1/3 161/1/3 154/1/3
f 164/3/3 162/3/3 161/3/3
f 164/1/3 161/1/3 163/1/3
f 165/3/3 162/3/3 164/3/3
f 168/3/3 167/3/3 166/3/3
f 169/3/3 167/3/3 168/3/3
f 170/3/3 168/3/3 166/3/3
f 171/3/3 168/3/3 170/3/3
f 175/3/3 173/3/3 172/3/3
f 175/3/3 174/3/3 173/3/3
f 176/3/3 174/3/3 175/3/3
f 177/3/3 174/3/3 176/3/3
f 181/3/3 179/3/3 178/3/3
f 181/3/3 180/3/3 179/3/3
f 182/3/3 180/3/3 181/3/3
f 185/3/3 184/3/3 183/3/3
f 186/3/3 184/3/3 185/3/3
f 189/3/3 188/3/3 187/3/3
f 190/3/3 188/3/3 189/3/3
f 193/1/3 192/1/3 191/1/3
f 194/1/3 192/1/3 193/1/3
f 197/2/3 196/2/3 195/2/3
f 198/2/3 196/2/3 197/2/3
f 201/2/3 200/2/3 199/2/3
f 202/2/3 200/2/3 201/2/3
f 205/3/3 204/3/3 203/3/3
f 206/3/3 204/3/3 205/3/3
f 209/2/3 208/2/3 207/2/3
f 210/2/3 208/2/3 209/2/3
f 213/3/3 212/3/3 211/3/3
f 214/3/3 212/3/3 213/3/3
f 217/3/3 216/3/3 215/3/3
f 218/3/3 216/3/3 217/3/3
f 221/3/3 220/3/3 219/3/3
f 222/3/3 220/3/3 221/3/3
f 226/3/3 224/3/3 223/3/3
f 227/3/3 226/3/3 225/3/3
f 228/3/3 224/3/3 226/3/3
f 228/3/3 226/3/3 227/3/3
f 229/3/3 224/3/3 228/3/3
f 230/3/4 231/3/4 233/3/4
f 231/3/4 232/3/4 233/3/4
f 233/3/4 232/3/4 234/3/4
f 234/3/4 232/3/4 235/3/4
f 235/3/4 232/3/4 236/3/4
f 237/3/4 238/3/4 239/3/4
f 239/3/4 238/3/4 240/3/4
f 241/3/4 242/3/4 243/3/4
f 243/3/4 242/3/4 244/3/4
f 245/1/4 246/1/4 247/1/4
f 247/1/4 246/1/4 248/1/4
f 249/3/4 250/3/4 251/3/4
f 251/3/4 250/3/4 252/3/4
f 253/3/4 254/3/4 255/3/4
f 255/3/4 254/3/4 256/3/4
f 256/3/4 257/3/4 258/3/4
f 258/3/4 257/3/4 259/3/4
f 260/3/4 261/3/4 262/3/4
f 262/3/4 261/3/4 263/3/4
f 264/3/4 265/3/4 267/3/4
f 265/2/4 266/2/4 267/2/4
f 267/2/4 266/2/4 268/2/4
f 264/3/4 267/3/4 269/3/4
f 269/3/4 267/3/4 270/3/4
f 271/2/4 272/2/4 273/2/4
f 273/2/4 272/2/4 274/2/4
f 275/3/4 276/3/4 277/3/4
f 277/3/4 276/3/4 278/3/4
f 278/2/4 279/2/4 280/2/4
f 280/2/4 279/2/4 281/2/4
f 282/3/4 283/3/4 284/3/4
f 284/3/4 283/3/4 285/3/4
f 286/3/4 287/3/4 288/3/4
f 288/3/4 287/3/4 289/3/4
f 290/1/4 291/1/4 293/1/4
f 291/3/4 292/3/4 293/3/4
f 293/3/4 292/3/4 294/3/4
f 290/1/4 293/1/4 295/1/4
f 295/3/4 296/3/4 297/3/4
f 297/3/4 296/3/4 298/3/4
f 290/1/4 295/1/4 299/1/4
f 295/3/4 297/3/4 300/3/4
f 299/1/4 295/1/4 300/1/4
f 300/3/4 297/3/4 301/3/4
f 304/1/5 303/1/5 302/1/5
f 305/1/5 303/1/5 304/1/5
f 306/1/5 304/1/5 302/1/5
f 307/1/5 304/1/5 306/1/5
f 308/1/5 304/1/5 307/1/5
f 309/2/5 305/2/5 304/2/5
f 309/1/5 304/1/5 308/1/5
f 310/1/5 303/1/5 305/1/5
f 310/2/5 305/2/5 309/2/5
f 311/1/5 303/1/5 310/1/5
f 312/1/5 306/1/5 302/1/5
f 313/1/5 306/1/5 312/1/5
f 314/3/5 309/3/5 308/3/5
f 314/1/5 308/1/5 307/1/5
f 314/3/5 310/3/5 309/3/5
f 315/3/5 310/3/5 314/3/5
f 317/3/5 313/3/5 312/3/5
f 317/1/5 312/1/5 302/1/5
f 318/1/5 306/1/5 313/1/5
f 318/3/5 313/3/5 317/3/5
f 319/1/5 316/1/5 315/1/5
f 319/3/5 307/3/5 306/3/5
f 319/1/5 315/1/5 314/1/5
f 319/1/5 314/1/5 307/1/5
f 320/1/5 316/1/5 319/1/5
f 321/1/5 317/1/5 302/1/5
f 321/1/5 318/1/5 317/1/5
f 322/1/5 306/1/5 318/1/5
f 322/1/5 318/1/5 321/1/5
f 322/3/5 320/3/5 319/3/5
f 322/3/5 319/3/5 306/3/5
f 323/3/5 320/3/5 322/3/5
f 324/1/5 316/1/5 320/1/5
f 324/3/5 320/3/5 323/3/5
f 325/1/5 316/1/5 324/1/5
f 326/1/5 323/1/5 322/1/5
f 326/3/5 324/3/5 323/3/5
f 326/3/5 325/3/5 324/3/5
f 327/1/5 316/1/5 325/1/5
f 327/3/5 325/3/5 326/3/5
f 328/1/5 321/1/5 302/1/5
f 328/3/5 322/3/5 321/3/5
f 329/1/5 326/1/5 322/1/5
f 329/3/5 322/3/5 328/3/5
f 329/1/5 327/1/5 326/1/5
f 330/1/5 328/1/5 302/1/5
f 330/1/5 329/1/5 328/1/5
f 331/1/5 327/1/5 329/1/5
f 331/1/5 329/1/5 330/1/5
f 331/1/5 316/1/5 327/1/5
f 334/3/5 333/3/5 332/3/5
f 335/3/5 333/3/5 334/3/5
f 336/1/6 337/1/6 340/1/6
f 340/1/6 337/1/6 341/1/6
f 338/1/6 339/1/6 344/1/6
f 344/1/6 339/1/6 345/1/6
f 342/2/6 343/2/6 346/2/6
f 346/2/6 343/2/6 347/2/6
f 346/3/6 347/3/6 348/3/6
f 348/3/6 347/3/6 349/3/6
f 348/1/6 349/1/6 352/1/6
f 352/1/6 349/1/6 353/1/6
f 350/1/6 351/1/6 355/1/6
f 355/1/6 351/1/6 356/1/6
f 353/1/6 354/1/6 358/1/6
f 358/1/6 354/1/6 359/1/6
f 360/3/6 361/3/6 362/3/6
f 362/3/6 361/3/6 363/3/6
f 357/1/6 358/1/6 366/1/6
f 366/1/6 358/1/6 367/1/6
f 364/1/6 365/1/6 368/1/6
f 368/1/6 365/1/6 369/1/6
f 370/3/6 371/3/6 374/3/6
f 372/3/6 373/3/6 378/3/6
f 378/3/6 373/3/6 379/3/6
f 379/3/6 373/3/6 380/3/6
f 370/3/6 374/3/6 381/3/6
f 375/3/6 376/3/6 382/3/6
f 382/3/6 376/3/6 383/3/6
f 377/3/6 378/3/6 384/3/6
f 378/3/6 379/3/6 384/3/6
f 384/3/6 379/3/6 385/3/6
f 382/3/6 383/3/6 386/3/6
f 383/3/6 384/3/6 386/3/6
f 386/3/6 384/3/6 387/3/6
f 370/3/6 381/3/6 388/3/6
f 388/3/6 381/3/6 389/3/6
f 382/3/6 386/3/6 390/3/6
f 385/3/6 379/3/6 391/3/6
f 380/3/6 373/3/6 392/3/6
f 392/3/6 373/3/6 393/3/6
f 389/3/6 390/3/6 395/3/6
f 390/3/6 386/3/6 396/3/6
f 395/3/6 390/3/6 396/3/6
f 396/3/6 386/3/6 397/3/6
f 385/3/6 391/3/6 398/3/6
f 391/2/6 392/2/6 399/2/6
f 398/3/6 391/3/6 399/3/6
f 399/2/6 392/2/6 400/2/6
f 394/3/6 395/3/6 402/3/6
f 395/3/6 396/3/6 402/3/6
f 402/3/6 396/3/6 403/3/6
f 397/3/6 398/3/6 404/3/6
f 404/3/6 398/3/6 405/3/6
f 394/3/6 402/3/6 407/3/6
f 405/3/6 406/3/6 408/3/6
f 404/3/6 405/3/6 408/3/6
f 403/3/6 404/3/6 408/3/6
f 408/3/6 406/3/6 409/3/6
f 409/3/6 406/3/6 410/3/6
f 410/3/6 406/3/6 411/3/6
f 400/3/6 401/3/6 412/3/6
f 394/3/6 407/3/6 413/3/6
f 407/3/6 408/3/6 413/3/6
f 408/3/6 409/3/6 413/3/6
f 413/3/6 409/3/6 414/3/6
f 412/3/6 401/3/6 415/3/6
f 415/3/6 401/3/6 416/3/6
f 417/3/6 418/3/6 419/3/6
f 419/3/6 418/3/6 420/3/6
f 420/3/6 421/3/6 424/3/6
f 424/3/6 421/3/6 425/3/6
f 422/3/6 423/3/6 426/3/6
f 426/3/6 423/3/6 427/3/6
f 428/3/6 429/3/6 431/3/6
f 429/3/6 430/3/6 431/3/6
f 431/3/6 430/3/6 432/3/6
f 432/3/6 430/3/6 435/3/6
f 435/3/6 430/3/6 436/3/6
f 433/2/6 434/2/6 438/2/6
f 438/2/6 434/2/6 439/2/6
f 436/3/6 437/3/6 440/3/6
f 440/3/6 437/3/6 441/3/6
f 442/3/6 443/3/6 444/3/6
f 444/3/6 443/3/6 445/3/6
f 446/3/6 447/3/6 450/3/6
f 450/3/6 447/3/6 451/3/6
f 448/3/6 449/3/6 452/3/6
f 452/3/6 449/3/6 453/3/6
f 454/2/6 455/2/6 456/2/6
f 456/2/6 455/2/6 457/2/6
