# MagicaVoxel @ Ephtracy

# group
o 

# material
mtllib GreenCorall15.mtl
usemtl palette

# normals
vn -1 0 0
vn 1 0 0
vn 0 0 1
vn 0 0 -1
vn 0 -1 0
vn 0 1 0

# texcoords
vt 0.744141 0.5
vt 0.763672 0.5
vt 0.791016 0.5

# verts
v 0 2 0
v 0 2 -0.8
v 0 2.1 0
v 0 2.1 -0.8
v 0 2.2 0
v 0 2.2 -0.8
v 0.1 2.2 -0.3
v 0.1 2.2 -0.4
v 0.1 2.3 -0.3
v 0.1 2.3 -0.4
v 0.2 2.1 -0.6
v 0.2 2.1 -0.7
v 0.2 2.2 -0.6
v 0.2 2.2 -0.7
v 0.3 2.2 -0.1
v 0.3 2.2 -0.2
v 0.3 2.3 -0.1
v 0.3 2.3 -0.2
v 0.4 2.2 -0.2
v 0.4 2.2 -0.3
v 0.4 2.3 -0.2
v 0.4 2.3 -0.3
v 0.5 2.1 -0.7
v 0.5 2.1 -0.8
v 0.5 2.2 -0.7
v 0.5 2.2 -0.8
v 0.6 2.1 -0.6
v 0.6 2.1 -0.7
v 0.6 2.2 -0.6
v 0.6 2.2 -0.7
v 0.7 2.1 -0.5
v 0.7 2.1 -0.6
v 0.7 2.2 -0.5
v 0.7 2.2 -0.6
v 0.1 2.1 -0.6
v 0.1 2.1 -0.7
v 0.1 2.2 -0.6
v 0.1 2.2 -0.7
v 0.2 2.2 -0.3
v 0.2 2.2 -0.4
v 0.2 2.3 -0.3
v 0.2 2.3 -0.4
v 0.3 2.1 -0.6
v 0.3 2.1 -0.7
v 0.3 2.2 -0.6
v 0.3 2.2 -0.7
v 0.4 2.1 -0.5
v 0.4 2.1 -0.6
v 0.4 2.1 -0.7
v 0.4 2.1 -0.8
v 0.4 2.2 -0.1
v 0.4 2.2 -0.2
v 0.4 2.2 -0.5
v 0.4 2.2 -0.6
v 0.4 2.2 -0.7
v 0.4 2.2 -0.8
v 0.4 2.3 -0.1
v 0.4 2.3 -0.2
v 0.5 2.2 -0.2
v 0.5 2.2 -0.3
v 0.5 2.3 -0.2
v 0.5 2.3 -0.3
v 0.8 2 0
v 0.8 2 -0.8
v 0.8 2.1 0
v 0.8 2.1 -0.8
v 0.8 2.2 0
v 0.8 2.2 -0.8
v 0 2 0
v 0 2.1 0
v 0 2.2 0
v 0.8 2 0
v 0.8 2.1 0
v 0.8 2.2 0
v 0.3 2.2 -0.1
v 0.3 2.3 -0.1
v 0.4 2.2 -0.1
v 0.4 2.3 -0.1
v 0.4 2.2 -0.2
v 0.4 2.3 -0.2
v 0.5 2.2 -0.2
v 0.5 2.3 -0.2
v 0.1 2.2 -0.3
v 0.1 2.3 -0.3
v 0.2 2.2 -0.3
v 0.2 2.3 -0.3
v 0.6 2.1 -0.6
v 0.6 2.2 -0.6
v 0.7 2.1 -0.6
v 0.7 2.2 -0.6
v 0.1 2.1 -0.7
v 0.1 2.2 -0.7
v 0.2 2.1 -0.7
v 0.2 2.2 -0.7
v 0.3 2.1 -0.7
v 0.3 2.2 -0.7
v 0.4 2.1 -0.7
v 0.4 2.2 -0.7
v 0.5 2.1 -0.7
v 0.5 2.2 -0.7
v 0.6 2.1 -0.7
v 0.6 2.2 -0.7
v 0.3 2.2 -0.2
v 0.3 2.3 -0.2
v 0.4 2.2 -0.2
v 0.4 2.3 -0.2
v 0.4 2.2 -0.3
v 0.4 2.3 -0.3
v 0.5 2.2 -0.3
v 0.5 2.3 -0.3
v 0.1 2.2 -0.4
v 0.1 2.3 -0.4
v 0.2 2.2 -0.4
v 0.2 2.3 -0.4
v 0.4 2.1 -0.5
v 0.4 2.2 -0.5
v 0.5 2.1 -0.5
v 0.6 2.1 -0.5
v 0.7 2.1 -0.5
v 0.7 2.2 -0.5
v 0.1 2.1 -0.6
v 0.1 2.2 -0.6
v 0.2 2.1 -0.6
v 0.2 2.2 -0.6
v 0.3 2.1 -0.6
v 0.3 2.2 -0.6
v 0.4 2.1 -0.6
v 0.4 2.2 -0.6
v 0 2 -0.8
v 0 2.1 -0.8
v 0 2.2 -0.8
v 0.4 2.1 -0.8
v 0.4 2.2 -0.8
v 0.5 2.1 -0.8
v 0.5 2.2 -0.8
v 0.8 2 -0.8
v 0.8 2.1 -0.8
v 0.8 2.2 -0.8
v 0 2 0
v 0.8 2 0
v 0.1 2 -0.1
v 0.2 2 -0.1
v 0.6 2 -0.1
v 0.7 2 -0.1
v 0.1 2 -0.2
v 0.2 2 -0.2
v 0.3 2 -0.2
v 0.4 2 -0.2
v 0.5 2 -0.2
v 0.6 2 -0.2
v 0.7 2 -0.2
v 0.1 2 -0.3
v 0.2 2 -0.3
v 0.5 2 -0.3
v 0.7 2 -0.3
v 0.1 2 -0.4
v 0.2 2 -0.4
v 0.4 2 -0.4
v 0.5 2 -0.4
v 0.1 2 -0.5
v 0.2 2 -0.5
v 0.3 2 -0.5
v 0.4 2 -0.5
v 0.5 2 -0.5
v 0.6 2 -0.5
v 0.1 2 -0.6
v 0.2 2 -0.6
v 0.3 2 -0.6
v 0.4 2 -0.6
v 0.5 2 -0.6
v 0.6 2 -0.6
v 0.1 2 -0.7
v 0.2 2 -0.7
v 0.3 2 -0.7
v 0 2 -0.8
v 0.8 2 -0.8
v 0.4 2.1 -0.5
v 0.5 2.1 -0.5
v 0.6 2.1 -0.5
v 0.7 2.1 -0.5
v 0.1 2.1 -0.6
v 0.2 2.1 -0.6
v 0.3 2.1 -0.6
v 0.4 2.1 -0.6
v 0.5 2.1 -0.6
v 0.6 2.1 -0.6
v 0.7 2.1 -0.6
v 0.1 2.1 -0.7
v 0.2 2.1 -0.7
v 0.3 2.1 -0.7
v 0.4 2.1 -0.7
v 0.5 2.1 -0.7
v 0.6 2.1 -0.7
v 0.4 2.1 -0.8
v 0.5 2.1 -0.8
v 0 2.2 0
v 0.8 2.2 0
v 0.3 2.2 -0.1
v 0.4 2.2 -0.1
v 0.3 2.2 -0.2
v 0.4 2.2 -0.2
v 0.5 2.2 -0.2
v 0.1 2.2 -0.3
v 0.2 2.2 -0.3
v 0.4 2.2 -0.3
v 0.5 2.2 -0.3
v 0.1 2.2 -0.4
v 0.2 2.2 -0.4
v 0.4 2.2 -0.5
v 0.7 2.2 -0.5
v 0.1 2.2 -0.6
v 0.2 2.2 -0.6
v 0.3 2.2 -0.6
v 0.4 2.2 -0.6
v 0.6 2.2 -0.6
v 0.7 2.2 -0.6
v 0.1 2.2 -0.7
v 0.2 2.2 -0.7
v 0.3 2.2 -0.7
v 0.4 2.2 -0.7
v 0.5 2.2 -0.7
v 0.6 2.2 -0.7
v 0 2.2 -0.8
v 0.4 2.2 -0.8
v 0.5 2.2 -0.8
v 0.8 2.2 -0.8
v 0.3 2.3 -0.1
v 0.4 2.3 -0.1
v 0.3 2.3 -0.2
v 0.4 2.3 -0.2
v 0.5 2.3 -0.2
v 0.1 2.3 -0.3
v 0.2 2.3 -0.3
v 0.4 2.3 -0.3
v 0.5 2.3 -0.3
v 0.1 2.3 -0.4
v 0.2 2.3 -0.4

# faces
f 3/1/1 2/1/1 1/1/1
f 4/1/1 2/1/1 3/1/1
f 5/3/1 4/3/1 3/3/1
f 6/3/1 4/3/1 5/3/1
f 9/3/1 8/3/1 7/3/1
f 10/3/1 8/3/1 9/3/1
f 13/3/1 12/3/1 11/3/1
f 14/3/1 12/3/1 13/3/1
f 17/3/1 16/3/1 15/3/1
f 18/3/1 16/3/1 17/3/1
f 21/3/1 20/3/1 19/3/1
f 22/3/1 20/3/1 21/3/1
f 25/3/1 24/3/1 23/3/1
f 26/3/1 24/3/1 25/3/1
f 29/3/1 28/3/1 27/3/1
f 30/3/1 28/3/1 29/3/1
f 33/3/1 32/3/1 31/3/1
f 34/3/1 32/3/1 33/3/1
f 35/3/2 36/3/2 37/3/2
f 37/3/2 36/3/2 38/3/2
f 39/3/2 40/3/2 41/3/2
f 41/3/2 40/3/2 42/3/2
f 43/3/2 44/3/2 45/3/2
f 45/3/2 44/3/2 46/3/2
f 47/3/2 48/3/2 53/3/2
f 53/3/2 48/3/2 54/3/2
f 49/3/2 50/3/2 55/3/2
f 55/3/2 50/3/2 56/3/2
f 51/3/2 52/3/2 57/3/2
f 57/3/2 52/3/2 58/3/2
f 59/3/2 60/3/2 61/3/2
f 61/3/2 60/3/2 62/3/2
f 63/1/2 64/1/2 65/1/2
f 65/1/2 64/1/2 66/1/2
f 65/3/2 66/3/2 67/3/2
f 67/3/2 66/3/2 68/3/2
f 72/1/3 70/1/3 69/1/3
f 73/3/3 71/3/3 70/3/3
f 73/1/3 70/1/3 72/1/3
f 74/3/3 71/3/3 73/3/3
f 77/3/3 76/3/3 75/3/3
f 78/3/3 76/3/3 77/3/3
f 81/3/3 80/3/3 79/3/3
f 82/3/3 80/3/3 81/3/3
f 85/3/3 84/3/3 83/3/3
f 86/3/3 84/3/3 85/3/3
f 89/3/3 88/3/3 87/3/3
f 90/3/3 88/3/3 89/3/3
f 93/3/3 92/3/3 91/3/3
f 94/3/3 92/3/3 93/3/3
f 97/3/3 96/3/3 95/3/3
f 98/3/3 96/3/3 97/3/3
f 101/3/3 100/3/3 99/3/3
f 102/3/3 100/3/3 101/3/3
f 103/3/4 104/3/4 105/3/4
f 105/3/4 104/3/4 106/3/4
f 107/3/4 108/3/4 109/3/4
f 109/3/4 108/3/4 110/3/4
f 111/3/4 112/3/4 113/3/4
f 113/3/4 112/3/4 114/3/4
f 115/3/4 116/3/4 117/3/4
f 117/3/4 116/3/4 118/3/4
f 118/3/4 116/3/4 119/3/4
f 119/3/4 116/3/4 120/3/4
f 121/3/4 122/3/4 123/3/4
f 123/3/4 122/3/4 124/3/4
f 125/3/4 126/3/4 127/3/4
f 127/3/4 126/3/4 128/3/4
f 129/1/4 130/1/4 132/1/4
f 130/3/4 131/3/4 132/3/4
f 132/3/4 131/3/4 133/3/4
f 129/1/4 132/1/4 134/1/4
f 129/1/4 134/1/4 136/1/4
f 134/3/4 135/3/4 137/3/4
f 136/1/4 134/1/4 137/1/4
f 137/3/4 135/3/4 138/3/4
f 141/1/5 140/1/5 139/1/5
f 142/1/5 140/1/5 141/1/5
f 143/1/5 140/1/5 142/1/5
f 144/1/5 140/1/5 143/1/5
f 145/1/5 141/1/5 139/1/5
f 145/2/5 142/2/5 141/2/5
f 146/1/5 143/1/5 142/1/5
f 146/2/5 142/2/5 145/2/5
f 147/1/5 143/1/5 146/1/5
f 148/1/5 143/1/5 147/1/5
f 149/1/5 143/1/5 148/1/5
f 150/2/5 144/2/5 143/2/5
f 150/1/5 143/1/5 149/1/5
f 151/1/5 140/1/5 144/1/5
f 151/2/5 144/2/5 150/2/5
f 152/1/5 145/1/5 139/1/5
f 152/1/5 146/1/5 145/1/5
f 152/1/5 147/1/5 146/1/5
f 153/1/5 147/1/5 152/1/5
f 154/3/5 150/3/5 149/3/5
f 154/1/5 149/1/5 148/1/5
f 154/3/5 151/3/5 150/3/5
f 155/1/5 140/1/5 151/1/5
f 155/3/5 151/3/5 154/3/5
f 156/3/5 153/3/5 152/3/5
f 156/1/5 152/1/5 139/1/5
f 157/1/5 147/1/5 153/1/5
f 157/3/5 153/3/5 156/3/5
f 158/1/5 154/1/5 148/1/5
f 158/1/5 155/1/5 154/1/5
f 158/3/5 148/3/5 147/3/5
f 159/1/5 155/1/5 158/1/5
f 160/1/5 156/1/5 139/1/5
f 160/1/5 157/1/5 156/1/5
f 161/1/5 147/1/5 157/1/5
f 161/1/5 157/1/5 160/1/5
f 162/3/5 159/3/5 158/3/5
f 162/1/5 147/1/5 161/1/5
f 162/3/5 158/3/5 147/3/5
f 163/3/5 159/3/5 162/3/5
f 164/1/5 155/1/5 159/1/5
f 164/3/5 159/3/5 163/3/5
f 165/1/5 155/1/5 164/1/5
f 166/1/5 160/1/5 139/1/5
f 166/3/5 161/3/5 160/3/5
f 167/1/5 163/1/5 162/1/5
f 167/3/5 161/3/5 166/3/5
f 167/1/5 162/1/5 161/1/5
f 168/1/5 163/1/5 167/1/5
f 169/3/5 164/3/5 163/3/5
f 169/1/5 163/1/5 168/1/5
f 170/2/5 165/2/5 164/2/5
f 170/3/5 164/3/5 169/3/5
f 171/1/5 155/1/5 165/1/5
f 171/2/5 165/2/5 170/2/5
f 172/1/5 166/1/5 139/1/5
f 172/2/5 167/2/5 166/2/5
f 173/3/5 168/3/5 167/3/5
f 173/2/5 167/2/5 172/2/5
f 174/1/5 170/1/5 169/1/5
f 174/3/5 168/3/5 173/3/5
f 174/1/5 169/1/5 168/1/5
f 174/1/5 171/1/5 170/1/5
f 175/1/5 173/1/5 172/1/5
f 175/1/5 172/1/5 139/1/5
f 175/1/5 174/1/5 173/1/5
f 176/1/5 155/1/5 171/1/5
f 176/1/5 174/1/5 175/1/5
f 176/1/5 140/1/5 155/1/5
f 176/1/5 171/1/5 174/1/5
f 177/3/6 178/3/6 184/3/6
f 178/2/6 179/2/6 185/2/6
f 184/3/6 178/3/6 185/3/6
f 179/1/6 180/1/6 186/1/6
f 185/2/6 179/2/6 186/2/6
f 186/1/6 180/1/6 187/1/6
f 181/2/6 182/2/6 188/2/6
f 188/2/6 182/2/6 189/2/6
f 183/1/6 184/1/6 190/1/6
f 184/1/6 185/1/6 190/1/6
f 185/1/6 186/1/6 190/1/6
f 190/1/6 186/1/6 191/1/6
f 191/1/6 186/1/6 192/1/6
f 192/1/6 186/1/6 193/1/6
f 191/1/6 192/1/6 194/1/6
f 194/1/6 192/1/6 195/1/6
f 196/3/6 197/3/6 198/3/6
f 198/3/6 197/3/6 199/3/6
f 196/3/6 198/3/6 200/3/6
f 199/3/6 197/3/6 201/3/6
f 201/3/6 197/3/6 202/3/6
f 196/3/6 200/3/6 203/3/6
f 200/3/6 201/3/6 203/3/6
f 203/3/6 201/3/6 204/3/6
f 204/3/6 201/3/6 205/3/6
f 202/3/6 197/3/6 206/3/6
f 196/3/6 203/3/6 207/3/6
f 204/3/6 205/3/6 208/3/6
f 205/3/6 206/3/6 208/3/6
f 208/3/6 206/3/6 209/3/6
f 207/3/6 208/3/6 209/3/6
f 206/3/6 197/3/6 210/3/6
f 209/3/6 206/3/6 210/3/6
f 196/3/6 207/3/6 211/3/6
f 207/3/6 209/3/6 211/3/6
f 211/3/6 209/3/6 212/3/6
f 212/3/6 209/3/6 213/3/6
f 213/3/6 209/3/6 214/3/6
f 210/3/6 197/3/6 216/3/6
f 196/3/6 211/3/6 217/3/6
f 212/3/6 213/3/6 218/3/6
f 218/3/6 213/3/6 219/3/6
f 215/3/6 216/3/6 222/3/6
f 219/3/6 220/3/6 223/3/6
f 196/3/6 217/3/6 223/3/6
f 217/3/6 218/3/6 223/3/6
f 218/3/6 219/3/6 223/3/6
f 223/3/6 220/3/6 224/3/6
f 221/3/6 222/3/6 225/3/6
f 216/3/6 197/3/6 226/3/6
f 225/3/6 222/3/6 226/3/6
f 222/3/6 216/3/6 226/3/6
f 227/3/6 228/3/6 229/3/6
f 229/3/6 228/3/6 230/3/6
f 230/3/6 231/3/6 234/3/6
f 234/3/6 231/3/6 235/3/6
f 232/3/6 233/3/6 236/3/6
f 236/3/6 233/3/6 237/3/6
