# MagicaVoxel @ Ephtracy

# group
o 

# material
mtllib GreenCorall5.mtl
usemtl palette

# normals
vn -1 0 0
vn 1 0 0
vn 0 0 1
vn 0 0 -1
vn 0 -1 0
vn 0 1 0

# texcoords
vt 0.744141 0.5
vt 0.763672 0.5
vt 0.791016 0.5

# verts
v 0 2 0
v 0 2 -0.8
v 0 2.1 0
v 0 2.1 -0.4
v 0 2.1 -0.5
v 0 2.1 -0.8
v 0 2.2 0
v 0 2.2 -0.4
v 0 2.2 -0.5
v 0 2.2 -0.8
v 0.4 2.1 -0.3
v 0.4 2.1 -0.5
v 0.4 2.1 -0.7
v 0.4 2.2 -0.3
v 0.4 2.2 -0.7
v 0.5 2.1 0
v 0.5 2.1 -0.1
v 0.5 2.1 -0.7
v 0.5 2.1 -0.8
v 0.5 2.2 0
v 0.5 2.2 -0.1
v 0.5 2.2 -0.5
v 0.5 2.2 -0.6
v 0.5 2.2 -0.7
v 0.5 2.2 -0.8
v 0.5 2.3 -0.5
v 0.5 2.3 -0.6
v 0.6 2.1 -0.2
v 0.6 2.1 -0.3
v 0.6 2.2 -0.2
v 0.6 2.2 -0.3
v 0.7 2.1 -0.1
v 0.7 2.1 -0.2
v 0.7 2.1 -0.3
v 0.7 2.1 -0.4
v 0.7 2.1 -0.5
v 0.7 2.1 -0.7
v 0.7 2.2 -0.1
v 0.7 2.2 -0.2
v 0.7 2.2 -0.3
v 0.7 2.2 -0.4
v 0.7 2.2 -0.5
v 0.7 2.2 -0.7
v 0.1 2.1 -0.1
v 0.1 2.1 -0.3
v 0.1 2.1 -0.4
v 0.1 2.1 -0.5
v 0.1 2.1 -0.7
v 0.1 2.2 -0.1
v 0.1 2.2 -0.4
v 0.1 2.2 -0.5
v 0.1 2.2 -0.7
v 0.3 2.1 0
v 0.3 2.1 -0.1
v 0.3 2.1 -0.7
v 0.3 2.1 -0.8
v 0.3 2.2 0
v 0.3 2.2 -0.1
v 0.3 2.2 -0.7
v 0.3 2.2 -0.8
v 0.5 2.1 -0.3
v 0.5 2.1 -0.4
v 0.5 2.2 -0.3
v 0.5 2.2 -0.4
v 0.6 2.1 -0.4
v 0.6 2.1 -0.7
v 0.6 2.2 -0.4
v 0.6 2.2 -0.5
v 0.6 2.2 -0.6
v 0.6 2.2 -0.7
v 0.6 2.3 -0.5
v 0.6 2.3 -0.6
v 0.8 2 0
v 0.8 2 -0.8
v 0.8 2.1 0
v 0.8 2.1 -0.4
v 0.8 2.1 -0.5
v 0.8 2.1 -0.8
v 0.8 2.2 0
v 0.8 2.2 -0.4
v 0.8 2.2 -0.5
v 0.8 2.2 -0.8
v 0 2 0
v 0 2.1 0
v 0 2.2 0
v 0.3 2.1 0
v 0.3 2.2 0
v 0.5 2.1 0
v 0.5 2.2 0
v 0.8 2 0
v 0.8 2.1 0
v 0.8 2.2 0
v 0.6 2.1 -0.2
v 0.6 2.2 -0.2
v 0.7 2.1 -0.2
v 0.7 2.2 -0.2
v 0.4 2.1 -0.3
v 0.4 2.2 -0.3
v 0.5 2.1 -0.3
v 0.5 2.2 -0.3
v 0.5 2.1 -0.4
v 0.5 2.2 -0.4
v 0.6 2.1 -0.4
v 0.6 2.2 -0.4
v 0 2.1 -0.5
v 0 2.2 -0.5
v 0.1 2.1 -0.5
v 0.1 2.2 -0.5
v 0.5 2.2 -0.5
v 0.5 2.3 -0.5
v 0.6 2.2 -0.5
v 0.6 2.3 -0.5
v 0.7 2.1 -0.5
v 0.7 2.2 -0.5
v 0.8 2.1 -0.5
v 0.8 2.2 -0.5
v 0.1 2.1 -0.7
v 0.1 2.2 -0.7
v 0.3 2.1 -0.7
v 0.3 2.2 -0.7
v 0.6 2.1 -0.7
v 0.6 2.2 -0.7
v 0.7 2.1 -0.7
v 0.7 2.2 -0.7
v 0.1 2.1 -0.1
v 0.1 2.2 -0.1
v 0.3 2.1 -0.1
v 0.3 2.2 -0.1
v 0.5 2.1 -0.1
v 0.5 2.2 -0.1
v 0.6 2.1 -0.1
v 0.7 2.1 -0.1
v 0.7 2.2 -0.1
v 0.6 2.1 -0.3
v 0.6 2.2 -0.3
v 0.7 2.1 -0.3
v 0.7 2.2 -0.3
v 0 2.1 -0.4
v 0 2.2 -0.4
v 0.1 2.1 -0.4
v 0.1 2.2 -0.4
v 0.7 2.1 -0.4
v 0.7 2.2 -0.4
v 0.8 2.1 -0.4
v 0.8 2.2 -0.4
v 0.5 2.2 -0.6
v 0.5 2.3 -0.6
v 0.6 2.2 -0.6
v 0.6 2.3 -0.6
v 0.4 2.1 -0.7
v 0.4 2.2 -0.7
v 0.5 2.1 -0.7
v 0.5 2.2 -0.7
v 0 2 -0.8
v 0 2.1 -0.8
v 0 2.2 -0.8
v 0.3 2.1 -0.8
v 0.3 2.2 -0.8
v 0.5 2.1 -0.8
v 0.5 2.2 -0.8
v 0.8 2 -0.8
v 0.8 2.1 -0.8
v 0.8 2.2 -0.8
v 0 2 0
v 0.8 2 0
v 0.6 2 -0.1
v 0.7 2 -0.1
v 0.3 2 -0.2
v 0.4 2 -0.2
v 0.5 2 -0.2
v 0.6 2 -0.2
v 0.7 2 -0.2
v 0.1 2 -0.3
v 0.2 2 -0.3
v 0.5 2 -0.3
v 0.7 2 -0.3
v 0.1 2 -0.4
v 0.2 2 -0.4
v 0.4 2 -0.4
v 0.5 2 -0.4
v 0.1 2 -0.5
v 0.3 2 -0.5
v 0.4 2 -0.5
v 0.5 2 -0.5
v 0.6 2 -0.5
v 0.4 2 -0.6
v 0.6 2 -0.6
v 0.1 2 -0.7
v 0.3 2 -0.7
v 0 2 -0.8
v 0.8 2 -0.8
v 0.3 2.1 0
v 0.5 2.1 0
v 0.1 2.1 -0.1
v 0.3 2.1 -0.1
v 0.5 2.1 -0.1
v 0.6 2.1 -0.1
v 0.7 2.1 -0.1
v 0.3 2.1 -0.2
v 0.4 2.1 -0.2
v 0.5 2.1 -0.2
v 0.6 2.1 -0.2
v 0.7 2.1 -0.2
v 0.1 2.1 -0.3
v 0.2 2.1 -0.3
v 0.4 2.1 -0.3
v 0.5 2.1 -0.3
v 0.6 2.1 -0.3
v 0.7 2.1 -0.3
v 0 2.1 -0.4
v 0.1 2.1 -0.4
v 0.2 2.1 -0.4
v 0.5 2.1 -0.4
v 0.6 2.1 -0.4
v 0.7 2.1 -0.4
v 0.8 2.1 -0.4
v 0 2.1 -0.5
v 0.1 2.1 -0.5
v 0.3 2.1 -0.5
v 0.4 2.1 -0.5
v 0.7 2.1 -0.5
v 0.8 2.1 -0.5
v 0.1 2.1 -0.7
v 0.3 2.1 -0.7
v 0.4 2.1 -0.7
v 0.5 2.1 -0.7
v 0.6 2.1 -0.7
v 0.7 2.1 -0.7
v 0.3 2.1 -0.8
v 0.5 2.1 -0.8
v 0 2.2 0
v 0.3 2.2 0
v 0.5 2.2 0
v 0.8 2.2 0
v 0.1 2.2 -0.1
v 0.3 2.2 -0.1
v 0.5 2.2 -0.1
v 0.7 2.2 -0.1
v 0.6 2.2 -0.2
v 0.7 2.2 -0.2
v 0.4 2.2 -0.3
v 0.5 2.2 -0.3
v 0.6 2.2 -0.3
v 0.7 2.2 -0.3
v 0 2.2 -0.4
v 0.1 2.2 -0.4
v 0.5 2.2 -0.4
v 0.6 2.2 -0.4
v 0.7 2.2 -0.4
v 0.8 2.2 -0.4
v 0 2.2 -0.5
v 0.1 2.2 -0.5
v 0.5 2.2 -0.5
v 0.6 2.2 -0.5
v 0.7 2.2 -0.5
v 0.8 2.2 -0.5
v 0.5 2.2 -0.6
v 0.6 2.2 -0.6
v 0.1 2.2 -0.7
v 0.3 2.2 -0.7
v 0.4 2.2 -0.7
v 0.5 2.2 -0.7
v 0.6 2.2 -0.7
v 0.7 2.2 -0.7
v 0 2.2 -0.8
v 0.3 2.2 -0.8
v 0.5 2.2 -0.8
v 0.8 2.2 -0.8
v 0.5 2.3 -0.5
v 0.6 2.3 -0.5
v 0.5 2.3 -0.6
v 0.6 2.3 -0.6

# faces
f 3/1/1 2/1/1 1/1/1
f 4/1/1 2/1/1 3/1/1
f 5/1/1 2/1/1 4/1/1
f 6/1/1 2/1/1 5/1/1
f 7/3/1 4/3/1 3/3/1
f 8/3/1 4/3/1 7/3/1
f 9/3/1 6/3/1 5/3/1
f 10/3/1 6/3/1 9/3/1
f 14/3/1 12/3/1 11/3/1
f 14/3/1 13/3/1 12/3/1
f 15/3/1 13/3/1 14/3/1
f 20/3/1 17/3/1 16/3/1
f 21/3/1 17/3/1 20/3/1
f 24/3/1 19/3/1 18/3/1
f 25/3/1 19/3/1 24/3/1
f 26/3/1 23/3/1 22/3/1
f 27/3/1 23/3/1 26/3/1
f 30/3/1 29/3/1 28/3/1
f 31/3/1 29/3/1 30/3/1
f 38/3/1 33/3/1 32/3/1
f 39/3/1 33/3/1 38/3/1
f 40/3/1 35/3/1 34/3/1
f 41/3/1 35/3/1 40/3/1
f 42/3/1 37/3/1 36/3/1
f 43/3/1 37/3/1 42/3/1
f 44/3/2 45/3/2 49/3/2
f 45/3/2 46/3/2 49/3/2
f 49/3/2 46/3/2 50/3/2
f 47/3/2 48/3/2 51/3/2
f 51/3/2 48/3/2 52/3/2
f 53/3/2 54/3/2 57/3/2
f 57/3/2 54/3/2 58/3/2
f 55/3/2 56/3/2 59/3/2
f 59/3/2 56/3/2 60/3/2
f 61/3/2 62/3/2 63/3/2
f 63/3/2 62/3/2 64/3/2
f 65/3/2 66/3/2 67/3/2
f 67/3/2 66/3/2 68/3/2
f 68/3/2 66/3/2 69/3/2
f 69/3/2 66/3/2 70/3/2
f 68/3/2 69/3/2 71/3/2
f 71/3/2 69/3/2 72/3/2
f 73/1/2 74/1/2 75/1/2
f 75/1/2 74/1/2 76/1/2
f 76/1/2 74/1/2 77/1/2
f 77/1/2 74/1/2 78/1/2
f 75/3/2 76/3/2 79/3/2
f 79/3/2 76/3/2 80/3/2
f 77/3/2 78/3/2 81/3/2
f 81/3/2 78/3/2 82/3/2
f 86/1/3 84/1/3 83/1/3
f 86/3/3 85/3/3 84/3/3
f 87/3/3 85/3/3 86/3/3
f 88/1/3 86/1/3 83/1/3
f 90/1/3 88/1/3 83/1/3
f 91/3/3 89/3/3 88/3/3
f 91/1/3 88/1/3 90/1/3
f 92/3/3 89/3/3 91/3/3
f 95/3/3 94/3/3 93/3/3
f 96/3/3 94/3/3 95/3/3
f 99/3/3 98/3/3 97/3/3
f 100/3/3 98/3/3 99/3/3
f 103/3/3 102/3/3 101/3/3
f 104/3/3 102/3/3 103/3/3
f 107/3/3 106/3/3 105/3/3
f 108/3/3 106/3/3 107/3/3
f 111/3/3 110/3/3 109/3/3
f 112/3/3 110/3/3 111/3/3
f 115/3/3 114/3/3 113/3/3
f 116/3/3 114/3/3 115/3/3
f 119/3/3 118/3/3 117/3/3
f 120/3/3 118/3/3 119/3/3
f 123/3/3 122/3/3 121/3/3
f 124/3/3 122/3/3 123/3/3
f 125/3/4 126/3/4 127/3/4
f 127/3/4 126/3/4 128/3/4
f 129/3/4 130/3/4 131/3/4
f 131/3/4 130/3/4 132/3/4
f 132/3/4 130/3/4 133/3/4
f 134/3/4 135/3/4 136/3/4
f 136/3/4 135/3/4 137/3/4
f 138/3/4 139/3/4 140/3/4
f 140/3/4 139/3/4 141/3/4
f 142/3/4 143/3/4 144/3/4
f 144/3/4 143/3/4 145/3/4
f 146/3/4 147/3/4 148/3/4
f 148/3/4 147/3/4 149/3/4
f 150/3/4 151/3/4 152/3/4
f 152/3/4 151/3/4 153/3/4
f 154/1/4 155/1/4 157/1/4
f 155/3/4 156/3/4 157/3/4
f 157/3/4 156/3/4 158/3/4
f 154/1/4 157/1/4 159/1/4
f 154/1/4 159/1/4 161/1/4
f 159/3/4 160/3/4 162/3/4
f 161/1/4 159/1/4 162/1/4
f 162/3/4 160/3/4 163/3/4
f 166/1/5 165/1/5 164/1/5
f 167/1/5 165/1/5 166/1/5
f 168/1/5 166/1/5 164/1/5
f 169/1/5 166/1/5 168/1/5
f 170/1/5 166/1/5 169/1/5
f 171/2/5 167/2/5 166/2/5
f 171/1/5 166/1/5 170/1/5
f 172/1/5 165/1/5 167/1/5
f 172/2/5 167/2/5 171/2/5
f 173/1/5 168/1/5 164/1/5
f 174/1/5 168/1/5 173/1/5
f 175/3/5 171/3/5 170/3/5
f 175/1/5 170/1/5 169/1/5
f 175/3/5 172/3/5 171/3/5
f 176/1/5 165/1/5 172/1/5
f 176/3/5 172/3/5 175/3/5
f 177/3/5 174/3/5 173/3/5
f 177/1/5 173/1/5 164/1/5
f 178/1/5 168/1/5 174/1/5
f 178/3/5 174/3/5 177/3/5
f 179/1/5 175/1/5 169/1/5
f 179/3/5 169/3/5 168/3/5
f 179/1/5 176/1/5 175/1/5
f 180/1/5 176/1/5 179/1/5
f 181/1/5 177/1/5 164/1/5
f 181/1/5 178/1/5 177/1/5
f 182/1/5 168/1/5 178/1/5
f 182/1/5 178/1/5 181/1/5
f 182/3/5 180/3/5 179/3/5
f 182/3/5 179/3/5 168/3/5
f 183/3/5 180/3/5 182/3/5
f 184/1/5 176/1/5 180/1/5
f 184/3/5 180/3/5 183/3/5
f 185/1/5 176/1/5 184/1/5
f 186/1/5 183/1/5 182/1/5
f 186/3/5 184/3/5 183/3/5
f 186/3/5 185/3/5 184/3/5
f 187/1/5 176/1/5 185/1/5
f 187/3/5 185/3/5 186/3/5
f 188/1/5 181/1/5 164/1/5
f 188/3/5 182/3/5 181/3/5
f 189/1/5 186/1/5 182/1/5
f 189/3/5 182/3/5 188/3/5
f 189/1/5 187/1/5 186/1/5
f 190/1/5 188/1/5 164/1/5
f 190/1/5 189/1/5 188/1/5
f 191/1/5 187/1/5 189/1/5
f 191/1/5 189/1/5 190/1/5
f 191/1/5 165/1/5 176/1/5
f 191/1/5 176/1/5 187/1/5
f 192/1/6 193/1/6 195/1/6
f 195/1/6 193/1/6 196/1/6
f 194/1/6 195/1/6 199/1/6
f 195/1/6 196/1/6 199/1/6
f 196/1/6 197/1/6 199/1/6
f 199/1/6 197/1/6 200/1/6
f 200/1/6 197/1/6 201/1/6
f 197/2/6 198/2/6 202/2/6
f 201/1/6 197/1/6 202/1/6
f 202/2/6 198/2/6 203/2/6
f 194/1/6 199/1/6 204/1/6
f 204/1/6 199/1/6 205/1/6
f 200/1/6 201/1/6 206/1/6
f 199/3/6 200/3/6 206/3/6
f 201/3/6 202/3/6 207/3/6
f 206/1/6 201/1/6 207/1/6
f 207/3/6 202/3/6 208/3/6
f 204/3/6 205/3/6 211/3/6
f 205/1/6 199/1/6 212/1/6
f 211/3/6 205/3/6 212/3/6
f 207/1/6 208/1/6 213/1/6
f 208/1/6 209/1/6 213/1/6
f 213/1/6 209/1/6 214/1/6
f 214/1/6 209/1/6 215/1/6
f 210/1/6 211/1/6 217/1/6
f 211/1/6 212/1/6 217/1/6
f 217/1/6 212/1/6 218/1/6
f 212/1/6 199/1/6 219/1/6
f 218/1/6 212/1/6 219/1/6
f 199/3/6 206/3/6 219/3/6
f 219/3/6 206/3/6 220/3/6
f 215/1/6 216/1/6 221/1/6
f 214/1/6 215/1/6 221/1/6
f 221/1/6 216/1/6 222/1/6
f 218/3/6 219/3/6 223/3/6
f 219/1/6 220/1/6 224/1/6
f 223/3/6 219/3/6 224/3/6
f 224/1/6 220/1/6 225/1/6
f 214/1/6 221/1/6 227/1/6
f 227/1/6 221/1/6 228/1/6
f 225/1/6 226/1/6 229/1/6
f 224/1/6 225/1/6 229/1/6
f 229/1/6 226/1/6 230/1/6
f 231/3/6 232/3/6 235/3/6
f 235/3/6 232/3/6 236/3/6
f 233/3/6 234/3/6 237/3/6
f 237/3/6 234/3/6 238/3/6
f 238/3/6 234/3/6 240/3/6
f 239/3/6 240/3/6 243/3/6
f 240/3/6 234/3/6 244/3/6
f 243/3/6 240/3/6 244/3/6
f 231/3/6 235/3/6 245/3/6
f 245/3/6 235/3/6 246/3/6
f 241/3/6 242/3/6 247/3/6
f 244/3/6 234/3/6 249/3/6
f 249/3/6 234/3/6 250/3/6
f 247/3/6 248/3/6 253/3/6
f 241/3/6 247/3/6 253/3/6
f 253/3/6 248/3/6 254/3/6
f 241/3/6 253/3/6 257/3/6
f 251/3/6 252/3/6 259/3/6
f 257/3/6 258/3/6 261/3/6
f 241/3/6 257/3/6 261/3/6
f 261/3/6 258/3/6 262/3/6
f 262/3/6 258/3/6 263/3/6
f 255/3/6 256/3/6 264/3/6
f 259/3/6 260/3/6 265/3/6
f 251/3/6 259/3/6 265/3/6
f 265/3/6 260/3/6 266/3/6
f 263/3/6 264/3/6 267/3/6
f 262/3/6 263/3/6 267/3/6
f 264/3/6 256/3/6 268/3/6
f 267/3/6 264/3/6 268/3/6
f 269/3/6 270/3/6 271/3/6
f 271/3/6 270/3/6 272/3/6
