# MagicaVoxel @ Ephtracy

# group
o 

# material
mtllib GreenCorall13.mtl
usemtl palette

# normals
vn -1 0 0
vn 1 0 0
vn 0 0 1
vn 0 0 -1
vn 0 -1 0
vn 0 1 0

# texcoords
vt 0.744141 0.5
vt 0.763672 0.5
vt 0.791016 0.5

# verts
v 0 2 0
v 0 2 -0.8
v 0 2.1 0
v 0 2.1 -0.8
v 0 2.2 0
v 0 2.2 -0.8
v 0.1 2.2 -0.6
v 0.1 2.2 -0.7
v 0.1 2.3 -0.6
v 0.1 2.3 -0.7
v 0.3 2.2 -0.1
v 0.3 2.2 -0.2
v 0.3 2.3 -0.1
v 0.3 2.3 -0.2
v 0.4 2.1 -0.6
v 0.4 2.1 -0.7
v 0.4 2.2 -0.6
v 0.4 2.2 -0.7
v 0.5 2.1 -0.7
v 0.5 2.1 -0.8
v 0.5 2.2 -0.2
v 0.5 2.2 -0.3
v 0.5 2.2 -0.7
v 0.5 2.2 -0.8
v 0.5 2.3 -0.2
v 0.5 2.3 -0.3
v 0.6 2.2 -0.1
v 0.6 2.2 -0.2
v 0.6 2.3 -0.1
v 0.6 2.3 -0.2
v 0.2 2.2 -0.6
v 0.2 2.2 -0.7
v 0.2 2.3 -0.6
v 0.2 2.3 -0.7
v 0.3 2.1 -0.6
v 0.3 2.1 -0.8
v 0.3 2.2 -0.6
v 0.3 2.2 -0.8
v 0.4 2.2 -0.1
v 0.4 2.2 -0.2
v 0.4 2.3 -0.1
v 0.4 2.3 -0.2
v 0.6 2.2 -0.2
v 0.6 2.2 -0.3
v 0.6 2.3 -0.2
v 0.6 2.3 -0.3
v 0.7 2.2 -0.1
v 0.7 2.2 -0.2
v 0.7 2.3 -0.1
v 0.7 2.3 -0.2
v 0.8 2 0
v 0.8 2 -0.8
v 0.8 2.1 0
v 0.8 2.1 -0.8
v 0.8 2.2 0
v 0.8 2.2 -0.8
v 0 2 0
v 0 2.1 0
v 0 2.2 0
v 0.8 2 0
v 0.8 2.1 0
v 0.8 2.2 0
v 0.3 2.2 -0.1
v 0.3 2.3 -0.1
v 0.4 2.2 -0.1
v 0.4 2.3 -0.1
v 0.6 2.2 -0.1
v 0.6 2.3 -0.1
v 0.7 2.2 -0.1
v 0.7 2.3 -0.1
v 0.5 2.2 -0.2
v 0.5 2.3 -0.2
v 0.6 2.2 -0.2
v 0.6 2.3 -0.2
v 0.1 2.2 -0.6
v 0.1 2.3 -0.6
v 0.2 2.2 -0.6
v 0.2 2.3 -0.6
v 0.3 2.2 -0.2
v 0.3 2.3 -0.2
v 0.4 2.2 -0.2
v 0.4 2.3 -0.2
v 0.6 2.2 -0.2
v 0.6 2.3 -0.2
v 0.7 2.2 -0.2
v 0.7 2.3 -0.2
v 0.5 2.2 -0.3
v 0.5 2.3 -0.3
v 0.6 2.2 -0.3
v 0.6 2.3 -0.3
v 0.3 2.1 -0.6
v 0.3 2.2 -0.6
v 0.4 2.1 -0.6
v 0.4 2.2 -0.6
v 0.1 2.2 -0.7
v 0.1 2.3 -0.7
v 0.2 2.2 -0.7
v 0.2 2.3 -0.7
v 0.4 2.1 -0.7
v 0.4 2.2 -0.7
v 0.5 2.1 -0.7
v 0.5 2.2 -0.7
v 0 2 -0.8
v 0 2.1 -0.8
v 0 2.2 -0.8
v 0.3 2.1 -0.8
v 0.3 2.2 -0.8
v 0.5 2.1 -0.8
v 0.5 2.2 -0.8
v 0.8 2 -0.8
v 0.8 2.1 -0.8
v 0.8 2.2 -0.8
v 0 2 0
v 0.8 2 0
v 0.1 2 -0.1
v 0.2 2 -0.1
v 0.6 2 -0.1
v 0.7 2 -0.1
v 0.1 2 -0.2
v 0.2 2 -0.2
v 0.3 2 -0.2
v 0.4 2 -0.2
v 0.5 2 -0.2
v 0.6 2 -0.2
v 0.7 2 -0.2
v 0.1 2 -0.3
v 0.2 2 -0.3
v 0.5 2 -0.3
v 0.7 2 -0.3
v 0.1 2 -0.4
v 0.2 2 -0.4
v 0.4 2 -0.4
v 0.5 2 -0.4
v 0.1 2 -0.5
v 0.2 2 -0.5
v 0.3 2 -0.5
v 0.4 2 -0.5
v 0.5 2 -0.5
v 0.6 2 -0.5
v 0.1 2 -0.6
v 0.2 2 -0.6
v 0.3 2 -0.6
v 0.4 2 -0.6
v 0.5 2 -0.6
v 0.6 2 -0.6
v 0.1 2 -0.7
v 0.2 2 -0.7
v 0.3 2 -0.7
v 0 2 -0.8
v 0.8 2 -0.8
v 0.3 2.1 -0.6
v 0.4 2.1 -0.6
v 0.4 2.1 -0.7
v 0.5 2.1 -0.7
v 0.3 2.1 -0.8
v 0.5 2.1 -0.8
v 0 2.2 0
v 0.8 2.2 0
v 0.3 2.2 -0.1
v 0.4 2.2 -0.1
v 0.6 2.2 -0.1
v 0.7 2.2 -0.1
v 0.3 2.2 -0.2
v 0.4 2.2 -0.2
v 0.5 2.2 -0.2
v 0.6 2.2 -0.2
v 0.7 2.2 -0.2
v 0.5 2.2 -0.3
v 0.6 2.2 -0.3
v 0.5 2.2 -0.4
v 0.6 2.2 -0.4
v 0.5 2.2 -0.5
v 0.6 2.2 -0.5
v 0.1 2.2 -0.6
v 0.2 2.2 -0.6
v 0.3 2.2 -0.6
v 0.4 2.2 -0.6
v 0.1 2.2 -0.7
v 0.2 2.2 -0.7
v 0.4 2.2 -0.7
v 0.5 2.2 -0.7
v 0 2.2 -0.8
v 0.3 2.2 -0.8
v 0.5 2.2 -0.8
v 0.8 2.2 -0.8
v 0.3 2.3 -0.1
v 0.4 2.3 -0.1
v 0.6 2.3 -0.1
v 0.7 2.3 -0.1
v 0.3 2.3 -0.2
v 0.4 2.3 -0.2
v 0.5 2.3 -0.2
v 0.6 2.3 -0.2
v 0.7 2.3 -0.2
v 0.5 2.3 -0.3
v 0.6 2.3 -0.3
v 0.1 2.3 -0.6
v 0.2 2.3 -0.6
v 0.1 2.3 -0.7
v 0.2 2.3 -0.7

# faces
f 3/1/1 2/1/1 1/1/1
f 4/1/1 2/1/1 3/1/1
f 5/3/1 4/3/1 3/3/1
f 6/3/1 4/3/1 5/3/1
f 9/2/1 8/2/1 7/2/1
f 10/2/1 8/2/1 9/2/1
f 13/3/1 12/3/1 11/3/1
f 14/3/1 12/3/1 13/3/1
f 17/3/1 16/3/1 15/3/1
f 18/3/1 16/3/1 17/3/1
f 23/3/1 20/3/1 19/3/1
f 24/3/1 20/3/1 23/3/1
f 25/3/1 22/3/1 21/3/1
f 26/3/1 22/3/1 25/3/1
f 29/3/1 28/3/1 27/3/1
f 30/3/1 28/3/1 29/3/1
f 31/2/2 32/2/2 33/2/2
f 33/2/2 32/2/2 34/2/2
f 35/3/2 36/3/2 37/3/2
f 37/3/2 36/3/2 38/3/2
f 39/3/2 40/3/2 41/3/2
f 41/3/2 40/3/2 42/3/2
f 43/3/2 44/3/2 45/3/2
f 45/3/2 44/3/2 46/3/2
f 47/3/2 48/3/2 49/3/2
f 49/3/2 48/3/2 50/3/2
f 51/1/2 52/1/2 53/1/2
f 53/1/2 52/1/2 54/1/2
f 53/3/2 54/3/2 55/3/2
f 55/3/2 54/3/2 56/3/2
f 60/1/3 58/1/3 57/1/3
f 61/3/3 59/3/3 58/3/3
f 61/1/3 58/1/3 60/1/3
f 62/3/3 59/3/3 61/3/3
f 65/3/3 64/3/3 63/3/3
f 66/3/3 64/3/3 65/3/3
f 69/3/3 68/3/3 67/3/3
f 70/3/3 68/3/3 69/3/3
f 73/3/3 72/3/3 71/3/3
f 74/3/3 72/3/3 73/3/3
f 77/2/3 76/2/3 75/2/3
f 78/2/3 76/2/3 77/2/3
f 79/3/4 80/3/4 81/3/4
f 81/3/4 80/3/4 82/3/4
f 83/3/4 84/3/4 85/3/4
f 85/3/4 84/3/4 86/3/4
f 87/3/4 88/3/4 89/3/4
f 89/3/4 88/3/4 90/3/4
f 91/3/4 92/3/4 93/3/4
f 93/3/4 92/3/4 94/3/4
f 95/2/4 96/2/4 97/2/4
f 97/2/4 96/2/4 98/2/4
f 99/3/4 100/3/4 101/3/4
f 101/3/4 100/3/4 102/3/4
f 103/1/4 104/1/4 106/1/4
f 104/3/4 105/3/4 106/3/4
f 106/3/4 105/3/4 107/3/4
f 103/1/4 106/1/4 108/1/4
f 103/1/4 108/1/4 110/1/4
f 108/3/4 109/3/4 111/3/4
f 110/1/4 108/1/4 111/1/4
f 111/3/4 109/3/4 112/3/4
f 115/1/5 114/1/5 113/1/5
f 116/1/5 114/1/5 115/1/5
f 117/1/5 114/1/5 116/1/5
f 118/1/5 114/1/5 117/1/5
f 119/1/5 115/1/5 113/1/5
f 119/2/5 116/2/5 115/2/5
f 120/1/5 117/1/5 116/1/5
f 120/2/5 116/2/5 119/2/5
f 121/1/5 117/1/5 120/1/5
f 122/1/5 117/1/5 121/1/5
f 123/1/5 117/1/5 122/1/5
f 124/2/5 118/2/5 117/2/5
f 124/1/5 117/1/5 123/1/5
f 125/1/5 114/1/5 118/1/5
f 125/2/5 118/2/5 124/2/5
f 126/1/5 119/1/5 113/1/5
f 126/1/5 120/1/5 119/1/5
f 126/1/5 121/1/5 120/1/5
f 127/1/5 121/1/5 126/1/5
f 128/3/5 124/3/5 123/3/5
f 128/1/5 123/1/5 122/1/5
f 128/3/5 125/3/5 124/3/5
f 129/1/5 114/1/5 125/1/5
f 129/3/5 125/3/5 128/3/5
f 130/3/5 127/3/5 126/3/5
f 130/1/5 126/1/5 113/1/5
f 131/1/5 121/1/5 127/1/5
f 131/3/5 127/3/5 130/3/5
f 132/1/5 128/1/5 122/1/5
f 132/1/5 129/1/5 128/1/5
f 132/3/5 122/3/5 121/3/5
f 133/1/5 129/1/5 132/1/5
f 134/1/5 130/1/5 113/1/5
f 134/1/5 131/1/5 130/1/5
f 135/1/5 121/1/5 131/1/5
f 135/1/5 131/1/5 134/1/5
f 136/3/5 133/3/5 132/3/5
f 136/1/5 121/1/5 135/1/5
f 136/3/5 132/3/5 121/3/5
f 137/3/5 133/3/5 136/3/5
f 138/1/5 129/1/5 133/1/5
f 138/3/5 133/3/5 137/3/5
f 139/1/5 129/1/5 138/1/5
f 140/1/5 134/1/5 113/1/5
f 140/3/5 135/3/5 134/3/5
f 141/1/5 137/1/5 136/1/5
f 141/3/5 135/3/5 140/3/5
f 141/1/5 136/1/5 135/1/5
f 142/1/5 137/1/5 141/1/5
f 143/3/5 138/3/5 137/3/5
f 143/1/5 137/1/5 142/1/5
f 144/2/5 139/2/5 138/2/5
f 144/3/5 138/3/5 143/3/5
f 145/1/5 129/1/5 139/1/5
f 145/2/5 139/2/5 144/2/5
f 146/1/5 140/1/5 113/1/5
f 146/2/5 141/2/5 140/2/5
f 147/3/5 142/3/5 141/3/5
f 147/2/5 141/2/5 146/2/5
f 148/1/5 144/1/5 143/1/5
f 148/3/5 142/3/5 147/3/5
f 148/1/5 143/1/5 142/1/5
f 148/1/5 145/1/5 144/1/5
f 149/1/5 147/1/5 146/1/5
f 149/1/5 146/1/5 113/1/5
f 149/1/5 148/1/5 147/1/5
f 150/1/5 129/1/5 145/1/5
f 150/1/5 148/1/5 149/1/5
f 150/1/5 114/1/5 129/1/5
f 150/1/5 145/1/5 148/1/5
f 151/1/6 152/1/6 153/1/6
f 151/1/6 153/1/6 155/1/6
f 153/1/6 154/1/6 155/1/6
f 155/1/6 154/1/6 156/1/6
f 157/3/6 158/3/6 159/3/6
f 159/3/6 158/3/6 160/3/6
f 160/3/6 158/3/6 161/3/6
f 161/3/6 158/3/6 162/3/6
f 157/3/6 159/3/6 163/3/6
f 160/3/6 161/3/6 164/3/6
f 164/3/6 161/3/6 165/3/6
f 165/3/6 161/3/6 166/3/6
f 162/3/6 158/3/6 167/3/6
f 163/3/6 164/3/6 168/3/6
f 164/3/6 165/3/6 168/3/6
f 166/3/6 167/3/6 169/3/6
f 163/3/6 168/3/6 170/3/6
f 168/3/6 169/3/6 170/3/6
f 169/3/6 167/3/6 171/3/6
f 170/3/6 169/3/6 171/3/6
f 163/3/6 170/3/6 172/3/6
f 170/2/6 171/2/6 172/2/6
f 171/3/6 167/3/6 173/3/6
f 172/2/6 171/2/6 173/2/6
f 163/3/6 172/3/6 174/3/6
f 157/3/6 163/3/6 174/3/6
f 172/3/6 173/3/6 174/3/6
f 174/3/6 173/3/6 175/3/6
f 175/3/6 173/3/6 176/3/6
f 176/3/6 173/3/6 177/3/6
f 157/3/6 174/3/6 178/3/6
f 175/3/6 176/3/6 179/3/6
f 177/3/6 173/3/6 180/3/6
f 180/3/6 173/3/6 181/3/6
f 178/3/6 179/3/6 182/3/6
f 157/3/6 178/3/6 182/3/6
f 179/3/6 176/3/6 183/3/6
f 182/3/6 179/3/6 183/3/6
f 181/3/6 173/3/6 184/3/6
f 173/3/6 167/3/6 185/3/6
f 184/3/6 173/3/6 185/3/6
f 167/3/6 158/3/6 185/3/6
f 186/3/6 187/3/6 190/3/6
f 190/3/6 187/3/6 191/3/6
f 188/3/6 189/3/6 193/3/6
f 193/3/6 189/3/6 194/3/6
f 192/3/6 193/3/6 195/3/6
f 195/3/6 193/3/6 196/3/6
f 197/2/6 198/2/6 199/2/6
f 199/2/6 198/2/6 200/2/6
