# MagicaVoxel @ Ephtracy

# group
o 

# material
mtllib GreenCorall4.mtl
usemtl palette

# normals
vn -1 0 0
vn 1 0 0
vn 0 0 1
vn 0 0 -1
vn 0 -1 0
vn 0 1 0

# texcoords
vt 0.744141 0.5
vt 0.763672 0.5
vt 0.791016 0.5

# verts
v 0 2 0
v 0 2 -0.8
v 0 2.1 0
v 0 2.1 -0.4
v 0 2.1 -0.5
v 0 2.1 -0.8
v 0 2.2 0
v 0 2.2 -0.4
v 0 2.2 -0.5
v 0 2.2 -0.8
v 0.2 2.1 -0.6
v 0.2 2.1 -0.7
v 0.2 2.2 0
v 0.2 2.2 -0.1
v 0.2 2.2 -0.6
v 0.2 2.2 -0.7
v 0.2 2.3 0
v 0.2 2.3 -0.1
v 0.5 2.1 0
v 0.5 2.1 -0.1
v 0.5 2.1 -0.7
v 0.5 2.1 -0.8
v 0.5 2.2 0
v 0.5 2.2 -0.1
v 0.5 2.2 -0.7
v 0.5 2.2 -0.8
v 0.6 2.1 -0.2
v 0.6 2.1 -0.3
v 0.6 2.1 -0.4
v 0.6 2.1 -0.5
v 0.6 2.1 -0.6
v 0.6 2.2 -0.2
v 0.6 2.2 -0.3
v 0.6 2.2 -0.4
v 0.6 2.2 -0.6
v 0.7 2 -0.2
v 0.7 2 -0.3
v 0.7 2.1 -0.1
v 0.7 2.1 -0.2
v 0.7 2.1 -0.3
v 0.7 2.1 -0.4
v 0.7 2.1 -0.6
v 0.7 2.1 -0.7
v 0.7 2.2 -0.1
v 0.7 2.2 -0.2
v 0.7 2.2 -0.3
v 0.7 2.2 -0.4
v 0.7 2.2 -0.6
v 0.7 2.2 -0.7
v 0.1 2.1 -0.1
v 0.1 2.1 -0.2
v 0.1 2.1 -0.3
v 0.1 2.1 -0.4
v 0.1 2.1 -0.5
v 0.1 2.1 -0.7
v 0.1 2.2 -0.1
v 0.1 2.2 -0.2
v 0.1 2.2 -0.3
v 0.1 2.2 -0.4
v 0.1 2.2 -0.5
v 0.1 2.2 -0.7
v 0.2 2.1 -0.2
v 0.2 2.1 -0.3
v 0.2 2.2 -0.2
v 0.2 2.2 -0.3
v 0.3 2.1 0
v 0.3 2.1 -0.1
v 0.3 2.1 -0.7
v 0.3 2.1 -0.8
v 0.3 2.2 0
v 0.3 2.2 -0.1
v 0.3 2.2 -0.7
v 0.3 2.2 -0.8
v 0.4 2.2 0
v 0.4 2.2 -0.1
v 0.4 2.3 0
v 0.4 2.3 -0.1
v 0.6 2 -0.2
v 0.6 2 -0.3
v 0.6 2.1 -0.2
v 0.6 2.1 -0.3
v 0.6 2.1 -0.6
v 0.6 2.1 -0.7
v 0.6 2.2 -0.6
v 0.6 2.2 -0.7
v 0.7 2.1 -0.4
v 0.7 2.1 -0.5
v 0.7 2.2 -0.4
v 0.7 2.2 -0.5
v 0.8 2 0
v 0.8 2 -0.8
v 0.8 2.1 0
v 0.8 2.1 -0.4
v 0.8 2.1 -0.5
v 0.8 2.1 -0.8
v 0.8 2.2 0
v 0.8 2.2 -0.4
v 0.8 2.2 -0.5
v 0.8 2.2 -0.8
v 0 2 0
v 0 2.1 0
v 0 2.2 0
v 0.2 2.2 0
v 0.2 2.3 0
v 0.3 2.1 0
v 0.3 2.2 0
v 0.4 2.2 0
v 0.4 2.3 0
v 0.5 2.1 0
v 0.5 2.2 0
v 0.8 2 0
v 0.8 2.1 0
v 0.8 2.2 0
v 0.1 2.1 -0.2
v 0.1 2.2 -0.2
v 0.2 2.1 -0.2
v 0.2 2.2 -0.2
v 0.6 2.1 -0.2
v 0.6 2.2 -0.2
v 0.7 2.1 -0.2
v 0.7 2.2 -0.2
v 0.6 2 -0.3
v 0.6 2.1 -0.3
v 0.7 2 -0.3
v 0.7 2.1 -0.3
v 0.6 2.1 -0.4
v 0.6 2.2 -0.4
v 0.7 2.1 -0.4
v 0.7 2.2 -0.4
v 0 2.1 -0.5
v 0 2.2 -0.5
v 0.1 2.1 -0.5
v 0.1 2.2 -0.5
v 0.7 2.1 -0.5
v 0.7 2.2 -0.5
v 0.8 2.1 -0.5
v 0.8 2.2 -0.5
v 0.2 2.1 -0.6
v 0.2 2.2 -0.6
v 0.4 2.1 -0.6
v 0.4 2.2 -0.6
v 0.5 2.1 -0.6
v 0.5 2.2 -0.6
v 0.6 2.1 -0.6
v 0.6 2.2 -0.6
v 0.1 2.1 -0.7
v 0.1 2.2 -0.7
v 0.2 2.1 -0.7
v 0.2 2.2 -0.7
v 0.6 2.1 -0.7
v 0.6 2.2 -0.7
v 0.7 2.1 -0.7
v 0.7 2.2 -0.7
v 0.1 2.1 -0.1
v 0.1 2.2 -0.1
v 0.2 2.2 -0.1
v 0.2 2.3 -0.1
v 0.3 2.1 -0.1
v 0.3 2.2 -0.1
v 0.4 2.2 -0.1
v 0.4 2.3 -0.1
v 0.5 2.1 -0.1
v 0.5 2.2 -0.1
v 0.6 2.1 -0.1
v 0.7 2.1 -0.1
v 0.7 2.2 -0.1
v 0.6 2 -0.2
v 0.6 2.1 -0.2
v 0.7 2 -0.2
v 0.7 2.1 -0.2
v 0.1 2.1 -0.3
v 0.1 2.2 -0.3
v 0.2 2.1 -0.3
v 0.2 2.2 -0.3
v 0.6 2.1 -0.3
v 0.6 2.2 -0.3
v 0.7 2.1 -0.3
v 0.7 2.2 -0.3
v 0 2.1 -0.4
v 0 2.2 -0.4
v 0.1 2.1 -0.4
v 0.1 2.2 -0.4
v 0.7 2.1 -0.4
v 0.7 2.2 -0.4
v 0.8 2.1 -0.4
v 0.8 2.2 -0.4
v 0.6 2.1 -0.6
v 0.6 2.2 -0.6
v 0.7 2.1 -0.6
v 0.7 2.2 -0.6
v 0.3 2.1 -0.7
v 0.3 2.2 -0.7
v 0.4 2.1 -0.7
v 0.4 2.2 -0.7
v 0.5 2.1 -0.7
v 0.5 2.2 -0.7
v 0 2 -0.8
v 0 2.1 -0.8
v 0 2.2 -0.8
v 0.3 2.1 -0.8
v 0.3 2.2 -0.8
v 0.5 2.1 -0.8
v 0.5 2.2 -0.8
v 0.8 2 -0.8
v 0.8 2.1 -0.8
v 0.8 2.2 -0.8
v 0 2 0
v 0.8 2 0
v 0.6 2 -0.1
v 0.7 2 -0.1
v 0.3 2 -0.2
v 0.4 2 -0.2
v 0.5 2 -0.2
v 0.6 2 -0.2
v 0.7 2 -0.2
v 0.1 2 -0.3
v 0.2 2 -0.3
v 0.3 2 -0.3
v 0.4 2 -0.3
v 0.5 2 -0.3
v 0.6 2 -0.3
v 0.7 2 -0.3
v 0.1 2 -0.4
v 0.2 2 -0.4
v 0.3 2 -0.4
v 0.4 2 -0.4
v 0.5 2 -0.4
v 0.3 2 -0.5
v 0.5 2 -0.5
v 0.6 2 -0.5
v 0.5 2 -0.6
v 0.6 2 -0.6
v 0 2 -0.8
v 0.8 2 -0.8
v 0.6 2.1 -0.2
v 0.7 2.1 -0.2
v 0.6 2.1 -0.3
v 0.7 2.1 -0.3
v 0.3 2.2 0
v 0.4 2.2 0
v 0.3 2.2 -0.1
v 0.4 2.2 -0.1
v 0.3 2.1 0
v 0.5 2.1 0
v 0.1 2.1 -0.1
v 0.3 2.1 -0.1
v 0.5 2.1 -0.1
v 0.6 2.1 -0.1
v 0.7 2.1 -0.1
v 0.1 2.1 -0.2
v 0.2 2.1 -0.2
v 0.3 2.1 -0.2
v 0.4 2.1 -0.2
v 0.5 2.1 -0.2
v 0.6 2.1 -0.2
v 0.7 2.1 -0.2
v 0.1 2.1 -0.3
v 0.2 2.1 -0.3
v 0.3 2.1 -0.3
v 0.4 2.1 -0.3
v 0.5 2.1 -0.3
v 0.6 2.1 -0.3
v 0.7 2.1 -0.3
v 0 2.1 -0.4
v 0.1 2.1 -0.4
v 0.2 2.1 -0.4
v 0.3 2.1 -0.4
v 0.4 2.1 -0.4
v 0.5 2.1 -0.4
v 0.6 2.1 -0.4
v 0.7 2.1 -0.4
v 0.8 2.1 -0.4
v 0 2.1 -0.5
v 0.1 2.1 -0.5
v 0.3 2.1 -0.5
v 0.5 2.1 -0.5
v 0.6 2.1 -0.5
v 0.7 2.1 -0.5
v 0.8 2.1 -0.5
v 0.2 2.1 -0.6
v 0.4 2.1 -0.6
v 0.5 2.1 -0.6
v 0.6 2.1 -0.6
v 0.7 2.1 -0.6
v 0.1 2.1 -0.7
v 0.2 2.1 -0.7
v 0.3 2.1 -0.7
v 0.4 2.1 -0.7
v 0.5 2.1 -0.7
v 0.6 2.1 -0.7
v 0.7 2.1 -0.7
v 0.3 2.1 -0.8
v 0.5 2.1 -0.8
v 0 2.2 0
v 0.2 2.2 0
v 0.5 2.2 0
v 0.8 2.2 0
v 0.1 2.2 -0.1
v 0.2 2.2 -0.1
v 0.5 2.2 -0.1
v 0.7 2.2 -0.1
v 0.1 2.2 -0.2
v 0.2 2.2 -0.2
v 0.6 2.2 -0.2
v 0.7 2.2 -0.2
v 0.1 2.2 -0.3
v 0.2 2.2 -0.3
v 0.6 2.2 -0.3
v 0.7 2.2 -0.3
v 0 2.2 -0.4
v 0.1 2.2 -0.4
v 0.6 2.2 -0.4
v 0.7 2.2 -0.4
v 0.8 2.2 -0.4
v 0 2.2 -0.5
v 0.1 2.2 -0.5
v 0.7 2.2 -0.5
v 0.8 2.2 -0.5
v 0.2 2.2 -0.6
v 0.4 2.2 -0.6
v 0.5 2.2 -0.6
v 0.6 2.2 -0.6
v 0.7 2.2 -0.6
v 0.1 2.2 -0.7
v 0.2 2.2 -0.7
v 0.3 2.2 -0.7
v 0.4 2.2 -0.7
v 0.5 2.2 -0.7
v 0.6 2.2 -0.7
v 0.7 2.2 -0.7
v 0 2.2 -0.8
v 0.3 2.2 -0.8
v 0.5 2.2 -0.8
v 0.8 2.2 -0.8
v 0.2 2.3 0
v 0.4 2.3 0
v 0.2 2.3 -0.1
v 0.4 2.3 -0.1

# faces
f 3/1/1 2/1/1 1/1/1
f 4/1/1 2/1/1 3/1/1
f 5/1/1 2/1/1 4/1/1
f 6/1/1 2/1/1 5/1/1
f 7/3/1 4/3/1 3/3/1
f 8/3/1 4/3/1 7/3/1
f 9/3/1 6/3/1 5/3/1
f 10/3/1 6/3/1 9/3/1
f 15/3/1 12/3/1 11/3/1
f 16/3/1 12/3/1 15/3/1
f 17/3/1 14/3/1 13/3/1
f 18/3/1 14/3/1 17/3/1
f 23/3/1 20/3/1 19/3/1
f 24/3/1 20/3/1 23/3/1
f 25/3/1 22/3/1 21/3/1
f 26/3/1 22/3/1 25/3/1
f 32/3/1 28/3/1 27/3/1
f 33/3/1 28/3/1 32/3/1
f 34/3/1 31/3/1 30/3/1
f 34/3/1 30/3/1 29/3/1
f 35/3/1 31/3/1 34/3/1
f 39/1/1 37/1/1 36/1/1
f 40/1/1 37/1/1 39/1/1
f 44/3/1 39/3/1 38/3/1
f 45/3/1 39/3/1 44/3/1
f 46/3/1 41/3/1 40/3/1
f 47/3/1 41/3/1 46/3/1
f 48/3/1 43/3/1 42/3/1
f 49/3/1 43/3/1 48/3/1
f 50/3/2 51/3/2 56/3/2
f 56/3/2 51/3/2 57/3/2
f 52/3/2 53/3/2 58/3/2
f 58/3/2 53/3/2 59/3/2
f 54/3/2 55/3/2 60/3/2
f 60/3/2 55/3/2 61/3/2
f 62/3/2 63/3/2 64/3/2
f 64/3/2 63/3/2 65/3/2
f 66/3/2 67/3/2 70/3/2
f 70/3/2 67/3/2 71/3/2
f 68/3/2 69/3/2 72/3/2
f 72/3/2 69/3/2 73/3/2
f 74/3/2 75/3/2 76/3/2
f 76/3/2 75/3/2 77/3/2
f 78/3/2 79/3/2 80/3/2
f 80/3/2 79/3/2 81/3/2
f 82/3/2 83/3/2 84/3/2
f 84/3/2 83/3/2 85/3/2
f 86/3/2 87/3/2 88/3/2
f 88/3/2 87/3/2 89/3/2
f 90/1/2 91/1/2 92/1/2
f 92/1/2 91/1/2 93/1/2
f 93/1/2 91/1/2 94/1/2
f 94/1/2 91/1/2 95/1/2
f 92/3/2 93/3/2 96/3/2
f 96/3/2 93/3/2 97/3/2
f 94/3/2 95/3/2 98/3/2
f 98/3/2 95/3/2 99/3/2
f 103/3/3 102/3/3 101/3/3
f 105/1/3 101/1/3 100/1/3
f 105/3/3 104/3/3 103/3/3
f 105/3/3 103/3/3 101/3/3
f 106/3/3 104/3/3 105/3/3
f 107/3/3 104/3/3 106/3/3
f 108/3/3 104/3/3 107/3/3
f 109/1/3 105/1/3 100/1/3
f 111/1/3 109/1/3 100/1/3
f 112/3/3 110/3/3 109/3/3
f 112/1/3 109/1/3 111/1/3
f 113/3/3 110/3/3 112/3/3
f 116/3/3 115/3/3 114/3/3
f 117/3/3 115/3/3 116/3/3
f 120/3/3 119/3/3 118/3/3
f 121/3/3 119/3/3 120/3/3
f 124/1/3 123/1/3 122/1/3
f 125/1/3 123/1/3 124/1/3
f 128/3/3 127/3/3 126/3/3
f 129/3/3 127/3/3 128/3/3
f 132/3/3 131/3/3 130/3/3
f 133/3/3 131/3/3 132/3/3
f 136/3/3 135/3/3 134/3/3
f 137/3/3 135/3/3 136/3/3
f 140/3/3 139/3/3 138/3/3
f 141/3/3 139/3/3 140/3/3
f 142/2/3 141/2/3 140/2/3
f 143/2/3 141/2/3 142/2/3
f 144/3/3 143/3/3 142/3/3
f 145/3/3 143/3/3 144/3/3
f 148/3/3 147/3/3 146/3/3
f 149/3/3 147/3/3 148/3/3
f 152/3/3 151/3/3 150/3/3
f 153/3/3 151/3/3 152/3/3
f 154/3/4 155/3/4 156/3/4
f 154/3/4 156/3/4 158/3/4
f 156/3/4 157/3/4 158/3/4
f 158/3/4 157/3/4 159/3/4
f 159/3/4 157/3/4 160/3/4
f 160/3/4 157/3/4 161/3/4
f 162/3/4 163/3/4 164/3/4
f 164/3/4 163/3/4 165/3/4
f 165/3/4 163/3/4 166/3/4
f 167/2/4 168/2/4 169/2/4
f 169/2/4 168/2/4 170/2/4
f 171/3/4 172/3/4 173/3/4
f 173/3/4 172/3/4 174/3/4
f 175/3/4 176/3/4 177/3/4
f 177/3/4 176/3/4 178/3/4
f 179/3/4 180/3/4 181/3/4
f 181/3/4 180/3/4 182/3/4
f 183/3/4 184/3/4 185/3/4
f 185/3/4 184/3/4 186/3/4
f 187/3/4 188/3/4 189/3/4
f 189/3/4 188/3/4 190/3/4
f 191/3/4 192/3/4 193/3/4
f 193/3/4 192/3/4 194/3/4
f 193/2/4 194/2/4 195/2/4
f 195/2/4 194/2/4 196/2/4
f 197/1/4 198/1/4 200/1/4
f 198/3/4 199/3/4 200/3/4
f 200/3/4 199/3/4 201/3/4
f 197/1/4 200/1/4 202/1/4
f 197/1/4 202/1/4 204/1/4
f 202/3/4 203/3/4 205/3/4
f 204/1/4 202/1/4 205/1/4
f 205/3/4 203/3/4 206/3/4
f 209/1/5 208/1/5 207/1/5
f 210/1/5 208/1/5 209/1/5
f 211/1/5 209/1/5 207/1/5
f 212/1/5 209/1/5 211/1/5
f 213/1/5 209/1/5 212/1/5
f 214/2/5 210/2/5 209/2/5
f 214/1/5 209/1/5 213/1/5
f 215/1/5 208/1/5 210/1/5
f 215/2/5 210/2/5 214/2/5
f 216/1/5 211/1/5 207/1/5
f 217/1/5 211/1/5 216/1/5
f 218/3/5 212/3/5 211/3/5
f 218/1/5 211/1/5 217/1/5
f 219/1/5 213/1/5 212/1/5
f 219/3/5 212/3/5 218/3/5
f 220/3/5 214/3/5 213/3/5
f 220/1/5 213/1/5 219/1/5
f 221/3/5 214/3/5 220/3/5
f 222/1/5 208/1/5 215/1/5
f 223/2/5 217/2/5 216/2/5
f 223/1/5 216/1/5 207/1/5
f 224/1/5 218/1/5 217/1/5
f 224/2/5 217/2/5 223/2/5
f 225/2/5 219/2/5 218/2/5
f 225/1/5 218/1/5 224/1/5
f 226/1/5 221/1/5 220/1/5
f 226/2/5 219/2/5 225/2/5
f 226/1/5 222/1/5 221/1/5
f 226/1/5 220/1/5 219/1/5
f 227/1/5 222/1/5 226/1/5
f 228/1/5 224/1/5 223/1/5
f 228/1/5 225/1/5 224/1/5
f 228/3/5 227/3/5 226/3/5
f 228/3/5 226/3/5 225/3/5
f 229/1/5 222/1/5 227/1/5
f 229/3/5 227/3/5 228/3/5
f 230/1/5 222/1/5 229/1/5
f 231/1/5 229/1/5 228/1/5
f 231/3/5 230/3/5 229/3/5
f 232/1/5 222/1/5 230/1/5
f 232/3/5 230/3/5 231/3/5
f 233/1/5 228/1/5 223/1/5
f 233/1/5 223/1/5 207/1/5
f 233/1/5 232/1/5 231/1/5
f 233/1/5 231/1/5 228/1/5
f 234/1/5 222/1/5 232/1/5
f 234/1/5 232/1/5 233/1/5
f 234/1/5 208/1/5 222/1/5
f 237/3/5 236/3/5 235/3/5
f 238/3/5 236/3/5 237/3/5
f 241/3/5 240/3/5 239/3/5
f 242/3/5 240/3/5 241/3/5
f 243/1/6 244/1/6 246/1/6
f 246/1/6 244/1/6 247/1/6
f 245/1/6 246/1/6 250/1/6
f 246/1/6 247/1/6 250/1/6
f 247/1/6 248/1/6 250/1/6
f 250/1/6 248/1/6 251/1/6
f 251/1/6 248/1/6 252/1/6
f 252/1/6 248/1/6 253/1/6
f 253/1/6 248/1/6 254/1/6
f 248/2/6 249/2/6 255/2/6
f 254/1/6 248/1/6 255/1/6
f 255/2/6 249/2/6 256/2/6
f 251/1/6 252/1/6 258/1/6
f 252/3/6 253/3/6 259/3/6
f 258/1/6 252/1/6 259/1/6
f 253/1/6 254/1/6 260/1/6
f 259/3/6 253/3/6 260/3/6
f 254/3/6 255/3/6 261/3/6
f 260/1/6 254/1/6 261/1/6
f 261/3/6 255/3/6 262/3/6
f 257/2/6 258/2/6 265/2/6
f 258/1/6 259/1/6 266/1/6
f 265/2/6 258/2/6 266/2/6
f 259/2/6 260/2/6 267/2/6
f 266/1/6 259/1/6 267/1/6
f 262/1/6 263/1/6 268/1/6
f 267/2/6 260/2/6 268/2/6
f 260/1/6 261/1/6 268/1/6
f 261/1/6 262/1/6 268/1/6
f 268/1/6 263/1/6 269/1/6
f 269/1/6 263/1/6 270/1/6
f 270/1/6 263/1/6 271/1/6
f 264/1/6 265/1/6 273/1/6
f 265/1/6 266/1/6 273/1/6
f 266/1/6 267/1/6 273/1/6
f 273/1/6 267/1/6 274/1/6
f 268/3/6 269/3/6 275/3/6
f 274/1/6 267/1/6 275/1/6
f 267/3/6 268/3/6 275/3/6
f 269/1/6 270/1/6 276/1/6
f 275/3/6 269/3/6 276/3/6
f 276/1/6 270/1/6 277/1/6
f 271/1/6 272/1/6 278/1/6
f 278/1/6 272/1/6 279/1/6
f 274/1/6 275/1/6 280/1/6
f 275/1/6 276/1/6 280/1/6
f 280/1/6 276/1/6 281/1/6
f 276/3/6 277/3/6 282/3/6
f 281/1/6 276/1/6 282/1/6
f 282/3/6 277/3/6 283/3/6
f 274/1/6 280/1/6 285/1/6
f 285/1/6 280/1/6 286/1/6
f 283/1/6 284/1/6 290/1/6
f 290/1/6 284/1/6 291/1/6
f 288/1/6 289/1/6 292/1/6
f 287/1/6 288/1/6 292/1/6
f 292/1/6 289/1/6 293/1/6
f 294/3/6 295/3/6 298/3/6
f 298/3/6 295/3/6 299/3/6
f 296/3/6 297/3/6 300/3/6
f 300/3/6 297/3/6 301/3/6
f 294/3/6 298/3/6 302/3/6
f 301/3/6 297/3/6 305/3/6
f 302/3/6 303/3/6 306/3/6
f 294/3/6 302/3/6 306/3/6
f 306/3/6 303/3/6 307/3/6
f 304/3/6 305/3/6 308/3/6
f 305/3/6 297/3/6 309/3/6
f 308/3/6 305/3/6 309/3/6
f 294/3/6 306/3/6 310/3/6
f 310/3/6 306/3/6 311/3/6
f 309/3/6 297/3/6 313/3/6
f 313/3/6 297/3/6 314/3/6
f 312/3/6 313/3/6 317/3/6
f 312/3/6 317/3/6 322/3/6
f 317/3/6 318/3/6 322/3/6
f 322/3/6 318/3/6 323/3/6
f 315/3/6 316/3/6 324/3/6
f 319/3/6 320/3/6 325/3/6
f 325/3/6 320/3/6 326/3/6
f 320/2/6 321/2/6 327/2/6
f 326/3/6 320/3/6 327/3/6
f 321/3/6 322/3/6 328/3/6
f 327/2/6 321/2/6 328/2/6
f 328/3/6 322/3/6 329/3/6
f 323/3/6 318/3/6 330/3/6
f 325/3/6 326/3/6 331/3/6
f 315/3/6 324/3/6 331/3/6
f 324/3/6 325/3/6 331/3/6
f 331/3/6 326/3/6 332/3/6
f 328/3/6 329/3/6 333/3/6
f 329/3/6 330/3/6 333/3/6
f 330/3/6 318/3/6 334/3/6
f 333/3/6 330/3/6 334/3/6
f 335/3/6 336/3/6 337/3/6
f 337/3/6 336/3/6 338/3/6
