# MagicaVoxel @ Ephtracy

# group
o 

# material
mtllib Lava13.mtl
usemtl palette

# normals
vn -1 0 0
vn 1 0 0
vn 0 0 1
vn 0 0 -1
vn 0 -1 0
vn 0 1 0

# texcoords
vt 0.0175781 0.5
vt 0.0683594 0.5
vt 0.0917969 0.5
vt 0.279297 0.5
vt 0.865234 0.5
vt 0.873047 0.5

# verts
v 0 2 0
v 0 2 -0.8
v 0 2.1 0
v 0 2.1 -0.1
v 0 2.1 -0.3
v 0 2.1 -0.5
v 0 2.1 -0.7
v 0 2.1 -0.8
v 0 2.2 0
v 0 2.2 -0.1
v 0 2.2 -0.2
v 0 2.2 -0.3
v 0 2.2 -0.5
v 0 2.2 -0.7
v 0 2.2 -0.8
v 0 2.3 -0.2
v 0 2.3 -0.8
v 0.1 2.2 -0.1
v 0.1 2.2 -0.2
v 0.1 2.3 -0.1
v 0.1 2.3 -0.2
v 0.1 2.3 -0.5
v 0.1 2.3 -0.6
v 0.1 2.4 -0.5
v 0.1 2.4 -0.6
v 0.2 2.2 -0.6
v 0.2 2.2 -0.7
v 0.2 2.3 -0.6
v 0.2 2.3 -0.7
v 0.3 2.1 -0.3
v 0.3 2.1 -0.4
v 0.3 2.2 -0.1
v 0.3 2.2 -0.2
v 0.3 2.2 -0.3
v 0.3 2.2 -0.4
v 0.3 2.3 -0.1
v 0.3 2.3 -0.4
v 0.4 2.1 -0.5
v 0.4 2.1 -0.6
v 0.4 2.2 -0.5
v 0.4 2.2 -0.6
v 0.6 2.2 0
v 0.6 2.2 -0.1
v 0.6 2.2 -0.6
v 0.6 2.2 -0.7
v 0.6 2.3 0
v 0.6 2.3 -0.1
v 0.6 2.3 -0.6
v 0.6 2.3 -0.7
v 0.7 2.2 -0.4
v 0.7 2.2 -0.6
v 0.7 2.3 -0.4
v 0.7 2.3 -0.6
v 0.1 2.2 -0.6
v 0.1 2.2 -0.7
v 0.1 2.3 -0.6
v 0.1 2.3 -0.7
v 0.2 2.1 -0.3
v 0.2 2.1 -0.4
v 0.2 2.2 -0.1
v 0.2 2.2 -0.2
v 0.2 2.2 -0.3
v 0.2 2.2 -0.4
v 0.2 2.2 -0.6
v 0.2 2.3 -0.1
v 0.2 2.3 -0.5
v 0.2 2.3 -0.6
v 0.2 2.4 -0.5
v 0.2 2.4 -0.6
v 0.3 2.1 -0.5
v 0.3 2.1 -0.6
v 0.3 2.2 -0.5
v 0.3 2.2 -0.6
v 0.3 2.2 -0.7
v 0.3 2.3 -0.6
v 0.3 2.3 -0.7
v 0.8 2 0
v 0.8 2 -0.8
v 0.8 2.1 0
v 0.8 2.1 -0.1
v 0.8 2.1 -0.3
v 0.8 2.1 -0.5
v 0.8 2.1 -0.7
v 0.8 2.1 -0.8
v 0.8 2.2 0
v 0.8 2.2 -0.1
v 0.8 2.2 -0.3
v 0.8 2.2 -0.5
v 0.8 2.2 -0.7
v 0.8 2.2 -0.8
v 0.8 2.3 0
v 0.8 2.3 -0.8
v 0 2 0
v 0 2.1 0
v 0 2.2 0
v 0.1 2.1 0
v 0.1 2.2 0
v 0.3 2.1 0
v 0.3 2.2 0
v 0.5 2.1 0
v 0.5 2.2 0
v 0.6 2.2 0
v 0.6 2.3 0
v 0.7 2.1 0
v 0.7 2.2 0
v 0.8 2 0
v 0.8 2.1 0
v 0.8 2.2 0
v 0.8 2.3 0
v 0.1 2.2 -0.1
v 0.1 2.3 -0.1
v 0.2 2.2 -0.1
v 0.2 2.3 -0.1
v 0.3 2.2 -0.1
v 0.3 2.3 -0.1
v 0.5 2.2 -0.1
v 0.6 2.2 -0.1
v 0.6 2.3 -0.1
v 0 2.2 -0.2
v 0 2.3 -0.2
v 0.1 2.2 -0.2
v 0.1 2.3 -0.2
v 0.2 2.1 -0.4
v 0.2 2.2 -0.4
v 0.3 2.1 -0.4
v 0.3 2.2 -0.4
v 0.1 2.3 -0.5
v 0.1 2.4 -0.5
v 0.2 2.3 -0.5
v 0.2 2.4 -0.5
v 0.2 2.2 -0.6
v 0.2 2.3 -0.6
v 0.3 2.1 -0.6
v 0.3 2.2 -0.6
v 0.3 2.3 -0.6
v 0.4 2.1 -0.6
v 0.4 2.2 -0.6
v 0.6 2.2 -0.6
v 0.6 2.3 -0.6
v 0.7 2.2 -0.6
v 0.7 2.3 -0.6
v 0.1 2.2 -0.7
v 0.1 2.3 -0.7
v 0.2 2.2 -0.7
v 0.2 2.3 -0.7
v 0.3 2.2 -0.7
v 0.3 2.3 -0.7
v 0.6 2.2 -0.7
v 0.6 2.3 -0.7
v 0.2 2.1 -0.3
v 0.2 2.2 -0.3
v 0.3 2.1 -0.3
v 0.3 2.2 -0.3
v 0.3 2.2 -0.4
v 0.3 2.3 -0.4
v 0.7 2.2 -0.4
v 0.7 2.3 -0.4
v 0.3 2.1 -0.5
v 0.3 2.2 -0.5
v 0.4 2.1 -0.5
v 0.4 2.2 -0.5
v 0.1 2.2 -0.6
v 0.1 2.3 -0.6
v 0.1 2.4 -0.6
v 0.2 2.2 -0.6
v 0.2 2.3 -0.6
v 0.2 2.4 -0.6
v 0 2 -0.8
v 0 2.1 -0.8
v 0 2.2 -0.8
v 0 2.3 -0.8
v 0.1 2.1 -0.8
v 0.1 2.2 -0.8
v 0.3 2.1 -0.8
v 0.3 2.2 -0.8
v 0.5 2.1 -0.8
v 0.5 2.2 -0.8
v 0.7 2.1 -0.8
v 0.7 2.2 -0.8
v 0.8 2 -0.8
v 0.8 2.1 -0.8
v 0.8 2.2 -0.8
v 0.8 2.3 -0.8
v 0 2 0
v 0.8 2 0
v 0.3 2 -0.1
v 0.4 2 -0.1
v 0.2 2 -0.2
v 0.3 2 -0.2
v 0.4 2 -0.2
v 0.5 2 -0.2
v 0.7 2 -0.2
v 0.3 2 -0.3
v 0.5 2 -0.3
v 0.6 2 -0.3
v 0.7 2 -0.3
v 0.2 2 -0.4
v 0.3 2 -0.4
v 0.5 2 -0.4
v 0.6 2 -0.4
v 0.7 2 -0.4
v 0.3 2 -0.6
v 0.4 2 -0.6
v 0.7 2 -0.6
v 0.3 2 -0.7
v 0.4 2 -0.7
v 0 2 -0.8
v 0.8 2 -0.8
v 0.2 2.1 -0.3
v 0.3 2.1 -0.3
v 0.2 2.1 -0.4
v 0.3 2.1 -0.4
v 0.3 2.1 -0.5
v 0.4 2.1 -0.5
v 0.3 2.1 -0.6
v 0.4 2.1 -0.6
v 0 2.2 0
v 0.1 2.2 0
v 0.3 2.2 0
v 0.5 2.2 0
v 0.6 2.2 0
v 0 2.2 -0.1
v 0.1 2.2 -0.1
v 0.2 2.2 -0.1
v 0.3 2.2 -0.1
v 0.5 2.2 -0.1
v 0.6 2.2 -0.1
v 0 2.2 -0.2
v 0.1 2.2 -0.2
v 0.2 2.2 -0.2
v 0.3 2.2 -0.2
v 0.2 2.2 -0.3
v 0.3 2.2 -0.3
v 0.2 2.2 -0.4
v 0.3 2.2 -0.4
v 0.7 2.2 -0.4
v 0.3 2.2 -0.5
v 0.4 2.2 -0.5
v 0.1 2.2 -0.6
v 0.2 2.2 -0.6
v 0.3 2.2 -0.6
v 0.4 2.2 -0.6
v 0.6 2.2 -0.6
v 0.7 2.2 -0.6
v 0.1 2.2 -0.7
v 0.2 2.2 -0.7
v 0.3 2.2 -0.7
v 0.6 2.2 -0.7
v 0.6 2.3 0
v 0.8 2.3 0
v 0.1 2.3 -0.1
v 0.2 2.3 -0.1
v 0.3 2.3 -0.1
v 0.6 2.3 -0.1
v 0 2.3 -0.2
v 0.1 2.3 -0.2
v 0.3 2.3 -0.4
v 0.7 2.3 -0.4
v 0.1 2.3 -0.5
v 0.2 2.3 -0.5
v 0.1 2.3 -0.6
v 0.2 2.3 -0.6
v 0.3 2.3 -0.6
v 0.6 2.3 -0.6
v 0.7 2.3 -0.6
v 0.1 2.3 -0.7
v 0.2 2.3 -0.7
v 0.3 2.3 -0.7
v 0.6 2.3 -0.7
v 0 2.3 -0.8
v 0.8 2.3 -0.8
v 0.1 2.4 -0.5
v 0.2 2.4 -0.5
v 0.1 2.4 -0.6
v 0.2 2.4 -0.6

# faces
f 3/1/1 2/1/1 1/1/1
f 4/1/1 2/1/1 3/1/1
f 5/1/1 2/1/1 4/1/1
f 6/1/1 2/1/1 5/1/1
f 7/1/1 2/1/1 6/1/1
f 8/1/1 2/1/1 7/1/1
f 9/5/1 4/5/1 3/5/1
f 10/4/1 5/4/1 4/4/1
f 10/5/1 4/5/1 9/5/1
f 11/4/1 5/4/1 10/4/1
f 12/3/1 6/3/1 5/3/1
f 12/4/1 5/4/1 11/4/1
f 13/4/1 7/4/1 6/4/1
f 13/3/1 6/3/1 12/3/1
f 14/5/1 8/5/1 7/5/1
f 14/4/1 7/4/1 13/4/1
f 15/5/1 8/5/1 14/5/1
f 16/6/1 12/6/1 11/6/1
f 16/6/1 15/6/1 14/6/1
f 16/6/1 14/6/1 13/6/1
f 16/6/1 13/6/1 12/6/1
f 17/6/1 15/6/1 16/6/1
f 20/6/1 19/6/1 18/6/1
f 21/6/1 19/6/1 20/6/1
f 24/6/1 23/6/1 22/6/1
f 25/6/1 23/6/1 24/6/1
f 28/6/1 27/6/1 26/6/1
f 29/6/1 27/6/1 28/6/1
f 34/6/1 31/6/1 30/6/1
f 35/6/1 31/6/1 34/6/1
f 36/6/1 33/6/1 32/6/1
f 36/6/1 34/6/1 33/6/1
f 36/6/1 35/6/1 34/6/1
f 37/6/1 35/6/1 36/6/1
f 40/6/1 39/6/1 38/6/1
f 41/6/1 39/6/1 40/6/1
f 46/6/1 43/6/1 42/6/1
f 47/6/1 43/6/1 46/6/1
f 48/6/1 45/6/1 44/6/1
f 49/6/1 45/6/1 48/6/1
f 52/6/1 51/6/1 50/6/1
f 53/6/1 51/6/1 52/6/1
f 54/6/2 55/6/2 56/6/2
f 56/6/2 55/6/2 57/6/2
f 58/6/2 59/6/2 62/6/2
f 62/6/2 59/6/2 63/6/2
f 60/6/2 61/6/2 65/6/2
f 63/6/2 64/6/2 65/6/2
f 62/6/2 63/6/2 65/6/2
f 61/6/2 62/6/2 65/6/2
f 65/6/2 64/6/2 66/6/2
f 66/6/2 64/6/2 67/6/2
f 66/6/2 67/6/2 68/6/2
f 68/6/2 67/6/2 69/6/2
f 70/6/2 71/6/2 72/6/2
f 72/6/2 71/6/2 73/6/2
f 73/6/2 74/6/2 75/6/2
f 75/6/2 74/6/2 76/6/2
f 77/1/2 78/1/2 79/1/2
f 79/1/2 78/1/2 80/1/2
f 80/1/2 78/1/2 81/1/2
f 81/1/2 78/1/2 82/1/2
f 82/1/2 78/1/2 83/1/2
f 83/1/2 78/1/2 84/1/2
f 79/5/2 80/5/2 85/5/2
f 80/4/2 81/4/2 86/4/2
f 85/5/2 80/5/2 86/5/2
f 81/3/2 82/3/2 87/3/2
f 86/4/2 81/4/2 87/4/2
f 82/4/2 83/4/2 88/4/2
f 87/3/2 82/3/2 88/3/2
f 83/5/2 84/5/2 89/5/2
f 88/4/2 83/4/2 89/4/2
f 89/5/2 84/5/2 90/5/2
f 85/6/2 86/6/2 91/6/2
f 86/6/2 87/6/2 91/6/2
f 89/6/2 90/6/2 91/6/2
f 88/6/2 89/6/2 91/6/2
f 87/6/2 88/6/2 91/6/2
f 91/6/2 90/6/2 92/6/2
f 96/1/3 94/1/3 93/1/3
f 96/5/3 95/5/3 94/5/3
f 97/5/3 95/5/3 96/5/3
f 98/1/3 96/1/3 93/1/3
f 98/4/3 97/4/3 96/4/3
f 99/4/3 97/4/3 98/4/3
f 100/1/3 98/1/3 93/1/3
f 100/3/3 99/3/3 98/3/3
f 101/3/3 99/3/3 100/3/3
f 102/4/3 101/4/3 100/4/3
f 104/4/3 102/4/3 100/4/3
f 104/1/3 100/1/3 93/1/3
f 105/6/3 103/6/3 102/6/3
f 105/4/3 102/4/3 104/4/3
f 106/1/3 104/1/3 93/1/3
f 107/5/3 105/5/3 104/5/3
f 107/1/3 104/1/3 106/1/3
f 108/6/3 103/6/3 105/6/3
f 108/5/3 105/5/3 107/5/3
f 109/6/3 103/6/3 108/6/3
f 112/6/3 111/6/3 110/6/3
f 113/6/3 111/6/3 112/6/3
f 116/6/3 115/6/3 114/6/3
f 117/6/3 115/6/3 116/6/3
f 118/6/3 115/6/3 117/6/3
f 121/6/3 120/6/3 119/6/3
f 122/6/3 120/6/3 121/6/3
f 125/6/3 124/6/3 123/6/3
f 126/6/3 124/6/3 125/6/3
f 129/6/3 128/6/3 127/6/3
f 130/6/3 128/6/3 129/6/3
f 134/6/3 132/6/3 131/6/3
f 135/6/3 132/6/3 134/6/3
f 136/6/3 134/6/3 133/6/3
f 137/6/3 134/6/3 136/6/3
f 140/6/3 139/6/3 138/6/3
f 141/6/3 139/6/3 140/6/3
f 144/6/3 143/6/3 142/6/3
f 145/6/3 143/6/3 144/6/3
f 148/6/3 147/6/3 146/6/3
f 149/6/3 147/6/3 148/6/3
f 150/6/4 151/6/4 152/6/4
f 152/6/4 151/6/4 153/6/4
f 154/6/4 155/6/4 156/6/4
f 156/6/4 155/6/4 157/6/4
f 158/6/4 159/6/4 160/6/4
f 160/6/4 159/6/4 161/6/4
f 162/6/4 163/6/4 165/6/4
f 163/6/4 164/6/4 165/6/4
f 165/6/4 164/6/4 166/6/4
f 166/6/4 164/6/4 167/6/4
f 168/1/4 169/1/4 172/1/4
f 169/5/4 170/5/4 172/5/4
f 170/6/4 171/6/4 173/6/4
f 172/5/4 170/5/4 173/5/4
f 168/1/4 172/1/4 174/1/4
f 172/4/4 173/4/4 174/4/4
f 173/6/4 171/6/4 175/6/4
f 174/4/4 173/4/4 175/4/4
f 168/1/4 174/1/4 176/1/4
f 174/3/4 175/3/4 176/3/4
f 175/6/4 171/6/4 177/6/4
f 176/3/4 175/3/4 177/3/4
f 168/1/4 176/1/4 178/1/4
f 176/4/4 177/4/4 178/4/4
f 177/6/4 171/6/4 179/6/4
f 178/4/4 177/4/4 179/4/4
f 168/1/4 178/1/4 180/1/4
f 178/5/4 179/5/4 181/5/4
f 180/1/4 178/1/4 181/1/4
f 179/6/4 171/6/4 182/6/4
f 181/5/4 179/5/4 182/5/4
f 182/6/4 171/6/4 183/6/4
f 186/1/5 185/1/5 184/1/5
f 187/1/5 185/1/5 186/1/5
f 188/1/5 186/1/5 184/1/5
f 189/2/5 187/2/5 186/2/5
f 189/1/5 186/1/5 188/1/5
f 190/1/5 185/1/5 187/1/5
f 190/2/5 187/2/5 189/2/5
f 191/1/5 185/1/5 190/1/5
f 192/1/5 185/1/5 191/1/5
f 193/6/5 189/6/5 188/6/5
f 193/4/5 190/4/5 189/4/5
f 193/4/5 191/4/5 190/4/5
f 194/6/5 192/6/5 191/6/5
f 194/4/5 191/4/5 193/4/5
f 195/6/5 192/6/5 194/6/5
f 196/1/5 185/1/5 192/1/5
f 196/6/5 192/6/5 195/6/5
f 197/1/5 188/1/5 184/1/5
f 197/6/5 193/6/5 188/6/5
f 197/6/5 194/6/5 193/6/5
f 198/6/5 194/6/5 197/6/5
f 199/4/5 195/4/5 194/4/5
f 199/6/5 194/6/5 198/6/5
f 200/1/5 196/1/5 195/1/5
f 200/4/5 195/4/5 199/4/5
f 201/1/5 185/1/5 196/1/5
f 201/1/5 196/1/5 200/1/5
f 202/1/5 198/1/5 197/1/5
f 202/6/5 200/6/5 199/6/5
f 202/6/5 201/6/5 200/6/5
f 202/6/5 199/6/5 198/6/5
f 203/6/5 201/6/5 202/6/5
f 204/1/5 185/1/5 201/1/5
f 204/6/5 201/6/5 203/6/5
f 205/4/5 203/4/5 202/4/5
f 205/1/5 202/1/5 197/1/5
f 206/1/5 204/1/5 203/1/5
f 206/4/5 203/4/5 205/4/5
f 207/1/5 197/1/5 184/1/5
f 207/1/5 205/1/5 197/1/5
f 207/1/5 206/1/5 205/1/5
f 208/1/5 185/1/5 204/1/5
f 208/1/5 206/1/5 207/1/5
f 208/1/5 204/1/5 206/1/5
f 209/6/6 210/6/6 211/6/6
f 211/6/6 210/6/6 212/6/6
f 213/6/6 214/6/6 215/6/6
f 215/6/6 214/6/6 216/6/6
f 217/5/6 218/5/6 222/5/6
f 218/4/6 219/4/6 223/4/6
f 222/5/6 218/5/6 223/5/6
f 223/4/6 219/4/6 224/4/6
f 219/3/6 220/3/6 225/3/6
f 224/4/6 219/4/6 225/4/6
f 220/4/6 221/4/6 226/4/6
f 225/3/6 220/3/6 226/3/6
f 226/4/6 221/4/6 227/4/6
f 222/4/6 223/4/6 228/4/6
f 228/4/6 223/4/6 229/4/6
f 224/4/6 225/4/6 230/4/6
f 230/4/6 225/4/6 231/4/6
f 230/6/6 231/6/6 232/6/6
f 232/6/6 231/6/6 233/6/6
f 234/6/6 235/6/6 237/6/6
f 235/6/6 236/6/6 237/6/6
f 237/6/6 236/6/6 238/6/6
f 234/6/6 237/6/6 240/6/6
f 240/6/6 237/6/6 241/6/6
f 238/6/6 236/6/6 242/6/6
f 242/6/6 236/6/6 243/6/6
f 243/6/6 236/6/6 244/6/6
f 239/6/6 240/6/6 245/6/6
f 245/6/6 240/6/6 246/6/6
f 242/6/6 243/6/6 247/6/6
f 241/6/6 242/6/6 247/6/6
f 247/6/6 243/6/6 248/6/6
f 249/6/6 250/6/6 254/6/6
f 251/6/6 252/6/6 256/6/6
f 253/6/6 254/6/6 257/6/6
f 254/6/6 250/6/6 258/6/6
f 257/6/6 254/6/6 258/6/6
f 255/6/6 256/6/6 259/6/6
f 256/6/6 252/6/6 259/6/6
f 259/6/6 252/6/6 260/6/6
f 255/6/6 259/6/6 261/6/6
f 258/6/6 250/6/6 265/6/6
f 255/6/6 261/6/6 266/6/6
f 262/6/6 263/6/6 267/6/6
f 267/6/6 263/6/6 268/6/6
f 264/6/6 265/6/6 269/6/6
f 255/6/6 266/6/6 270/6/6
f 268/6/6 269/6/6 270/6/6
f 267/6/6 268/6/6 270/6/6
f 266/6/6 267/6/6 270/6/6
f 269/6/6 265/6/6 271/6/6
f 270/6/6 269/6/6 271/6/6
f 265/6/6 250/6/6 271/6/6
f 272/6/6 273/6/6 274/6/6
f 274/6/6 273/6/6 275/6/6
