# MagicaVoxel @ Ephtracy

# group
o 

# material
mtllib Lava2.mtl
usemtl palette

# normals
vn -1 0 0
vn 1 0 0
vn 0 0 1
vn 0 0 -1
vn 0 -1 0
vn 0 1 0

# texcoords
vt 0.0175781 0.5
vt 0.0683594 0.5
vt 0.0917969 0.5
vt 0.279297 0.5
vt 0.865234 0.5
vt 0.873047 0.5

# verts
v 0 2 0
v 0 2 -0.8
v 0 2.1 0
v 0 2.1 -0.1
v 0 2.1 -0.3
v 0 2.1 -0.5
v 0 2.1 -0.7
v 0 2.1 -0.8
v 0 2.2 0
v 0 2.2 -0.1
v 0 2.2 -0.2
v 0 2.2 -0.3
v 0 2.2 -0.5
v 0 2.2 -0.7
v 0 2.2 -0.8
v 0 2.3 -0.2
v 0 2.3 -0.8
v 0.1 2.2 -0.1
v 0.1 2.2 -0.2
v 0.1 2.3 -0.1
v 0.1 2.3 -0.2
v 0.1 2.3 -0.3
v 0.1 2.3 -0.4
v 0.1 2.3 -0.5
v 0.1 2.4 -0.2
v 0.1 2.4 -0.3
v 0.1 2.4 -0.4
v 0.1 2.4 -0.5
v 0.2 2.2 -0.3
v 0.2 2.2 -0.4
v 0.2 2.2 -0.6
v 0.2 2.2 -0.7
v 0.2 2.3 -0.3
v 0.2 2.3 -0.4
v 0.2 2.3 -0.6
v 0.2 2.3 -0.7
v 0.4 2.1 -0.1
v 0.4 2.1 -0.2
v 0.4 2.1 -0.6
v 0.4 2.1 -0.7
v 0.4 2.2 -0.1
v 0.4 2.2 -0.2
v 0.4 2.2 -0.6
v 0.4 2.2 -0.7
v 0.5 2.1 -0.4
v 0.5 2.1 -0.6
v 0.5 2.2 -0.4
v 0.5 2.2 -0.6
v 0.6 2.1 -0.2
v 0.6 2.1 -0.3
v 0.6 2.1 -0.4
v 0.6 2.2 -0.2
v 0.6 2.2 -0.4
v 0.7 2.2 0
v 0.7 2.2 -0.1
v 0.7 2.2 -0.4
v 0.7 2.2 -0.5
v 0.7 2.3 0
v 0.7 2.3 -0.1
v 0.7 2.3 -0.4
v 0.7 2.3 -0.5
v 0.1 2.2 -0.3
v 0.1 2.2 -0.4
v 0.1 2.2 -0.6
v 0.1 2.2 -0.7
v 0.1 2.2 -0.8
v 0.1 2.3 -0.3
v 0.1 2.3 -0.4
v 0.1 2.3 -0.6
v 0.1 2.3 -0.8
v 0.2 2.3 -0.2
v 0.2 2.3 -0.3
v 0.2 2.3 -0.4
v 0.2 2.3 -0.5
v 0.2 2.4 -0.2
v 0.2 2.4 -0.3
v 0.2 2.4 -0.4
v 0.2 2.4 -0.5
v 0.3 2.1 -0.1
v 0.3 2.1 -0.2
v 0.3 2.1 -0.3
v 0.3 2.1 -0.4
v 0.3 2.1 -0.5
v 0.3 2.1 -0.6
v 0.3 2.1 -0.7
v 0.3 2.2 -0.1
v 0.3 2.2 -0.2
v 0.3 2.2 -0.3
v 0.3 2.2 -0.5
v 0.3 2.2 -0.6
v 0.3 2.2 -0.7
v 0.4 2.1 -0.2
v 0.4 2.1 -0.3
v 0.4 2.1 -0.5
v 0.4 2.1 -0.6
v 0.4 2.2 -0.2
v 0.4 2.2 -0.3
v 0.4 2.2 -0.5
v 0.4 2.2 -0.6
v 0.6 2.2 -0.4
v 0.6 2.2 -0.5
v 0.6 2.3 -0.4
v 0.6 2.3 -0.5
v 0.7 2.2 -0.6
v 0.7 2.2 -0.7
v 0.7 2.3 -0.6
v 0.7 2.3 -0.7
v 0.8 2 0
v 0.8 2 -0.8
v 0.8 2.1 0
v 0.8 2.1 -0.1
v 0.8 2.1 -0.3
v 0.8 2.1 -0.5
v 0.8 2.1 -0.7
v 0.8 2.1 -0.8
v 0.8 2.2 0
v 0.8 2.2 -0.1
v 0.8 2.2 -0.3
v 0.8 2.2 -0.5
v 0.8 2.2 -0.6
v 0.8 2.2 -0.7
v 0.8 2.2 -0.8
v 0.8 2.3 0
v 0.8 2.3 -0.6
v 0 2 0
v 0 2.1 0
v 0 2.2 0
v 0.1 2.1 0
v 0.1 2.2 0
v 0.3 2.1 0
v 0.3 2.2 0
v 0.5 2.1 0
v 0.5 2.2 0
v 0.7 2.1 0
v 0.7 2.2 0
v 0.7 2.3 0
v 0.8 2 0
v 0.8 2.1 0
v 0.8 2.2 0
v 0.8 2.3 0
v 0.1 2.2 -0.1
v 0.1 2.3 -0.1
v 0.3 2.2 -0.1
v 0.5 2.2 -0.1
v 0.7 2.2 -0.1
v 0.7 2.3 -0.1
v 0 2.2 -0.2
v 0 2.3 -0.2
v 0.1 2.2 -0.2
v 0.1 2.3 -0.2
v 0.1 2.4 -0.2
v 0.2 2.3 -0.2
v 0.2 2.4 -0.2
v 0.3 2.1 -0.2
v 0.3 2.2 -0.2
v 0.4 2.1 -0.2
v 0.4 2.2 -0.2
v 0.1 2.2 -0.4
v 0.1 2.3 -0.4
v 0.1 2.4 -0.4
v 0.2 2.2 -0.4
v 0.2 2.3 -0.4
v 0.2 2.4 -0.4
v 0.5 2.1 -0.4
v 0.5 2.2 -0.4
v 0.6 2.1 -0.4
v 0.6 2.2 -0.4
v 0.3 2.1 -0.5
v 0.3 2.2 -0.5
v 0.4 2.1 -0.5
v 0.4 2.2 -0.5
v 0.6 2.2 -0.5
v 0.6 2.3 -0.5
v 0.7 2.2 -0.5
v 0.7 2.3 -0.5
v 0.4 2.1 -0.6
v 0.4 2.2 -0.6
v 0.5 2.1 -0.6
v 0.5 2.2 -0.6
v 0.3 2.1 -0.7
v 0.3 2.2 -0.7
v 0.4 2.1 -0.7
v 0.4 2.2 -0.7
v 0.3 2.1 -0.1
v 0.3 2.2 -0.1
v 0.4 2.1 -0.1
v 0.4 2.2 -0.1
v 0.4 2.1 -0.2
v 0.4 2.2 -0.2
v 0.5 2.1 -0.2
v 0.6 2.1 -0.2
v 0.6 2.2 -0.2
v 0.1 2.2 -0.3
v 0.1 2.3 -0.3
v 0.1 2.4 -0.3
v 0.2 2.2 -0.3
v 0.2 2.3 -0.3
v 0.2 2.4 -0.3
v 0.3 2.1 -0.3
v 0.3 2.2 -0.3
v 0.4 2.1 -0.3
v 0.4 2.2 -0.3
v 0.6 2.2 -0.4
v 0.6 2.3 -0.4
v 0.7 2.2 -0.4
v 0.7 2.3 -0.4
v 0.1 2.3 -0.5
v 0.1 2.4 -0.5
v 0.2 2.3 -0.5
v 0.2 2.4 -0.5
v 0.1 2.2 -0.6
v 0.1 2.3 -0.6
v 0.2 2.2 -0.6
v 0.2 2.3 -0.6
v 0.3 2.1 -0.6
v 0.3 2.2 -0.6
v 0.4 2.1 -0.6
v 0.4 2.2 -0.6
v 0.7 2.2 -0.6
v 0.7 2.3 -0.6
v 0.8 2.2 -0.6
v 0.8 2.3 -0.6
v 0.2 2.2 -0.7
v 0.2 2.3 -0.7
v 0.3 2.2 -0.7
v 0.5 2.2 -0.7
v 0.7 2.2 -0.7
v 0.7 2.3 -0.7
v 0 2 -0.8
v 0 2.1 -0.8
v 0 2.2 -0.8
v 0 2.3 -0.8
v 0.1 2.1 -0.8
v 0.1 2.2 -0.8
v 0.1 2.3 -0.8
v 0.3 2.1 -0.8
v 0.3 2.2 -0.8
v 0.5 2.1 -0.8
v 0.5 2.2 -0.8
v 0.7 2.1 -0.8
v 0.7 2.2 -0.8
v 0.8 2 -0.8
v 0.8 2.1 -0.8
v 0.8 2.2 -0.8
v 0 2 0
v 0.8 2 0
v 0.3 2 -0.1
v 0.4 2 -0.1
v 0.3 2 -0.2
v 0.4 2 -0.2
v 0.5 2 -0.2
v 0.6 2 -0.2
v 0.3 2 -0.3
v 0.4 2 -0.3
v 0.5 2 -0.3
v 0.6 2 -0.3
v 0.3 2 -0.4
v 0.4 2 -0.4
v 0.5 2 -0.4
v 0.6 2 -0.4
v 0.3 2 -0.5
v 0.4 2 -0.5
v 0.3 2 -0.6
v 0.4 2 -0.6
v 0.5 2 -0.6
v 0.3 2 -0.7
v 0.4 2 -0.7
v 0 2 -0.8
v 0.8 2 -0.8
v 0.3 2.2 -0.1
v 0.4 2.2 -0.1
v 0.3 2.2 -0.2
v 0.4 2.2 -0.2
v 0.6 2.2 -0.2
v 0.3 2.2 -0.3
v 0.4 2.2 -0.3
v 0.5 2.2 -0.4
v 0.6 2.2 -0.4
v 0.3 2.2 -0.5
v 0.4 2.2 -0.5
v 0.3 2.2 -0.6
v 0.4 2.2 -0.6
v 0.5 2.2 -0.6
v 0.3 2.2 -0.7
v 0.4 2.2 -0.7
v 0.3 2.1 -0.1
v 0.4 2.1 -0.1
v 0.3 2.1 -0.2
v 0.4 2.1 -0.2
v 0.5 2.1 -0.2
v 0.6 2.1 -0.2
v 0.3 2.1 -0.3
v 0.4 2.1 -0.3
v 0.5 2.1 -0.3
v 0.6 2.1 -0.3
v 0.3 2.1 -0.4
v 0.4 2.1 -0.4
v 0.5 2.1 -0.4
v 0.6 2.1 -0.4
v 0.3 2.1 -0.5
v 0.4 2.1 -0.5
v 0.3 2.1 -0.6
v 0.4 2.1 -0.6
v 0.5 2.1 -0.6
v 0.3 2.1 -0.7
v 0.4 2.1 -0.7
v 0 2.2 0
v 0.1 2.2 0
v 0.3 2.2 0
v 0.5 2.2 0
v 0.7 2.2 0
v 0 2.2 -0.1
v 0.1 2.2 -0.1
v 0.3 2.2 -0.1
v 0.5 2.2 -0.1
v 0.7 2.2 -0.1
v 0 2.2 -0.2
v 0.1 2.2 -0.2
v 0.1 2.2 -0.3
v 0.2 2.2 -0.3
v 0.1 2.2 -0.4
v 0.2 2.2 -0.4
v 0.6 2.2 -0.4
v 0.7 2.2 -0.4
v 0.6 2.2 -0.5
v 0.7 2.2 -0.5
v 0.1 2.2 -0.6
v 0.2 2.2 -0.6
v 0.7 2.2 -0.6
v 0.8 2.2 -0.6
v 0.1 2.2 -0.7
v 0.2 2.2 -0.7
v 0.3 2.2 -0.7
v 0.5 2.2 -0.7
v 0.7 2.2 -0.7
v 0.8 2.2 -0.7
v 0.1 2.2 -0.8
v 0.3 2.2 -0.8
v 0.5 2.2 -0.8
v 0.7 2.2 -0.8
v 0.8 2.2 -0.8
v 0.7 2.3 0
v 0.8 2.3 0
v 0.1 2.3 -0.1
v 0.7 2.3 -0.1
v 0 2.3 -0.2
v 0.1 2.3 -0.2
v 0.2 2.3 -0.2
v 0.1 2.3 -0.3
v 0.2 2.3 -0.3
v 0.1 2.3 -0.4
v 0.2 2.3 -0.4
v 0.6 2.3 -0.4
v 0.7 2.3 -0.4
v 0.1 2.3 -0.5
v 0.2 2.3 -0.5
v 0.6 2.3 -0.5
v 0.7 2.3 -0.5
v 0.1 2.3 -0.6
v 0.2 2.3 -0.6
v 0.7 2.3 -0.6
v 0.8 2.3 -0.6
v 0.2 2.3 -0.7
v 0.7 2.3 -0.7
v 0 2.3 -0.8
v 0.1 2.3 -0.8
v 0.1 2.4 -0.2
v 0.2 2.4 -0.2
v 0.1 2.4 -0.3
v 0.2 2.4 -0.3
v 0.1 2.4 -0.4
v 0.2 2.4 -0.4
v 0.1 2.4 -0.5
v 0.2 2.4 -0.5

# faces
f 3/1/1 2/1/1 1/1/1
f 4/1/1 2/1/1 3/1/1
f 5/1/1 2/1/1 4/1/1
f 6/1/1 2/1/1 5/1/1
f 7/1/1 2/1/1 6/1/1
f 8/1/1 2/1/1 7/1/1
f 9/5/1 4/5/1 3/5/1
f 10/4/1 5/4/1 4/4/1
f 10/5/1 4/5/1 9/5/1
f 11/4/1 5/4/1 10/4/1
f 12/3/1 6/3/1 5/3/1
f 12/4/1 5/4/1 11/4/1
f 13/4/1 7/4/1 6/4/1
f 13/3/1 6/3/1 12/3/1
f 14/5/1 8/5/1 7/5/1
f 14/4/1 7/4/1 13/4/1
f 15/5/1 8/5/1 14/5/1
f 16/6/1 12/6/1 11/6/1
f 16/6/1 15/6/1 14/6/1
f 16/6/1 14/6/1 13/6/1
f 16/6/1 13/6/1 12/6/1
f 17/6/1 15/6/1 16/6/1
f 20/6/1 19/6/1 18/6/1
f 21/6/1 19/6/1 20/6/1
f 25/6/1 22/6/1 21/6/1
f 26/6/1 22/6/1 25/6/1
f 27/6/1 24/6/1 23/6/1
f 28/6/1 24/6/1 27/6/1
f 33/6/1 30/6/1 29/6/1
f 34/6/1 30/6/1 33/6/1
f 35/6/1 32/6/1 31/6/1
f 36/6/1 32/6/1 35/6/1
f 41/3/1 38/3/1 37/3/1
f 42/3/1 38/3/1 41/3/1
f 43/3/1 40/3/1 39/3/1
f 44/3/1 40/3/1 43/3/1
f 47/3/1 46/3/1 45/3/1
f 48/3/1 46/3/1 47/3/1
f 52/3/1 50/3/1 49/3/1
f 52/3/1 51/3/1 50/3/1
f 53/3/1 51/3/1 52/3/1
f 58/6/1 55/6/1 54/6/1
f 59/6/1 55/6/1 58/6/1
f 60/6/1 57/6/1 56/6/1
f 61/6/1 57/6/1 60/6/1
f 62/6/2 63/6/2 67/6/2
f 67/6/2 63/6/2 68/6/2
f 65/6/2 66/6/2 69/6/2
f 64/6/2 65/6/2 69/6/2
f 69/6/2 66/6/2 70/6/2
f 71/6/2 72/6/2 75/6/2
f 75/6/2 72/6/2 76/6/2
f 73/6/2 74/6/2 77/6/2
f 77/6/2 74/6/2 78/6/2
f 79/4/2 80/4/2 86/4/2
f 86/4/2 80/4/2 87/4/2
f 81/3/2 82/3/2 88/3/2
f 82/3/2 83/3/2 88/3/2
f 88/3/2 83/3/2 89/3/2
f 84/3/2 85/3/2 90/3/2
f 90/3/2 85/3/2 91/3/2
f 92/3/2 93/3/2 96/3/2
f 96/3/2 93/3/2 97/3/2
f 94/3/2 95/3/2 98/3/2
f 98/3/2 95/3/2 99/3/2
f 100/6/2 101/6/2 102/6/2
f 102/6/2 101/6/2 103/6/2
f 104/6/2 105/6/2 106/6/2
f 106/6/2 105/6/2 107/6/2
f 108/1/2 109/1/2 110/1/2
f 110/1/2 109/1/2 111/1/2
f 111/1/2 109/1/2 112/1/2
f 112/1/2 109/1/2 113/1/2
f 113/1/2 109/1/2 114/1/2
f 114/1/2 109/1/2 115/1/2
f 110/5/2 111/5/2 116/5/2
f 111/4/2 112/4/2 117/4/2
f 116/5/2 111/5/2 117/5/2
f 112/3/2 113/3/2 118/3/2
f 117/4/2 112/4/2 118/4/2
f 113/4/2 114/4/2 119/4/2
f 118/3/2 113/3/2 119/3/2
f 119/4/2 114/4/2 120/4/2
f 114/5/2 115/5/2 121/5/2
f 120/4/2 114/4/2 121/4/2
f 121/5/2 115/5/2 122/5/2
f 116/6/2 117/6/2 123/6/2
f 117/6/2 118/6/2 123/6/2
f 118/6/2 119/6/2 123/6/2
f 119/6/2 120/6/2 123/6/2
f 123/6/2 120/6/2 124/6/2
f 128/1/3 126/1/3 125/1/3
f 128/5/3 127/5/3 126/5/3
f 129/5/3 127/5/3 128/5/3
f 130/1/3 128/1/3 125/1/3
f 130/4/3 129/4/3 128/4/3
f 131/4/3 129/4/3 130/4/3
f 132/1/3 130/1/3 125/1/3
f 132/3/3 131/3/3 130/3/3
f 133/3/3 131/3/3 132/3/3
f 134/1/3 132/1/3 125/1/3
f 134/4/3 133/4/3 132/4/3
f 135/4/3 133/4/3 134/4/3
f 137/1/3 134/1/3 125/1/3
f 138/5/3 135/5/3 134/5/3
f 138/1/3 134/1/3 137/1/3
f 139/6/3 136/6/3 135/6/3
f 139/5/3 135/5/3 138/5/3
f 140/6/3 136/6/3 139/6/3
f 143/6/3 142/6/3 141/6/3
f 144/6/3 142/6/3 143/6/3
f 145/6/3 142/6/3 144/6/3
f 146/6/3 142/6/3 145/6/3
f 149/6/3 148/6/3 147/6/3
f 150/6/3 148/6/3 149/6/3
f 152/6/3 151/6/3 150/6/3
f 153/6/3 151/6/3 152/6/3
f 156/3/3 155/3/3 154/3/3
f 157/3/3 155/3/3 156/3/3
f 161/6/3 159/6/3 158/6/3
f 161/6/3 160/6/3 159/6/3
f 162/6/3 160/6/3 161/6/3
f 163/6/3 160/6/3 162/6/3
f 166/3/3 165/3/3 164/3/3
f 167/3/3 165/3/3 166/3/3
f 170/3/3 169/3/3 168/3/3
f 171/3/3 169/3/3 170/3/3
f 174/6/3 173/6/3 172/6/3
f 175/6/3 173/6/3 174/6/3
f 178/3/3 177/3/3 176/3/3
f 179/3/3 177/3/3 178/3/3
f 182/3/3 181/3/3 180/3/3
f 183/3/3 181/3/3 182/3/3
f 184/3/4 185/3/4 186/3/4
f 186/3/4 185/3/4 187/3/4
f 188/3/4 189/3/4 190/3/4
f 190/3/4 189/3/4 191/3/4
f 191/3/4 189/3/4 192/3/4
f 193/6/4 194/6/4 196/6/4
f 194/6/4 195/6/4 196/6/4
f 196/6/4 195/6/4 197/6/4
f 197/6/4 195/6/4 198/6/4
f 199/3/4 200/3/4 201/3/4
f 201/3/4 200/3/4 202/3/4
f 203/6/4 204/6/4 205/6/4
f 205/6/4 204/6/4 206/6/4
f 207/6/4 208/6/4 209/6/4
f 209/6/4 208/6/4 210/6/4
f 211/6/4 212/6/4 213/6/4
f 213/6/4 212/6/4 214/6/4
f 215/3/4 216/3/4 217/3/4
f 217/3/4 216/3/4 218/3/4
f 219/6/4 220/6/4 221/6/4
f 221/6/4 220/6/4 222/6/4
f 223/6/4 224/6/4 225/6/4
f 225/6/4 224/6/4 226/6/4
f 226/6/4 224/6/4 227/6/4
f 227/6/4 224/6/4 228/6/4
f 229/1/4 230/1/4 233/1/4
f 230/5/4 231/5/4 233/5/4
f 231/6/4 232/6/4 234/6/4
f 233/5/4 231/5/4 234/5/4
f 234/6/4 232/6/4 235/6/4
f 229/1/4 233/1/4 236/1/4
f 233/4/4 234/4/4 236/4/4
f 236/4/4 234/4/4 237/4/4
f 229/1/4 236/1/4 238/1/4
f 236/3/4 237/3/4 238/3/4
f 238/3/4 237/3/4 239/3/4
f 229/1/4 238/1/4 240/1/4
f 238/4/4 239/4/4 240/4/4
f 240/4/4 239/4/4 241/4/4
f 229/1/4 240/1/4 242/1/4
f 240/5/4 241/5/4 243/5/4
f 242/1/4 240/1/4 243/1/4
f 243/5/4 241/5/4 244/5/4
f 247/1/5 246/1/5 245/1/5
f 248/1/5 246/1/5 247/1/5
f 249/1/5 247/1/5 245/1/5
f 249/2/5 248/2/5 247/2/5
f 250/1/5 246/1/5 248/1/5
f 250/2/5 248/2/5 249/2/5
f 251/1/5 246/1/5 250/1/5
f 252/1/5 246/1/5 251/1/5
f 253/1/5 249/1/5 245/1/5
f 253/1/5 250/1/5 249/1/5
f 254/4/5 251/4/5 250/4/5
f 254/1/5 250/1/5 253/1/5
f 255/2/5 252/2/5 251/2/5
f 255/4/5 251/4/5 254/4/5
f 256/1/5 246/1/5 252/1/5
f 256/2/5 252/2/5 255/2/5
f 257/2/5 255/2/5 254/2/5
f 257/2/5 254/2/5 253/2/5
f 257/1/5 253/1/5 245/1/5
f 258/2/5 255/2/5 257/2/5
f 259/4/5 256/4/5 255/4/5
f 259/2/5 255/2/5 258/2/5
f 260/1/5 246/1/5 256/1/5
f 260/4/5 256/4/5 259/4/5
f 261/4/5 258/4/5 257/4/5
f 261/1/5 257/1/5 245/1/5
f 262/2/5 259/2/5 258/2/5
f 262/4/5 258/4/5 261/4/5
f 263/1/5 261/1/5 245/1/5
f 263/1/5 262/1/5 261/1/5
f 264/2/5 259/2/5 262/2/5
f 264/1/5 262/1/5 263/1/5
f 265/1/5 260/1/5 259/1/5
f 265/2/5 259/2/5 264/2/5
f 266/1/5 263/1/5 245/1/5
f 266/4/5 264/4/5 263/4/5
f 267/1/5 265/1/5 264/1/5
f 267/4/5 264/4/5 266/4/5
f 268/1/5 266/1/5 245/1/5
f 268/1/5 267/1/5 266/1/5
f 269/1/5 260/1/5 265/1/5
f 269/1/5 267/1/5 268/1/5
f 269/1/5 246/1/5 260/1/5
f 269/1/5 265/1/5 267/1/5
f 272/6/5 271/6/5 270/6/5
f 273/6/5 271/6/5 272/6/5
f 276/6/5 274/6/5 273/6/5
f 277/6/5 274/6/5 276/6/5
f 277/6/5 276/6/5 275/6/5
f 278/6/5 274/6/5 277/6/5
f 279/6/5 277/6/5 275/6/5
f 280/6/5 277/6/5 279/6/5
f 282/6/5 277/6/5 280/6/5
f 283/6/5 277/6/5 282/6/5
f 284/6/5 282/6/5 281/6/5
f 285/6/5 282/6/5 284/6/5
f 286/2/6 287/2/6 288/2/6
f 288/2/6 287/2/6 289/2/6
f 289/4/6 290/4/6 293/4/6
f 290/2/6 291/2/6 294/2/6
f 293/4/6 290/4/6 294/4/6
f 294/2/6 291/2/6 295/2/6
f 292/2/6 293/2/6 296/2/6
f 293/2/6 294/2/6 296/2/6
f 296/2/6 294/2/6 297/2/6
f 294/4/6 295/4/6 298/4/6
f 297/2/6 294/2/6 298/2/6
f 298/4/6 295/4/6 299/4/6
f 296/4/6 297/4/6 300/4/6
f 297/2/6 298/2/6 301/2/6
f 300/4/6 297/4/6 301/4/6
f 301/2/6 298/2/6 303/2/6
f 303/2/6 298/2/6 304/2/6
f 302/4/6 303/4/6 305/4/6
f 305/4/6 303/4/6 306/4/6
f 307/5/6 308/5/6 312/5/6
f 308/4/6 309/4/6 313/4/6
f 312/5/6 308/5/6 313/5/6
f 309/3/6 310/3/6 314/3/6
f 313/4/6 309/4/6 314/4/6
f 310/4/6 311/4/6 315/4/6
f 314/3/6 310/3/6 315/3/6
f 315/4/6 311/4/6 316/4/6
f 312/4/6 313/4/6 317/4/6
f 317/4/6 313/4/6 318/4/6
f 319/4/6 320/4/6 321/4/6
f 321/4/6 320/4/6 322/4/6
f 323/5/6 324/5/6 325/5/6
f 325/5/6 324/5/6 326/5/6
f 327/3/6 328/3/6 331/3/6
f 331/3/6 328/3/6 332/3/6
f 329/4/6 330/4/6 335/4/6
f 335/4/6 330/4/6 336/4/6
f 331/4/6 332/4/6 337/4/6
f 332/4/6 333/4/6 337/4/6
f 333/3/6 334/3/6 338/3/6
f 337/4/6 333/4/6 338/4/6
f 334/4/6 335/4/6 339/4/6
f 338/3/6 334/3/6 339/3/6
f 335/5/6 336/5/6 340/5/6
f 339/4/6 335/4/6 340/4/6
f 340/5/6 336/5/6 341/5/6
f 342/6/6 343/6/6 345/6/6
f 344/6/6 345/6/6 347/6/6
f 347/6/6 345/6/6 348/6/6
f 346/6/6 347/6/6 349/6/6
f 348/6/6 345/6/6 350/6/6
f 346/6/6 349/6/6 351/6/6
f 350/6/6 345/6/6 352/6/6
f 352/6/6 345/6/6 353/6/6
f 345/6/6 343/6/6 354/6/6
f 353/6/6 345/6/6 354/6/6
f 346/6/6 351/6/6 355/6/6
f 352/6/6 353/6/6 356/6/6
f 356/6/6 353/6/6 357/6/6
f 354/6/6 343/6/6 358/6/6
f 346/6/6 355/6/6 359/6/6
f 357/6/6 358/6/6 359/6/6
f 356/6/6 357/6/6 359/6/6
f 355/6/6 356/6/6 359/6/6
f 359/6/6 358/6/6 360/6/6
f 358/6/6 343/6/6 361/6/6
f 360/6/6 358/6/6 361/6/6
f 361/6/6 343/6/6 362/6/6
f 360/6/6 361/6/6 363/6/6
f 363/6/6 361/6/6 364/6/6
f 346/6/6 359/6/6 365/6/6
f 365/6/6 359/6/6 366/6/6
f 367/6/6 368/6/6 369/6/6
f 369/6/6 368/6/6 370/6/6
f 371/6/6 372/6/6 373/6/6
f 373/6/6 372/6/6 374/6/6
