# MagicaVoxel @ Ephtracy

# group
o 

# material
mtllib Lava9.mtl
usemtl palette

# normals
vn -1 0 0
vn 1 0 0
vn 0 0 1
vn 0 0 -1
vn 0 -1 0
vn 0 1 0

# texcoords
vt 0.0175781 0.5
vt 0.0683594 0.5
vt 0.0917969 0.5
vt 0.279297 0.5
vt 0.865234 0.5
vt 0.873047 0.5

# verts
v 0 2 0
v 0 2 -0.8
v 0 2.1 0
v 0 2.1 -0.1
v 0 2.1 -0.3
v 0 2.1 -0.5
v 0 2.1 -0.7
v 0 2.1 -0.8
v 0 2.2 0
v 0 2.2 -0.1
v 0 2.2 -0.3
v 0 2.2 -0.5
v 0 2.2 -0.7
v 0 2.2 -0.8
v 0 2.3 0
v 0 2.3 -0.8
v 0.2 2.3 -0.2
v 0.2 2.3 -0.3
v 0.2 2.3 -0.5
v 0.2 2.3 -0.6
v 0.2 2.4 -0.2
v 0.2 2.4 -0.3
v 0.2 2.4 -0.5
v 0.2 2.4 -0.6
v 0.3 2.1 -0.2
v 0.3 2.1 -0.4
v 0.3 2.2 -0.2
v 0.3 2.2 -0.4
v 0.4 2.1 -0.1
v 0.4 2.1 -0.2
v 0.4 2.1 -0.6
v 0.4 2.1 -0.7
v 0.4 2.2 -0.1
v 0.4 2.2 -0.2
v 0.4 2.2 -0.3
v 0.4 2.2 -0.5
v 0.4 2.2 -0.6
v 0.4 2.2 -0.7
v 0.4 2.3 -0.3
v 0.4 2.3 -0.5
v 0.5 2.1 -0.3
v 0.5 2.1 -0.4
v 0.5 2.2 -0.3
v 0.5 2.2 -0.4
v 0.5 2.3 -0.6
v 0.5 2.3 -0.7
v 0.5 2.4 -0.6
v 0.5 2.4 -0.7
v 0.6 2.1 -0.2
v 0.6 2.1 -0.3
v 0.6 2.1 -0.4
v 0.6 2.1 -0.6
v 0.6 2.2 -0.1
v 0.6 2.2 -0.2
v 0.6 2.2 -0.3
v 0.6 2.2 -0.5
v 0.6 2.2 -0.6
v 0.6 2.3 -0.1
v 0.6 2.3 -0.2
v 0.6 2.3 -0.3
v 0.6 2.3 -0.4
v 0.6 2.3 -0.5
v 0.6 2.4 -0.3
v 0.6 2.4 -0.4
v 0.2 2.1 -0.2
v 0.2 2.1 -0.3
v 0.2 2.1 -0.4
v 0.2 2.2 -0.2
v 0.2 2.2 -0.3
v 0.2 2.2 -0.4
v 0.3 2.1 -0.1
v 0.3 2.1 -0.2
v 0.3 2.1 -0.5
v 0.3 2.1 -0.6
v 0.3 2.1 -0.7
v 0.3 2.2 -0.1
v 0.3 2.2 -0.2
v 0.3 2.2 -0.3
v 0.3 2.2 -0.5
v 0.3 2.2 -0.6
v 0.3 2.2 -0.7
v 0.3 2.3 -0.2
v 0.3 2.3 -0.3
v 0.3 2.3 -0.5
v 0.3 2.4 -0.2
v 0.3 2.4 -0.3
v 0.4 2.1 -0.2
v 0.4 2.1 -0.3
v 0.4 2.1 -0.5
v 0.4 2.2 -0.2
v 0.4 2.2 -0.5
v 0.4 2.3 -0.5
v 0.4 2.3 -0.6
v 0.4 2.4 -0.5
v 0.4 2.4 -0.6
v 0.5 2.2 -0.1
v 0.5 2.2 -0.2
v 0.5 2.2 -0.4
v 0.5 2.2 -0.5
v 0.5 2.3 -0.1
v 0.5 2.3 -0.2
v 0.5 2.3 -0.4
v 0.5 2.3 -0.5
v 0.6 2.3 -0.6
v 0.6 2.3 -0.7
v 0.6 2.4 -0.6
v 0.6 2.4 -0.7
v 0.7 2.3 -0.3
v 0.7 2.3 -0.4
v 0.7 2.4 -0.3
v 0.7 2.4 -0.4
v 0.8 2 0
v 0.8 2 -0.8
v 0.8 2.1 0
v 0.8 2.1 -0.1
v 0.8 2.1 -0.3
v 0.8 2.1 -0.5
v 0.8 2.1 -0.7
v 0.8 2.1 -0.8
v 0.8 2.2 0
v 0.8 2.2 -0.1
v 0.8 2.2 -0.3
v 0.8 2.2 -0.5
v 0.8 2.2 -0.7
v 0.8 2.2 -0.8
v 0.8 2.3 0
v 0.8 2.3 -0.8
v 0 2 0
v 0 2.1 0
v 0 2.2 0
v 0 2.3 0
v 0.1 2.1 0
v 0.1 2.2 0
v 0.3 2.1 0
v 0.3 2.2 0
v 0.5 2.1 0
v 0.5 2.2 0
v 0.7 2.1 0
v 0.7 2.2 0
v 0.8 2 0
v 0.8 2.1 0
v 0.8 2.2 0
v 0.8 2.3 0
v 0.2 2.3 -0.2
v 0.2 2.4 -0.2
v 0.3 2.1 -0.2
v 0.3 2.2 -0.2
v 0.3 2.3 -0.2
v 0.3 2.4 -0.2
v 0.4 2.1 -0.2
v 0.4 2.2 -0.2
v 0.5 2.2 -0.2
v 0.5 2.3 -0.2
v 0.6 2.2 -0.2
v 0.6 2.3 -0.2
v 0.5 2.1 -0.3
v 0.5 2.2 -0.3
v 0.6 2.1 -0.3
v 0.6 2.2 -0.3
v 0.6 2.3 -0.3
v 0.6 2.4 -0.3
v 0.7 2.3 -0.3
v 0.7 2.4 -0.3
v 0.2 2.1 -0.4
v 0.2 2.2 -0.4
v 0.3 2.1 -0.4
v 0.3 2.2 -0.4
v 0.2 2.3 -0.5
v 0.2 2.4 -0.5
v 0.3 2.2 -0.5
v 0.3 2.3 -0.5
v 0.4 2.2 -0.5
v 0.4 2.3 -0.5
v 0.4 2.4 -0.5
v 0.5 2.2 -0.5
v 0.5 2.3 -0.5
v 0.6 2.2 -0.5
v 0.6 2.3 -0.5
v 0.4 2.1 -0.6
v 0.4 2.2 -0.6
v 0.5 2.1 -0.6
v 0.5 2.2 -0.6
v 0.5 2.3 -0.6
v 0.5 2.4 -0.6
v 0.6 2.1 -0.6
v 0.6 2.2 -0.6
v 0.6 2.3 -0.6
v 0.6 2.4 -0.6
v 0.3 2.1 -0.7
v 0.3 2.2 -0.7
v 0.4 2.1 -0.7
v 0.4 2.2 -0.7
v 0.3 2.1 -0.1
v 0.3 2.2 -0.1
v 0.4 2.1 -0.1
v 0.4 2.2 -0.1
v 0.5 2.2 -0.1
v 0.5 2.3 -0.1
v 0.6 2.2 -0.1
v 0.6 2.3 -0.1
v 0.2 2.1 -0.2
v 0.2 2.2 -0.2
v 0.3 2.1 -0.2
v 0.3 2.2 -0.2
v 0.4 2.1 -0.2
v 0.4 2.2 -0.2
v 0.5 2.1 -0.2
v 0.6 2.1 -0.2
v 0.6 2.2 -0.2
v 0.2 2.3 -0.3
v 0.2 2.4 -0.3
v 0.3 2.2 -0.3
v 0.3 2.3 -0.3
v 0.3 2.4 -0.3
v 0.4 2.2 -0.3
v 0.4 2.3 -0.3
v 0.5 2.1 -0.4
v 0.5 2.2 -0.4
v 0.5 2.3 -0.4
v 0.6 2.1 -0.4
v 0.6 2.3 -0.4
v 0.6 2.4 -0.4
v 0.7 2.3 -0.4
v 0.7 2.4 -0.4
v 0.3 2.1 -0.5
v 0.3 2.2 -0.5
v 0.4 2.1 -0.5
v 0.4 2.2 -0.5
v 0.2 2.3 -0.6
v 0.2 2.4 -0.6
v 0.4 2.3 -0.6
v 0.4 2.4 -0.6
v 0.5 2.3 -0.7
v 0.5 2.4 -0.7
v 0.6 2.3 -0.7
v 0.6 2.4 -0.7
v 0 2 -0.8
v 0 2.1 -0.8
v 0 2.2 -0.8
v 0 2.3 -0.8
v 0.1 2.1 -0.8
v 0.1 2.2 -0.8
v 0.3 2.1 -0.8
v 0.3 2.2 -0.8
v 0.5 2.1 -0.8
v 0.5 2.2 -0.8
v 0.7 2.1 -0.8
v 0.7 2.2 -0.8
v 0.8 2 -0.8
v 0.8 2.1 -0.8
v 0.8 2.2 -0.8
v 0.8 2.3 -0.8
v 0 2 0
v 0.8 2 0
v 0.3 2 -0.1
v 0.4 2 -0.1
v 0.2 2 -0.2
v 0.3 2 -0.2
v 0.4 2 -0.2
v 0.5 2 -0.2
v 0.7 2 -0.2
v 0.3 2 -0.3
v 0.4 2 -0.3
v 0.5 2 -0.3
v 0.6 2 -0.3
v 0.7 2 -0.3
v 0.2 2 -0.4
v 0.3 2 -0.4
v 0.5 2 -0.4
v 0.6 2 -0.4
v 0.7 2 -0.4
v 0.3 2 -0.6
v 0.4 2 -0.6
v 0.7 2 -0.6
v 0.3 2 -0.7
v 0.4 2 -0.7
v 0 2 -0.8
v 0.8 2 -0.8
v 0.3 2.2 -0.1
v 0.4 2.2 -0.1
v 0.2 2.2 -0.2
v 0.3 2.2 -0.2
v 0.4 2.2 -0.2
v 0.6 2.2 -0.2
v 0.2 2.2 -0.3
v 0.5 2.2 -0.3
v 0.6 2.2 -0.3
v 0.2 2.2 -0.4
v 0.3 2.2 -0.4
v 0.5 2.2 -0.4
v 0.3 2.2 -0.5
v 0.4 2.2 -0.5
v 0.5 2.2 -0.5
v 0.6 2.2 -0.5
v 0.3 2.2 -0.6
v 0.4 2.2 -0.6
v 0.5 2.2 -0.6
v 0.6 2.2 -0.6
v 0.3 2.2 -0.7
v 0.4 2.2 -0.7
v 0.3 2.1 -0.1
v 0.4 2.1 -0.1
v 0.2 2.1 -0.2
v 0.3 2.1 -0.2
v 0.4 2.1 -0.2
v 0.5 2.1 -0.2
v 0.6 2.1 -0.2
v 0.2 2.1 -0.3
v 0.4 2.1 -0.3
v 0.5 2.1 -0.3
v 0.6 2.1 -0.3
v 0.2 2.1 -0.4
v 0.3 2.1 -0.4
v 0.5 2.1 -0.4
v 0.6 2.1 -0.4
v 0.3 2.1 -0.5
v 0.4 2.1 -0.5
v 0.3 2.1 -0.6
v 0.4 2.1 -0.6
v 0.5 2.1 -0.6
v 0.6 2.1 -0.6
v 0.3 2.1 -0.7
v 0.4 2.1 -0.7
v 0.5 2.2 -0.1
v 0.6 2.2 -0.1
v 0.5 2.2 -0.2
v 0.6 2.2 -0.2
v 0.3 2.2 -0.3
v 0.4 2.2 -0.3
v 0.3 2.2 -0.5
v 0.4 2.2 -0.5
v 0 2.3 0
v 0.8 2.3 0
v 0.5 2.3 -0.1
v 0.6 2.3 -0.1
v 0.2 2.3 -0.2
v 0.3 2.3 -0.2
v 0.5 2.3 -0.2
v 0.6 2.3 -0.2
v 0.2 2.3 -0.3
v 0.3 2.3 -0.3
v 0.4 2.3 -0.3
v 0.6 2.3 -0.3
v 0.7 2.3 -0.3
v 0.5 2.3 -0.4
v 0.6 2.3 -0.4
v 0.7 2.3 -0.4
v 0.2 2.3 -0.5
v 0.3 2.3 -0.5
v 0.4 2.3 -0.5
v 0.5 2.3 -0.5
v 0.6 2.3 -0.5
v 0.2 2.3 -0.6
v 0.4 2.3 -0.6
v 0.5 2.3 -0.6
v 0.6 2.3 -0.6
v 0.5 2.3 -0.7
v 0.6 2.3 -0.7
v 0 2.3 -0.8
v 0.8 2.3 -0.8
v 0.2 2.4 -0.2
v 0.3 2.4 -0.2
v 0.2 2.4 -0.3
v 0.3 2.4 -0.3
v 0.6 2.4 -0.3
v 0.7 2.4 -0.3
v 0.6 2.4 -0.4
v 0.7 2.4 -0.4
v 0.2 2.4 -0.5
v 0.4 2.4 -0.5
v 0.2 2.4 -0.6
v 0.4 2.4 -0.6
v 0.5 2.4 -0.6
v 0.6 2.4 -0.6
v 0.5 2.4 -0.7
v 0.6 2.4 -0.7

# faces
f 3/1/1 2/1/1 1/1/1
f 4/1/1 2/1/1 3/1/1
f 5/1/1 2/1/1 4/1/1
f 6/1/1 2/1/1 5/1/1
f 7/1/1 2/1/1 6/1/1
f 8/1/1 2/1/1 7/1/1
f 9/5/1 4/5/1 3/5/1
f 10/4/1 5/4/1 4/4/1
f 10/5/1 4/5/1 9/5/1
f 11/3/1 6/3/1 5/3/1
f 11/4/1 5/4/1 10/4/1
f 12/4/1 7/4/1 6/4/1
f 12/3/1 6/3/1 11/3/1
f 13/5/1 8/5/1 7/5/1
f 13/4/1 7/4/1 12/4/1
f 14/5/1 8/5/1 13/5/1
f 15/6/1 10/6/1 9/6/1
f 15/6/1 11/6/1 10/6/1
f 15/6/1 14/6/1 13/6/1
f 15/6/1 13/6/1 12/6/1
f 15/6/1 12/6/1 11/6/1
f 16/6/1 14/6/1 15/6/1
f 21/6/1 18/6/1 17/6/1
f 22/6/1 18/6/1 21/6/1
f 23/6/1 20/6/1 19/6/1
f 24/6/1 20/6/1 23/6/1
f 27/6/1 26/6/1 25/6/1
f 28/6/1 26/6/1 27/6/1
f 33/3/1 30/3/1 29/3/1
f 34/3/1 30/3/1 33/3/1
f 37/3/1 32/3/1 31/3/1
f 38/3/1 32/3/1 37/3/1
f 39/6/1 36/6/1 35/6/1
f 40/6/1 36/6/1 39/6/1
f 43/6/1 42/6/1 41/6/1
f 44/6/1 42/6/1 43/6/1
f 47/6/1 46/6/1 45/6/1
f 48/6/1 46/6/1 47/6/1
f 54/6/1 50/6/1 49/6/1
f 55/6/1 50/6/1 54/6/1
f 56/6/1 52/6/1 51/6/1
f 57/6/1 52/6/1 56/6/1
f 58/6/1 54/6/1 53/6/1
f 59/6/1 54/6/1 58/6/1
f 61/6/1 56/6/1 51/6/1
f 62/6/1 56/6/1 61/6/1
f 63/6/1 61/6/1 60/6/1
f 64/6/1 61/6/1 63/6/1
f 65/4/2 66/4/2 68/4/2
f 66/6/2 67/6/2 69/6/2
f 68/4/2 66/4/2 69/4/2
f 69/6/2 67/6/2 70/6/2
f 71/4/2 72/4/2 76/4/2
f 76/4/2 72/4/2 77/4/2
f 73/6/2 74/6/2 79/6/2
f 74/3/2 75/3/2 80/3/2
f 79/6/2 74/6/2 80/6/2
f 80/3/2 75/3/2 81/3/2
f 78/6/2 79/6/2 83/6/2
f 83/6/2 79/6/2 84/6/2
f 82/6/2 83/6/2 85/6/2
f 85/6/2 83/6/2 86/6/2
f 87/6/2 88/6/2 90/6/2
f 88/6/2 89/6/2 90/6/2
f 90/6/2 89/6/2 91/6/2
f 92/6/2 93/6/2 94/6/2
f 94/6/2 93/6/2 95/6/2
f 96/6/2 97/6/2 100/6/2
f 100/6/2 97/6/2 101/6/2
f 98/6/2 99/6/2 102/6/2
f 102/6/2 99/6/2 103/6/2
f 104/6/2 105/6/2 106/6/2
f 106/6/2 105/6/2 107/6/2
f 108/6/2 109/6/2 110/6/2
f 110/6/2 109/6/2 111/6/2
f 112/1/2 113/1/2 114/1/2
f 114/1/2 113/1/2 115/1/2
f 115/1/2 113/1/2 116/1/2
f 116/1/2 113/1/2 117/1/2
f 117/1/2 113/1/2 118/1/2
f 118/1/2 113/1/2 119/1/2
f 114/5/2 115/5/2 120/5/2
f 115/4/2 116/4/2 121/4/2
f 120/5/2 115/5/2 121/5/2
f 116/3/2 117/3/2 122/3/2
f 121/4/2 116/4/2 122/4/2
f 117/4/2 118/4/2 123/4/2
f 122/3/2 117/3/2 123/3/2
f 118/5/2 119/5/2 124/5/2
f 123/4/2 118/4/2 124/4/2
f 124/5/2 119/5/2 125/5/2
f 120/6/2 121/6/2 126/6/2
f 121/6/2 122/6/2 126/6/2
f 124/6/2 125/6/2 126/6/2
f 123/6/2 124/6/2 126/6/2
f 122/6/2 123/6/2 126/6/2
f 126/6/2 125/6/2 127/6/2
f 132/1/3 129/1/3 128/1/3
f 132/5/3 130/5/3 129/5/3
f 133/6/3 131/6/3 130/6/3
f 133/5/3 130/5/3 132/5/3
f 134/1/3 132/1/3 128/1/3
f 134/4/3 133/4/3 132/4/3
f 135/6/3 131/6/3 133/6/3
f 135/4/3 133/4/3 134/4/3
f 136/1/3 134/1/3 128/1/3
f 136/3/3 135/3/3 134/3/3
f 137/6/3 131/6/3 135/6/3
f 137/3/3 135/3/3 136/3/3
f 138/1/3 136/1/3 128/1/3
f 138/4/3 137/4/3 136/4/3
f 139/6/3 131/6/3 137/6/3
f 139/4/3 137/4/3 138/4/3
f 140/1/3 138/1/3 128/1/3
f 141/5/3 139/5/3 138/5/3
f 141/1/3 138/1/3 140/1/3
f 142/6/3 131/6/3 139/6/3
f 142/5/3 139/5/3 141/5/3
f 143/6/3 131/6/3 142/6/3
f 148/6/3 145/6/3 144/6/3
f 149/6/3 145/6/3 148/6/3
f 150/6/3 147/6/3 146/6/3
f 151/6/3 147/6/3 150/6/3
f 154/6/3 153/6/3 152/6/3
f 155/6/3 153/6/3 154/6/3
f 158/6/3 157/6/3 156/6/3
f 159/6/3 157/6/3 158/6/3
f 162/6/3 161/6/3 160/6/3
f 163/6/3 161/6/3 162/6/3
f 166/6/3 165/6/3 164/6/3
f 167/6/3 165/6/3 166/6/3
f 171/6/3 169/6/3 168/6/3
f 172/6/3 171/6/3 170/6/3
f 173/6/3 169/6/3 171/6/3
f 173/6/3 171/6/3 172/6/3
f 174/6/3 169/6/3 173/6/3
f 177/6/3 176/6/3 175/6/3
f 178/6/3 176/6/3 177/6/3
f 181/3/3 180/3/3 179/3/3
f 182/3/3 180/3/3 181/3/3
f 185/6/3 182/6/3 181/6/3
f 186/6/3 182/6/3 185/6/3
f 187/6/3 184/6/3 183/6/3
f 188/6/3 184/6/3 187/6/3
f 191/3/3 190/3/3 189/3/3
f 192/3/3 190/3/3 191/3/3
f 193/3/4 194/3/4 195/3/4
f 195/3/4 194/3/4 196/3/4
f 197/6/4 198/6/4 199/6/4
f 199/6/4 198/6/4 200/6/4
f 201/4/4 202/4/4 203/4/4
f 203/4/4 202/4/4 204/4/4
f 205/3/4 206/3/4 207/3/4
f 207/3/4 206/3/4 208/3/4
f 208/3/4 206/3/4 209/3/4
f 210/6/4 211/6/4 213/6/4
f 213/6/4 211/6/4 214/6/4
f 212/6/4 213/6/4 215/6/4
f 215/6/4 213/6/4 216/6/4
f 217/6/4 218/6/4 220/6/4
f 218/6/4 219/6/4 220/6/4
f 220/6/4 219/6/4 221/6/4
f 221/6/4 222/6/4 223/6/4
f 223/6/4 222/6/4 224/6/4
f 225/6/4 226/6/4 227/6/4
f 227/6/4 226/6/4 228/6/4
f 229/6/4 230/6/4 231/6/4
f 231/6/4 230/6/4 232/6/4
f 233/6/4 234/6/4 235/6/4
f 235/6/4 234/6/4 236/6/4
f 237/1/4 238/1/4 241/1/4
f 238/5/4 239/5/4 241/5/4
f 239/6/4 240/6/4 242/6/4
f 241/5/4 239/5/4 242/5/4
f 237/1/4 241/1/4 243/1/4
f 241/4/4 242/4/4 243/4/4
f 242/6/4 240/6/4 244/6/4
f 243/4/4 242/4/4 244/4/4
f 237/1/4 243/1/4 245/1/4
f 243/3/4 244/3/4 245/3/4
f 244/6/4 240/6/4 246/6/4
f 245/3/4 244/3/4 246/3/4
f 237/1/4 245/1/4 247/1/4
f 245/4/4 246/4/4 247/4/4
f 246/6/4 240/6/4 248/6/4
f 247/4/4 246/4/4 248/4/4
f 237/1/4 247/1/4 249/1/4
f 247/5/4 248/5/4 250/5/4
f 249/1/4 247/1/4 250/1/4
f 248/6/4 240/6/4 251/6/4
f 250/5/4 248/5/4 251/5/4
f 251/6/4 240/6/4 252/6/4
f 255/1/5 254/1/5 253/1/5
f 256/1/5 254/1/5 255/1/5
f 257/1/5 255/1/5 253/1/5
f 258/2/5 256/2/5 255/2/5
f 258/1/5 255/1/5 257/1/5
f 259/1/5 254/1/5 256/1/5
f 259/2/5 256/2/5 258/2/5
f 260/1/5 254/1/5 259/1/5
f 261/1/5 254/1/5 260/1/5
f 262/6/5 258/6/5 257/6/5
f 262/1/5 259/1/5 258/1/5
f 263/4/5 260/4/5 259/4/5
f 263/1/5 259/1/5 262/1/5
f 264/6/5 261/6/5 260/6/5
f 264/4/5 260/4/5 263/4/5
f 265/6/5 261/6/5 264/6/5
f 266/1/5 254/1/5 261/1/5
f 266/6/5 261/6/5 265/6/5
f 267/1/5 257/1/5 253/1/5
f 267/6/5 263/6/5 262/6/5
f 267/6/5 262/6/5 257/6/5
f 267/6/5 264/6/5 263/6/5
f 268/6/5 264/6/5 267/6/5
f 269/4/5 265/4/5 264/4/5
f 269/6/5 264/6/5 268/6/5
f 270/1/5 266/1/5 265/1/5
f 270/4/5 265/4/5 269/4/5
f 271/1/5 254/1/5 266/1/5
f 271/1/5 266/1/5 270/1/5
f 272/1/5 268/1/5 267/1/5
f 272/6/5 270/6/5 269/6/5
f 272/6/5 271/6/5 270/6/5
f 272/6/5 269/6/5 268/6/5
f 273/6/5 271/6/5 272/6/5
f 274/1/5 254/1/5 271/1/5
f 274/6/5 271/6/5 273/6/5
f 275/4/5 273/4/5 272/4/5
f 275/1/5 272/1/5 267/1/5
f 276/1/5 274/1/5 273/1/5
f 276/4/5 273/4/5 275/4/5
f 277/1/5 267/1/5 253/1/5
f 277/1/5 275/1/5 267/1/5
f 277/1/5 276/1/5 275/1/5
f 278/1/5 254/1/5 274/1/5
f 278/1/5 276/1/5 277/1/5
f 278/1/5 274/1/5 276/1/5
f 282/6/5 280/6/5 279/6/5
f 283/6/5 280/6/5 282/6/5
f 285/6/5 282/6/5 281/6/5
f 286/6/5 284/6/5 283/6/5
f 287/6/5 284/6/5 286/6/5
f 288/6/5 282/6/5 285/6/5
f 289/6/5 282/6/5 288/6/5
f 290/6/5 286/6/5 283/6/5
f 292/6/5 290/6/5 283/6/5
f 293/6/5 290/6/5 292/6/5
f 295/6/5 293/6/5 292/6/5
f 295/6/5 294/6/5 293/6/5
f 295/6/5 292/6/5 291/6/5
f 296/6/5 294/6/5 295/6/5
f 297/6/5 294/6/5 296/6/5
f 298/6/5 294/6/5 297/6/5
f 299/6/5 296/6/5 295/6/5
f 300/6/5 296/6/5 299/6/5
f 301/2/6 302/2/6 304/2/6
f 304/2/6 302/2/6 305/2/6
f 303/6/6 304/6/6 308/6/6
f 305/4/6 306/4/6 309/4/6
f 306/6/6 307/6/6 310/6/6
f 309/4/6 306/4/6 310/4/6
f 310/6/6 307/6/6 311/6/6
f 308/6/6 304/6/6 312/6/6
f 312/6/6 304/6/6 313/6/6
f 309/6/6 310/6/6 314/6/6
f 314/6/6 315/6/6 317/6/6
f 309/6/6 314/6/6 317/6/6
f 316/6/6 317/6/6 318/6/6
f 317/6/6 315/6/6 319/6/6
f 318/6/6 317/6/6 319/6/6
f 319/6/6 315/6/6 320/6/6
f 320/6/6 315/6/6 321/6/6
f 318/4/6 319/4/6 322/4/6
f 322/4/6 319/4/6 323/4/6
f 324/3/6 325/3/6 326/3/6
f 326/3/6 325/3/6 327/3/6
f 328/6/6 329/6/6 330/6/6
f 330/6/6 329/6/6 331/6/6
f 332/6/6 333/6/6 334/6/6
f 334/6/6 333/6/6 335/6/6
f 332/6/6 334/6/6 336/6/6
f 336/6/6 334/6/6 337/6/6
f 337/6/6 334/6/6 338/6/6
f 335/6/6 333/6/6 339/6/6
f 332/6/6 336/6/6 340/6/6
f 337/6/6 338/6/6 341/6/6
f 338/6/6 339/6/6 341/6/6
f 341/6/6 339/6/6 342/6/6
f 339/6/6 333/6/6 343/6/6
f 342/6/6 339/6/6 343/6/6
f 343/6/6 333/6/6 344/6/6
f 342/6/6 343/6/6 345/6/6
f 345/6/6 343/6/6 346/6/6
f 344/6/6 333/6/6 347/6/6
f 332/6/6 340/6/6 348/6/6
f 340/6/6 341/6/6 348/6/6
f 348/6/6 341/6/6 349/6/6
f 342/6/6 345/6/6 350/6/6
f 350/6/6 345/6/6 351/6/6
f 346/6/6 347/6/6 352/6/6
f 332/6/6 348/6/6 353/6/6
f 350/6/6 351/6/6 354/6/6
f 351/6/6 352/6/6 354/6/6
f 354/6/6 352/6/6 355/6/6
f 352/6/6 347/6/6 356/6/6
f 355/6/6 352/6/6 356/6/6
f 354/6/6 355/6/6 357/6/6
f 353/6/6 354/6/6 357/6/6
f 356/6/6 347/6/6 358/6/6
f 332/6/6 353/6/6 359/6/6
f 357/6/6 358/6/6 359/6/6
f 353/6/6 357/6/6 359/6/6
f 358/6/6 347/6/6 360/6/6
f 359/6/6 358/6/6 360/6/6
f 347/6/6 333/6/6 360/6/6
f 361/6/6 362/6/6 363/6/6
f 363/6/6 362/6/6 364/6/6
f 365/6/6 366/6/6 367/6/6
f 367/6/6 366/6/6 368/6/6
f 369/6/6 370/6/6 371/6/6
f 371/6/6 370/6/6 372/6/6
f 373/6/6 374/6/6 375/6/6
f 375/6/6 374/6/6 376/6/6
