# MagicaVoxel @ Ephtracy

# group
o 

# material
mtllib Lava16.mtl
usemtl palette

# normals
vn -1 0 0
vn 1 0 0
vn 0 0 1
vn 0 0 -1
vn 0 -1 0
vn 0 1 0

# texcoords
vt 0.0175781 0.5
vt 0.0683594 0.5
vt 0.0917969 0.5
vt 0.279297 0.5
vt 0.865234 0.5
vt 0.873047 0.5

# verts
v 0 2 0
v 0 2 -0.8
v 0 2.1 0
v 0 2.1 -0.1
v 0 2.1 -0.2
v 0 2.1 -0.3
v 0 2.1 -0.5
v 0 2.1 -0.7
v 0 2.1 -0.8
v 0 2.2 0
v 0 2.2 -0.1
v 0 2.2 -0.2
v 0 2.2 -0.3
v 0 2.2 -0.5
v 0 2.2 -0.7
v 0 2.2 -0.8
v 0 2.3 0
v 0 2.3 -0.8
v 0.1 2.3 -0.3
v 0.1 2.3 -0.4
v 0.1 2.4 -0.3
v 0.1 2.4 -0.4
v 0.2 2.2 -0.2
v 0.2 2.2 -0.3
v 0.2 2.2 -0.4
v 0.2 2.2 -0.5
v 0.2 2.3 -0.2
v 0.2 2.3 -0.3
v 0.2 2.3 -0.4
v 0.2 2.3 -0.5
v 0.3 2.1 -0.3
v 0.3 2.1 -0.4
v 0.3 2.3 -0.3
v 0.3 2.3 -0.4
v 0.4 2.2 -0.5
v 0.4 2.2 -0.6
v 0.4 2.3 -0.5
v 0.4 2.3 -0.6
v 0.6 2.2 -0.1
v 0.6 2.2 -0.2
v 0.6 2.3 -0.1
v 0.6 2.3 -0.2
v 0.6 2.3 -0.5
v 0.6 2.3 -0.6
v 0.6 2.4 -0.5
v 0.6 2.4 -0.6
v 0.1 2.2 -0.2
v 0.1 2.2 -0.3
v 0.1 2.2 -0.4
v 0.1 2.2 -0.5
v 0.1 2.3 -0.2
v 0.1 2.3 -0.3
v 0.1 2.3 -0.4
v 0.1 2.3 -0.5
v 0.2 2.1 -0.3
v 0.2 2.1 -0.4
v 0.2 2.3 -0.3
v 0.2 2.3 -0.4
v 0.2 2.4 -0.3
v 0.2 2.4 -0.4
v 0.3 2.2 -0.5
v 0.3 2.2 -0.6
v 0.3 2.3 -0.5
v 0.3 2.3 -0.6
v 0.5 2.2 -0.1
v 0.5 2.2 -0.2
v 0.5 2.3 -0.1
v 0.5 2.3 -0.2
v 0.7 2.3 -0.5
v 0.7 2.3 -0.6
v 0.7 2.4 -0.5
v 0.7 2.4 -0.6
v 0.8 2 0
v 0.8 2 -0.8
v 0.8 2.1 0
v 0.8 2.1 -0.1
v 0.8 2.1 -0.3
v 0.8 2.1 -0.5
v 0.8 2.1 -0.7
v 0.8 2.1 -0.8
v 0.8 2.2 0
v 0.8 2.2 -0.1
v 0.8 2.2 -0.3
v 0.8 2.2 -0.5
v 0.8 2.2 -0.7
v 0.8 2.2 -0.8
v 0.8 2.3 0
v 0.8 2.3 -0.8
v 0 2 0
v 0 2.1 0
v 0 2.2 0
v 0 2.3 0
v 0.1 2.1 0
v 0.1 2.2 0
v 0.3 2.1 0
v 0.3 2.2 0
v 0.5 2.1 0
v 0.5 2.2 0
v 0.7 2.1 0
v 0.7 2.2 0
v 0.8 2 0
v 0.8 2.1 0
v 0.8 2.2 0
v 0.8 2.3 0
v 0.5 2.2 -0.2
v 0.5 2.3 -0.2
v 0.6 2.2 -0.2
v 0.6 2.3 -0.2
v 0.1 2.2 -0.3
v 0.1 2.3 -0.3
v 0.1 2.4 -0.3
v 0.2 2.2 -0.3
v 0.2 2.3 -0.3
v 0.2 2.4 -0.3
v 0.2 2.1 -0.4
v 0.2 2.3 -0.4
v 0.3 2.1 -0.4
v 0.3 2.3 -0.4
v 0.1 2.2 -0.5
v 0.1 2.3 -0.5
v 0.2 2.2 -0.5
v 0.2 2.3 -0.5
v 0.6 2.3 -0.5
v 0.6 2.4 -0.5
v 0.7 2.3 -0.5
v 0.7 2.4 -0.5
v 0.3 2.2 -0.6
v 0.3 2.3 -0.6
v 0.4 2.2 -0.6
v 0.4 2.3 -0.6
v 0.5 2.2 -0.1
v 0.5 2.3 -0.1
v 0.6 2.2 -0.1
v 0.6 2.3 -0.1
v 0.1 2.2 -0.2
v 0.1 2.3 -0.2
v 0.2 2.2 -0.2
v 0.2 2.3 -0.2
v 0.2 2.1 -0.3
v 0.2 2.3 -0.3
v 0.3 2.1 -0.3
v 0.3 2.3 -0.3
v 0.1 2.2 -0.4
v 0.1 2.3 -0.4
v 0.1 2.4 -0.4
v 0.2 2.2 -0.4
v 0.2 2.3 -0.4
v 0.2 2.4 -0.4
v 0.3 2.2 -0.5
v 0.3 2.3 -0.5
v 0.4 2.2 -0.5
v 0.4 2.3 -0.5
v 0.6 2.3 -0.6
v 0.6 2.4 -0.6
v 0.7 2.3 -0.6
v 0.7 2.4 -0.6
v 0 2 -0.8
v 0 2.1 -0.8
v 0 2.2 -0.8
v 0 2.3 -0.8
v 0.1 2.1 -0.8
v 0.1 2.2 -0.8
v 0.3 2.1 -0.8
v 0.3 2.2 -0.8
v 0.5 2.1 -0.8
v 0.5 2.2 -0.8
v 0.7 2.1 -0.8
v 0.7 2.2 -0.8
v 0.8 2 -0.8
v 0.8 2.1 -0.8
v 0.8 2.2 -0.8
v 0.8 2.3 -0.8
v 0 2 0
v 0.8 2 0
v 0.3 2 -0.1
v 0.4 2 -0.1
v 0.2 2 -0.2
v 0.3 2 -0.2
v 0.4 2 -0.2
v 0.5 2 -0.2
v 0.7 2 -0.2
v 0.3 2 -0.3
v 0.5 2 -0.3
v 0.6 2 -0.3
v 0.7 2 -0.3
v 0.2 2 -0.4
v 0.3 2 -0.4
v 0.5 2 -0.4
v 0.6 2 -0.4
v 0.7 2 -0.4
v 0.3 2 -0.6
v 0.4 2 -0.6
v 0.7 2 -0.6
v 0.3 2 -0.7
v 0.4 2 -0.7
v 0 2 -0.8
v 0.8 2 -0.8
v 0.2 2.1 -0.3
v 0.3 2.1 -0.3
v 0.2 2.1 -0.4
v 0.3 2.1 -0.4
v 0.5 2.2 -0.1
v 0.6 2.2 -0.1
v 0.1 2.2 -0.2
v 0.2 2.2 -0.2
v 0.5 2.2 -0.2
v 0.6 2.2 -0.2
v 0.1 2.2 -0.3
v 0.2 2.2 -0.3
v 0.1 2.2 -0.4
v 0.2 2.2 -0.4
v 0.1 2.2 -0.5
v 0.2 2.2 -0.5
v 0.3 2.2 -0.5
v 0.4 2.2 -0.5
v 0.3 2.2 -0.6
v 0.4 2.2 -0.6
v 0 2.3 0
v 0.8 2.3 0
v 0.5 2.3 -0.1
v 0.6 2.3 -0.1
v 0.1 2.3 -0.2
v 0.2 2.3 -0.2
v 0.5 2.3 -0.2
v 0.6 2.3 -0.2
v 0.1 2.3 -0.3
v 0.2 2.3 -0.3
v 0.3 2.3 -0.3
v 0.1 2.3 -0.4
v 0.2 2.3 -0.4
v 0.3 2.3 -0.4
v 0.1 2.3 -0.5
v 0.2 2.3 -0.5
v 0.3 2.3 -0.5
v 0.4 2.3 -0.5
v 0.6 2.3 -0.5
v 0.7 2.3 -0.5
v 0.3 2.3 -0.6
v 0.4 2.3 -0.6
v 0.6 2.3 -0.6
v 0.7 2.3 -0.6
v 0 2.3 -0.8
v 0.8 2.3 -0.8
v 0.1 2.4 -0.3
v 0.2 2.4 -0.3
v 0.1 2.4 -0.4
v 0.2 2.4 -0.4
v 0.6 2.4 -0.5
v 0.7 2.4 -0.5
v 0.6 2.4 -0.6
v 0.7 2.4 -0.6

# faces
f 3/1/1 2/1/1 1/1/1
f 4/1/1 2/1/1 3/1/1
f 5/1/1 2/1/1 4/1/1
f 6/1/1 2/1/1 5/1/1
f 7/1/1 2/1/1 6/1/1
f 8/1/1 2/1/1 7/1/1
f 9/1/1 2/1/1 8/1/1
f 10/5/1 4/5/1 3/5/1
f 11/4/1 5/4/1 4/4/1
f 11/5/1 4/5/1 10/5/1
f 12/6/1 6/6/1 5/6/1
f 12/4/1 5/4/1 11/4/1
f 13/3/1 7/3/1 6/3/1
f 13/6/1 6/6/1 12/6/1
f 14/4/1 8/4/1 7/4/1
f 14/3/1 7/3/1 13/3/1
f 15/5/1 9/5/1 8/5/1
f 15/4/1 8/4/1 14/4/1
f 16/5/1 9/5/1 15/5/1
f 17/6/1 11/6/1 10/6/1
f 17/6/1 12/6/1 11/6/1
f 17/6/1 16/6/1 15/6/1
f 17/6/1 15/6/1 14/6/1
f 17/6/1 14/6/1 13/6/1
f 17/6/1 13/6/1 12/6/1
f 18/6/1 16/6/1 17/6/1
f 21/6/1 20/6/1 19/6/1
f 22/6/1 20/6/1 21/6/1
f 27/6/1 24/6/1 23/6/1
f 28/6/1 24/6/1 27/6/1
f 29/6/1 26/6/1 25/6/1
f 30/6/1 26/6/1 29/6/1
f 33/6/1 32/6/1 31/6/1
f 34/6/1 32/6/1 33/6/1
f 37/6/1 36/6/1 35/6/1
f 38/6/1 36/6/1 37/6/1
f 41/6/1 40/6/1 39/6/1
f 42/6/1 40/6/1 41/6/1
f 45/6/1 44/6/1 43/6/1
f 46/6/1 44/6/1 45/6/1
f 47/6/2 48/6/2 51/6/2
f 51/6/2 48/6/2 52/6/2
f 49/6/2 50/6/2 53/6/2
f 53/6/2 50/6/2 54/6/2
f 55/6/2 56/6/2 57/6/2
f 57/6/2 56/6/2 58/6/2
f 57/6/2 58/6/2 59/6/2
f 59/6/2 58/6/2 60/6/2
f 61/6/2 62/6/2 63/6/2
f 63/6/2 62/6/2 64/6/2
f 65/6/2 66/6/2 67/6/2
f 67/6/2 66/6/2 68/6/2
f 69/6/2 70/6/2 71/6/2
f 71/6/2 70/6/2 72/6/2
f 73/1/2 74/1/2 75/1/2
f 75/1/2 74/1/2 76/1/2
f 76/1/2 74/1/2 77/1/2
f 77/1/2 74/1/2 78/1/2
f 78/1/2 74/1/2 79/1/2
f 79/1/2 74/1/2 80/1/2
f 75/5/2 76/5/2 81/5/2
f 76/4/2 77/4/2 82/4/2
f 81/5/2 76/5/2 82/5/2
f 77/3/2 78/3/2 83/3/2
f 82/4/2 77/4/2 83/4/2
f 78/4/2 79/4/2 84/4/2
f 83/3/2 78/3/2 84/3/2
f 79/5/2 80/5/2 85/5/2
f 84/4/2 79/4/2 85/4/2
f 85/5/2 80/5/2 86/5/2
f 81/6/2 82/6/2 87/6/2
f 82/6/2 83/6/2 87/6/2
f 85/6/2 86/6/2 87/6/2
f 84/6/2 85/6/2 87/6/2
f 83/6/2 84/6/2 87/6/2
f 87/6/2 86/6/2 88/6/2
f 93/1/3 90/1/3 89/1/3
f 93/5/3 91/5/3 90/5/3
f 94/6/3 92/6/3 91/6/3
f 94/5/3 91/5/3 93/5/3
f 95/1/3 93/1/3 89/1/3
f 95/4/3 94/4/3 93/4/3
f 96/6/3 92/6/3 94/6/3
f 96/4/3 94/4/3 95/4/3
f 97/1/3 95/1/3 89/1/3
f 97/3/3 96/3/3 95/3/3
f 98/6/3 92/6/3 96/6/3
f 98/3/3 96/3/3 97/3/3
f 99/1/3 97/1/3 89/1/3
f 99/4/3 98/4/3 97/4/3
f 100/6/3 92/6/3 98/6/3
f 100/4/3 98/4/3 99/4/3
f 101/1/3 99/1/3 89/1/3
f 102/5/3 100/5/3 99/5/3
f 102/1/3 99/1/3 101/1/3
f 103/6/3 92/6/3 100/6/3
f 103/5/3 100/5/3 102/5/3
f 104/6/3 92/6/3 103/6/3
f 107/6/3 106/6/3 105/6/3
f 108/6/3 106/6/3 107/6/3
f 112/6/3 110/6/3 109/6/3
f 112/6/3 111/6/3 110/6/3
f 113/6/3 111/6/3 112/6/3
f 114/6/3 111/6/3 113/6/3
f 117/6/3 116/6/3 115/6/3
f 118/6/3 116/6/3 117/6/3
f 121/6/3 120/6/3 119/6/3
f 122/6/3 120/6/3 121/6/3
f 125/6/3 124/6/3 123/6/3
f 126/6/3 124/6/3 125/6/3
f 129/6/3 128/6/3 127/6/3
f 130/6/3 128/6/3 129/6/3
f 131/6/4 132/6/4 133/6/4
f 133/6/4 132/6/4 134/6/4
f 135/6/4 136/6/4 137/6/4
f 137/6/4 136/6/4 138/6/4
f 139/6/4 140/6/4 141/6/4
f 141/6/4 140/6/4 142/6/4
f 143/6/4 144/6/4 146/6/4
f 144/6/4 145/6/4 146/6/4
f 146/6/4 145/6/4 147/6/4
f 147/6/4 145/6/4 148/6/4
f 149/6/4 150/6/4 151/6/4
f 151/6/4 150/6/4 152/6/4
f 153/6/4 154/6/4 155/6/4
f 155/6/4 154/6/4 156/6/4
f 157/1/4 158/1/4 161/1/4
f 158/5/4 159/5/4 161/5/4
f 159/6/4 160/6/4 162/6/4
f 161/5/4 159/5/4 162/5/4
f 157/1/4 161/1/4 163/1/4
f 161/4/4 162/4/4 163/4/4
f 162/6/4 160/6/4 164/6/4
f 163/4/4 162/4/4 164/4/4
f 157/1/4 163/1/4 165/1/4
f 163/3/4 164/3/4 165/3/4
f 164/6/4 160/6/4 166/6/4
f 165/3/4 164/3/4 166/3/4
f 157/1/4 165/1/4 167/1/4
f 165/4/4 166/4/4 167/4/4
f 166/6/4 160/6/4 168/6/4
f 167/4/4 166/4/4 168/4/4
f 157/1/4 167/1/4 169/1/4
f 167/5/4 168/5/4 170/5/4
f 169/1/4 167/1/4 170/1/4
f 168/6/4 160/6/4 171/6/4
f 170/5/4 168/5/4 171/5/4
f 171/6/4 160/6/4 172/6/4
f 175/1/5 174/1/5 173/1/5
f 176/1/5 174/1/5 175/1/5
f 177/1/5 175/1/5 173/1/5
f 178/2/5 176/2/5 175/2/5
f 178/1/5 175/1/5 177/1/5
f 179/1/5 174/1/5 176/1/5
f 179/2/5 176/2/5 178/2/5
f 180/1/5 174/1/5 179/1/5
f 181/1/5 174/1/5 180/1/5
f 182/6/5 178/6/5 177/6/5
f 182/4/5 179/4/5 178/4/5
f 182/4/5 180/4/5 179/4/5
f 183/6/5 181/6/5 180/6/5
f 183/4/5 180/4/5 182/4/5
f 184/6/5 181/6/5 183/6/5
f 185/1/5 174/1/5 181/1/5
f 185/6/5 181/6/5 184/6/5
f 186/1/5 177/1/5 173/1/5
f 186/6/5 182/6/5 177/6/5
f 186/6/5 183/6/5 182/6/5
f 187/6/5 183/6/5 186/6/5
f 188/4/5 184/4/5 183/4/5
f 188/6/5 183/6/5 187/6/5
f 189/1/5 185/1/5 184/1/5
f 189/4/5 184/4/5 188/4/5
f 190/1/5 174/1/5 185/1/5
f 190/1/5 185/1/5 189/1/5
f 191/1/5 187/1/5 186/1/5
f 191/6/5 189/6/5 188/6/5
f 191/6/5 190/6/5 189/6/5
f 191/6/5 188/6/5 187/6/5
f 192/6/5 190/6/5 191/6/5
f 193/1/5 174/1/5 190/1/5
f 193/6/5 190/6/5 192/6/5
f 194/4/5 192/4/5 191/4/5
f 194/1/5 191/1/5 186/1/5
f 195/1/5 193/1/5 192/1/5
f 195/4/5 192/4/5 194/4/5
f 196/1/5 186/1/5 173/1/5
f 196/1/5 194/1/5 186/1/5
f 196/1/5 195/1/5 194/1/5
f 197/1/5 174/1/5 193/1/5
f 197/1/5 195/1/5 196/1/5
f 197/1/5 193/1/5 195/1/5
f 198/6/6 199/6/6 200/6/6
f 200/6/6 199/6/6 201/6/6
f 202/6/6 203/6/6 206/6/6
f 206/6/6 203/6/6 207/6/6
f 204/6/6 205/6/6 208/6/6
f 208/6/6 205/6/6 209/6/6
f 210/6/6 211/6/6 212/6/6
f 212/6/6 211/6/6 213/6/6
f 214/6/6 215/6/6 216/6/6
f 216/6/6 215/6/6 217/6/6
f 218/6/6 219/6/6 220/6/6
f 220/6/6 219/6/6 221/6/6
f 218/6/6 220/6/6 222/6/6
f 222/6/6 220/6/6 223/6/6
f 223/6/6 220/6/6 224/6/6
f 221/6/6 219/6/6 225/6/6
f 218/6/6 222/6/6 226/6/6
f 223/6/6 224/6/6 227/6/6
f 224/6/6 225/6/6 227/6/6
f 227/6/6 225/6/6 228/6/6
f 218/6/6 226/6/6 229/6/6
f 228/6/6 225/6/6 231/6/6
f 218/6/6 229/6/6 232/6/6
f 230/6/6 231/6/6 233/6/6
f 231/6/6 225/6/6 234/6/6
f 233/6/6 231/6/6 234/6/6
f 234/6/6 225/6/6 235/6/6
f 225/6/6 219/6/6 236/6/6
f 235/6/6 225/6/6 236/6/6
f 236/6/6 219/6/6 237/6/6
f 232/6/6 233/6/6 238/6/6
f 233/6/6 234/6/6 238/6/6
f 235/6/6 236/6/6 239/6/6
f 239/6/6 236/6/6 240/6/6
f 237/6/6 219/6/6 241/6/6
f 218/6/6 232/6/6 242/6/6
f 240/6/6 241/6/6 242/6/6
f 239/6/6 240/6/6 242/6/6
f 232/6/6 238/6/6 242/6/6
f 238/6/6 239/6/6 242/6/6
f 241/6/6 219/6/6 243/6/6
f 242/6/6 241/6/6 243/6/6
f 244/6/6 245/6/6 246/6/6
f 246/6/6 245/6/6 247/6/6
f 248/6/6 249/6/6 250/6/6
f 250/6/6 249/6/6 251/6/6
