# MagicaVoxel @ Ephtracy

# group
o 

# material
mtllib Lava17.mtl
usemtl palette

# normals
vn -1 0 0
vn 1 0 0
vn 0 0 1
vn 0 0 -1
vn 0 -1 0
vn 0 1 0

# texcoords
vt 0.0175781 0.5
vt 0.0683594 0.5
vt 0.0917969 0.5
vt 0.279297 0.5
vt 0.865234 0.5
vt 0.873047 0.5

# verts
v 0 2 0
v 0 2 -0.8
v 0 2.1 0
v 0 2.1 -0.1
v 0 2.1 -0.2
v 0 2.1 -0.3
v 0 2.1 -0.5
v 0 2.1 -0.7
v 0 2.1 -0.8
v 0 2.2 0
v 0 2.2 -0.1
v 0 2.2 -0.2
v 0 2.2 -0.3
v 0 2.2 -0.5
v 0 2.2 -0.7
v 0 2.2 -0.8
v 0 2.3 0
v 0 2.3 -0.8
v 0.3 2.1 -0.3
v 0.3 2.1 -0.4
v 0.3 2.3 -0.3
v 0.3 2.3 -0.4
v 0.4 2.2 -0.5
v 0.4 2.2 -0.7
v 0.4 2.3 -0.5
v 0.4 2.3 -0.7
v 0.5 2.2 -0.3
v 0.5 2.2 -0.4
v 0.5 2.3 -0.3
v 0.5 2.3 -0.4
v 0.6 2.2 -0.6
v 0.6 2.2 -0.7
v 0.6 2.3 -0.6
v 0.6 2.3 -0.7
v 0.2 2.1 -0.3
v 0.2 2.1 -0.4
v 0.2 2.3 -0.3
v 0.2 2.3 -0.4
v 0.3 2.2 -0.5
v 0.3 2.2 -0.7
v 0.3 2.3 -0.5
v 0.3 2.3 -0.7
v 0.4 2.2 -0.3
v 0.4 2.2 -0.4
v 0.4 2.3 -0.3
v 0.4 2.3 -0.4
v 0.5 2.2 -0.6
v 0.5 2.2 -0.7
v 0.5 2.3 -0.6
v 0.5 2.3 -0.7
v 0.8 2 0
v 0.8 2 -0.8
v 0.8 2.1 0
v 0.8 2.1 -0.1
v 0.8 2.1 -0.3
v 0.8 2.1 -0.5
v 0.8 2.1 -0.7
v 0.8 2.1 -0.8
v 0.8 2.2 0
v 0.8 2.2 -0.1
v 0.8 2.2 -0.3
v 0.8 2.2 -0.5
v 0.8 2.2 -0.7
v 0.8 2.2 -0.8
v 0.8 2.3 0
v 0.8 2.3 -0.8
v 0 2 0
v 0 2.1 0
v 0 2.2 0
v 0 2.3 0
v 0.1 2.1 0
v 0.1 2.2 0
v 0.3 2.1 0
v 0.3 2.2 0
v 0.5 2.1 0
v 0.5 2.2 0
v 0.7 2.1 0
v 0.7 2.2 0
v 0.8 2 0
v 0.8 2.1 0
v 0.8 2.2 0
v 0.8 2.3 0
v 0.2 2.1 -0.4
v 0.2 2.3 -0.4
v 0.3 2.1 -0.4
v 0.3 2.3 -0.4
v 0.4 2.2 -0.4
v 0.4 2.3 -0.4
v 0.5 2.2 -0.4
v 0.5 2.3 -0.4
v 0.3 2.2 -0.7
v 0.3 2.3 -0.7
v 0.4 2.2 -0.7
v 0.4 2.3 -0.7
v 0.5 2.2 -0.7
v 0.5 2.3 -0.7
v 0.6 2.2 -0.7
v 0.6 2.3 -0.7
v 0.2 2.1 -0.3
v 0.2 2.3 -0.3
v 0.3 2.1 -0.3
v 0.3 2.3 -0.3
v 0.4 2.2 -0.3
v 0.4 2.3 -0.3
v 0.5 2.2 -0.3
v 0.5 2.3 -0.3
v 0.3 2.2 -0.5
v 0.3 2.3 -0.5
v 0.4 2.2 -0.5
v 0.4 2.3 -0.5
v 0.5 2.2 -0.6
v 0.5 2.3 -0.6
v 0.6 2.2 -0.6
v 0.6 2.3 -0.6
v 0 2 -0.8
v 0 2.1 -0.8
v 0 2.2 -0.8
v 0 2.3 -0.8
v 0.1 2.1 -0.8
v 0.1 2.2 -0.8
v 0.3 2.1 -0.8
v 0.3 2.2 -0.8
v 0.5 2.1 -0.8
v 0.5 2.2 -0.8
v 0.7 2.1 -0.8
v 0.7 2.2 -0.8
v 0.8 2 -0.8
v 0.8 2.1 -0.8
v 0.8 2.2 -0.8
v 0.8 2.3 -0.8
v 0 2 0
v 0.8 2 0
v 0.3 2 -0.1
v 0.4 2 -0.1
v 0.2 2 -0.2
v 0.3 2 -0.2
v 0.4 2 -0.2
v 0.5 2 -0.2
v 0.7 2 -0.2
v 0.3 2 -0.3
v 0.5 2 -0.3
v 0.6 2 -0.3
v 0.7 2 -0.3
v 0.2 2 -0.4
v 0.3 2 -0.4
v 0.5 2 -0.4
v 0.6 2 -0.4
v 0.7 2 -0.4
v 0.3 2 -0.6
v 0.4 2 -0.6
v 0.7 2 -0.6
v 0.3 2 -0.7
v 0.4 2 -0.7
v 0 2 -0.8
v 0.8 2 -0.8
v 0.2 2.1 -0.3
v 0.3 2.1 -0.3
v 0.2 2.1 -0.4
v 0.3 2.1 -0.4
v 0.4 2.2 -0.3
v 0.5 2.2 -0.3
v 0.4 2.2 -0.4
v 0.5 2.2 -0.4
v 0.3 2.2 -0.5
v 0.4 2.2 -0.5
v 0.5 2.2 -0.6
v 0.6 2.2 -0.6
v 0.3 2.2 -0.7
v 0.4 2.2 -0.7
v 0.5 2.2 -0.7
v 0.6 2.2 -0.7
v 0 2.3 0
v 0.8 2.3 0
v 0.2 2.3 -0.3
v 0.3 2.3 -0.3
v 0.4 2.3 -0.3
v 0.5 2.3 -0.3
v 0.2 2.3 -0.4
v 0.3 2.3 -0.4
v 0.4 2.3 -0.4
v 0.5 2.3 -0.4
v 0.3 2.3 -0.5
v 0.4 2.3 -0.5
v 0.5 2.3 -0.6
v 0.6 2.3 -0.6
v 0.3 2.3 -0.7
v 0.4 2.3 -0.7
v 0.5 2.3 -0.7
v 0.6 2.3 -0.7
v 0 2.3 -0.8
v 0.8 2.3 -0.8

# faces
f 3/1/1 2/1/1 1/1/1
f 4/1/1 2/1/1 3/1/1
f 5/1/1 2/1/1 4/1/1
f 6/1/1 2/1/1 5/1/1
f 7/1/1 2/1/1 6/1/1
f 8/1/1 2/1/1 7/1/1
f 9/1/1 2/1/1 8/1/1
f 10/5/1 4/5/1 3/5/1
f 11/4/1 5/4/1 4/4/1
f 11/5/1 4/5/1 10/5/1
f 12/6/1 6/6/1 5/6/1
f 12/4/1 5/4/1 11/4/1
f 13/3/1 7/3/1 6/3/1
f 13/6/1 6/6/1 12/6/1
f 14/4/1 8/4/1 7/4/1
f 14/3/1 7/3/1 13/3/1
f 15/5/1 9/5/1 8/5/1
f 15/4/1 8/4/1 14/4/1
f 16/5/1 9/5/1 15/5/1
f 17/6/1 11/6/1 10/6/1
f 17/6/1 12/6/1 11/6/1
f 17/6/1 16/6/1 15/6/1
f 17/6/1 15/6/1 14/6/1
f 17/6/1 14/6/1 13/6/1
f 17/6/1 13/6/1 12/6/1
f 18/6/1 16/6/1 17/6/1
f 21/6/1 20/6/1 19/6/1
f 22/6/1 20/6/1 21/6/1
f 25/6/1 24/6/1 23/6/1
f 26/6/1 24/6/1 25/6/1
f 29/6/1 28/6/1 27/6/1
f 30/6/1 28/6/1 29/6/1
f 33/6/1 32/6/1 31/6/1
f 34/6/1 32/6/1 33/6/1
f 35/6/2 36/6/2 37/6/2
f 37/6/2 36/6/2 38/6/2
f 39/6/2 40/6/2 41/6/2
f 41/6/2 40/6/2 42/6/2
f 43/6/2 44/6/2 45/6/2
f 45/6/2 44/6/2 46/6/2
f 47/6/2 48/6/2 49/6/2
f 49/6/2 48/6/2 50/6/2
f 51/1/2 52/1/2 53/1/2
f 53/1/2 52/1/2 54/1/2
f 54/1/2 52/1/2 55/1/2
f 55/1/2 52/1/2 56/1/2
f 56/1/2 52/1/2 57/1/2
f 57/1/2 52/1/2 58/1/2
f 53/5/2 54/5/2 59/5/2
f 54/4/2 55/4/2 60/4/2
f 59/5/2 54/5/2 60/5/2
f 55/3/2 56/3/2 61/3/2
f 60/4/2 55/4/2 61/4/2
f 56/4/2 57/4/2 62/4/2
f 61/3/2 56/3/2 62/3/2
f 57/5/2 58/5/2 63/5/2
f 62/4/2 57/4/2 63/4/2
f 63/5/2 58/5/2 64/5/2
f 59/6/2 60/6/2 65/6/2
f 60/6/2 61/6/2 65/6/2
f 63/6/2 64/6/2 65/6/2
f 62/6/2 63/6/2 65/6/2
f 61/6/2 62/6/2 65/6/2
f 65/6/2 64/6/2 66/6/2
f 71/1/3 68/1/3 67/1/3
f 71/5/3 69/5/3 68/5/3
f 72/6/3 70/6/3 69/6/3
f 72/5/3 69/5/3 71/5/3
f 73/1/3 71/1/3 67/1/3
f 73/4/3 72/4/3 71/4/3
f 74/6/3 70/6/3 72/6/3
f 74/4/3 72/4/3 73/4/3
f 75/1/3 73/1/3 67/1/3
f 75/3/3 74/3/3 73/3/3
f 76/6/3 70/6/3 74/6/3
f 76/3/3 74/3/3 75/3/3
f 77/1/3 75/1/3 67/1/3
f 77/4/3 76/4/3 75/4/3
f 78/6/3 70/6/3 76/6/3
f 78/4/3 76/4/3 77/4/3
f 79/1/3 77/1/3 67/1/3
f 80/5/3 78/5/3 77/5/3
f 80/1/3 77/1/3 79/1/3
f 81/6/3 70/6/3 78/6/3
f 81/5/3 78/5/3 80/5/3
f 82/6/3 70/6/3 81/6/3
f 85/6/3 84/6/3 83/6/3
f 86/6/3 84/6/3 85/6/3
f 89/6/3 88/6/3 87/6/3
f 90/6/3 88/6/3 89/6/3
f 93/6/3 92/6/3 91/6/3
f 94/6/3 92/6/3 93/6/3
f 97/6/3 96/6/3 95/6/3
f 98/6/3 96/6/3 97/6/3
f 99/6/4 100/6/4 101/6/4
f 101/6/4 100/6/4 102/6/4
f 103/6/4 104/6/4 105/6/4
f 105/6/4 104/6/4 106/6/4
f 107/6/4 108/6/4 109/6/4
f 109/6/4 108/6/4 110/6/4
f 111/6/4 112/6/4 113/6/4
f 113/6/4 112/6/4 114/6/4
f 115/1/4 116/1/4 119/1/4
f 116/5/4 117/5/4 119/5/4
f 117/6/4 118/6/4 120/6/4
f 119/5/4 117/5/4 120/5/4
f 115/1/4 119/1/4 121/1/4
f 119/4/4 120/4/4 121/4/4
f 120/6/4 118/6/4 122/6/4
f 121/4/4 120/4/4 122/4/4
f 115/1/4 121/1/4 123/1/4
f 121/3/4 122/3/4 123/3/4
f 122/6/4 118/6/4 124/6/4
f 123/3/4 122/3/4 124/3/4
f 115/1/4 123/1/4 125/1/4
f 123/4/4 124/4/4 125/4/4
f 124/6/4 118/6/4 126/6/4
f 125/4/4 124/4/4 126/4/4
f 115/1/4 125/1/4 127/1/4
f 125/5/4 126/5/4 128/5/4
f 127/1/4 125/1/4 128/1/4
f 126/6/4 118/6/4 129/6/4
f 128/5/4 126/5/4 129/5/4
f 129/6/4 118/6/4 130/6/4
f 133/1/5 132/1/5 131/1/5
f 134/1/5 132/1/5 133/1/5
f 135/1/5 133/1/5 131/1/5
f 136/2/5 134/2/5 133/2/5
f 136/1/5 133/1/5 135/1/5
f 137/1/5 132/1/5 134/1/5
f 137/2/5 134/2/5 136/2/5
f 138/1/5 132/1/5 137/1/5
f 139/1/5 132/1/5 138/1/5
f 140/6/5 136/6/5 135/6/5
f 140/4/5 137/4/5 136/4/5
f 140/4/5 138/4/5 137/4/5
f 141/6/5 139/6/5 138/6/5
f 141/4/5 138/4/5 140/4/5
f 142/6/5 139/6/5 141/6/5
f 143/1/5 132/1/5 139/1/5
f 143/6/5 139/6/5 142/6/5
f 144/1/5 135/1/5 131/1/5
f 144/6/5 140/6/5 135/6/5
f 144/6/5 141/6/5 140/6/5
f 145/6/5 141/6/5 144/6/5
f 146/4/5 142/4/5 141/4/5
f 146/6/5 141/6/5 145/6/5
f 147/1/5 143/1/5 142/1/5
f 147/4/5 142/4/5 146/4/5
f 148/1/5 132/1/5 143/1/5
f 148/1/5 143/1/5 147/1/5
f 149/1/5 145/1/5 144/1/5
f 149/6/5 147/6/5 146/6/5
f 149/6/5 148/6/5 147/6/5
f 149/6/5 146/6/5 145/6/5
f 150/6/5 148/6/5 149/6/5
f 151/1/5 132/1/5 148/1/5
f 151/6/5 148/6/5 150/6/5
f 152/4/5 150/4/5 149/4/5
f 152/1/5 149/1/5 144/1/5
f 153/1/5 151/1/5 150/1/5
f 153/4/5 150/4/5 152/4/5
f 154/1/5 144/1/5 131/1/5
f 154/1/5 152/1/5 144/1/5
f 154/1/5 153/1/5 152/1/5
f 155/1/5 132/1/5 151/1/5
f 155/1/5 153/1/5 154/1/5
f 155/1/5 151/1/5 153/1/5
f 156/6/6 157/6/6 158/6/6
f 158/6/6 157/6/6 159/6/6
f 160/6/6 161/6/6 162/6/6
f 162/6/6 161/6/6 163/6/6
f 164/6/6 165/6/6 168/6/6
f 168/6/6 165/6/6 169/6/6
f 166/6/6 167/6/6 170/6/6
f 170/6/6 167/6/6 171/6/6
f 172/6/6 173/6/6 174/6/6
f 174/6/6 173/6/6 175/6/6
f 175/6/6 173/6/6 176/6/6
f 176/6/6 173/6/6 177/6/6
f 172/6/6 174/6/6 178/6/6
f 175/6/6 176/6/6 179/6/6
f 179/6/6 176/6/6 180/6/6
f 177/6/6 173/6/6 181/6/6
f 179/6/6 180/6/6 182/6/6
f 180/6/6 181/6/6 182/6/6
f 178/6/6 179/6/6 182/6/6
f 182/6/6 181/6/6 183/6/6
f 181/6/6 173/6/6 184/6/6
f 183/6/6 181/6/6 184/6/6
f 184/6/6 173/6/6 185/6/6
f 178/6/6 182/6/6 186/6/6
f 183/6/6 184/6/6 187/6/6
f 187/6/6 184/6/6 188/6/6
f 185/6/6 173/6/6 189/6/6
f 187/6/6 188/6/6 190/6/6
f 188/6/6 189/6/6 190/6/6
f 172/6/6 178/6/6 190/6/6
f 178/6/6 186/6/6 190/6/6
f 186/6/6 187/6/6 190/6/6
f 189/6/6 173/6/6 191/6/6
f 190/6/6 189/6/6 191/6/6
