# MagicaVoxel @ Ephtracy

# group
o 

# material
mtllib Lava15.mtl
usemtl palette

# normals
vn -1 0 0
vn 1 0 0
vn 0 0 1
vn 0 0 -1
vn 0 -1 0
vn 0 1 0

# texcoords
vt 0.0175781 0.5
vt 0.0683594 0.5
vt 0.0917969 0.5
vt 0.279297 0.5
vt 0.865234 0.5
vt 0.873047 0.5

# verts
v 0 2 0
v 0 2 -0.8
v 0 2.1 0
v 0 2.1 -0.1
v 0 2.1 -0.3
v 0 2.1 -0.5
v 0 2.1 -0.7
v 0 2.1 -0.8
v 0 2.2 0
v 0 2.2 -0.1
v 0 2.2 -0.3
v 0 2.2 -0.5
v 0 2.2 -0.7
v 0 2.2 -0.8
v 0 2.3 0
v 0 2.3 -0.8
v 0.2 2.2 -0.6
v 0.2 2.2 -0.7
v 0.2 2.3 -0.6
v 0.2 2.3 -0.7
v 0.3 2.1 -0.3
v 0.3 2.1 -0.4
v 0.3 2.2 -0.2
v 0.3 2.2 -0.3
v 0.3 2.2 -0.4
v 0.3 2.3 -0.2
v 0.3 2.3 -0.4
v 0.4 2.1 -0.5
v 0.4 2.1 -0.6
v 0.4 2.2 -0.4
v 0.4 2.2 -0.5
v 0.4 2.3 -0.4
v 0.4 2.3 -0.6
v 0.4 2.3 -0.7
v 0.4 2.4 -0.6
v 0.4 2.4 -0.7
v 0.6 2.2 -0.3
v 0.6 2.2 -0.4
v 0.6 2.3 -0.3
v 0.6 2.3 -0.4
v 0.7 2.2 -0.1
v 0.7 2.2 -0.2
v 0.7 2.2 -0.4
v 0.7 2.2 -0.6
v 0.7 2.3 -0.1
v 0.7 2.3 -0.2
v 0.7 2.3 -0.4
v 0.7 2.3 -0.6
v 0.1 2.2 -0.2
v 0.1 2.2 -0.3
v 0.1 2.2 -0.4
v 0.1 2.2 -0.5
v 0.1 2.2 -0.6
v 0.1 2.2 -0.7
v 0.1 2.3 -0.2
v 0.1 2.3 -0.3
v 0.1 2.3 -0.4
v 0.1 2.3 -0.5
v 0.1 2.3 -0.6
v 0.1 2.3 -0.7
v 0.2 2.1 -0.3
v 0.2 2.1 -0.4
v 0.2 2.2 -0.3
v 0.2 2.2 -0.4
v 0.2 2.2 -0.5
v 0.2 2.2 -0.6
v 0.2 2.3 -0.3
v 0.2 2.3 -0.4
v 0.2 2.3 -0.5
v 0.2 2.3 -0.6
v 0.3 2.1 -0.5
v 0.3 2.1 -0.6
v 0.3 2.2 -0.5
v 0.3 2.2 -0.6
v 0.4 2.2 -0.1
v 0.4 2.2 -0.2
v 0.4 2.3 -0.1
v 0.4 2.3 -0.2
v 0.5 2.2 -0.3
v 0.5 2.2 -0.4
v 0.5 2.3 -0.3
v 0.5 2.3 -0.4
v 0.5 2.3 -0.6
v 0.5 2.3 -0.7
v 0.5 2.4 -0.6
v 0.5 2.4 -0.7
v 0.6 2.2 -0.4
v 0.6 2.2 -0.6
v 0.6 2.3 -0.4
v 0.6 2.3 -0.6
v 0.8 2 0
v 0.8 2 -0.8
v 0.8 2.1 0
v 0.8 2.1 -0.1
v 0.8 2.1 -0.3
v 0.8 2.1 -0.5
v 0.8 2.1 -0.7
v 0.8 2.1 -0.8
v 0.8 2.2 0
v 0.8 2.2 -0.1
v 0.8 2.2 -0.3
v 0.8 2.2 -0.5
v 0.8 2.2 -0.7
v 0.8 2.2 -0.8
v 0.8 2.3 0
v 0.8 2.3 -0.8
v 0 2 0
v 0 2.1 0
v 0 2.2 0
v 0 2.3 0
v 0.1 2.1 0
v 0.1 2.2 0
v 0.3 2.1 0
v 0.3 2.2 0
v 0.5 2.1 0
v 0.5 2.2 0
v 0.7 2.1 0
v 0.7 2.2 0
v 0.8 2 0
v 0.8 2.1 0
v 0.8 2.2 0
v 0.8 2.3 0
v 0.4 2.2 -0.2
v 0.4 2.3 -0.2
v 0.6 2.2 -0.2
v 0.7 2.2 -0.2
v 0.7 2.3 -0.2
v 0.1 2.2 -0.3
v 0.1 2.3 -0.3
v 0.2 2.2 -0.3
v 0.2 2.3 -0.3
v 0.2 2.1 -0.4
v 0.2 2.2 -0.4
v 0.3 2.1 -0.4
v 0.3 2.2 -0.4
v 0.5 2.2 -0.4
v 0.5 2.3 -0.4
v 0.6 2.2 -0.4
v 0.6 2.3 -0.4
v 0.1 2.2 -0.5
v 0.1 2.3 -0.5
v 0.2 2.2 -0.5
v 0.2 2.3 -0.5
v 0.2 2.2 -0.6
v 0.2 2.3 -0.6
v 0.3 2.1 -0.6
v 0.3 2.2 -0.6
v 0.4 2.1 -0.6
v 0.4 2.3 -0.6
v 0.4 2.4 -0.6
v 0.5 2.3 -0.6
v 0.5 2.4 -0.6
v 0.6 2.2 -0.6
v 0.6 2.3 -0.6
v 0.7 2.2 -0.6
v 0.7 2.3 -0.6
v 0.1 2.2 -0.7
v 0.1 2.3 -0.7
v 0.2 2.2 -0.7
v 0.2 2.3 -0.7
v 0.4 2.2 -0.1
v 0.4 2.3 -0.1
v 0.6 2.2 -0.1
v 0.7 2.2 -0.1
v 0.7 2.3 -0.1
v 0.1 2.2 -0.2
v 0.1 2.3 -0.2
v 0.2 2.2 -0.2
v 0.3 2.2 -0.2
v 0.3 2.3 -0.2
v 0.2 2.1 -0.3
v 0.2 2.2 -0.3
v 0.3 2.1 -0.3
v 0.3 2.2 -0.3
v 0.5 2.2 -0.3
v 0.5 2.3 -0.3
v 0.6 2.2 -0.3
v 0.6 2.3 -0.3
v 0.1 2.2 -0.4
v 0.1 2.3 -0.4
v 0.2 2.2 -0.4
v 0.2 2.3 -0.4
v 0.3 2.2 -0.4
v 0.3 2.3 -0.4
v 0.4 2.2 -0.4
v 0.4 2.3 -0.4
v 0.6 2.2 -0.4
v 0.6 2.3 -0.4
v 0.7 2.2 -0.4
v 0.7 2.3 -0.4
v 0.3 2.1 -0.5
v 0.3 2.2 -0.5
v 0.4 2.1 -0.5
v 0.4 2.2 -0.5
v 0.1 2.2 -0.6
v 0.1 2.3 -0.6
v 0.2 2.2 -0.6
v 0.2 2.3 -0.6
v 0.4 2.3 -0.7
v 0.4 2.4 -0.7
v 0.5 2.3 -0.7
v 0.5 2.4 -0.7
v 0 2 -0.8
v 0 2.1 -0.8
v 0 2.2 -0.8
v 0 2.3 -0.8
v 0.1 2.1 -0.8
v 0.1 2.2 -0.8
v 0.3 2.1 -0.8
v 0.3 2.2 -0.8
v 0.5 2.1 -0.8
v 0.5 2.2 -0.8
v 0.7 2.1 -0.8
v 0.7 2.2 -0.8
v 0.8 2 -0.8
v 0.8 2.1 -0.8
v 0.8 2.2 -0.8
v 0.8 2.3 -0.8
v 0 2 0
v 0.8 2 0
v 0.3 2 -0.1
v 0.4 2 -0.1
v 0.2 2 -0.2
v 0.3 2 -0.2
v 0.4 2 -0.2
v 0.5 2 -0.2
v 0.7 2 -0.2
v 0.3 2 -0.3
v 0.5 2 -0.3
v 0.6 2 -0.3
v 0.7 2 -0.3
v 0.2 2 -0.4
v 0.3 2 -0.4
v 0.5 2 -0.4
v 0.6 2 -0.4
v 0.7 2 -0.4
v 0.3 2 -0.6
v 0.4 2 -0.6
v 0.7 2 -0.6
v 0.3 2 -0.7
v 0.4 2 -0.7
v 0 2 -0.8
v 0.8 2 -0.8
v 0.2 2.1 -0.3
v 0.3 2.1 -0.3
v 0.2 2.1 -0.4
v 0.3 2.1 -0.4
v 0.3 2.1 -0.5
v 0.4 2.1 -0.5
v 0.3 2.1 -0.6
v 0.4 2.1 -0.6
v 0.4 2.2 -0.1
v 0.6 2.2 -0.1
v 0.7 2.2 -0.1
v 0.1 2.2 -0.2
v 0.2 2.2 -0.2
v 0.3 2.2 -0.2
v 0.4 2.2 -0.2
v 0.6 2.2 -0.2
v 0.7 2.2 -0.2
v 0.1 2.2 -0.3
v 0.2 2.2 -0.3
v 0.3 2.2 -0.3
v 0.5 2.2 -0.3
v 0.6 2.2 -0.3
v 0.1 2.2 -0.4
v 0.2 2.2 -0.4
v 0.3 2.2 -0.4
v 0.4 2.2 -0.4
v 0.5 2.2 -0.4
v 0.6 2.2 -0.4
v 0.7 2.2 -0.4
v 0.1 2.2 -0.5
v 0.2 2.2 -0.5
v 0.3 2.2 -0.5
v 0.4 2.2 -0.5
v 0.1 2.2 -0.6
v 0.2 2.2 -0.6
v 0.3 2.2 -0.6
v 0.6 2.2 -0.6
v 0.7 2.2 -0.6
v 0.1 2.2 -0.7
v 0.2 2.2 -0.7
v 0 2.3 0
v 0.8 2.3 0
v 0.4 2.3 -0.1
v 0.7 2.3 -0.1
v 0.1 2.3 -0.2
v 0.3 2.3 -0.2
v 0.4 2.3 -0.2
v 0.7 2.3 -0.2
v 0.1 2.3 -0.3
v 0.2 2.3 -0.3
v 0.5 2.3 -0.3
v 0.6 2.3 -0.3
v 0.1 2.3 -0.4
v 0.2 2.3 -0.4
v 0.3 2.3 -0.4
v 0.4 2.3 -0.4
v 0.5 2.3 -0.4
v 0.6 2.3 -0.4
v 0.7 2.3 -0.4
v 0.1 2.3 -0.5
v 0.2 2.3 -0.5
v 0.1 2.3 -0.6
v 0.2 2.3 -0.6
v 0.4 2.3 -0.6
v 0.5 2.3 -0.6
v 0.6 2.3 -0.6
v 0.7 2.3 -0.6
v 0.1 2.3 -0.7
v 0.2 2.3 -0.7
v 0.4 2.3 -0.7
v 0.5 2.3 -0.7
v 0 2.3 -0.8
v 0.8 2.3 -0.8
v 0.4 2.4 -0.6
v 0.5 2.4 -0.6
v 0.4 2.4 -0.7
v 0.5 2.4 -0.7

# faces
f 3/1/1 2/1/1 1/1/1
f 4/1/1 2/1/1 3/1/1
f 5/1/1 2/1/1 4/1/1
f 6/1/1 2/1/1 5/1/1
f 7/1/1 2/1/1 6/1/1
f 8/1/1 2/1/1 7/1/1
f 9/5/1 4/5/1 3/5/1
f 10/4/1 5/4/1 4/4/1
f 10/5/1 4/5/1 9/5/1
f 11/3/1 6/3/1 5/3/1
f 11/4/1 5/4/1 10/4/1
f 12/4/1 7/4/1 6/4/1
f 12/3/1 6/3/1 11/3/1
f 13/5/1 8/5/1 7/5/1
f 13/4/1 7/4/1 12/4/1
f 14/5/1 8/5/1 13/5/1
f 15/6/1 10/6/1 9/6/1
f 15/6/1 11/6/1 10/6/1
f 15/6/1 14/6/1 13/6/1
f 15/6/1 13/6/1 12/6/1
f 15/6/1 12/6/1 11/6/1
f 16/6/1 14/6/1 15/6/1
f 19/6/1 18/6/1 17/6/1
f 20/6/1 18/6/1 19/6/1
f 24/6/1 22/6/1 21/6/1
f 25/6/1 22/6/1 24/6/1
f 26/6/1 24/6/1 23/6/1
f 26/6/1 25/6/1 24/6/1
f 27/6/1 25/6/1 26/6/1
f 31/6/1 29/6/1 28/6/1
f 32/6/1 31/6/1 30/6/1
f 33/6/1 29/6/1 31/6/1
f 33/6/1 31/6/1 32/6/1
f 35/6/1 34/6/1 33/6/1
f 36/6/1 34/6/1 35/6/1
f 39/6/1 38/6/1 37/6/1
f 40/6/1 38/6/1 39/6/1
f 45/6/1 42/6/1 41/6/1
f 46/6/1 42/6/1 45/6/1
f 47/6/1 44/6/1 43/6/1
f 48/6/1 44/6/1 47/6/1
f 49/6/2 50/6/2 55/6/2
f 55/6/2 50/6/2 56/6/2
f 51/6/2 52/6/2 57/6/2
f 57/6/2 52/6/2 58/6/2
f 53/6/2 54/6/2 59/6/2
f 59/6/2 54/6/2 60/6/2
f 61/6/2 62/6/2 63/6/2
f 63/6/2 62/6/2 64/6/2
f 63/6/2 64/6/2 67/6/2
f 67/6/2 64/6/2 68/6/2
f 65/6/2 66/6/2 69/6/2
f 69/6/2 66/6/2 70/6/2
f 71/6/2 72/6/2 73/6/2
f 73/6/2 72/6/2 74/6/2
f 75/6/2 76/6/2 77/6/2
f 77/6/2 76/6/2 78/6/2
f 79/6/2 80/6/2 81/6/2
f 81/6/2 80/6/2 82/6/2
f 83/6/2 84/6/2 85/6/2
f 85/6/2 84/6/2 86/6/2
f 87/6/2 88/6/2 89/6/2
f 89/6/2 88/6/2 90/6/2
f 91/1/2 92/1/2 93/1/2
f 93/1/2 92/1/2 94/1/2
f 94/1/2 92/1/2 95/1/2
f 95/1/2 92/1/2 96/1/2
f 96/1/2 92/1/2 97/1/2
f 97/1/2 92/1/2 98/1/2
f 93/5/2 94/5/2 99/5/2
f 94/4/2 95/4/2 100/4/2
f 99/5/2 94/5/2 100/5/2
f 95/3/2 96/3/2 101/3/2
f 100/4/2 95/4/2 101/4/2
f 96/4/2 97/4/2 102/4/2
f 101/3/2 96/3/2 102/3/2
f 97/5/2 98/5/2 103/5/2
f 102/4/2 97/4/2 103/4/2
f 103/5/2 98/5/2 104/5/2
f 99/6/2 100/6/2 105/6/2
f 100/6/2 101/6/2 105/6/2
f 103/6/2 104/6/2 105/6/2
f 102/6/2 103/6/2 105/6/2
f 101/6/2 102/6/2 105/6/2
f 105/6/2 104/6/2 106/6/2
f 111/1/3 108/1/3 107/1/3
f 111/5/3 109/5/3 108/5/3
f 112/6/3 110/6/3 109/6/3
f 112/5/3 109/5/3 111/5/3
f 113/1/3 111/1/3 107/1/3
f 113/4/3 112/4/3 111/4/3
f 114/6/3 110/6/3 112/6/3
f 114/4/3 112/4/3 113/4/3
f 115/1/3 113/1/3 107/1/3
f 115/3/3 114/3/3 113/3/3
f 116/6/3 110/6/3 114/6/3
f 116/3/3 114/3/3 115/3/3
f 117/1/3 115/1/3 107/1/3
f 117/4/3 116/4/3 115/4/3
f 118/6/3 110/6/3 116/6/3
f 118/4/3 116/4/3 117/4/3
f 119/1/3 117/1/3 107/1/3
f 120/5/3 118/5/3 117/5/3
f 120/1/3 117/1/3 119/1/3
f 121/6/3 110/6/3 118/6/3
f 121/5/3 118/5/3 120/5/3
f 122/6/3 110/6/3 121/6/3
f 125/6/3 124/6/3 123/6/3
f 126/6/3 124/6/3 125/6/3
f 127/6/3 124/6/3 126/6/3
f 130/6/3 129/6/3 128/6/3
f 131/6/3 129/6/3 130/6/3
f 134/6/3 133/6/3 132/6/3
f 135/6/3 133/6/3 134/6/3
f 138/6/3 137/6/3 136/6/3
f 139/6/3 137/6/3 138/6/3
f 142/6/3 141/6/3 140/6/3
f 143/6/3 141/6/3 142/6/3
f 147/6/3 145/6/3 144/6/3
f 148/6/3 147/6/3 146/6/3
f 149/6/3 145/6/3 147/6/3
f 149/6/3 147/6/3 148/6/3
f 151/6/3 150/6/3 149/6/3
f 152/6/3 150/6/3 151/6/3
f 155/6/3 154/6/3 153/6/3
f 156/6/3 154/6/3 155/6/3
f 159/6/3 158/6/3 157/6/3
f 160/6/3 158/6/3 159/6/3
f 161/6/4 162/6/4 163/6/4
f 163/6/4 162/6/4 164/6/4
f 164/6/4 162/6/4 165/6/4
f 166/6/4 167/6/4 168/6/4
f 168/6/4 167/6/4 169/6/4
f 169/6/4 167/6/4 170/6/4
f 171/6/4 172/6/4 173/6/4
f 173/6/4 172/6/4 174/6/4
f 175/6/4 176/6/4 177/6/4
f 177/6/4 176/6/4 178/6/4
f 179/6/4 180/6/4 181/6/4
f 181/6/4 180/6/4 182/6/4
f 183/6/4 184/6/4 185/6/4
f 185/6/4 184/6/4 186/6/4
f 187/6/4 188/6/4 189/6/4
f 189/6/4 188/6/4 190/6/4
f 191/6/4 192/6/4 193/6/4
f 193/6/4 192/6/4 194/6/4
f 195/6/4 196/6/4 197/6/4
f 197/6/4 196/6/4 198/6/4
f 199/6/4 200/6/4 201/6/4
f 201/6/4 200/6/4 202/6/4
f 203/1/4 204/1/4 207/1/4
f 204/5/4 205/5/4 207/5/4
f 205/6/4 206/6/4 208/6/4
f 207/5/4 205/5/4 208/5/4
f 203/1/4 207/1/4 209/1/4
f 207/4/4 208/4/4 209/4/4
f 208/6/4 206/6/4 210/6/4
f 209/4/4 208/4/4 210/4/4
f 203/1/4 209/1/4 211/1/4
f 209/3/4 210/3/4 211/3/4
f 210/6/4 206/6/4 212/6/4
f 211/3/4 210/3/4 212/3/4
f 203/1/4 211/1/4 213/1/4
f 211/4/4 212/4/4 213/4/4
f 212/6/4 206/6/4 214/6/4
f 213/4/4 212/4/4 214/4/4
f 203/1/4 213/1/4 215/1/4
f 213/5/4 214/5/4 216/5/4
f 215/1/4 213/1/4 216/1/4
f 214/6/4 206/6/4 217/6/4
f 216/5/4 214/5/4 217/5/4
f 217/6/4 206/6/4 218/6/4
f 221/1/5 220/1/5 219/1/5
f 222/1/5 220/1/5 221/1/5
f 223/1/5 221/1/5 219/1/5
f 224/2/5 222/2/5 221/2/5
f 224/1/5 221/1/5 223/1/5
f 225/1/5 220/1/5 222/1/5
f 225/2/5 222/2/5 224/2/5
f 226/1/5 220/1/5 225/1/5
f 227/1/5 220/1/5 226/1/5
f 228/6/5 224/6/5 223/6/5
f 228/4/5 225/4/5 224/4/5
f 228/4/5 226/4/5 225/4/5
f 229/6/5 227/6/5 226/6/5
f 229/4/5 226/4/5 228/4/5
f 230/6/5 227/6/5 229/6/5
f 231/1/5 220/1/5 227/1/5
f 231/6/5 227/6/5 230/6/5
f 232/1/5 223/1/5 219/1/5
f 232/6/5 228/6/5 223/6/5
f 232/6/5 229/6/5 228/6/5
f 233/6/5 229/6/5 232/6/5
f 234/4/5 230/4/5 229/4/5
f 234/6/5 229/6/5 233/6/5
f 235/1/5 231/1/5 230/1/5
f 235/4/5 230/4/5 234/4/5
f 236/1/5 220/1/5 231/1/5
f 236/1/5 231/1/5 235/1/5
f 237/1/5 233/1/5 232/1/5
f 237/6/5 235/6/5 234/6/5
f 237/6/5 236/6/5 235/6/5
f 237/6/5 234/6/5 233/6/5
f 238/6/5 236/6/5 237/6/5
f 239/1/5 220/1/5 236/1/5
f 239/6/5 236/6/5 238/6/5
f 240/4/5 238/4/5 237/4/5
f 240/1/5 237/1/5 232/1/5
f 241/1/5 239/1/5 238/1/5
f 241/4/5 238/4/5 240/4/5
f 242/1/5 232/1/5 219/1/5
f 242/1/5 240/1/5 232/1/5
f 242/1/5 241/1/5 240/1/5
f 243/1/5 220/1/5 239/1/5
f 243/1/5 241/1/5 242/1/5
f 243/1/5 239/1/5 241/1/5
f 244/6/6 245/6/6 246/6/6
f 246/6/6 245/6/6 247/6/6
f 248/6/6 249/6/6 250/6/6
f 250/6/6 249/6/6 251/6/6
f 252/3/6 253/3/6 258/3/6
f 253/4/6 254/4/6 259/4/6
f 258/3/6 253/3/6 259/3/6
f 259/4/6 254/4/6 260/4/6
f 255/4/6 256/4/6 261/4/6
f 256/6/6 257/6/6 262/6/6
f 261/4/6 256/4/6 262/4/6
f 262/6/6 257/6/6 263/6/6
f 264/6/6 265/6/6 270/6/6
f 270/6/6 265/6/6 271/6/6
f 268/6/6 269/6/6 273/6/6
f 266/6/6 267/6/6 273/6/6
f 267/6/6 268/6/6 273/6/6
f 273/6/6 269/6/6 274/6/6
f 274/6/6 269/6/6 275/6/6
f 275/6/6 269/6/6 276/6/6
f 274/6/6 275/6/6 278/6/6
f 278/6/6 275/6/6 279/6/6
f 271/6/6 272/6/6 280/6/6
f 280/6/6 272/6/6 281/6/6
f 277/6/6 278/6/6 282/6/6
f 282/6/6 278/6/6 283/6/6
f 284/6/6 285/6/6 286/6/6
f 286/6/6 285/6/6 287/6/6
f 284/6/6 286/6/6 288/6/6
f 288/6/6 286/6/6 289/6/6
f 289/6/6 286/6/6 290/6/6
f 287/6/6 285/6/6 291/6/6
f 284/6/6 288/6/6 292/6/6
f 289/6/6 290/6/6 294/6/6
f 290/6/6 291/6/6 294/6/6
f 294/6/6 291/6/6 295/6/6
f 292/6/6 293/6/6 296/6/6
f 284/6/6 292/6/6 296/6/6
f 296/6/6 293/6/6 297/6/6
f 289/6/6 294/6/6 298/6/6
f 298/6/6 294/6/6 299/6/6
f 299/6/6 294/6/6 300/6/6
f 295/6/6 291/6/6 301/6/6
f 291/6/6 285/6/6 302/6/6
f 301/6/6 291/6/6 302/6/6
f 284/6/6 296/6/6 303/6/6
f 284/6/6 303/6/6 305/6/6
f 303/6/6 304/6/6 305/6/6
f 305/6/6 304/6/6 306/6/6
f 299/6/6 300/6/6 307/6/6
f 300/6/6 301/6/6 307/6/6
f 307/6/6 301/6/6 308/6/6
f 308/6/6 301/6/6 309/6/6
f 302/6/6 285/6/6 310/6/6
f 284/6/6 305/6/6 311/6/6
f 306/6/6 307/6/6 312/6/6
f 312/6/6 307/6/6 313/6/6
f 309/6/6 310/6/6 314/6/6
f 308/6/6 309/6/6 314/6/6
f 312/6/6 313/6/6 315/6/6
f 313/6/6 314/6/6 315/6/6
f 311/6/6 312/6/6 315/6/6
f 284/6/6 311/6/6 315/6/6
f 314/6/6 310/6/6 316/6/6
f 315/6/6 314/6/6 316/6/6
f 310/6/6 285/6/6 316/6/6
f 317/6/6 318/6/6 319/6/6
f 319/6/6 318/6/6 320/6/6
