# MagicaVoxel @ Ephtracy

# group
o 

# material
mtllib Lava11.mtl
usemtl palette

# normals
vn -1 0 0
vn 1 0 0
vn 0 0 1
vn 0 0 -1
vn 0 -1 0
vn 0 1 0

# texcoords
vt 0.0175781 0.5
vt 0.0683594 0.5
vt 0.0917969 0.5
vt 0.279297 0.5
vt 0.865234 0.5
vt 0.873047 0.5

# verts
v 0 2 0
v 0 2 -0.8
v 0 2.1 0
v 0 2.1 -0.1
v 0 2.1 -0.3
v 0 2.1 -0.5
v 0 2.1 -0.7
v 0 2.1 -0.8
v 0 2.2 0
v 0 2.2 -0.1
v 0 2.2 -0.2
v 0 2.2 -0.3
v 0 2.2 -0.5
v 0 2.2 -0.7
v 0 2.2 -0.8
v 0 2.3 -0.2
v 0 2.3 -0.8
v 0.1 2.2 -0.1
v 0.1 2.2 -0.2
v 0.1 2.3 -0.1
v 0.1 2.3 -0.2
v 0.2 2.2 -0.6
v 0.2 2.2 -0.7
v 0.2 2.3 -0.6
v 0.2 2.3 -0.7
v 0.3 2.1 -0.2
v 0.3 2.1 -0.4
v 0.3 2.2 -0.2
v 0.3 2.2 -0.4
v 0.3 2.3 -0.3
v 0.3 2.3 -0.5
v 0.3 2.4 -0.3
v 0.3 2.4 -0.5
v 0.4 2.1 -0.1
v 0.4 2.1 -0.2
v 0.4 2.1 -0.6
v 0.4 2.1 -0.7
v 0.4 2.2 -0.1
v 0.4 2.2 -0.2
v 0.4 2.2 -0.6
v 0.4 2.2 -0.7
v 0.5 2.1 -0.3
v 0.5 2.1 -0.4
v 0.5 2.1 -0.5
v 0.5 2.1 -0.6
v 0.5 2.2 -0.2
v 0.5 2.2 -0.3
v 0.5 2.2 -0.4
v 0.5 2.2 -0.5
v 0.5 2.2 -0.6
v 0.5 2.3 -0.2
v 0.5 2.3 -0.3
v 0.6 2.1 -0.2
v 0.6 2.1 -0.3
v 0.6 2.1 -0.4
v 0.6 2.1 -0.5
v 0.6 2.2 -0.1
v 0.6 2.2 -0.2
v 0.6 2.2 -0.3
v 0.6 2.3 -0.1
v 0.6 2.3 -0.2
v 0.6 2.3 -0.4
v 0.6 2.3 -0.5
v 0.1 2.2 -0.6
v 0.1 2.2 -0.7
v 0.1 2.3 -0.6
v 0.1 2.3 -0.7
v 0.2 2.1 -0.2
v 0.2 2.1 -0.3
v 0.2 2.1 -0.4
v 0.2 2.2 -0.2
v 0.2 2.2 -0.3
v 0.2 2.2 -0.4
v 0.3 2.1 -0.1
v 0.3 2.1 -0.2
v 0.3 2.1 -0.5
v 0.3 2.1 -0.6
v 0.3 2.1 -0.7
v 0.3 2.2 -0.1
v 0.3 2.2 -0.2
v 0.3 2.2 -0.5
v 0.3 2.2 -0.6
v 0.3 2.2 -0.7
v 0.4 2.1 -0.2
v 0.4 2.1 -0.3
v 0.4 2.1 -0.5
v 0.4 2.2 -0.2
v 0.4 2.2 -0.3
v 0.4 2.2 -0.5
v 0.4 2.3 -0.2
v 0.4 2.3 -0.3
v 0.4 2.3 -0.5
v 0.4 2.4 -0.3
v 0.4 2.4 -0.5
v 0.5 2.2 -0.1
v 0.5 2.2 -0.2
v 0.5 2.2 -0.4
v 0.5 2.2 -0.5
v 0.5 2.3 -0.1
v 0.5 2.3 -0.2
v 0.5 2.3 -0.4
v 0.5 2.3 -0.5
v 0.7 2.2 -0.1
v 0.7 2.2 -0.2
v 0.7 2.3 -0.1
v 0.7 2.3 -0.2
v 0.8 2 0
v 0.8 2 -0.8
v 0.8 2.1 0
v 0.8 2.1 -0.1
v 0.8 2.1 -0.3
v 0.8 2.1 -0.5
v 0.8 2.1 -0.7
v 0.8 2.1 -0.8
v 0.8 2.2 0
v 0.8 2.2 -0.1
v 0.8 2.2 -0.2
v 0.8 2.2 -0.3
v 0.8 2.2 -0.5
v 0.8 2.2 -0.7
v 0.8 2.2 -0.8
v 0.8 2.3 -0.2
v 0.8 2.3 -0.8
v 0 2 0
v 0 2.1 0
v 0 2.2 0
v 0.1 2.1 0
v 0.1 2.2 0
v 0.3 2.1 0
v 0.3 2.2 0
v 0.5 2.1 0
v 0.5 2.2 0
v 0.7 2.1 0
v 0.7 2.2 0
v 0.8 2 0
v 0.8 2.1 0
v 0.8 2.2 0
v 0.1 2.2 -0.1
v 0.1 2.3 -0.1
v 0.3 2.2 -0.1
v 0.5 2.2 -0.1
v 0.5 2.3 -0.1
v 0.6 2.2 -0.1
v 0.6 2.3 -0.1
v 0.7 2.2 -0.1
v 0.7 2.3 -0.1
v 0 2.2 -0.2
v 0 2.3 -0.2
v 0.1 2.2 -0.2
v 0.1 2.3 -0.2
v 0.3 2.1 -0.2
v 0.3 2.2 -0.2
v 0.4 2.1 -0.2
v 0.4 2.2 -0.2
v 0.5 2.2 -0.2
v 0.5 2.3 -0.2
v 0.6 2.2 -0.2
v 0.6 2.3 -0.2
v 0.7 2.2 -0.2
v 0.7 2.3 -0.2
v 0.8 2.2 -0.2
v 0.8 2.3 -0.2
v 0.3 2.3 -0.3
v 0.3 2.4 -0.3
v 0.4 2.2 -0.3
v 0.4 2.3 -0.3
v 0.4 2.4 -0.3
v 0.5 2.1 -0.3
v 0.5 2.2 -0.3
v 0.5 2.3 -0.3
v 0.6 2.1 -0.3
v 0.6 2.2 -0.3
v 0.2 2.1 -0.4
v 0.2 2.2 -0.4
v 0.3 2.1 -0.4
v 0.3 2.2 -0.4
v 0.5 2.1 -0.5
v 0.5 2.2 -0.5
v 0.5 2.3 -0.5
v 0.6 2.1 -0.5
v 0.6 2.3 -0.5
v 0.4 2.1 -0.6
v 0.4 2.2 -0.6
v 0.5 2.1 -0.6
v 0.5 2.2 -0.6
v 0.1 2.2 -0.7
v 0.1 2.3 -0.7
v 0.2 2.2 -0.7
v 0.2 2.3 -0.7
v 0.3 2.1 -0.7
v 0.3 2.2 -0.7
v 0.4 2.1 -0.7
v 0.4 2.2 -0.7
v 0.3 2.1 -0.1
v 0.3 2.2 -0.1
v 0.4 2.1 -0.1
v 0.4 2.2 -0.1
v 0.2 2.1 -0.2
v 0.2 2.2 -0.2
v 0.3 2.1 -0.2
v 0.3 2.2 -0.2
v 0.4 2.1 -0.2
v 0.4 2.2 -0.2
v 0.4 2.3 -0.2
v 0.5 2.1 -0.2
v 0.5 2.2 -0.2
v 0.5 2.3 -0.2
v 0.6 2.1 -0.2
v 0.6 2.2 -0.2
v 0.5 2.1 -0.4
v 0.5 2.2 -0.4
v 0.5 2.3 -0.4
v 0.6 2.1 -0.4
v 0.6 2.3 -0.4
v 0.3 2.1 -0.5
v 0.3 2.2 -0.5
v 0.3 2.3 -0.5
v 0.3 2.4 -0.5
v 0.4 2.1 -0.5
v 0.4 2.2 -0.5
v 0.4 2.3 -0.5
v 0.4 2.4 -0.5
v 0.1 2.2 -0.6
v 0.1 2.3 -0.6
v 0.2 2.2 -0.6
v 0.2 2.3 -0.6
v 0 2 -0.8
v 0 2.1 -0.8
v 0 2.2 -0.8
v 0 2.3 -0.8
v 0.1 2.1 -0.8
v 0.1 2.2 -0.8
v 0.3 2.1 -0.8
v 0.3 2.2 -0.8
v 0.5 2.1 -0.8
v 0.5 2.2 -0.8
v 0.7 2.1 -0.8
v 0.7 2.2 -0.8
v 0.8 2 -0.8
v 0.8 2.1 -0.8
v 0.8 2.2 -0.8
v 0.8 2.3 -0.8
v 0 2 0
v 0.8 2 0
v 0.3 2 -0.1
v 0.4 2 -0.1
v 0.2 2 -0.2
v 0.3 2 -0.2
v 0.4 2 -0.2
v 0.5 2 -0.2
v 0.7 2 -0.2
v 0.3 2 -0.3
v 0.4 2 -0.3
v 0.5 2 -0.3
v 0.6 2 -0.3
v 0.7 2 -0.3
v 0.2 2 -0.4
v 0.3 2 -0.4
v 0.5 2 -0.4
v 0.6 2 -0.4
v 0.7 2 -0.4
v 0.3 2 -0.6
v 0.4 2 -0.6
v 0.7 2 -0.6
v 0.3 2 -0.7
v 0.4 2 -0.7
v 0 2 -0.8
v 0.8 2 -0.8
v 0.3 2.2 -0.1
v 0.4 2.2 -0.1
v 0.2 2.2 -0.2
v 0.3 2.2 -0.2
v 0.4 2.2 -0.2
v 0.5 2.2 -0.2
v 0.6 2.2 -0.2
v 0.2 2.2 -0.3
v 0.4 2.2 -0.3
v 0.5 2.2 -0.3
v 0.6 2.2 -0.3
v 0.2 2.2 -0.4
v 0.3 2.2 -0.4
v 0.5 2.2 -0.4
v 0.3 2.2 -0.5
v 0.4 2.2 -0.5
v 0.5 2.2 -0.5
v 0.3 2.2 -0.6
v 0.4 2.2 -0.6
v 0.5 2.2 -0.6
v 0.3 2.2 -0.7
v 0.4 2.2 -0.7
v 0.3 2.1 -0.1
v 0.4 2.1 -0.1
v 0.2 2.1 -0.2
v 0.3 2.1 -0.2
v 0.4 2.1 -0.2
v 0.5 2.1 -0.2
v 0.6 2.1 -0.2
v 0.2 2.1 -0.3
v 0.4 2.1 -0.3
v 0.5 2.1 -0.3
v 0.6 2.1 -0.3
v 0.2 2.1 -0.4
v 0.3 2.1 -0.4
v 0.5 2.1 -0.4
v 0.6 2.1 -0.4
v 0.3 2.1 -0.5
v 0.4 2.1 -0.5
v 0.5 2.1 -0.5
v 0.6 2.1 -0.5
v 0.3 2.1 -0.6
v 0.4 2.1 -0.6
v 0.5 2.1 -0.6
v 0.3 2.1 -0.7
v 0.4 2.1 -0.7
v 0 2.2 0
v 0.1 2.2 0
v 0.3 2.2 0
v 0.5 2.2 0
v 0.7 2.2 0
v 0.8 2.2 0
v 0 2.2 -0.1
v 0.1 2.2 -0.1
v 0.3 2.2 -0.1
v 0.5 2.2 -0.1
v 0.6 2.2 -0.1
v 0.7 2.2 -0.1
v 0.8 2.2 -0.1
v 0 2.2 -0.2
v 0.1 2.2 -0.2
v 0.5 2.2 -0.2
v 0.6 2.2 -0.2
v 0.7 2.2 -0.2
v 0.8 2.2 -0.2
v 0.1 2.2 -0.6
v 0.2 2.2 -0.6
v 0.1 2.2 -0.7
v 0.2 2.2 -0.7
v 0.1 2.3 -0.1
v 0.5 2.3 -0.1
v 0.6 2.3 -0.1
v 0.7 2.3 -0.1
v 0 2.3 -0.2
v 0.1 2.3 -0.2
v 0.4 2.3 -0.2
v 0.5 2.3 -0.2
v 0.6 2.3 -0.2
v 0.7 2.3 -0.2
v 0.8 2.3 -0.2
v 0.3 2.3 -0.3
v 0.4 2.3 -0.3
v 0.5 2.3 -0.3
v 0.5 2.3 -0.4
v 0.6 2.3 -0.4
v 0.3 2.3 -0.5
v 0.4 2.3 -0.5
v 0.5 2.3 -0.5
v 0.6 2.3 -0.5
v 0.1 2.3 -0.6
v 0.2 2.3 -0.6
v 0.1 2.3 -0.7
v 0.2 2.3 -0.7
v 0 2.3 -0.8
v 0.8 2.3 -0.8
v 0.3 2.4 -0.3
v 0.4 2.4 -0.3
v 0.3 2.4 -0.5
v 0.4 2.4 -0.5

# faces
f 3/1/1 2/1/1 1/1/1
f 4/1/1 2/1/1 3/1/1
f 5/1/1 2/1/1 4/1/1
f 6/1/1 2/1/1 5/1/1
f 7/1/1 2/1/1 6/1/1
f 8/1/1 2/1/1 7/1/1
f 9/5/1 4/5/1 3/5/1
f 10/4/1 5/4/1 4/4/1
f 10/5/1 4/5/1 9/5/1
f 11/4/1 5/4/1 10/4/1
f 12/3/1 6/3/1 5/3/1
f 12/4/1 5/4/1 11/4/1
f 13/4/1 7/4/1 6/4/1
f 13/3/1 6/3/1 12/3/1
f 14/5/1 8/5/1 7/5/1
f 14/4/1 7/4/1 13/4/1
f 15/5/1 8/5/1 14/5/1
f 16/6/1 12/6/1 11/6/1
f 16/6/1 15/6/1 14/6/1
f 16/6/1 14/6/1 13/6/1
f 16/6/1 13/6/1 12/6/1
f 17/6/1 15/6/1 16/6/1
f 20/6/1 19/6/1 18/6/1
f 21/6/1 19/6/1 20/6/1
f 24/6/1 23/6/1 22/6/1
f 25/6/1 23/6/1 24/6/1
f 28/6/1 27/6/1 26/6/1
f 29/6/1 27/6/1 28/6/1
f 32/6/1 31/6/1 30/6/1
f 33/6/1 31/6/1 32/6/1
f 38/3/1 35/3/1 34/3/1
f 39/3/1 35/3/1 38/3/1
f 40/3/1 37/3/1 36/3/1
f 41/3/1 37/3/1 40/3/1
f 47/6/1 43/6/1 42/6/1
f 48/6/1 43/6/1 47/6/1
f 49/6/1 45/6/1 44/6/1
f 50/6/1 45/6/1 49/6/1
f 51/6/1 47/6/1 46/6/1
f 52/6/1 47/6/1 51/6/1
f 58/6/1 54/6/1 53/6/1
f 59/6/1 54/6/1 58/6/1
f 60/6/1 58/6/1 57/6/1
f 61/6/1 58/6/1 60/6/1
f 62/6/1 56/6/1 55/6/1
f 63/6/1 56/6/1 62/6/1
f 64/6/2 65/6/2 66/6/2
f 66/6/2 65/6/2 67/6/2
f 68/4/2 69/4/2 71/4/2
f 69/6/2 70/6/2 72/6/2
f 71/4/2 69/4/2 72/4/2
f 72/6/2 70/6/2 73/6/2
f 74/4/2 75/4/2 79/4/2
f 79/4/2 75/4/2 80/4/2
f 76/6/2 77/6/2 81/6/2
f 77/3/2 78/3/2 82/3/2
f 81/6/2 77/6/2 82/6/2
f 82/3/2 78/3/2 83/3/2
f 84/6/2 85/6/2 87/6/2
f 85/6/2 86/6/2 87/6/2
f 87/6/2 86/6/2 88/6/2
f 88/6/2 86/6/2 89/6/2
f 87/6/2 88/6/2 90/6/2
f 90/6/2 88/6/2 91/6/2
f 91/6/2 92/6/2 93/6/2
f 93/6/2 92/6/2 94/6/2
f 95/6/2 96/6/2 99/6/2
f 99/6/2 96/6/2 100/6/2
f 97/6/2 98/6/2 101/6/2
f 101/6/2 98/6/2 102/6/2
f 103/6/2 104/6/2 105/6/2
f 105/6/2 104/6/2 106/6/2
f 107/1/2 108/1/2 109/1/2
f 109/1/2 108/1/2 110/1/2
f 110/1/2 108/1/2 111/1/2
f 111/1/2 108/1/2 112/1/2
f 112/1/2 108/1/2 113/1/2
f 113/1/2 108/1/2 114/1/2
f 109/5/2 110/5/2 115/5/2
f 110/4/2 111/4/2 116/4/2
f 115/5/2 110/5/2 116/5/2
f 116/4/2 111/4/2 117/4/2
f 111/3/2 112/3/2 118/3/2
f 117/4/2 111/4/2 118/4/2
f 112/4/2 113/4/2 119/4/2
f 118/3/2 112/3/2 119/3/2
f 113/5/2 114/5/2 120/5/2
f 119/4/2 113/4/2 120/4/2
f 120/5/2 114/5/2 121/5/2
f 117/6/2 118/6/2 122/6/2
f 120/6/2 121/6/2 122/6/2
f 119/6/2 120/6/2 122/6/2
f 118/6/2 119/6/2 122/6/2
f 122/6/2 121/6/2 123/6/2
f 127/1/3 125/1/3 124/1/3
f 127/5/3 126/5/3 125/5/3
f 128/5/3 126/5/3 127/5/3
f 129/1/3 127/1/3 124/1/3
f 129/4/3 128/4/3 127/4/3
f 130/4/3 128/4/3 129/4/3
f 131/1/3 129/1/3 124/1/3
f 131/3/3 130/3/3 129/3/3
f 132/3/3 130/3/3 131/3/3
f 133/1/3 131/1/3 124/1/3
f 133/4/3 132/4/3 131/4/3
f 134/4/3 132/4/3 133/4/3
f 135/1/3 133/1/3 124/1/3
f 136/5/3 134/5/3 133/5/3
f 136/1/3 133/1/3 135/1/3
f 137/5/3 134/5/3 136/5/3
f 140/6/3 139/6/3 138/6/3
f 141/6/3 139/6/3 140/6/3
f 142/6/3 139/6/3 141/6/3
f 145/6/3 144/6/3 143/6/3
f 146/6/3 144/6/3 145/6/3
f 149/6/3 148/6/3 147/6/3
f 150/6/3 148/6/3 149/6/3
f 153/6/3 152/6/3 151/6/3
f 154/6/3 152/6/3 153/6/3
f 157/6/3 156/6/3 155/6/3
f 158/6/3 156/6/3 157/6/3
f 161/6/3 160/6/3 159/6/3
f 162/6/3 160/6/3 161/6/3
f 166/6/3 164/6/3 163/6/3
f 167/6/3 164/6/3 166/6/3
f 169/6/3 166/6/3 165/6/3
f 170/6/3 166/6/3 169/6/3
f 171/6/3 169/6/3 168/6/3
f 172/6/3 169/6/3 171/6/3
f 175/6/3 174/6/3 173/6/3
f 176/6/3 174/6/3 175/6/3
f 180/6/3 178/6/3 177/6/3
f 180/6/3 179/6/3 178/6/3
f 181/6/3 179/6/3 180/6/3
f 184/3/3 183/3/3 182/3/3
f 185/3/3 183/3/3 184/3/3
f 188/6/3 187/6/3 186/6/3
f 189/6/3 187/6/3 188/6/3
f 192/3/3 191/3/3 190/3/3
f 193/3/3 191/3/3 192/3/3
f 194/3/4 195/3/4 196/3/4
f 196/3/4 195/3/4 197/3/4
f 198/4/4 199/4/4 200/4/4
f 200/4/4 199/4/4 201/4/4
f 202/3/4 203/3/4 205/3/4
f 203/6/4 204/6/4 206/6/4
f 205/3/4 203/3/4 206/3/4
f 206/6/4 204/6/4 207/6/4
f 205/3/4 206/3/4 208/3/4
f 208/3/4 206/3/4 209/3/4
f 210/6/4 211/6/4 213/6/4
f 211/6/4 212/6/4 213/6/4
f 213/6/4 212/6/4 214/6/4
f 215/6/4 216/6/4 219/6/4
f 219/6/4 216/6/4 220/6/4
f 217/6/4 218/6/4 221/6/4
f 221/6/4 218/6/4 222/6/4
f 223/6/4 224/6/4 225/6/4
f 225/6/4 224/6/4 226/6/4
f 227/1/4 228/1/4 231/1/4
f 228/5/4 229/5/4 231/5/4
f 229/6/4 230/6/4 232/6/4
f 231/5/4 229/5/4 232/5/4
f 227/1/4 231/1/4 233/1/4
f 231/4/4 232/4/4 233/4/4
f 232/6/4 230/6/4 234/6/4
f 233/4/4 232/4/4 234/4/4
f 227/1/4 233/1/4 235/1/4
f 233/3/4 234/3/4 235/3/4
f 234/6/4 230/6/4 236/6/4
f 235/3/4 234/3/4 236/3/4
f 227/1/4 235/1/4 237/1/4
f 235/4/4 236/4/4 237/4/4
f 236/6/4 230/6/4 238/6/4
f 237/4/4 236/4/4 238/4/4
f 227/1/4 237/1/4 239/1/4
f 237/5/4 238/5/4 240/5/4
f 239/1/4 237/1/4 240/1/4
f 238/6/4 230/6/4 241/6/4
f 240/5/4 238/5/4 241/5/4
f 241/6/4 230/6/4 242/6/4
f 245/1/5 244/1/5 243/1/5
f 246/1/5 244/1/5 245/1/5
f 247/1/5 245/1/5 243/1/5
f 248/2/5 246/2/5 245/2/5
f 248/1/5 245/1/5 247/1/5
f 249/1/5 244/1/5 246/1/5
f 249/2/5 246/2/5 248/2/5
f 250/1/5 244/1/5 249/1/5
f 251/1/5 244/1/5 250/1/5
f 252/6/5 248/6/5 247/6/5
f 252/1/5 249/1/5 248/1/5
f 253/4/5 250/4/5 249/4/5
f 253/1/5 249/1/5 252/1/5
f 254/6/5 251/6/5 250/6/5
f 254/4/5 250/4/5 253/4/5
f 255/6/5 251/6/5 254/6/5
f 256/1/5 244/1/5 251/1/5
f 256/6/5 251/6/5 255/6/5
f 257/1/5 247/1/5 243/1/5
f 257/6/5 253/6/5 252/6/5
f 257/6/5 252/6/5 247/6/5
f 257/6/5 254/6/5 253/6/5
f 258/6/5 254/6/5 257/6/5
f 259/4/5 255/4/5 254/4/5
f 259/6/5 254/6/5 258/6/5
f 260/1/5 256/1/5 255/1/5
f 260/4/5 255/4/5 259/4/5
f 261/1/5 244/1/5 256/1/5
f 261/1/5 256/1/5 260/1/5
f 262/1/5 258/1/5 257/1/5
f 262/6/5 260/6/5 259/6/5
f 262/6/5 261/6/5 260/6/5
f 262/6/5 259/6/5 258/6/5
f 263/6/5 261/6/5 262/6/5
f 264/1/5 244/1/5 261/1/5
f 264/6/5 261/6/5 263/6/5
f 265/4/5 263/4/5 262/4/5
f 265/1/5 262/1/5 257/1/5
f 266/1/5 264/1/5 263/1/5
f 266/4/5 263/4/5 265/4/5
f 267/1/5 257/1/5 243/1/5
f 267/1/5 265/1/5 257/1/5
f 267/1/5 266/1/5 265/1/5
f 268/1/5 244/1/5 264/1/5
f 268/1/5 266/1/5 267/1/5
f 268/1/5 264/1/5 266/1/5
f 272/6/5 270/6/5 269/6/5
f 273/6/5 270/6/5 272/6/5
f 276/6/5 272/6/5 271/6/5
f 278/6/5 275/6/5 274/6/5
f 279/6/5 275/6/5 278/6/5
f 280/6/5 272/6/5 276/6/5
f 281/6/5 272/6/5 280/6/5
f 282/6/5 278/6/5 277/6/5
f 284/6/5 282/6/5 277/6/5
f 285/6/5 282/6/5 284/6/5
f 286/6/5 284/6/5 283/6/5
f 286/6/5 285/6/5 284/6/5
f 287/6/5 285/6/5 286/6/5
f 288/6/5 285/6/5 287/6/5
f 289/6/5 287/6/5 286/6/5
f 290/6/5 287/6/5 289/6/5
f 291/2/6 292/2/6 294/2/6
f 294/2/6 292/2/6 295/2/6
f 293/6/6 294/6/6 298/6/6
f 295/4/6 296/4/6 299/4/6
f 296/6/6 297/6/6 300/6/6
f 299/4/6 296/4/6 300/4/6
f 300/6/6 297/6/6 301/6/6
f 298/6/6 294/6/6 302/6/6
f 302/6/6 294/6/6 303/6/6
f 299/6/6 300/6/6 304/6/6
f 304/6/6 305/6/6 307/6/6
f 299/6/6 304/6/6 307/6/6
f 307/6/6 305/6/6 308/6/6
f 308/6/6 305/6/6 309/6/6
f 306/6/6 307/6/6 310/6/6
f 307/6/6 308/6/6 310/6/6
f 310/6/6 308/6/6 311/6/6
f 311/6/6 308/6/6 312/6/6
f 310/4/6 311/4/6 313/4/6
f 313/4/6 311/4/6 314/4/6
f 315/5/6 316/5/6 321/5/6
f 316/4/6 317/4/6 322/4/6
f 321/5/6 316/5/6 322/5/6
f 317/3/6 318/3/6 323/3/6
f 322/4/6 317/4/6 323/4/6
f 318/4/6 319/4/6 324/4/6
f 323/3/6 318/3/6 324/3/6
f 324/4/6 319/4/6 325/4/6
f 319/5/6 320/5/6 326/5/6
f 325/4/6 319/4/6 326/4/6
f 326/5/6 320/5/6 327/5/6
f 321/4/6 322/4/6 328/4/6
f 328/4/6 322/4/6 329/4/6
f 324/3/6 325/3/6 330/3/6
f 330/3/6 325/3/6 331/3/6
f 326/4/6 327/4/6 332/4/6
f 332/4/6 327/4/6 333/4/6
f 334/6/6 335/6/6 336/6/6
f 336/6/6 335/6/6 337/6/6
f 338/6/6 339/6/6 343/6/6
f 343/6/6 339/6/6 344/6/6
f 344/6/6 339/6/6 345/6/6
f 340/6/6 341/6/6 346/6/6
f 346/6/6 341/6/6 347/6/6
f 342/6/6 343/6/6 349/6/6
f 343/6/6 344/6/6 349/6/6
f 349/6/6 344/6/6 350/6/6
f 347/6/6 348/6/6 351/6/6
f 346/6/6 347/6/6 351/6/6
f 345/6/6 346/6/6 351/6/6
f 350/6/6 351/6/6 352/6/6
f 351/6/6 348/6/6 352/6/6
f 352/6/6 348/6/6 353/6/6
f 342/6/6 349/6/6 354/6/6
f 350/6/6 352/6/6 355/6/6
f 355/6/6 352/6/6 356/6/6
f 353/6/6 348/6/6 357/6/6
f 355/6/6 356/6/6 358/6/6
f 356/6/6 357/6/6 358/6/6
f 342/6/6 354/6/6 358/6/6
f 354/6/6 355/6/6 358/6/6
f 358/6/6 357/6/6 359/6/6
f 342/6/6 358/6/6 360/6/6
f 359/6/6 357/6/6 361/6/6
f 342/6/6 360/6/6 362/6/6
f 360/6/6 361/6/6 362/6/6
f 357/6/6 348/6/6 363/6/6
f 362/6/6 361/6/6 363/6/6
f 361/6/6 357/6/6 363/6/6
f 364/6/6 365/6/6 366/6/6
f 366/6/6 365/6/6 367/6/6
