# MagicaVoxel @ Ephtracy

# group
o 

# material
mtllib Lava3.mtl
usemtl palette

# normals
vn -1 0 0
vn 1 0 0
vn 0 0 1
vn 0 0 -1
vn 0 -1 0
vn 0 1 0

# texcoords
vt 0.0175781 0.5
vt 0.0683594 0.5
vt 0.0917969 0.5
vt 0.279297 0.5
vt 0.865234 0.5
vt 0.873047 0.5

# verts
v 0 2 0
v 0 2 -0.8
v 0 2.1 0
v 0 2.1 -0.1
v 0 2.1 -0.3
v 0 2.1 -0.5
v 0 2.1 -0.7
v 0 2.1 -0.8
v 0 2.2 0
v 0 2.2 -0.1
v 0 2.2 -0.3
v 0 2.2 -0.5
v 0 2.2 -0.6
v 0 2.2 -0.7
v 0 2.2 -0.8
v 0 2.3 0
v 0 2.3 -0.6
v 0.1 2.3 -0.4
v 0.1 2.3 -0.5
v 0.1 2.4 -0.4
v 0.1 2.4 -0.5
v 0.2 2.2 -0.6
v 0.2 2.2 -0.7
v 0.2 2.3 -0.6
v 0.2 2.3 -0.7
v 0.3 2.2 -0.3
v 0.3 2.2 -0.4
v 0.3 2.3 -0.3
v 0.3 2.3 -0.4
v 0.4 2.1 -0.1
v 0.4 2.1 -0.2
v 0.4 2.1 -0.6
v 0.4 2.1 -0.7
v 0.4 2.2 -0.1
v 0.4 2.2 -0.2
v 0.4 2.2 -0.6
v 0.4 2.2 -0.7
v 0.4 2.3 -0.6
v 0.4 2.3 -0.7
v 0.5 2.1 -0.4
v 0.5 2.1 -0.6
v 0.5 2.2 -0.3
v 0.5 2.2 -0.4
v 0.5 2.2 -0.6
v 0.5 2.3 -0.3
v 0.5 2.3 -0.4
v 0.6 2.1 -0.2
v 0.6 2.1 -0.3
v 0.6 2.1 -0.4
v 0.6 2.2 -0.2
v 0.6 2.2 -0.4
v 0.6 2.2 -0.5
v 0.6 2.2 -0.6
v 0.6 2.3 -0.5
v 0.6 2.3 -0.6
v 0.7 2.2 -0.3
v 0.7 2.2 -0.4
v 0.7 2.2 -0.5
v 0.7 2.2 -0.6
v 0.7 2.2 -0.7
v 0.7 2.2 -0.8
v 0.7 2.3 -0.3
v 0.7 2.3 -0.5
v 0.7 2.3 -0.6
v 0.7 2.3 -0.8
v 0.1 2.2 0
v 0.1 2.2 -0.1
v 0.1 2.2 -0.3
v 0.1 2.2 -0.4
v 0.1 2.3 0
v 0.1 2.3 -0.1
v 0.1 2.3 -0.3
v 0.1 2.3 -0.4
v 0.2 2.3 -0.4
v 0.2 2.3 -0.5
v 0.2 2.4 -0.4
v 0.2 2.4 -0.5
v 0.3 2.1 -0.1
v 0.3 2.1 -0.2
v 0.3 2.1 -0.3
v 0.3 2.1 -0.4
v 0.3 2.1 -0.5
v 0.3 2.1 -0.6
v 0.3 2.1 -0.7
v 0.3 2.2 -0.1
v 0.3 2.2 -0.2
v 0.3 2.2 -0.3
v 0.3 2.2 -0.5
v 0.3 2.2 -0.6
v 0.3 2.2 -0.7
v 0.3 2.3 -0.6
v 0.3 2.3 -0.7
v 0.4 2.1 -0.2
v 0.4 2.1 -0.3
v 0.4 2.1 -0.5
v 0.4 2.1 -0.6
v 0.4 2.2 -0.2
v 0.4 2.2 -0.3
v 0.4 2.2 -0.4
v 0.4 2.2 -0.5
v 0.4 2.2 -0.6
v 0.4 2.3 -0.3
v 0.4 2.3 -0.4
v 0.5 2.2 -0.5
v 0.5 2.2 -0.6
v 0.5 2.3 -0.5
v 0.5 2.3 -0.6
v 0.6 2.2 -0.3
v 0.6 2.2 -0.4
v 0.6 2.2 -0.5
v 0.6 2.2 -0.6
v 0.6 2.2 -0.7
v 0.6 2.3 -0.3
v 0.6 2.3 -0.5
v 0.6 2.3 -0.6
v 0.6 2.3 -0.7
v 0.7 2.2 -0.1
v 0.7 2.2 -0.2
v 0.7 2.3 -0.1
v 0.7 2.3 -0.2
v 0.8 2 0
v 0.8 2 -0.8
v 0.8 2.1 0
v 0.8 2.1 -0.1
v 0.8 2.1 -0.3
v 0.8 2.1 -0.5
v 0.8 2.1 -0.7
v 0.8 2.1 -0.8
v 0.8 2.2 0
v 0.8 2.2 -0.1
v 0.8 2.2 -0.2
v 0.8 2.2 -0.3
v 0.8 2.2 -0.5
v 0.8 2.2 -0.7
v 0.8 2.2 -0.8
v 0.8 2.3 -0.2
v 0.8 2.3 -0.8
v 0 2 0
v 0 2.1 0
v 0 2.2 0
v 0 2.3 0
v 0.1 2.1 0
v 0.1 2.2 0
v 0.1 2.3 0
v 0.3 2.1 0
v 0.3 2.2 0
v 0.5 2.1 0
v 0.5 2.2 0
v 0.7 2.1 0
v 0.7 2.2 0
v 0.8 2 0
v 0.8 2.1 0
v 0.8 2.2 0
v 0.1 2.2 -0.1
v 0.1 2.3 -0.1
v 0.3 2.2 -0.1
v 0.5 2.2 -0.1
v 0.7 2.2 -0.1
v 0.7 2.3 -0.1
v 0.3 2.1 -0.2
v 0.3 2.2 -0.2
v 0.4 2.1 -0.2
v 0.4 2.2 -0.2
v 0.7 2.2 -0.2
v 0.7 2.3 -0.2
v 0.8 2.2 -0.2
v 0.8 2.3 -0.2
v 0.1 2.2 -0.4
v 0.1 2.3 -0.4
v 0.1 2.4 -0.4
v 0.2 2.2 -0.4
v 0.2 2.3 -0.4
v 0.2 2.4 -0.4
v 0.3 2.2 -0.4
v 0.3 2.3 -0.4
v 0.4 2.2 -0.4
v 0.4 2.3 -0.4
v 0.5 2.1 -0.4
v 0.5 2.2 -0.4
v 0.5 2.3 -0.4
v 0.6 2.1 -0.4
v 0.6 2.2 -0.4
v 0.3 2.1 -0.5
v 0.3 2.2 -0.5
v 0.4 2.1 -0.5
v 0.4 2.2 -0.5
v 0.6 2.2 -0.5
v 0.6 2.3 -0.5
v 0.7 2.2 -0.5
v 0.7 2.3 -0.5
v 0.4 2.1 -0.6
v 0.4 2.2 -0.6
v 0.5 2.1 -0.6
v 0.5 2.2 -0.6
v 0.5 2.3 -0.6
v 0.6 2.2 -0.6
v 0.6 2.3 -0.6
v 0.3 2.1 -0.7
v 0.3 2.2 -0.7
v 0.4 2.1 -0.7
v 0.4 2.2 -0.7
v 0.3 2.1 -0.1
v 0.3 2.2 -0.1
v 0.4 2.1 -0.1
v 0.4 2.2 -0.1
v 0.4 2.1 -0.2
v 0.4 2.2 -0.2
v 0.5 2.1 -0.2
v 0.6 2.1 -0.2
v 0.6 2.2 -0.2
v 0.1 2.2 -0.3
v 0.1 2.3 -0.3
v 0.2 2.2 -0.3
v 0.3 2.1 -0.3
v 0.3 2.2 -0.3
v 0.3 2.3 -0.3
v 0.4 2.1 -0.3
v 0.4 2.2 -0.3
v 0.4 2.3 -0.3
v 0.5 2.2 -0.3
v 0.5 2.3 -0.3
v 0.6 2.2 -0.3
v 0.6 2.3 -0.3
v 0.7 2.2 -0.3
v 0.7 2.3 -0.3
v 0.1 2.3 -0.5
v 0.1 2.4 -0.5
v 0.2 2.3 -0.5
v 0.2 2.4 -0.5
v 0.5 2.2 -0.5
v 0.5 2.3 -0.5
v 0.6 2.2 -0.5
v 0.6 2.3 -0.5
v 0 2.2 -0.6
v 0 2.3 -0.6
v 0.1 2.2 -0.6
v 0.2 2.2 -0.6
v 0.2 2.3 -0.6
v 0.3 2.1 -0.6
v 0.3 2.2 -0.6
v 0.3 2.3 -0.6
v 0.4 2.1 -0.6
v 0.4 2.2 -0.6
v 0.4 2.3 -0.6
v 0.6 2.2 -0.6
v 0.6 2.3 -0.6
v 0.7 2.2 -0.6
v 0.7 2.3 -0.6
v 0.2 2.2 -0.7
v 0.2 2.3 -0.7
v 0.3 2.2 -0.7
v 0.3 2.3 -0.7
v 0.4 2.2 -0.7
v 0.4 2.3 -0.7
v 0.5 2.2 -0.7
v 0.6 2.2 -0.7
v 0.6 2.3 -0.7
v 0 2 -0.8
v 0 2.1 -0.8
v 0 2.2 -0.8
v 0.1 2.1 -0.8
v 0.1 2.2 -0.8
v 0.3 2.1 -0.8
v 0.3 2.2 -0.8
v 0.5 2.1 -0.8
v 0.5 2.2 -0.8
v 0.7 2.1 -0.8
v 0.7 2.2 -0.8
v 0.7 2.3 -0.8
v 0.8 2 -0.8
v 0.8 2.1 -0.8
v 0.8 2.2 -0.8
v 0.8 2.3 -0.8
v 0 2 0
v 0.8 2 0
v 0.3 2 -0.1
v 0.4 2 -0.1
v 0.3 2 -0.2
v 0.4 2 -0.2
v 0.5 2 -0.2
v 0.6 2 -0.2
v 0.3 2 -0.3
v 0.4 2 -0.3
v 0.5 2 -0.3
v 0.6 2 -0.3
v 0.3 2 -0.4
v 0.4 2 -0.4
v 0.5 2 -0.4
v 0.6 2 -0.4
v 0.3 2 -0.5
v 0.4 2 -0.5
v 0.3 2 -0.6
v 0.4 2 -0.6
v 0.5 2 -0.6
v 0.3 2 -0.7
v 0.4 2 -0.7
v 0 2 -0.8
v 0.8 2 -0.8
v 0.3 2.2 -0.1
v 0.4 2.2 -0.1
v 0.3 2.2 -0.2
v 0.4 2.2 -0.2
v 0.6 2.2 -0.2
v 0.3 2.2 -0.3
v 0.4 2.2 -0.3
v 0.5 2.2 -0.3
v 0.4 2.2 -0.4
v 0.5 2.2 -0.4
v 0.6 2.2 -0.4
v 0.3 2.2 -0.5
v 0.4 2.2 -0.5
v 0.4 2.2 -0.6
v 0.5 2.2 -0.6
v 0.3 2.1 -0.1
v 0.4 2.1 -0.1
v 0.3 2.1 -0.2
v 0.4 2.1 -0.2
v 0.5 2.1 -0.2
v 0.6 2.1 -0.2
v 0.3 2.1 -0.3
v 0.4 2.1 -0.3
v 0.5 2.1 -0.3
v 0.6 2.1 -0.3
v 0.3 2.1 -0.4
v 0.4 2.1 -0.4
v 0.5 2.1 -0.4
v 0.6 2.1 -0.4
v 0.3 2.1 -0.5
v 0.4 2.1 -0.5
v 0.3 2.1 -0.6
v 0.4 2.1 -0.6
v 0.5 2.1 -0.6
v 0.3 2.1 -0.7
v 0.4 2.1 -0.7
v 0.1 2.2 0
v 0.3 2.2 0
v 0.5 2.2 0
v 0.7 2.2 0
v 0.8 2.2 0
v 0.1 2.2 -0.1
v 0.3 2.2 -0.1
v 0.5 2.2 -0.1
v 0.7 2.2 -0.1
v 0.8 2.2 -0.1
v 0.7 2.2 -0.2
v 0.8 2.2 -0.2
v 0.1 2.2 -0.3
v 0.2 2.2 -0.3
v 0.3 2.2 -0.3
v 0.6 2.2 -0.3
v 0.7 2.2 -0.3
v 0.1 2.2 -0.4
v 0.2 2.2 -0.4
v 0.3 2.2 -0.4
v 0.6 2.2 -0.4
v 0.7 2.2 -0.4
v 0.5 2.2 -0.5
v 0.6 2.2 -0.5
v 0.7 2.2 -0.5
v 0 2.2 -0.6
v 0.1 2.2 -0.6
v 0.2 2.2 -0.6
v 0.5 2.2 -0.6
v 0.6 2.2 -0.6
v 0.7 2.2 -0.6
v 0 2.2 -0.7
v 0.1 2.2 -0.7
v 0.2 2.2 -0.7
v 0.3 2.2 -0.7
v 0.4 2.2 -0.7
v 0.5 2.2 -0.7
v 0.6 2.2 -0.7
v 0.7 2.2 -0.7
v 0 2.2 -0.8
v 0.1 2.2 -0.8
v 0.3 2.2 -0.8
v 0.5 2.2 -0.8
v 0.7 2.2 -0.8
v 0 2.3 0
v 0.1 2.3 0
v 0.1 2.3 -0.1
v 0.7 2.3 -0.1
v 0.7 2.3 -0.2
v 0.8 2.3 -0.2
v 0.1 2.3 -0.3
v 0.3 2.3 -0.3
v 0.4 2.3 -0.3
v 0.5 2.3 -0.3
v 0.6 2.3 -0.3
v 0.7 2.3 -0.3
v 0.1 2.3 -0.4
v 0.2 2.3 -0.4
v 0.3 2.3 -0.4
v 0.4 2.3 -0.4
v 0.5 2.3 -0.4
v 0.1 2.3 -0.5
v 0.2 2.3 -0.5
v 0.5 2.3 -0.5
v 0.6 2.3 -0.5
v 0.7 2.3 -0.5
v 0 2.3 -0.6
v 0.2 2.3 -0.6
v 0.3 2.3 -0.6
v 0.4 2.3 -0.6
v 0.5 2.3 -0.6
v 0.6 2.3 -0.6
v 0.7 2.3 -0.6
v 0.2 2.3 -0.7
v 0.3 2.3 -0.7
v 0.4 2.3 -0.7
v 0.6 2.3 -0.7
v 0.7 2.3 -0.8
v 0.8 2.3 -0.8
v 0.1 2.4 -0.4
v 0.2 2.4 -0.4
v 0.1 2.4 -0.5
v 0.2 2.4 -0.5

# faces
f 3/1/1 2/1/1 1/1/1
f 4/1/1 2/1/1 3/1/1
f 5/1/1 2/1/1 4/1/1
f 6/1/1 2/1/1 5/1/1
f 7/1/1 2/1/1 6/1/1
f 8/1/1 2/1/1 7/1/1
f 9/5/1 4/5/1 3/5/1
f 10/4/1 5/4/1 4/4/1
f 10/5/1 4/5/1 9/5/1
f 11/3/1 6/3/1 5/3/1
f 11/4/1 5/4/1 10/4/1
f 12/4/1 7/4/1 6/4/1
f 12/3/1 6/3/1 11/3/1
f 13/4/1 7/4/1 12/4/1
f 14/5/1 8/5/1 7/5/1
f 14/4/1 7/4/1 13/4/1
f 15/5/1 8/5/1 14/5/1
f 16/6/1 10/6/1 9/6/1
f 16/6/1 11/6/1 10/6/1
f 16/6/1 12/6/1 11/6/1
f 16/6/1 13/6/1 12/6/1
f 17/6/1 13/6/1 16/6/1
f 20/6/1 19/6/1 18/6/1
f 21/6/1 19/6/1 20/6/1
f 24/6/1 23/6/1 22/6/1
f 25/6/1 23/6/1 24/6/1
f 28/6/1 27/6/1 26/6/1
f 29/6/1 27/6/1 28/6/1
f 34/3/1 31/3/1 30/3/1
f 35/3/1 31/3/1 34/3/1
f 36/3/1 33/3/1 32/3/1
f 37/3/1 33/3/1 36/3/1
f 38/6/1 37/6/1 36/6/1
f 39/6/1 37/6/1 38/6/1
f 43/3/1 41/3/1 40/3/1
f 44/3/1 41/3/1 43/3/1
f 45/6/1 43/6/1 42/6/1
f 46/6/1 43/6/1 45/6/1
f 50/3/1 48/3/1 47/3/1
f 50/3/1 49/3/1 48/3/1
f 51/3/1 49/3/1 50/3/1
f 54/6/1 53/6/1 52/6/1
f 55/6/1 53/6/1 54/6/1
f 62/6/1 57/6/1 56/6/1
f 62/6/1 58/6/1 57/6/1
f 63/6/1 58/6/1 62/6/1
f 64/6/1 61/6/1 60/6/1
f 64/6/1 60/6/1 59/6/1
f 65/6/1 61/6/1 64/6/1
f 66/6/2 67/6/2 70/6/2
f 70/6/2 67/6/2 71/6/2
f 68/6/2 69/6/2 72/6/2
f 72/6/2 69/6/2 73/6/2
f 74/6/2 75/6/2 76/6/2
f 76/6/2 75/6/2 77/6/2
f 78/4/2 79/4/2 85/4/2
f 85/4/2 79/4/2 86/4/2
f 80/3/2 81/3/2 87/3/2
f 81/3/2 82/3/2 87/3/2
f 87/3/2 82/3/2 88/3/2
f 83/3/2 84/3/2 89/3/2
f 89/3/2 84/3/2 90/3/2
f 89/6/2 90/6/2 91/6/2
f 91/6/2 90/6/2 92/6/2
f 93/3/2 94/3/2 97/3/2
f 97/3/2 94/3/2 98/3/2
f 95/3/2 96/3/2 100/3/2
f 100/3/2 96/3/2 101/3/2
f 98/6/2 99/6/2 102/6/2
f 102/6/2 99/6/2 103/6/2
f 104/6/2 105/6/2 106/6/2
f 106/6/2 105/6/2 107/6/2
f 108/6/2 109/6/2 113/6/2
f 109/6/2 110/6/2 113/6/2
f 113/6/2 110/6/2 114/6/2
f 111/6/2 112/6/2 115/6/2
f 115/6/2 112/6/2 116/6/2
f 117/6/2 118/6/2 119/6/2
f 119/6/2 118/6/2 120/6/2
f 121/1/2 122/1/2 123/1/2
f 123/1/2 122/1/2 124/1/2
f 124/1/2 122/1/2 125/1/2
f 125/1/2 122/1/2 126/1/2
f 126/1/2 122/1/2 127/1/2
f 127/1/2 122/1/2 128/1/2
f 123/5/2 124/5/2 129/5/2
f 124/4/2 125/4/2 130/4/2
f 129/5/2 124/5/2 130/5/2
f 130/4/2 125/4/2 131/4/2
f 125/3/2 126/3/2 132/3/2
f 131/4/2 125/4/2 132/4/2
f 126/4/2 127/4/2 133/4/2
f 132/3/2 126/3/2 133/3/2
f 127/5/2 128/5/2 134/5/2
f 133/4/2 127/4/2 134/4/2
f 134/5/2 128/5/2 135/5/2
f 131/6/2 132/6/2 136/6/2
f 134/6/2 135/6/2 136/6/2
f 133/6/2 134/6/2 136/6/2
f 132/6/2 133/6/2 136/6/2
f 136/6/2 135/6/2 137/6/2
f 142/1/3 139/1/3 138/1/3
f 142/5/3 140/5/3 139/5/3
f 143/6/3 141/6/3 140/6/3
f 143/5/3 140/5/3 142/5/3
f 144/6/3 141/6/3 143/6/3
f 145/1/3 142/1/3 138/1/3
f 145/4/3 143/4/3 142/4/3
f 146/4/3 143/4/3 145/4/3
f 147/1/3 145/1/3 138/1/3
f 147/3/3 146/3/3 145/3/3
f 148/3/3 146/3/3 147/3/3
f 149/1/3 147/1/3 138/1/3
f 149/4/3 148/4/3 147/4/3
f 150/4/3 148/4/3 149/4/3
f 151/1/3 149/1/3 138/1/3
f 152/5/3 150/5/3 149/5/3
f 152/1/3 149/1/3 151/1/3
f 153/5/3 150/5/3 152/5/3
f 156/6/3 155/6/3 154/6/3
f 157/6/3 155/6/3 156/6/3
f 158/6/3 155/6/3 157/6/3
f 159/6/3 155/6/3 158/6/3
f 162/3/3 161/3/3 160/3/3
f 163/3/3 161/3/3 162/3/3
f 166/6/3 165/6/3 164/6/3
f 167/6/3 165/6/3 166/6/3
f 171/6/3 169/6/3 168/6/3
f 171/6/3 170/6/3 169/6/3
f 172/6/3 170/6/3 171/6/3
f 173/6/3 170/6/3 172/6/3
f 174/6/3 172/6/3 171/6/3
f 175/6/3 172/6/3 174/6/3
f 179/6/3 177/6/3 176/6/3
f 180/6/3 177/6/3 179/6/3
f 181/3/3 179/3/3 178/3/3
f 182/3/3 179/3/3 181/3/3
f 185/3/3 184/3/3 183/3/3
f 186/3/3 184/3/3 185/3/3
f 189/6/3 188/6/3 187/6/3
f 190/6/3 188/6/3 189/6/3
f 193/3/3 192/3/3 191/3/3
f 194/3/3 192/3/3 193/3/3
f 196/6/3 195/6/3 194/6/3
f 197/6/3 195/6/3 196/6/3
f 200/3/3 199/3/3 198/3/3
f 201/3/3 199/3/3 200/3/3
f 202/3/4 203/3/4 204/3/4
f 204/3/4 203/3/4 205/3/4
f 206/3/4 207/3/4 208/3/4
f 208/3/4 207/3/4 209/3/4
f 209/3/4 207/3/4 210/3/4
f 211/6/4 212/6/4 213/6/4
f 213/6/4 212/6/4 215/6/4
f 215/6/4 212/6/4 216/6/4
f 214/3/4 215/3/4 217/3/4
f 217/3/4 215/3/4 218/3/4
f 218/6/4 219/6/4 220/6/4
f 220/6/4 219/6/4 221/6/4
f 222/6/4 223/6/4 224/6/4
f 224/6/4 223/6/4 225/6/4
f 226/6/4 227/6/4 228/6/4
f 228/6/4 227/6/4 229/6/4
f 230/6/4 231/6/4 232/6/4
f 232/6/4 231/6/4 233/6/4
f 234/6/4 235/6/4 236/6/4
f 236/6/4 235/6/4 237/6/4
f 237/6/4 235/6/4 238/6/4
f 239/3/4 240/3/4 242/3/4
f 240/6/4 241/6/4 243/6/4
f 242/3/4 240/3/4 243/3/4
f 243/6/4 241/6/4 244/6/4
f 245/6/4 246/6/4 247/6/4
f 247/6/4 246/6/4 248/6/4
f 249/6/4 250/6/4 251/6/4
f 251/6/4 250/6/4 252/6/4
f 253/6/4 254/6/4 255/6/4
f 255/6/4 254/6/4 256/6/4
f 256/6/4 254/6/4 257/6/4
f 258/1/4 259/1/4 261/1/4
f 259/5/4 260/5/4 261/5/4
f 261/5/4 260/5/4 262/5/4
f 258/1/4 261/1/4 263/1/4
f 261/4/4 262/4/4 263/4/4
f 263/4/4 262/4/4 264/4/4
f 258/1/4 263/1/4 265/1/4
f 263/3/4 264/3/4 265/3/4
f 265/3/4 264/3/4 266/3/4
f 258/1/4 265/1/4 267/1/4
f 265/4/4 266/4/4 267/4/4
f 267/4/4 266/4/4 268/4/4
f 258/1/4 267/1/4 270/1/4
f 267/5/4 268/5/4 271/5/4
f 270/1/4 267/1/4 271/1/4
f 268/6/4 269/6/4 272/6/4
f 271/5/4 268/5/4 272/5/4
f 272/6/4 269/6/4 273/6/4
f 276/1/5 275/1/5 274/1/5
f 277/1/5 275/1/5 276/1/5
f 278/1/5 276/1/5 274/1/5
f 278/2/5 277/2/5 276/2/5
f 279/1/5 275/1/5 277/1/5
f 279/2/5 277/2/5 278/2/5
f 280/1/5 275/1/5 279/1/5
f 281/1/5 275/1/5 280/1/5
f 282/1/5 278/1/5 274/1/5
f 282/1/5 279/1/5 278/1/5
f 283/4/5 280/4/5 279/4/5
f 283/1/5 279/1/5 282/1/5
f 284/2/5 281/2/5 280/2/5
f 284/4/5 280/4/5 283/4/5
f 285/1/5 275/1/5 281/1/5
f 285/2/5 281/2/5 284/2/5
f 286/2/5 284/2/5 283/2/5
f 286/2/5 283/2/5 282/2/5
f 286/1/5 282/1/5 274/1/5
f 287/2/5 284/2/5 286/2/5
f 288/4/5 285/4/5 284/4/5
f 288/2/5 284/2/5 287/2/5
f 289/1/5 275/1/5 285/1/5
f 289/4/5 285/4/5 288/4/5
f 290/4/5 287/4/5 286/4/5
f 290/1/5 286/1/5 274/1/5
f 291/2/5 288/2/5 287/2/5
f 291/4/5 287/4/5 290/4/5
f 292/1/5 290/1/5 274/1/5
f 292/1/5 291/1/5 290/1/5
f 293/2/5 288/2/5 291/2/5
f 293/1/5 291/1/5 292/1/5
f 294/1/5 289/1/5 288/1/5
f 294/2/5 288/2/5 293/2/5
f 295/1/5 292/1/5 274/1/5
f 295/4/5 293/4/5 292/4/5
f 296/1/5 294/1/5 293/1/5
f 296/4/5 293/4/5 295/4/5
f 297/1/5 295/1/5 274/1/5
f 297/1/5 296/1/5 295/1/5
f 298/1/5 289/1/5 294/1/5
f 298/1/5 296/1/5 297/1/5
f 298/1/5 275/1/5 289/1/5
f 298/1/5 294/1/5 296/1/5
f 301/6/5 300/6/5 299/6/5
f 302/6/5 300/6/5 301/6/5
f 305/6/5 303/6/5 302/6/5
f 306/6/5 303/6/5 305/6/5
f 307/6/5 305/6/5 304/6/5
f 308/6/5 303/6/5 306/6/5
f 309/6/5 303/6/5 308/6/5
f 310/6/5 307/6/5 304/6/5
f 310/6/5 308/6/5 307/6/5
f 311/6/5 308/6/5 310/6/5
f 312/6/5 308/6/5 311/6/5
f 313/6/5 308/6/5 312/6/5
f 314/2/6 315/2/6 316/2/6
f 316/2/6 315/2/6 317/2/6
f 317/4/6 318/4/6 321/4/6
f 318/2/6 319/2/6 322/2/6
f 321/4/6 318/4/6 322/4/6
f 322/2/6 319/2/6 323/2/6
f 320/2/6 321/2/6 324/2/6
f 321/2/6 322/2/6 324/2/6
f 324/2/6 322/2/6 325/2/6
f 322/4/6 323/4/6 326/4/6
f 325/2/6 322/2/6 326/2/6
f 326/4/6 323/4/6 327/4/6
f 324/4/6 325/4/6 328/4/6
f 325/2/6 326/2/6 329/2/6
f 328/4/6 325/4/6 329/4/6
f 329/2/6 326/2/6 331/2/6
f 331/2/6 326/2/6 332/2/6
f 330/4/6 331/4/6 333/4/6
f 333/4/6 331/4/6 334/4/6
f 335/4/6 336/4/6 340/4/6
f 336/3/6 337/3/6 341/3/6
f 340/4/6 336/4/6 341/4/6
f 337/4/6 338/4/6 342/4/6
f 341/3/6 337/3/6 342/3/6
f 338/5/6 339/5/6 343/5/6
f 342/4/6 338/4/6 343/4/6
f 343/5/6 339/5/6 344/5/6
f 343/4/6 344/4/6 345/4/6
f 345/4/6 344/4/6 346/4/6
f 347/4/6 348/4/6 352/4/6
f 348/3/6 349/3/6 353/3/6
f 352/4/6 348/4/6 353/4/6
f 353/3/6 349/3/6 354/3/6
f 350/3/6 351/3/6 355/3/6
f 355/3/6 351/3/6 356/3/6
f 355/5/6 356/5/6 358/5/6
f 358/5/6 356/5/6 359/5/6
f 357/3/6 358/3/6 363/3/6
f 363/3/6 358/3/6 364/3/6
f 360/4/6 361/4/6 366/4/6
f 361/3/6 362/3/6 367/3/6
f 366/4/6 361/4/6 367/4/6
f 367/3/6 362/3/6 368/3/6
f 364/5/6 365/5/6 372/5/6
f 372/5/6 365/5/6 373/5/6
f 366/5/6 367/5/6 374/5/6
f 367/4/6 368/4/6 375/4/6
f 374/5/6 367/5/6 375/5/6
f 368/4/6 369/4/6 375/4/6
f 370/3/6 371/3/6 376/3/6
f 375/4/6 369/4/6 376/4/6
f 369/3/6 370/3/6 376/3/6
f 372/4/6 373/4/6 377/4/6
f 376/3/6 371/3/6 377/3/6
f 371/4/6 372/4/6 377/4/6
f 377/4/6 373/4/6 378/4/6
f 379/6/6 380/6/6 381/6/6
f 381/6/6 382/6/6 383/6/6
f 379/6/6 381/6/6 385/6/6
f 383/6/6 384/6/6 385/6/6
f 381/6/6 383/6/6 385/6/6
f 385/6/6 384/6/6 386/6/6
f 386/6/6 384/6/6 387/6/6
f 387/6/6 384/6/6 388/6/6
f 388/6/6 384/6/6 389/6/6
f 389/6/6 384/6/6 390/6/6
f 379/6/6 385/6/6 391/6/6
f 386/6/6 387/6/6 393/6/6
f 393/6/6 387/6/6 394/6/6
f 388/6/6 389/6/6 395/6/6
f 379/6/6 391/6/6 396/6/6
f 393/6/6 394/6/6 397/6/6
f 394/6/6 395/6/6 397/6/6
f 392/6/6 393/6/6 397/6/6
f 395/6/6 389/6/6 398/6/6
f 397/6/6 395/6/6 398/6/6
f 398/6/6 389/6/6 399/6/6
f 390/6/6 384/6/6 400/6/6
f 379/6/6 396/6/6 401/6/6
f 396/6/6 397/6/6 401/6/6
f 397/6/6 398/6/6 401/6/6
f 401/6/6 398/6/6 402/6/6
f 402/6/6 398/6/6 403/6/6
f 403/6/6 398/6/6 404/6/6
f 404/6/6 398/6/6 405/6/6
f 399/6/6 400/6/6 406/6/6
f 400/6/6 384/6/6 407/6/6
f 406/6/6 400/6/6 407/6/6
f 402/6/6 403/6/6 408/6/6
f 408/6/6 403/6/6 409/6/6
f 404/6/6 405/6/6 410/6/6
f 405/6/6 406/6/6 410/6/6
f 410/6/6 406/6/6 411/6/6
f 407/6/6 384/6/6 412/6/6
f 412/6/6 384/6/6 413/6/6
f 414/6/6 415/6/6 416/6/6
f 416/6/6 415/6/6 417/6/6
