# MagicaVoxel @ Ephtracy

# group
o 

# material
mtllib Lava12.mtl
usemtl palette

# normals
vn -1 0 0
vn 1 0 0
vn 0 0 1
vn 0 0 -1
vn 0 -1 0
vn 0 1 0

# texcoords
vt 0.0175781 0.5
vt 0.0683594 0.5
vt 0.0917969 0.5
vt 0.279297 0.5
vt 0.865234 0.5
vt 0.873047 0.5

# verts
v 0 2 0
v 0 2 -0.8
v 0 2.1 0
v 0 2.1 -0.1
v 0 2.1 -0.3
v 0 2.1 -0.5
v 0 2.1 -0.7
v 0 2.1 -0.8
v 0 2.2 0
v 0 2.2 -0.1
v 0 2.2 -0.2
v 0 2.2 -0.3
v 0 2.2 -0.5
v 0 2.2 -0.7
v 0 2.2 -0.8
v 0 2.3 -0.2
v 0 2.3 -0.8
v 0.1 2.2 -0.1
v 0.1 2.2 -0.2
v 0.1 2.3 -0.1
v 0.1 2.3 -0.2
v 0.1 2.3 -0.5
v 0.1 2.3 -0.6
v 0.1 2.4 -0.5
v 0.1 2.4 -0.6
v 0.2 2.2 -0.6
v 0.2 2.2 -0.7
v 0.2 2.3 -0.6
v 0.2 2.3 -0.7
v 0.4 2.1 -0.1
v 0.4 2.1 -0.2
v 0.4 2.2 -0.1
v 0.4 2.2 -0.2
v 0.5 2.1 -0.5
v 0.5 2.1 -0.6
v 0.5 2.2 -0.5
v 0.5 2.2 -0.6
v 0.6 2.1 -0.2
v 0.6 2.1 -0.3
v 0.6 2.1 -0.4
v 0.6 2.1 -0.5
v 0.6 2.2 -0.2
v 0.6 2.2 -0.5
v 0.1 2.2 -0.6
v 0.1 2.2 -0.7
v 0.1 2.3 -0.6
v 0.1 2.3 -0.7
v 0.2 2.1 -0.2
v 0.2 2.1 -0.3
v 0.2 2.1 -0.4
v 0.2 2.2 -0.1
v 0.2 2.2 -0.2
v 0.2 2.2 -0.3
v 0.2 2.2 -0.4
v 0.2 2.2 -0.6
v 0.2 2.3 -0.1
v 0.2 2.3 -0.5
v 0.2 2.3 -0.6
v 0.2 2.4 -0.5
v 0.2 2.4 -0.6
v 0.3 2.1 -0.1
v 0.3 2.1 -0.2
v 0.3 2.1 -0.5
v 0.3 2.1 -0.6
v 0.3 2.2 -0.1
v 0.3 2.2 -0.2
v 0.3 2.2 -0.5
v 0.3 2.2 -0.6
v 0.3 2.2 -0.7
v 0.3 2.3 -0.6
v 0.3 2.3 -0.7
v 0.4 2.1 -0.4
v 0.4 2.1 -0.5
v 0.4 2.2 -0.4
v 0.4 2.2 -0.5
v 0.8 2 0
v 0.8 2 -0.8
v 0.8 2.1 0
v 0.8 2.1 -0.1
v 0.8 2.1 -0.3
v 0.8 2.1 -0.5
v 0.8 2.1 -0.7
v 0.8 2.1 -0.8
v 0.8 2.2 0
v 0.8 2.2 -0.1
v 0.8 2.2 -0.3
v 0.8 2.2 -0.5
v 0.8 2.2 -0.7
v 0.8 2.2 -0.8
v 0.8 2.3 -0.7
v 0.8 2.3 -0.8
v 0 2 0
v 0 2.1 0
v 0 2.2 0
v 0.1 2.1 0
v 0.1 2.2 0
v 0.3 2.1 0
v 0.3 2.2 0
v 0.5 2.1 0
v 0.5 2.2 0
v 0.7 2.1 0
v 0.7 2.2 0
v 0.8 2 0
v 0.8 2.1 0
v 0.8 2.2 0
v 0.1 2.2 -0.1
v 0.1 2.3 -0.1
v 0.2 2.2 -0.1
v 0.2 2.3 -0.1
v 0 2.2 -0.2
v 0 2.3 -0.2
v 0.1 2.2 -0.2
v 0.1 2.3 -0.2
v 0.2 2.1 -0.4
v 0.2 2.2 -0.4
v 0.4 2.1 -0.4
v 0.4 2.2 -0.4
v 0.1 2.3 -0.5
v 0.1 2.4 -0.5
v 0.2 2.3 -0.5
v 0.2 2.4 -0.5
v 0.5 2.1 -0.5
v 0.5 2.2 -0.5
v 0.6 2.1 -0.5
v 0.6 2.2 -0.5
v 0.2 2.2 -0.6
v 0.2 2.3 -0.6
v 0.3 2.1 -0.6
v 0.3 2.2 -0.6
v 0.3 2.3 -0.6
v 0.5 2.1 -0.6
v 0.5 2.2 -0.6
v 0.1 2.2 -0.7
v 0.1 2.3 -0.7
v 0.2 2.2 -0.7
v 0.2 2.3 -0.7
v 0.3 2.2 -0.7
v 0.3 2.3 -0.7
v 0.6 2.2 -0.7
v 0.7 2.2 -0.7
v 0.8 2.2 -0.7
v 0.8 2.3 -0.7
v 0.3 2.1 -0.1
v 0.3 2.2 -0.1
v 0.4 2.1 -0.1
v 0.4 2.2 -0.1
v 0.2 2.1 -0.2
v 0.2 2.2 -0.2
v 0.3 2.1 -0.2
v 0.3 2.2 -0.2
v 0.4 2.1 -0.2
v 0.4 2.2 -0.2
v 0.5 2.1 -0.2
v 0.6 2.1 -0.2
v 0.6 2.2 -0.2
v 0.3 2.1 -0.5
v 0.3 2.2 -0.5
v 0.4 2.1 -0.5
v 0.4 2.2 -0.5
v 0.1 2.2 -0.6
v 0.1 2.3 -0.6
v 0.1 2.4 -0.6
v 0.2 2.2 -0.6
v 0.2 2.3 -0.6
v 0.2 2.4 -0.6
v 0 2 -0.8
v 0 2.1 -0.8
v 0 2.2 -0.8
v 0 2.3 -0.8
v 0.1 2.1 -0.8
v 0.1 2.2 -0.8
v 0.3 2.1 -0.8
v 0.3 2.2 -0.8
v 0.5 2.1 -0.8
v 0.5 2.2 -0.8
v 0.7 2.1 -0.8
v 0.7 2.2 -0.8
v 0.8 2 -0.8
v 0.8 2.1 -0.8
v 0.8 2.2 -0.8
v 0.8 2.3 -0.8
v 0 2 0
v 0.8 2 0
v 0.3 2 -0.1
v 0.4 2 -0.1
v 0.2 2 -0.2
v 0.3 2 -0.2
v 0.4 2 -0.2
v 0.5 2 -0.2
v 0.7 2 -0.2
v 0.3 2 -0.3
v 0.5 2 -0.3
v 0.6 2 -0.3
v 0.7 2 -0.3
v 0.2 2 -0.4
v 0.3 2 -0.4
v 0.5 2 -0.4
v 0.6 2 -0.4
v 0.7 2 -0.4
v 0.3 2 -0.6
v 0.4 2 -0.6
v 0.7 2 -0.6
v 0.3 2 -0.7
v 0.4 2 -0.7
v 0 2 -0.8
v 0.8 2 -0.8
v 0.3 2.1 -0.1
v 0.4 2.1 -0.1
v 0.2 2.1 -0.2
v 0.3 2.1 -0.2
v 0.4 2.1 -0.2
v 0.5 2.1 -0.2
v 0.6 2.1 -0.2
v 0.2 2.1 -0.3
v 0.3 2.1 -0.3
v 0.5 2.1 -0.3
v 0.6 2.1 -0.3
v 0.2 2.1 -0.4
v 0.4 2.1 -0.4
v 0.5 2.1 -0.4
v 0.6 2.1 -0.4
v 0.3 2.1 -0.5
v 0.4 2.1 -0.5
v 0.5 2.1 -0.5
v 0.6 2.1 -0.5
v 0.3 2.1 -0.6
v 0.5 2.1 -0.6
v 0 2.2 0
v 0.1 2.2 0
v 0.3 2.2 0
v 0.5 2.2 0
v 0.7 2.2 0
v 0.8 2.2 0
v 0 2.2 -0.1
v 0.1 2.2 -0.1
v 0.2 2.2 -0.1
v 0.3 2.2 -0.1
v 0.4 2.2 -0.1
v 0.5 2.2 -0.1
v 0.6 2.2 -0.1
v 0.7 2.2 -0.1
v 0.8 2.2 -0.1
v 0 2.2 -0.2
v 0.1 2.2 -0.2
v 0.2 2.2 -0.2
v 0.3 2.2 -0.2
v 0.4 2.2 -0.2
v 0.6 2.2 -0.2
v 0.7 2.2 -0.2
v 0.7 2.2 -0.3
v 0.8 2.2 -0.3
v 0.2 2.2 -0.4
v 0.4 2.2 -0.4
v 0.3 2.2 -0.5
v 0.4 2.2 -0.5
v 0.5 2.2 -0.5
v 0.6 2.2 -0.5
v 0.7 2.2 -0.5
v 0.8 2.2 -0.5
v 0.1 2.2 -0.6
v 0.2 2.2 -0.6
v 0.3 2.2 -0.6
v 0.5 2.2 -0.6
v 0.6 2.2 -0.6
v 0.7 2.2 -0.6
v 0.1 2.2 -0.7
v 0.2 2.2 -0.7
v 0.3 2.2 -0.7
v 0.6 2.2 -0.7
v 0.7 2.2 -0.7
v 0.8 2.2 -0.7
v 0.1 2.3 -0.1
v 0.2 2.3 -0.1
v 0 2.3 -0.2
v 0.1 2.3 -0.2
v 0.1 2.3 -0.5
v 0.2 2.3 -0.5
v 0.1 2.3 -0.6
v 0.2 2.3 -0.6
v 0.3 2.3 -0.6
v 0.1 2.3 -0.7
v 0.2 2.3 -0.7
v 0.3 2.3 -0.7
v 0.8 2.3 -0.7
v 0 2.3 -0.8
v 0.8 2.3 -0.8
v 0.1 2.4 -0.5
v 0.2 2.4 -0.5
v 0.1 2.4 -0.6
v 0.2 2.4 -0.6

# faces
f 3/1/1 2/1/1 1/1/1
f 4/1/1 2/1/1 3/1/1
f 5/1/1 2/1/1 4/1/1
f 6/1/1 2/1/1 5/1/1
f 7/1/1 2/1/1 6/1/1
f 8/1/1 2/1/1 7/1/1
f 9/5/1 4/5/1 3/5/1
f 10/4/1 5/4/1 4/4/1
f 10/5/1 4/5/1 9/5/1
f 11/4/1 5/4/1 10/4/1
f 12/3/1 6/3/1 5/3/1
f 12/4/1 5/4/1 11/4/1
f 13/4/1 7/4/1 6/4/1
f 13/3/1 6/3/1 12/3/1
f 14/5/1 8/5/1 7/5/1
f 14/4/1 7/4/1 13/4/1
f 15/5/1 8/5/1 14/5/1
f 16/6/1 12/6/1 11/6/1
f 16/6/1 15/6/1 14/6/1
f 16/6/1 14/6/1 13/6/1
f 16/6/1 13/6/1 12/6/1
f 17/6/1 15/6/1 16/6/1
f 20/6/1 19/6/1 18/6/1
f 21/6/1 19/6/1 20/6/1
f 24/6/1 23/6/1 22/6/1
f 25/6/1 23/6/1 24/6/1
f 28/6/1 27/6/1 26/6/1
f 29/6/1 27/6/1 28/6/1
f 32/3/1 31/3/1 30/3/1
f 33/3/1 31/3/1 32/3/1
f 36/6/1 35/6/1 34/6/1
f 37/6/1 35/6/1 36/6/1
f 42/6/1 39/6/1 38/6/1
f 42/6/1 41/6/1 40/6/1
f 42/6/1 40/6/1 39/6/1
f 43/6/1 41/6/1 42/6/1
f 44/6/2 45/6/2 46/6/2
f 46/6/2 45/6/2 47/6/2
f 48/4/2 49/4/2 52/4/2
f 49/6/2 50/6/2 53/6/2
f 52/4/2 49/4/2 53/4/2
f 53/6/2 50/6/2 54/6/2
f 51/6/2 52/6/2 56/6/2
f 54/6/2 55/6/2 56/6/2
f 53/6/2 54/6/2 56/6/2
f 52/6/2 53/6/2 56/6/2
f 56/6/2 55/6/2 57/6/2
f 57/6/2 55/6/2 58/6/2
f 57/6/2 58/6/2 59/6/2
f 59/6/2 58/6/2 60/6/2
f 61/4/2 62/4/2 65/4/2
f 65/4/2 62/4/2 66/4/2
f 63/6/2 64/6/2 67/6/2
f 67/6/2 64/6/2 68/6/2
f 68/6/2 69/6/2 70/6/2
f 70/6/2 69/6/2 71/6/2
f 72/6/2 73/6/2 74/6/2
f 74/6/2 73/6/2 75/6/2
f 76/1/2 77/1/2 78/1/2
f 78/1/2 77/1/2 79/1/2
f 79/1/2 77/1/2 80/1/2
f 80/1/2 77/1/2 81/1/2
f 81/1/2 77/1/2 82/1/2
f 82/1/2 77/1/2 83/1/2
f 78/5/2 79/5/2 84/5/2
f 79/4/2 80/4/2 85/4/2
f 84/5/2 79/5/2 85/5/2
f 80/3/2 81/3/2 86/3/2
f 85/4/2 80/4/2 86/4/2
f 81/4/2 82/4/2 87/4/2
f 86/3/2 81/3/2 87/3/2
f 82/5/2 83/5/2 88/5/2
f 87/4/2 82/4/2 88/4/2
f 88/5/2 83/5/2 89/5/2
f 88/6/2 89/6/2 90/6/2
f 90/6/2 89/6/2 91/6/2
f 95/1/3 93/1/3 92/1/3
f 95/5/3 94/5/3 93/5/3
f 96/5/3 94/5/3 95/5/3
f 97/1/3 95/1/3 92/1/3
f 97/4/3 96/4/3 95/4/3
f 98/4/3 96/4/3 97/4/3
f 99/1/3 97/1/3 92/1/3
f 99/3/3 98/3/3 97/3/3
f 100/3/3 98/3/3 99/3/3
f 101/1/3 99/1/3 92/1/3
f 101/4/3 100/4/3 99/4/3
f 102/4/3 100/4/3 101/4/3
f 103/1/3 101/1/3 92/1/3
f 104/5/3 102/5/3 101/5/3
f 104/1/3 101/1/3 103/1/3
f 105/5/3 102/5/3 104/5/3
f 108/6/3 107/6/3 106/6/3
f 109/6/3 107/6/3 108/6/3
f 112/6/3 111/6/3 110/6/3
f 113/6/3 111/6/3 112/6/3
f 116/6/3 115/6/3 114/6/3
f 117/6/3 115/6/3 116/6/3
f 120/6/3 119/6/3 118/6/3
f 121/6/3 119/6/3 120/6/3
f 124/6/3 123/6/3 122/6/3
f 125/6/3 123/6/3 124/6/3
f 129/6/3 127/6/3 126/6/3
f 130/6/3 127/6/3 129/6/3
f 131/6/3 129/6/3 128/6/3
f 132/6/3 129/6/3 131/6/3
f 135/6/3 134/6/3 133/6/3
f 136/6/3 134/6/3 135/6/3
f 139/6/3 138/6/3 137/6/3
f 140/6/3 138/6/3 139/6/3
f 141/6/3 138/6/3 140/6/3
f 142/6/3 138/6/3 141/6/3
f 143/3/4 144/3/4 145/3/4
f 145/3/4 144/3/4 146/3/4
f 147/4/4 148/4/4 149/4/4
f 149/4/4 148/4/4 150/4/4
f 151/3/4 152/3/4 153/3/4
f 153/3/4 152/3/4 154/3/4
f 154/3/4 152/3/4 155/3/4
f 156/6/4 157/6/4 158/6/4
f 158/6/4 157/6/4 159/6/4
f 160/6/4 161/6/4 163/6/4
f 161/6/4 162/6/4 163/6/4
f 163/6/4 162/6/4 164/6/4
f 164/6/4 162/6/4 165/6/4
f 166/1/4 167/1/4 170/1/4
f 167/5/4 168/5/4 170/5/4
f 168/6/4 169/6/4 171/6/4
f 170/5/4 168/5/4 171/5/4
f 166/1/4 170/1/4 172/1/4
f 170/4/4 171/4/4 172/4/4
f 171/6/4 169/6/4 173/6/4
f 172/4/4 171/4/4 173/4/4
f 166/1/4 172/1/4 174/1/4
f 172/3/4 173/3/4 174/3/4
f 173/6/4 169/6/4 175/6/4
f 174/3/4 173/3/4 175/3/4
f 166/1/4 174/1/4 176/1/4
f 174/4/4 175/4/4 176/4/4
f 175/6/4 169/6/4 177/6/4
f 176/4/4 175/4/4 177/4/4
f 166/1/4 176/1/4 178/1/4
f 176/5/4 177/5/4 179/5/4
f 178/1/4 176/1/4 179/1/4
f 177/6/4 169/6/4 180/6/4
f 179/5/4 177/5/4 180/5/4
f 180/6/4 169/6/4 181/6/4
f 184/1/5 183/1/5 182/1/5
f 185/1/5 183/1/5 184/1/5
f 186/1/5 184/1/5 182/1/5
f 187/2/5 185/2/5 184/2/5
f 187/1/5 184/1/5 186/1/5
f 188/1/5 183/1/5 185/1/5
f 188/2/5 185/2/5 187/2/5
f 189/1/5 183/1/5 188/1/5
f 190/1/5 183/1/5 189/1/5
f 191/6/5 187/6/5 186/6/5
f 191/4/5 188/4/5 187/4/5
f 191/4/5 189/4/5 188/4/5
f 192/6/5 190/6/5 189/6/5
f 192/4/5 189/4/5 191/4/5
f 193/6/5 190/6/5 192/6/5
f 194/1/5 183/1/5 190/1/5
f 194/6/5 190/6/5 193/6/5
f 195/1/5 186/1/5 182/1/5
f 195/6/5 191/6/5 186/6/5
f 195/6/5 192/6/5 191/6/5
f 196/6/5 192/6/5 195/6/5
f 197/4/5 193/4/5 192/4/5
f 197/6/5 192/6/5 196/6/5
f 198/1/5 194/1/5 193/1/5
f 198/4/5 193/4/5 197/4/5
f 199/1/5 183/1/5 194/1/5
f 199/1/5 194/1/5 198/1/5
f 200/1/5 196/1/5 195/1/5
f 200/6/5 198/6/5 197/6/5
f 200/6/5 199/6/5 198/6/5
f 200/6/5 197/6/5 196/6/5
f 201/6/5 199/6/5 200/6/5
f 202/1/5 183/1/5 199/1/5
f 202/6/5 199/6/5 201/6/5
f 203/4/5 201/4/5 200/4/5
f 203/1/5 200/1/5 195/1/5
f 204/1/5 202/1/5 201/1/5
f 204/4/5 201/4/5 203/4/5
f 205/1/5 195/1/5 182/1/5
f 205/1/5 203/1/5 195/1/5
f 205/1/5 204/1/5 203/1/5
f 206/1/5 183/1/5 202/1/5
f 206/1/5 204/1/5 205/1/5
f 206/1/5 202/1/5 204/1/5
f 207/2/6 208/2/6 210/2/6
f 210/2/6 208/2/6 211/2/6
f 209/6/6 210/6/6 214/6/6
f 210/4/6 211/4/6 215/4/6
f 214/6/6 210/6/6 215/6/6
f 211/4/6 212/4/6 215/4/6
f 212/6/6 213/6/6 216/6/6
f 215/4/6 212/4/6 216/4/6
f 216/6/6 213/6/6 217/6/6
f 214/6/6 215/6/6 218/6/6
f 215/6/6 216/6/6 218/6/6
f 218/6/6 216/6/6 219/6/6
f 216/4/6 217/4/6 220/4/6
f 219/6/6 216/6/6 220/6/6
f 220/4/6 217/4/6 221/4/6
f 219/6/6 220/6/6 223/6/6
f 220/6/6 221/6/6 223/6/6
f 223/6/6 221/6/6 224/6/6
f 224/6/6 221/6/6 225/6/6
f 222/6/6 223/6/6 226/6/6
f 223/6/6 224/6/6 226/6/6
f 226/6/6 224/6/6 227/6/6
f 228/5/6 229/5/6 234/5/6
f 229/4/6 230/4/6 235/4/6
f 234/5/6 229/5/6 235/5/6
f 235/4/6 230/4/6 236/4/6
f 230/3/6 231/3/6 237/3/6
f 236/4/6 230/4/6 237/4/6
f 237/3/6 231/3/6 238/3/6
f 231/4/6 232/4/6 239/4/6
f 238/3/6 231/3/6 239/3/6
f 239/4/6 232/4/6 240/4/6
f 232/5/6 233/5/6 241/5/6
f 240/4/6 232/4/6 241/4/6
f 241/5/6 233/5/6 242/5/6
f 234/4/6 235/4/6 243/4/6
f 243/4/6 235/4/6 244/4/6
f 236/4/6 237/4/6 245/4/6
f 245/4/6 237/4/6 246/4/6
f 239/3/6 240/3/6 247/3/6
f 238/3/6 239/3/6 247/3/6
f 241/4/6 242/4/6 248/4/6
f 247/3/6 240/3/6 248/3/6
f 240/4/6 241/4/6 248/4/6
f 248/4/6 242/4/6 249/4/6
f 249/4/6 242/4/6 250/4/6
f 248/6/6 249/6/6 250/6/6
f 250/4/6 242/4/6 251/4/6
f 252/6/6 253/6/6 254/6/6
f 254/6/6 253/6/6 255/6/6
f 248/6/6 250/6/6 257/6/6
f 250/3/6 251/3/6 258/3/6
f 257/6/6 250/6/6 258/6/6
f 258/3/6 251/3/6 259/3/6
f 252/6/6 254/6/6 261/6/6
f 261/6/6 254/6/6 262/6/6
f 256/6/6 257/6/6 263/6/6
f 257/6/6 258/6/6 263/6/6
f 263/6/6 258/6/6 264/6/6
f 258/4/6 259/4/6 265/4/6
f 264/6/6 258/6/6 265/6/6
f 260/6/6 261/6/6 266/6/6
f 266/6/6 261/6/6 267/6/6
f 263/6/6 264/6/6 268/6/6
f 262/6/6 263/6/6 268/6/6
f 264/5/6 265/5/6 269/5/6
f 268/6/6 264/6/6 269/6/6
f 265/4/6 259/4/6 270/4/6
f 269/5/6 265/5/6 270/5/6
f 270/4/6 259/4/6 271/4/6
f 272/6/6 273/6/6 275/6/6
f 275/6/6 273/6/6 276/6/6
f 274/6/6 275/6/6 276/6/6
f 276/6/6 273/6/6 277/6/6
f 274/6/6 276/6/6 278/6/6
f 274/6/6 278/6/6 281/6/6
f 279/6/6 280/6/6 282/6/6
f 282/6/6 280/6/6 283/6/6
f 274/6/6 281/6/6 285/6/6
f 283/6/6 284/6/6 285/6/6
f 282/6/6 283/6/6 285/6/6
f 281/6/6 282/6/6 285/6/6
f 285/6/6 284/6/6 286/6/6
f 287/6/6 288/6/6 289/6/6
f 289/6/6 288/6/6 290/6/6
