# MagicaVoxel @ Ephtracy

# group
o 

# material
mtllib Lava6.mtl
usemtl palette

# normals
vn -1 0 0
vn 1 0 0
vn 0 0 1
vn 0 0 -1
vn 0 -1 0
vn 0 1 0

# texcoords
vt 0.0175781 0.5
vt 0.0683594 0.5
vt 0.0917969 0.5
vt 0.279297 0.5
vt 0.865234 0.5
vt 0.873047 0.5

# verts
v 0 2 0
v 0 2 -0.8
v 0 2.1 0
v 0 2.1 -0.1
v 0 2.1 -0.3
v 0 2.1 -0.5
v 0 2.1 -0.7
v 0 2.1 -0.8
v 0 2.2 0
v 0 2.2 -0.1
v 0 2.2 -0.3
v 0 2.2 -0.5
v 0 2.2 -0.7
v 0 2.2 -0.8
v 0.2 2.2 0
v 0.2 2.2 -0.1
v 0.2 2.2 -0.2
v 0.2 2.2 -0.3
v 0.2 2.2 -0.4
v 0.2 2.2 -0.6
v 0.2 2.2 -0.7
v 0.2 2.2 -0.8
v 0.2 2.3 0
v 0.2 2.3 -0.1
v 0.2 2.3 -0.2
v 0.2 2.3 -0.8
v 0.3 2.2 -0.1
v 0.3 2.2 -0.2
v 0.3 2.3 -0.1
v 0.3 2.3 -0.2
v 0.3 2.3 -0.3
v 0.3 2.4 -0.2
v 0.3 2.4 -0.3
v 0.4 2.1 -0.1
v 0.4 2.1 -0.2
v 0.4 2.1 -0.6
v 0.4 2.1 -0.7
v 0.4 2.2 -0.1
v 0.4 2.2 -0.2
v 0.4 2.2 -0.6
v 0.4 2.2 -0.7
v 0.4 2.3 -0.6
v 0.4 2.3 -0.7
v 0.5 2.1 -0.4
v 0.5 2.1 -0.6
v 0.5 2.2 -0.1
v 0.5 2.2 -0.2
v 0.5 2.2 -0.4
v 0.5 2.2 -0.6
v 0.5 2.3 -0.1
v 0.5 2.3 -0.2
v 0.6 2.1 -0.2
v 0.6 2.1 -0.3
v 0.6 2.1 -0.4
v 0.6 2.2 -0.2
v 0.6 2.2 -0.4
v 0.7 2.2 -0.2
v 0.7 2.2 -0.5
v 0.7 2.2 -0.6
v 0.7 2.2 -0.7
v 0.7 2.3 -0.2
v 0.7 2.3 -0.5
v 0.7 2.3 -0.6
v 0.7 2.3 -0.7
v 0.3 2.1 -0.1
v 0.3 2.1 -0.2
v 0.3 2.1 -0.3
v 0.3 2.1 -0.4
v 0.3 2.1 -0.5
v 0.3 2.1 -0.6
v 0.3 2.1 -0.7
v 0.3 2.2 -0.1
v 0.3 2.2 -0.2
v 0.3 2.2 -0.3
v 0.3 2.2 -0.4
v 0.3 2.2 -0.5
v 0.3 2.2 -0.6
v 0.3 2.2 -0.7
v 0.3 2.3 -0.6
v 0.3 2.3 -0.7
v 0.4 2.1 -0.2
v 0.4 2.1 -0.3
v 0.4 2.1 -0.5
v 0.4 2.1 -0.6
v 0.4 2.2 -0.1
v 0.4 2.2 -0.2
v 0.4 2.2 -0.3
v 0.4 2.2 -0.5
v 0.4 2.2 -0.6
v 0.4 2.3 -0.1
v 0.4 2.3 -0.2
v 0.4 2.3 -0.3
v 0.4 2.4 -0.2
v 0.4 2.4 -0.3
v 0.6 2.2 -0.2
v 0.6 2.2 -0.5
v 0.6 2.2 -0.6
v 0.6 2.2 -0.7
v 0.6 2.3 -0.2
v 0.6 2.3 -0.5
v 0.6 2.3 -0.6
v 0.6 2.3 -0.7
v 0.8 2 0
v 0.8 2 -0.8
v 0.8 2.1 0
v 0.8 2.1 -0.1
v 0.8 2.1 -0.3
v 0.8 2.1 -0.5
v 0.8 2.1 -0.7
v 0.8 2.1 -0.8
v 0.8 2.2 0
v 0.8 2.2 -0.1
v 0.8 2.2 -0.3
v 0.8 2.2 -0.5
v 0.8 2.2 -0.7
v 0.8 2.2 -0.8
v 0.8 2.3 0
v 0.8 2.3 -0.8
v 0 2 0
v 0 2.1 0
v 0 2.2 0
v 0.1 2.1 0
v 0.1 2.2 0
v 0.2 2.2 0
v 0.2 2.3 0
v 0.3 2.1 0
v 0.3 2.2 0
v 0.5 2.1 0
v 0.5 2.2 0
v 0.7 2.1 0
v 0.7 2.2 0
v 0.8 2 0
v 0.8 2.1 0
v 0.8 2.2 0
v 0.8 2.3 0
v 0.2 2.2 -0.2
v 0.2 2.3 -0.2
v 0.3 2.1 -0.2
v 0.3 2.2 -0.2
v 0.3 2.3 -0.2
v 0.3 2.4 -0.2
v 0.4 2.1 -0.2
v 0.4 2.2 -0.2
v 0.4 2.3 -0.2
v 0.4 2.4 -0.2
v 0.5 2.2 -0.2
v 0.5 2.3 -0.2
v 0.5 2.1 -0.4
v 0.5 2.2 -0.4
v 0.6 2.1 -0.4
v 0.6 2.2 -0.4
v 0.3 2.1 -0.5
v 0.3 2.2 -0.5
v 0.4 2.1 -0.5
v 0.4 2.2 -0.5
v 0.6 2.2 -0.5
v 0.6 2.3 -0.5
v 0.7 2.2 -0.5
v 0.7 2.3 -0.5
v 0.4 2.1 -0.6
v 0.4 2.2 -0.6
v 0.5 2.1 -0.6
v 0.5 2.2 -0.6
v 0.3 2.1 -0.7
v 0.3 2.2 -0.7
v 0.3 2.3 -0.7
v 0.4 2.1 -0.7
v 0.4 2.2 -0.7
v 0.4 2.3 -0.7
v 0.6 2.2 -0.7
v 0.6 2.3 -0.7
v 0.7 2.2 -0.7
v 0.7 2.3 -0.7
v 0.2 2.2 -0.1
v 0.2 2.3 -0.1
v 0.3 2.1 -0.1
v 0.3 2.2 -0.1
v 0.3 2.3 -0.1
v 0.4 2.1 -0.1
v 0.4 2.2 -0.1
v 0.4 2.3 -0.1
v 0.5 2.2 -0.1
v 0.5 2.3 -0.1
v 0.4 2.1 -0.2
v 0.4 2.2 -0.2
v 0.5 2.1 -0.2
v 0.6 2.1 -0.2
v 0.6 2.2 -0.2
v 0.6 2.3 -0.2
v 0.7 2.2 -0.2
v 0.7 2.3 -0.2
v 0.3 2.1 -0.3
v 0.3 2.2 -0.3
v 0.3 2.3 -0.3
v 0.3 2.4 -0.3
v 0.4 2.1 -0.3
v 0.4 2.2 -0.3
v 0.4 2.3 -0.3
v 0.4 2.4 -0.3
v 0.3 2.1 -0.6
v 0.3 2.2 -0.6
v 0.3 2.3 -0.6
v 0.4 2.1 -0.6
v 0.4 2.2 -0.6
v 0.4 2.3 -0.6
v 0.6 2.2 -0.6
v 0.6 2.3 -0.6
v 0.7 2.2 -0.6
v 0.7 2.3 -0.6
v 0 2 -0.8
v 0 2.1 -0.8
v 0 2.2 -0.8
v 0.1 2.1 -0.8
v 0.1 2.2 -0.8
v 0.2 2.2 -0.8
v 0.2 2.3 -0.8
v 0.3 2.1 -0.8
v 0.3 2.2 -0.8
v 0.5 2.1 -0.8
v 0.5 2.2 -0.8
v 0.7 2.1 -0.8
v 0.7 2.2 -0.8
v 0.8 2 -0.8
v 0.8 2.1 -0.8
v 0.8 2.2 -0.8
v 0.8 2.3 -0.8
v 0 2 0
v 0.8 2 0
v 0.3 2 -0.1
v 0.4 2 -0.1
v 0.3 2 -0.2
v 0.4 2 -0.2
v 0.5 2 -0.2
v 0.7 2 -0.2
v 0.3 2 -0.3
v 0.4 2 -0.3
v 0.5 2 -0.3
v 0.6 2 -0.3
v 0.7 2 -0.3
v 0.3 2 -0.4
v 0.4 2 -0.4
v 0.5 2 -0.4
v 0.6 2 -0.4
v 0.7 2 -0.4
v 0.3 2 -0.6
v 0.4 2 -0.6
v 0.7 2 -0.6
v 0.3 2 -0.7
v 0.4 2 -0.7
v 0 2 -0.8
v 0.8 2 -0.8
v 0.3 2.2 -0.1
v 0.4 2.2 -0.1
v 0.3 2.2 -0.2
v 0.4 2.2 -0.2
v 0.6 2.2 -0.2
v 0.3 2.2 -0.3
v 0.4 2.2 -0.3
v 0.3 2.2 -0.4
v 0.5 2.2 -0.4
v 0.6 2.2 -0.4
v 0.3 2.2 -0.5
v 0.4 2.2 -0.5
v 0.4 2.2 -0.6
v 0.5 2.2 -0.6
v 0.3 2.1 -0.1
v 0.4 2.1 -0.1
v 0.3 2.1 -0.2
v 0.4 2.1 -0.2
v 0.5 2.1 -0.2
v 0.6 2.1 -0.2
v 0.3 2.1 -0.3
v 0.4 2.1 -0.3
v 0.5 2.1 -0.3
v 0.6 2.1 -0.3
v 0.3 2.1 -0.4
v 0.4 2.1 -0.4
v 0.5 2.1 -0.4
v 0.6 2.1 -0.4
v 0.3 2.1 -0.5
v 0.4 2.1 -0.5
v 0.3 2.1 -0.6
v 0.4 2.1 -0.6
v 0.5 2.1 -0.6
v 0.3 2.1 -0.7
v 0.4 2.1 -0.7
v 0 2.2 0
v 0.1 2.2 0
v 0.2 2.2 0
v 0 2.2 -0.1
v 0.1 2.2 -0.1
v 0.2 2.2 -0.1
v 0.3 2.2 -0.1
v 0.4 2.2 -0.1
v 0.5 2.2 -0.1
v 0.2 2.2 -0.2
v 0.3 2.2 -0.2
v 0.4 2.2 -0.2
v 0.5 2.2 -0.2
v 0.6 2.2 -0.2
v 0.7 2.2 -0.2
v 0 2.2 -0.3
v 0.1 2.2 -0.3
v 0.2 2.2 -0.3
v 0.1 2.2 -0.4
v 0.2 2.2 -0.4
v 0 2.2 -0.5
v 0.1 2.2 -0.5
v 0.6 2.2 -0.5
v 0.7 2.2 -0.5
v 0.1 2.2 -0.6
v 0.2 2.2 -0.6
v 0.6 2.2 -0.6
v 0.7 2.2 -0.6
v 0 2.2 -0.7
v 0.1 2.2 -0.7
v 0.2 2.2 -0.7
v 0.6 2.2 -0.7
v 0.7 2.2 -0.7
v 0 2.2 -0.8
v 0.1 2.2 -0.8
v 0.2 2.2 -0.8
v 0.2 2.3 0
v 0.8 2.3 0
v 0.2 2.3 -0.1
v 0.3 2.3 -0.1
v 0.4 2.3 -0.1
v 0.5 2.3 -0.1
v 0.2 2.3 -0.2
v 0.3 2.3 -0.2
v 0.4 2.3 -0.2
v 0.5 2.3 -0.2
v 0.6 2.3 -0.2
v 0.7 2.3 -0.2
v 0.3 2.3 -0.3
v 0.4 2.3 -0.3
v 0.6 2.3 -0.5
v 0.7 2.3 -0.5
v 0.3 2.3 -0.6
v 0.4 2.3 -0.6
v 0.6 2.3 -0.6
v 0.7 2.3 -0.6
v 0.3 2.3 -0.7
v 0.4 2.3 -0.7
v 0.6 2.3 -0.7
v 0.7 2.3 -0.7
v 0.2 2.3 -0.8
v 0.8 2.3 -0.8
v 0.3 2.4 -0.2
v 0.4 2.4 -0.2
v 0.3 2.4 -0.3
v 0.4 2.4 -0.3

# faces
f 3/1/1 2/1/1 1/1/1
f 4/1/1 2/1/1 3/1/1
f 5/1/1 2/1/1 4/1/1
f 6/1/1 2/1/1 5/1/1
f 7/1/1 2/1/1 6/1/1
f 8/1/1 2/1/1 7/1/1
f 9/5/1 4/5/1 3/5/1
f 10/4/1 5/4/1 4/4/1
f 10/5/1 4/5/1 9/5/1
f 11/3/1 6/3/1 5/3/1
f 11/4/1 5/4/1 10/4/1
f 12/4/1 7/4/1 6/4/1
f 12/3/1 6/3/1 11/3/1
f 13/5/1 8/5/1 7/5/1
f 13/4/1 7/4/1 12/4/1
f 14/5/1 8/5/1 13/5/1
f 23/6/1 16/6/1 15/6/1
f 24/6/1 16/6/1 23/6/1
f 25/6/1 22/6/1 21/6/1
f 25/6/1 18/6/1 17/6/1
f 25/6/1 19/6/1 18/6/1
f 25/6/1 21/6/1 20/6/1
f 25/6/1 20/6/1 19/6/1
f 26/6/1 22/6/1 25/6/1
f 29/6/1 28/6/1 27/6/1
f 30/6/1 28/6/1 29/6/1
f 32/6/1 31/6/1 30/6/1
f 33/6/1 31/6/1 32/6/1
f 38/3/1 35/3/1 34/3/1
f 39/3/1 35/3/1 38/3/1
f 40/3/1 37/3/1 36/3/1
f 41/3/1 37/3/1 40/3/1
f 42/6/1 41/6/1 40/6/1
f 43/6/1 41/6/1 42/6/1
f 48/6/1 45/6/1 44/6/1
f 49/6/1 45/6/1 48/6/1
f 50/6/1 47/6/1 46/6/1
f 51/6/1 47/6/1 50/6/1
f 55/6/1 53/6/1 52/6/1
f 55/6/1 54/6/1 53/6/1
f 56/6/1 54/6/1 55/6/1
f 61/6/1 58/6/1 57/6/1
f 62/6/1 58/6/1 61/6/1
f 63/6/1 60/6/1 59/6/1
f 64/6/1 60/6/1 63/6/1
f 65/4/2 66/4/2 72/4/2
f 72/4/2 66/4/2 73/4/2
f 67/6/2 68/6/2 74/6/2
f 68/3/2 69/3/2 75/3/2
f 74/6/2 68/6/2 75/6/2
f 75/3/2 69/3/2 76/3/2
f 70/3/2 71/3/2 77/3/2
f 77/3/2 71/3/2 78/3/2
f 77/6/2 78/6/2 79/6/2
f 79/6/2 78/6/2 80/6/2
f 81/3/2 82/3/2 86/3/2
f 86/3/2 82/3/2 87/3/2
f 83/6/2 84/6/2 88/6/2
f 88/6/2 84/6/2 89/6/2
f 85/6/2 86/6/2 90/6/2
f 90/6/2 86/6/2 91/6/2
f 91/6/2 92/6/2 93/6/2
f 93/6/2 92/6/2 94/6/2
f 95/6/2 96/6/2 99/6/2
f 99/6/2 96/6/2 100/6/2
f 97/6/2 98/6/2 101/6/2
f 101/6/2 98/6/2 102/6/2
f 103/1/2 104/1/2 105/1/2
f 105/1/2 104/1/2 106/1/2
f 106/1/2 104/1/2 107/1/2
f 107/1/2 104/1/2 108/1/2
f 108/1/2 104/1/2 109/1/2
f 109/1/2 104/1/2 110/1/2
f 105/5/2 106/5/2 111/5/2
f 106/4/2 107/4/2 112/4/2
f 111/5/2 106/5/2 112/5/2
f 107/3/2 108/3/2 113/3/2
f 112/4/2 107/4/2 113/4/2
f 108/4/2 109/4/2 114/4/2
f 113/3/2 108/3/2 114/3/2
f 109/5/2 110/5/2 115/5/2
f 114/4/2 109/4/2 115/4/2
f 115/5/2 110/5/2 116/5/2
f 111/6/2 112/6/2 117/6/2
f 112/6/2 113/6/2 117/6/2
f 115/6/2 116/6/2 117/6/2
f 114/6/2 115/6/2 117/6/2
f 113/6/2 114/6/2 117/6/2
f 117/6/2 116/6/2 118/6/2
f 122/1/3 120/1/3 119/1/3
f 122/5/3 121/5/3 120/5/3
f 123/5/3 121/5/3 122/5/3
f 124/4/3 123/4/3 122/4/3
f 126/1/3 122/1/3 119/1/3
f 126/4/3 124/4/3 122/4/3
f 127/6/3 125/6/3 124/6/3
f 127/4/3 124/4/3 126/4/3
f 128/1/3 126/1/3 119/1/3
f 128/3/3 127/3/3 126/3/3
f 129/6/3 125/6/3 127/6/3
f 129/3/3 127/3/3 128/3/3
f 130/1/3 128/1/3 119/1/3
f 130/4/3 129/4/3 128/4/3
f 131/6/3 125/6/3 129/6/3
f 131/4/3 129/4/3 130/4/3
f 132/1/3 130/1/3 119/1/3
f 133/5/3 131/5/3 130/5/3
f 133/1/3 130/1/3 132/1/3
f 134/6/3 125/6/3 131/6/3
f 134/5/3 131/5/3 133/5/3
f 135/6/3 125/6/3 134/6/3
f 139/6/3 137/6/3 136/6/3
f 140/6/3 137/6/3 139/6/3
f 142/3/3 139/3/3 138/3/3
f 143/3/3 139/3/3 142/3/3
f 144/6/3 141/6/3 140/6/3
f 145/6/3 141/6/3 144/6/3
f 146/6/3 144/6/3 143/6/3
f 147/6/3 144/6/3 146/6/3
f 150/6/3 149/6/3 148/6/3
f 151/6/3 149/6/3 150/6/3
f 154/6/3 153/6/3 152/6/3
f 155/6/3 153/6/3 154/6/3
f 158/6/3 157/6/3 156/6/3
f 159/6/3 157/6/3 158/6/3
f 162/3/3 161/3/3 160/3/3
f 163/3/3 161/3/3 162/3/3
f 167/3/3 165/3/3 164/3/3
f 168/6/3 166/6/3 165/6/3
f 168/3/3 165/3/3 167/3/3
f 169/6/3 166/6/3 168/6/3
f 172/6/3 171/6/3 170/6/3
f 173/6/3 171/6/3 172/6/3
f 174/6/4 175/6/4 177/6/4
f 177/6/4 175/6/4 178/6/4
f 176/3/4 177/3/4 179/3/4
f 179/3/4 177/3/4 180/3/4
f 180/6/4 181/6/4 182/6/4
f 182/6/4 181/6/4 183/6/4
f 184/3/4 185/3/4 186/3/4
f 186/3/4 185/3/4 187/3/4
f 187/3/4 185/3/4 188/3/4
f 188/6/4 189/6/4 190/6/4
f 190/6/4 189/6/4 191/6/4
f 192/3/4 193/3/4 196/3/4
f 196/3/4 193/3/4 197/3/4
f 194/6/4 195/6/4 198/6/4
f 198/6/4 195/6/4 199/6/4
f 200/6/4 201/6/4 203/6/4
f 201/6/4 202/6/4 203/6/4
f 203/6/4 202/6/4 204/6/4
f 204/6/4 202/6/4 205/6/4
f 206/6/4 207/6/4 208/6/4
f 208/6/4 207/6/4 209/6/4
f 210/1/4 211/1/4 213/1/4
f 211/5/4 212/5/4 213/5/4
f 213/5/4 212/5/4 214/5/4
f 213/4/4 214/4/4 215/4/4
f 210/1/4 213/1/4 217/1/4
f 213/4/4 215/4/4 217/4/4
f 215/6/4 216/6/4 218/6/4
f 217/4/4 215/4/4 218/4/4
f 210/1/4 217/1/4 219/1/4
f 217/3/4 218/3/4 219/3/4
f 218/6/4 216/6/4 220/6/4
f 219/3/4 218/3/4 220/3/4
f 210/1/4 219/1/4 221/1/4
f 219/4/4 220/4/4 221/4/4
f 220/6/4 216/6/4 222/6/4
f 221/4/4 220/4/4 222/4/4
f 210/1/4 221/1/4 223/1/4
f 221/5/4 222/5/4 224/5/4
f 223/1/4 221/1/4 224/1/4
f 222/6/4 216/6/4 225/6/4
f 224/5/4 222/5/4 225/5/4
f 225/6/4 216/6/4 226/6/4
f 229/1/5 228/1/5 227/1/5
f 230/1/5 228/1/5 229/1/5
f 231/1/5 229/1/5 227/1/5
f 231/2/5 230/2/5 229/2/5
f 232/1/5 228/1/5 230/1/5
f 232/2/5 230/2/5 231/2/5
f 233/1/5 228/1/5 232/1/5
f 234/1/5 228/1/5 233/1/5
f 235/1/5 231/1/5 227/1/5
f 235/1/5 232/1/5 231/1/5
f 236/4/5 233/4/5 232/4/5
f 236/1/5 232/1/5 235/1/5
f 237/6/5 234/6/5 233/6/5
f 237/4/5 233/4/5 236/4/5
f 238/6/5 234/6/5 237/6/5
f 239/1/5 228/1/5 234/1/5
f 239/6/5 234/6/5 238/6/5
f 240/2/5 236/2/5 235/2/5
f 240/1/5 235/1/5 227/1/5
f 241/6/5 237/6/5 236/6/5
f 241/2/5 236/2/5 240/2/5
f 242/4/5 238/4/5 237/4/5
f 242/6/5 237/6/5 241/6/5
f 243/1/5 239/1/5 238/1/5
f 243/4/5 238/4/5 242/4/5
f 244/1/5 228/1/5 239/1/5
f 244/1/5 239/1/5 243/1/5
f 245/6/5 241/6/5 240/6/5
f 245/6/5 243/6/5 242/6/5
f 245/6/5 244/6/5 243/6/5
f 245/1/5 240/1/5 227/1/5
f 245/6/5 242/6/5 241/6/5
f 246/6/5 244/6/5 245/6/5
f 247/1/5 228/1/5 244/1/5
f 247/6/5 244/6/5 246/6/5
f 248/4/5 246/4/5 245/4/5
f 248/1/5 245/1/5 227/1/5
f 249/1/5 247/1/5 246/1/5
f 249/4/5 246/4/5 248/4/5
f 250/1/5 248/1/5 227/1/5
f 250/1/5 249/1/5 248/1/5
f 251/1/5 228/1/5 247/1/5
f 251/1/5 249/1/5 250/1/5
f 251/1/5 247/1/5 249/1/5
f 254/6/5 253/6/5 252/6/5
f 255/6/5 253/6/5 254/6/5
f 258/6/5 256/6/5 255/6/5
f 259/6/5 258/6/5 257/6/5
f 260/6/5 256/6/5 258/6/5
f 260/6/5 258/6/5 259/6/5
f 261/6/5 256/6/5 260/6/5
f 262/6/5 260/6/5 259/6/5
f 263/6/5 260/6/5 262/6/5
f 264/6/5 260/6/5 263/6/5
f 265/6/5 260/6/5 264/6/5
f 266/2/6 267/2/6 268/2/6
f 268/2/6 267/2/6 269/2/6
f 269/4/6 270/4/6 273/4/6
f 270/6/6 271/6/6 274/6/6
f 273/4/6 270/4/6 274/4/6
f 274/6/6 271/6/6 275/6/6
f 272/2/6 273/2/6 276/2/6
f 273/6/6 274/6/6 277/6/6
f 276/2/6 273/2/6 277/2/6
f 274/4/6 275/4/6 278/4/6
f 277/6/6 274/6/6 278/6/6
f 278/4/6 275/4/6 279/4/6
f 276/6/6 277/6/6 280/6/6
f 277/6/6 278/6/6 280/6/6
f 280/6/6 278/6/6 281/6/6
f 281/6/6 278/6/6 283/6/6
f 283/6/6 278/6/6 284/6/6
f 282/4/6 283/4/6 285/4/6
f 285/4/6 283/4/6 286/4/6
f 287/5/6 288/5/6 290/5/6
f 288/4/6 289/4/6 291/4/6
f 290/5/6 288/5/6 291/5/6
f 291/4/6 289/4/6 292/4/6
f 291/5/6 292/5/6 296/5/6
f 292/4/6 293/4/6 296/4/6
f 296/4/6 293/4/6 297/4/6
f 294/3/6 295/3/6 298/3/6
f 298/3/6 295/3/6 299/3/6
f 290/4/6 291/4/6 302/4/6
f 291/5/6 296/5/6 303/5/6
f 302/4/6 291/4/6 303/4/6
f 303/5/6 296/5/6 304/5/6
f 302/3/6 303/3/6 305/3/6
f 303/6/6 304/6/6 305/6/6
f 305/6/6 304/6/6 306/6/6
f 302/3/6 305/3/6 307/3/6
f 305/5/6 306/5/6 308/5/6
f 307/3/6 305/3/6 308/3/6
f 300/6/6 301/6/6 309/6/6
f 309/6/6 301/6/6 310/6/6
f 308/5/6 306/5/6 311/5/6
f 307/4/6 308/4/6 311/4/6
f 311/5/6 306/5/6 312/5/6
f 307/4/6 311/4/6 315/4/6
f 311/6/6 312/6/6 316/6/6
f 315/4/6 311/4/6 316/4/6
f 316/6/6 312/6/6 317/6/6
f 313/5/6 314/5/6 318/5/6
f 318/5/6 314/5/6 319/5/6
f 315/5/6 316/5/6 320/5/6
f 316/4/6 317/4/6 321/4/6
f 320/5/6 316/5/6 321/5/6
f 321/4/6 317/4/6 322/4/6
f 323/6/6 324/6/6 325/6/6
f 325/6/6 324/6/6 326/6/6
f 326/6/6 324/6/6 327/6/6
f 327/6/6 324/6/6 328/6/6
f 326/6/6 327/6/6 330/6/6
f 330/6/6 327/6/6 331/6/6
f 328/6/6 324/6/6 332/6/6
f 332/6/6 324/6/6 333/6/6
f 333/6/6 324/6/6 334/6/6
f 329/6/6 330/6/6 335/6/6
f 332/6/6 333/6/6 336/6/6
f 331/6/6 332/6/6 336/6/6
f 336/6/6 333/6/6 337/6/6
f 335/6/6 336/6/6 337/6/6
f 334/6/6 324/6/6 338/6/6
f 335/6/6 337/6/6 339/6/6
f 337/6/6 338/6/6 339/6/6
f 329/6/6 335/6/6 339/6/6
f 339/6/6 338/6/6 340/6/6
f 340/6/6 338/6/6 341/6/6
f 338/6/6 324/6/6 342/6/6
f 341/6/6 338/6/6 342/6/6
f 329/6/6 339/6/6 343/6/6
f 340/6/6 341/6/6 344/6/6
f 344/6/6 341/6/6 345/6/6
f 342/6/6 324/6/6 346/6/6
f 329/6/6 343/6/6 347/6/6
f 345/6/6 346/6/6 347/6/6
f 344/6/6 345/6/6 347/6/6
f 343/6/6 344/6/6 347/6/6
f 346/6/6 324/6/6 348/6/6
f 347/6/6 346/6/6 348/6/6
f 349/6/6 350/6/6 351/6/6
f 351/6/6 350/6/6 352/6/6
