# MagicaVoxel @ Ephtracy

# group
o 

# material
mtllib Lava5.mtl
usemtl palette

# normals
vn -1 0 0
vn 1 0 0
vn 0 0 1
vn 0 0 -1
vn 0 -1 0
vn 0 1 0

# texcoords
vt 0.0175781 0.5
vt 0.0683594 0.5
vt 0.0917969 0.5
vt 0.279297 0.5
vt 0.865234 0.5
vt 0.873047 0.5

# verts
v 0 2 0
v 0 2 -0.8
v 0 2.1 0
v 0 2.1 -0.1
v 0 2.1 -0.3
v 0 2.1 -0.5
v 0 2.1 -0.7
v 0 2.1 -0.8
v 0 2.2 0
v 0 2.2 -0.1
v 0 2.2 -0.3
v 0 2.2 -0.5
v 0 2.2 -0.7
v 0 2.2 -0.8
v 0 2.3 0
v 0 2.3 -0.1
v 0.1 2.2 -0.1
v 0.1 2.2 -0.3
v 0.1 2.3 -0.1
v 0.1 2.3 -0.3
v 0.2 2.2 -0.6
v 0.2 2.2 -0.7
v 0.2 2.2 -0.8
v 0.2 2.3 -0.6
v 0.2 2.3 -0.8
v 0.3 2.2 -0.1
v 0.3 2.2 -0.2
v 0.3 2.2 -0.3
v 0.3 2.2 -0.4
v 0.3 2.3 -0.1
v 0.3 2.3 -0.2
v 0.3 2.3 -0.3
v 0.3 2.3 -0.4
v 0.4 2.1 -0.1
v 0.4 2.1 -0.2
v 0.4 2.1 -0.6
v 0.4 2.1 -0.7
v 0.4 2.2 -0.1
v 0.4 2.2 -0.2
v 0.4 2.2 -0.3
v 0.4 2.2 -0.6
v 0.4 2.2 -0.7
v 0.4 2.3 -0.2
v 0.4 2.3 -0.3
v 0.4 2.3 -0.6
v 0.4 2.3 -0.7
v 0.5 2.1 -0.4
v 0.5 2.1 -0.6
v 0.5 2.2 -0.1
v 0.5 2.2 -0.2
v 0.5 2.2 -0.3
v 0.5 2.2 -0.4
v 0.5 2.2 -0.6
v 0.5 2.3 -0.1
v 0.5 2.3 -0.2
v 0.5 2.3 -0.3
v 0.5 2.3 -0.4
v 0.6 2.1 -0.2
v 0.6 2.1 -0.3
v 0.6 2.1 -0.4
v 0.6 2.2 -0.2
v 0.6 2.2 -0.3
v 0.6 2.2 -0.4
v 0.6 2.2 -0.5
v 0.6 2.2 -0.6
v 0.6 2.3 -0.5
v 0.6 2.3 -0.6
v 0.7 2.2 -0.2
v 0.7 2.2 -0.5
v 0.7 2.2 -0.6
v 0.7 2.2 -0.7
v 0.7 2.3 -0.2
v 0.7 2.3 -0.5
v 0.7 2.3 -0.6
v 0.7 2.3 -0.7
v 0.1 2.2 0
v 0.1 2.2 -0.1
v 0.1 2.3 0
v 0.1 2.3 -0.1
v 0.2 2.2 -0.1
v 0.2 2.2 -0.2
v 0.2 2.2 -0.3
v 0.2 2.3 -0.1
v 0.2 2.3 -0.3
v 0.3 2.1 -0.1
v 0.3 2.1 -0.2
v 0.3 2.1 -0.3
v 0.3 2.1 -0.4
v 0.3 2.1 -0.5
v 0.3 2.1 -0.6
v 0.3 2.1 -0.7
v 0.3 2.2 -0.1
v 0.3 2.2 -0.2
v 0.3 2.2 -0.3
v 0.3 2.2 -0.4
v 0.3 2.2 -0.5
v 0.3 2.2 -0.6
v 0.3 2.2 -0.7
v 0.3 2.3 -0.6
v 0.3 2.3 -0.7
v 0.4 2.1 -0.2
v 0.4 2.1 -0.3
v 0.4 2.1 -0.5
v 0.4 2.1 -0.6
v 0.4 2.2 -0.1
v 0.4 2.2 -0.2
v 0.4 2.2 -0.3
v 0.4 2.2 -0.4
v 0.4 2.2 -0.5
v 0.4 2.2 -0.6
v 0.4 2.3 -0.1
v 0.4 2.3 -0.2
v 0.4 2.3 -0.3
v 0.4 2.3 -0.4
v 0.5 2.2 -0.2
v 0.5 2.2 -0.3
v 0.5 2.3 -0.2
v 0.5 2.3 -0.3
v 0.6 2.2 -0.3
v 0.6 2.2 -0.4
v 0.6 2.2 -0.6
v 0.6 2.2 -0.7
v 0.6 2.3 -0.3
v 0.6 2.3 -0.4
v 0.6 2.3 -0.6
v 0.6 2.3 -0.7
v 0.7 2.2 -0.1
v 0.7 2.2 -0.2
v 0.7 2.3 -0.1
v 0.7 2.3 -0.2
v 0.8 2 0
v 0.8 2 -0.8
v 0.8 2.1 0
v 0.8 2.1 -0.1
v 0.8 2.1 -0.3
v 0.8 2.1 -0.5
v 0.8 2.1 -0.7
v 0.8 2.1 -0.8
v 0.8 2.2 0
v 0.8 2.2 -0.1
v 0.8 2.2 -0.2
v 0.8 2.2 -0.3
v 0.8 2.2 -0.5
v 0.8 2.2 -0.7
v 0.8 2.2 -0.8
v 0.8 2.3 -0.2
v 0.8 2.3 -0.8
v 0 2 0
v 0 2.1 0
v 0 2.2 0
v 0 2.3 0
v 0.1 2.1 0
v 0.1 2.2 0
v 0.1 2.3 0
v 0.3 2.1 0
v 0.3 2.2 0
v 0.5 2.1 0
v 0.5 2.2 0
v 0.7 2.1 0
v 0.7 2.2 0
v 0.8 2 0
v 0.8 2.1 0
v 0.8 2.2 0
v 0.1 2.2 -0.1
v 0.1 2.3 -0.1
v 0.2 2.2 -0.1
v 0.2 2.3 -0.1
v 0.3 2.2 -0.1
v 0.3 2.3 -0.1
v 0.4 2.2 -0.1
v 0.4 2.3 -0.1
v 0.5 2.2 -0.1
v 0.5 2.3 -0.1
v 0.7 2.2 -0.1
v 0.7 2.3 -0.1
v 0.3 2.1 -0.2
v 0.3 2.2 -0.2
v 0.4 2.1 -0.2
v 0.4 2.2 -0.2
v 0.4 2.3 -0.2
v 0.5 2.2 -0.2
v 0.5 2.3 -0.2
v 0.7 2.2 -0.2
v 0.7 2.3 -0.2
v 0.8 2.2 -0.2
v 0.8 2.3 -0.2
v 0.3 2.2 -0.3
v 0.3 2.3 -0.3
v 0.4 2.2 -0.3
v 0.4 2.3 -0.3
v 0.5 2.2 -0.3
v 0.5 2.3 -0.3
v 0.6 2.2 -0.3
v 0.6 2.3 -0.3
v 0.5 2.1 -0.4
v 0.5 2.2 -0.4
v 0.6 2.1 -0.4
v 0.6 2.2 -0.4
v 0.3 2.1 -0.5
v 0.3 2.2 -0.5
v 0.4 2.1 -0.5
v 0.4 2.2 -0.5
v 0.6 2.2 -0.5
v 0.6 2.3 -0.5
v 0.7 2.2 -0.5
v 0.7 2.3 -0.5
v 0.2 2.2 -0.6
v 0.2 2.3 -0.6
v 0.3 2.2 -0.6
v 0.3 2.3 -0.6
v 0.4 2.1 -0.6
v 0.4 2.2 -0.6
v 0.4 2.3 -0.6
v 0.5 2.1 -0.6
v 0.5 2.2 -0.6
v 0.6 2.2 -0.6
v 0.6 2.3 -0.6
v 0.3 2.1 -0.7
v 0.3 2.2 -0.7
v 0.3 2.3 -0.7
v 0.4 2.1 -0.7
v 0.4 2.2 -0.7
v 0.4 2.3 -0.7
v 0.6 2.2 -0.7
v 0.6 2.3 -0.7
v 0.7 2.2 -0.7
v 0.7 2.3 -0.7
v 0 2.2 -0.1
v 0 2.3 -0.1
v 0.1 2.2 -0.1
v 0.1 2.3 -0.1
v 0.3 2.1 -0.1
v 0.3 2.2 -0.1
v 0.4 2.1 -0.1
v 0.4 2.2 -0.1
v 0.3 2.2 -0.2
v 0.3 2.3 -0.2
v 0.4 2.1 -0.2
v 0.4 2.2 -0.2
v 0.4 2.3 -0.2
v 0.5 2.1 -0.2
v 0.5 2.2 -0.2
v 0.5 2.3 -0.2
v 0.6 2.1 -0.2
v 0.6 2.2 -0.2
v 0.7 2.2 -0.2
v 0.7 2.3 -0.2
v 0.1 2.2 -0.3
v 0.1 2.3 -0.3
v 0.2 2.2 -0.3
v 0.2 2.3 -0.3
v 0.3 2.1 -0.3
v 0.3 2.2 -0.3
v 0.4 2.1 -0.3
v 0.4 2.2 -0.3
v 0.4 2.3 -0.3
v 0.5 2.2 -0.3
v 0.5 2.3 -0.3
v 0.3 2.2 -0.4
v 0.3 2.3 -0.4
v 0.4 2.2 -0.4
v 0.4 2.3 -0.4
v 0.5 2.2 -0.4
v 0.5 2.3 -0.4
v 0.6 2.2 -0.4
v 0.6 2.3 -0.4
v 0.3 2.1 -0.6
v 0.3 2.2 -0.6
v 0.4 2.1 -0.6
v 0.4 2.2 -0.6
v 0.6 2.2 -0.6
v 0.6 2.3 -0.6
v 0.7 2.2 -0.6
v 0.7 2.3 -0.6
v 0 2 -0.8
v 0 2.1 -0.8
v 0 2.2 -0.8
v 0.1 2.1 -0.8
v 0.1 2.2 -0.8
v 0.2 2.2 -0.8
v 0.2 2.3 -0.8
v 0.3 2.1 -0.8
v 0.3 2.2 -0.8
v 0.5 2.1 -0.8
v 0.5 2.2 -0.8
v 0.7 2.1 -0.8
v 0.7 2.2 -0.8
v 0.8 2 -0.8
v 0.8 2.1 -0.8
v 0.8 2.2 -0.8
v 0.8 2.3 -0.8
v 0 2 0
v 0.8 2 0
v 0.3 2 -0.1
v 0.4 2 -0.1
v 0.3 2 -0.2
v 0.4 2 -0.2
v 0.5 2 -0.2
v 0.7 2 -0.2
v 0.3 2 -0.3
v 0.4 2 -0.3
v 0.5 2 -0.3
v 0.6 2 -0.3
v 0.7 2 -0.3
v 0.3 2 -0.4
v 0.4 2 -0.4
v 0.5 2 -0.4
v 0.6 2 -0.4
v 0.7 2 -0.4
v 0.3 2 -0.6
v 0.4 2 -0.6
v 0.7 2 -0.6
v 0.3 2 -0.7
v 0.4 2 -0.7
v 0 2 -0.8
v 0.8 2 -0.8
v 0.3 2.2 -0.1
v 0.4 2.2 -0.1
v 0.3 2.2 -0.2
v 0.4 2.2 -0.2
v 0.5 2.2 -0.2
v 0.3 2.2 -0.3
v 0.4 2.2 -0.3
v 0.5 2.2 -0.3
v 0.6 2.2 -0.3
v 0.3 2.2 -0.4
v 0.4 2.2 -0.4
v 0.5 2.2 -0.4
v 0.6 2.2 -0.4
v 0.3 2.1 -0.1
v 0.4 2.1 -0.1
v 0.3 2.1 -0.2
v 0.4 2.1 -0.2
v 0.5 2.1 -0.2
v 0.6 2.1 -0.2
v 0.3 2.1 -0.3
v 0.4 2.1 -0.3
v 0.5 2.1 -0.3
v 0.6 2.1 -0.3
v 0.3 2.1 -0.4
v 0.4 2.1 -0.4
v 0.5 2.1 -0.4
v 0.6 2.1 -0.4
v 0.3 2.1 -0.5
v 0.4 2.1 -0.5
v 0.3 2.1 -0.6
v 0.4 2.1 -0.6
v 0.5 2.1 -0.6
v 0.3 2.1 -0.7
v 0.4 2.1 -0.7
v 0.1 2.2 0
v 0.3 2.2 0
v 0.5 2.2 0
v 0.7 2.2 0
v 0.8 2.2 0
v 0 2.2 -0.1
v 0.1 2.2 -0.1
v 0.2 2.2 -0.1
v 0.3 2.2 -0.1
v 0.4 2.2 -0.1
v 0.5 2.2 -0.1
v 0.7 2.2 -0.1
v 0.8 2.2 -0.1
v 0.2 2.2 -0.2
v 0.3 2.2 -0.2
v 0.4 2.2 -0.2
v 0.5 2.2 -0.2
v 0.6 2.2 -0.2
v 0.7 2.2 -0.2
v 0.8 2.2 -0.2
v 0 2.2 -0.3
v 0.1 2.2 -0.3
v 0.2 2.2 -0.3
v 0.3 2.2 -0.3
v 0.4 2.2 -0.3
v 0.6 2.2 -0.3
v 0.1 2.2 -0.4
v 0.2 2.2 -0.4
v 0.3 2.2 -0.4
v 0.5 2.2 -0.4
v 0.6 2.2 -0.4
v 0 2.2 -0.5
v 0.1 2.2 -0.5
v 0.2 2.2 -0.5
v 0.3 2.2 -0.5
v 0.4 2.2 -0.5
v 0.6 2.2 -0.5
v 0.7 2.2 -0.5
v 0.1 2.2 -0.6
v 0.2 2.2 -0.6
v 0.3 2.2 -0.6
v 0.4 2.2 -0.6
v 0.5 2.2 -0.6
v 0.6 2.2 -0.6
v 0.7 2.2 -0.6
v 0 2.2 -0.7
v 0.1 2.2 -0.7
v 0.2 2.2 -0.7
v 0.6 2.2 -0.7
v 0.7 2.2 -0.7
v 0 2.2 -0.8
v 0.1 2.2 -0.8
v 0.2 2.2 -0.8
v 0 2.3 0
v 0.1 2.3 0
v 0 2.3 -0.1
v 0.1 2.3 -0.1
v 0.2 2.3 -0.1
v 0.3 2.3 -0.1
v 0.4 2.3 -0.1
v 0.5 2.3 -0.1
v 0.7 2.3 -0.1
v 0.3 2.3 -0.2
v 0.4 2.3 -0.2
v 0.5 2.3 -0.2
v 0.7 2.3 -0.2
v 0.8 2.3 -0.2
v 0.1 2.3 -0.3
v 0.2 2.3 -0.3
v 0.3 2.3 -0.3
v 0.4 2.3 -0.3
v 0.5 2.3 -0.3
v 0.6 2.3 -0.3
v 0.3 2.3 -0.4
v 0.4 2.3 -0.4
v 0.5 2.3 -0.4
v 0.6 2.3 -0.4
v 0.6 2.3 -0.5
v 0.7 2.3 -0.5
v 0.2 2.3 -0.6
v 0.3 2.3 -0.6
v 0.4 2.3 -0.6
v 0.6 2.3 -0.6
v 0.7 2.3 -0.6
v 0.3 2.3 -0.7
v 0.4 2.3 -0.7
v 0.6 2.3 -0.7
v 0.7 2.3 -0.7
v 0.2 2.3 -0.8
v 0.8 2.3 -0.8

# faces
f 3/1/1 2/1/1 1/1/1
f 4/1/1 2/1/1 3/1/1
f 5/1/1 2/1/1 4/1/1
f 6/1/1 2/1/1 5/1/1
f 7/1/1 2/1/1 6/1/1
f 8/1/1 2/1/1 7/1/1
f 9/5/1 4/5/1 3/5/1
f 10/4/1 5/4/1 4/4/1
f 10/5/1 4/5/1 9/5/1
f 11/3/1 6/3/1 5/3/1
f 11/4/1 5/4/1 10/4/1
f 12/4/1 7/4/1 6/4/1
f 12/3/1 6/3/1 11/3/1
f 13/5/1 8/5/1 7/5/1
f 13/4/1 7/4/1 12/4/1
f 14/5/1 8/5/1 13/5/1
f 15/6/1 10/6/1 9/6/1
f 16/6/1 10/6/1 15/6/1
f 19/4/1 18/4/1 17/4/1
f 20/4/1 18/4/1 19/4/1
f 24/6/1 22/6/1 21/6/1
f 24/6/1 23/6/1 22/6/1
f 25/6/1 23/6/1 24/6/1
f 30/6/1 27/6/1 26/6/1
f 31/6/1 27/6/1 30/6/1
f 32/6/1 29/6/1 28/6/1
f 33/6/1 29/6/1 32/6/1
f 38/3/1 35/3/1 34/3/1
f 39/3/1 35/3/1 38/3/1
f 41/3/1 37/3/1 36/3/1
f 42/3/1 37/3/1 41/3/1
f 43/6/1 40/6/1 39/6/1
f 44/6/1 40/6/1 43/6/1
f 45/6/1 42/6/1 41/6/1
f 46/6/1 42/6/1 45/6/1
f 52/6/1 48/6/1 47/6/1
f 53/6/1 48/6/1 52/6/1
f 54/6/1 50/6/1 49/6/1
f 55/6/1 50/6/1 54/6/1
f 56/6/1 52/6/1 51/6/1
f 57/6/1 52/6/1 56/6/1
f 61/6/1 59/6/1 58/6/1
f 61/6/1 60/6/1 59/6/1
f 62/6/1 60/6/1 61/6/1
f 63/6/1 60/6/1 62/6/1
f 66/6/1 65/6/1 64/6/1
f 67/6/1 65/6/1 66/6/1
f 72/6/1 69/6/1 68/6/1
f 73/6/1 69/6/1 72/6/1
f 74/6/1 71/6/1 70/6/1
f 75/6/1 71/6/1 74/6/1
f 76/6/2 77/6/2 78/6/2
f 78/6/2 77/6/2 79/6/2
f 80/4/2 81/4/2 83/4/2
f 81/4/2 82/4/2 83/4/2
f 83/4/2 82/4/2 84/4/2
f 85/4/2 86/4/2 92/4/2
f 92/4/2 86/4/2 93/4/2
f 87/6/2 88/6/2 94/6/2
f 88/3/2 89/3/2 95/3/2
f 94/6/2 88/6/2 95/6/2
f 95/3/2 89/3/2 96/3/2
f 90/3/2 91/3/2 97/3/2
f 97/3/2 91/3/2 98/3/2
f 97/6/2 98/6/2 99/6/2
f 99/6/2 98/6/2 100/6/2
f 101/3/2 102/3/2 106/3/2
f 106/3/2 102/3/2 107/3/2
f 103/6/2 104/6/2 109/6/2
f 109/6/2 104/6/2 110/6/2
f 105/6/2 106/6/2 111/6/2
f 111/6/2 106/6/2 112/6/2
f 107/6/2 108/6/2 113/6/2
f 113/6/2 108/6/2 114/6/2
f 115/6/2 116/6/2 117/6/2
f 117/6/2 116/6/2 118/6/2
f 119/6/2 120/6/2 123/6/2
f 123/6/2 120/6/2 124/6/2
f 121/6/2 122/6/2 125/6/2
f 125/6/2 122/6/2 126/6/2
f 127/6/2 128/6/2 129/6/2
f 129/6/2 128/6/2 130/6/2
f 131/1/2 132/1/2 133/1/2
f 133/1/2 132/1/2 134/1/2
f 134/1/2 132/1/2 135/1/2
f 135/1/2 132/1/2 136/1/2
f 136/1/2 132/1/2 137/1/2
f 137/1/2 132/1/2 138/1/2
f 133/5/2 134/5/2 139/5/2
f 134/4/2 135/4/2 140/4/2
f 139/5/2 134/5/2 140/5/2
f 140/4/2 135/4/2 141/4/2
f 135/3/2 136/3/2 142/3/2
f 141/4/2 135/4/2 142/4/2
f 136/4/2 137/4/2 143/4/2
f 142/3/2 136/3/2 143/3/2
f 137/5/2 138/5/2 144/5/2
f 143/4/2 137/4/2 144/4/2
f 144/5/2 138/5/2 145/5/2
f 141/6/2 142/6/2 146/6/2
f 144/6/2 145/6/2 146/6/2
f 143/6/2 144/6/2 146/6/2
f 142/6/2 143/6/2 146/6/2
f 146/6/2 145/6/2 147/6/2
f 152/1/3 149/1/3 148/1/3
f 152/5/3 150/5/3 149/5/3
f 153/6/3 151/6/3 150/6/3
f 153/5/3 150/5/3 152/5/3
f 154/6/3 151/6/3 153/6/3
f 155/1/3 152/1/3 148/1/3
f 155/4/3 153/4/3 152/4/3
f 156/4/3 153/4/3 155/4/3
f 157/1/3 155/1/3 148/1/3
f 157/3/3 156/3/3 155/3/3
f 158/3/3 156/3/3 157/3/3
f 159/1/3 157/1/3 148/1/3
f 159/4/3 158/4/3 157/4/3
f 160/4/3 158/4/3 159/4/3
f 161/1/3 159/1/3 148/1/3
f 162/5/3 160/5/3 159/5/3
f 162/1/3 159/1/3 161/1/3
f 163/5/3 160/5/3 162/5/3
f 166/4/3 165/4/3 164/4/3
f 167/4/3 165/4/3 166/4/3
f 170/6/3 169/6/3 168/6/3
f 171/6/3 169/6/3 170/6/3
f 174/6/3 173/6/3 172/6/3
f 175/6/3 173/6/3 174/6/3
f 178/3/3 177/3/3 176/3/3
f 179/3/3 177/3/3 178/3/3
f 181/6/3 180/6/3 179/6/3
f 182/6/3 180/6/3 181/6/3
f 185/6/3 184/6/3 183/6/3
f 186/6/3 184/6/3 185/6/3
f 189/6/3 188/6/3 187/6/3
f 190/6/3 188/6/3 189/6/3
f 193/6/3 192/6/3 191/6/3
f 194/6/3 192/6/3 193/6/3
f 197/6/3 196/6/3 195/6/3
f 198/6/3 196/6/3 197/6/3
f 201/6/3 200/6/3 199/6/3
f 202/6/3 200/6/3 201/6/3
f 205/6/3 204/6/3 203/6/3
f 206/6/3 204/6/3 205/6/3
f 209/6/3 208/6/3 207/6/3
f 210/6/3 208/6/3 209/6/3
f 214/3/3 212/3/3 211/3/3
f 215/6/3 213/6/3 212/6/3
f 215/3/3 212/3/3 214/3/3
f 216/6/3 213/6/3 215/6/3
f 217/6/3 213/6/3 216/6/3
f 221/3/3 219/3/3 218/3/3
f 222/6/3 220/6/3 219/6/3
f 222/3/3 219/3/3 221/3/3
f 223/6/3 220/6/3 222/6/3
f 226/6/3 225/6/3 224/6/3
f 227/6/3 225/6/3 226/6/3
f 228/6/4 229/6/4 230/6/4
f 230/6/4 229/6/4 231/6/4
f 232/3/4 233/3/4 234/3/4
f 234/3/4 233/3/4 235/3/4
f 236/6/4 237/6/4 239/6/4
f 239/6/4 237/6/4 240/6/4
f 238/3/4 239/3/4 241/3/4
f 241/3/4 239/3/4 242/3/4
f 241/3/4 242/3/4 244/3/4
f 242/6/4 243/6/4 245/6/4
f 244/3/4 242/3/4 245/3/4
f 245/6/4 243/6/4 246/6/4
f 246/6/4 243/6/4 247/6/4
f 248/4/4 249/4/4 250/4/4
f 250/4/4 249/4/4 251/4/4
f 252/3/4 253/3/4 254/3/4
f 254/3/4 253/3/4 255/3/4
f 255/6/4 256/6/4 257/6/4
f 257/6/4 256/6/4 258/6/4
f 259/6/4 260/6/4 261/6/4
f 261/6/4 260/6/4 262/6/4
f 263/6/4 264/6/4 265/6/4
f 265/6/4 264/6/4 266/6/4
f 267/6/4 268/6/4 269/6/4
f 269/6/4 268/6/4 270/6/4
f 271/6/4 272/6/4 273/6/4
f 273/6/4 272/6/4 274/6/4
f 275/1/4 276/1/4 278/1/4
f 276/5/4 277/5/4 278/5/4
f 278/5/4 277/5/4 279/5/4
f 278/4/4 279/4/4 280/4/4
f 275/1/4 278/1/4 282/1/4
f 278/4/4 280/4/4 282/4/4
f 280/6/4 281/6/4 283/6/4
f 282/4/4 280/4/4 283/4/4
f 275/1/4 282/1/4 284/1/4
f 282/3/4 283/3/4 284/3/4
f 283/6/4 281/6/4 285/6/4
f 284/3/4 283/3/4 285/3/4
f 275/1/4 284/1/4 286/1/4
f 284/4/4 285/4/4 286/4/4
f 285/6/4 281/6/4 287/6/4
f 286/4/4 285/4/4 287/4/4
f 275/1/4 286/1/4 288/1/4
f 286/5/4 287/5/4 289/5/4
f 288/1/4 286/1/4 289/1/4
f 287/6/4 281/6/4 290/6/4
f 289/5/4 287/5/4 290/5/4
f 290/6/4 281/6/4 291/6/4
f 294/1/5 293/1/5 292/1/5
f 295/1/5 293/1/5 294/1/5
f 296/1/5 294/1/5 292/1/5
f 296/2/5 295/2/5 294/2/5
f 297/1/5 293/1/5 295/1/5
f 297/2/5 295/2/5 296/2/5
f 298/1/5 293/1/5 297/1/5
f 299/1/5 293/1/5 298/1/5
f 300/1/5 296/1/5 292/1/5
f 300/1/5 297/1/5 296/1/5
f 301/4/5 298/4/5 297/4/5
f 301/1/5 297/1/5 300/1/5
f 302/6/5 299/6/5 298/6/5
f 302/4/5 298/4/5 301/4/5
f 303/6/5 299/6/5 302/6/5
f 304/1/5 293/1/5 299/1/5
f 304/6/5 299/6/5 303/6/5
f 305/2/5 301/2/5 300/2/5
f 305/1/5 300/1/5 292/1/5
f 306/6/5 302/6/5 301/6/5
f 306/2/5 301/2/5 305/2/5
f 307/4/5 303/4/5 302/4/5
f 307/6/5 302/6/5 306/6/5
f 308/1/5 304/1/5 303/1/5
f 308/4/5 303/4/5 307/4/5
f 309/1/5 293/1/5 304/1/5
f 309/1/5 304/1/5 308/1/5
f 310/6/5 306/6/5 305/6/5
f 310/6/5 308/6/5 307/6/5
f 310/6/5 309/6/5 308/6/5
f 310/1/5 305/1/5 292/1/5
f 310/6/5 307/6/5 306/6/5
f 311/6/5 309/6/5 310/6/5
f 312/1/5 293/1/5 309/1/5
f 312/6/5 309/6/5 311/6/5
f 313/4/5 311/4/5 310/4/5
f 313/1/5 310/1/5 292/1/5
f 314/1/5 312/1/5 311/1/5
f 314/4/5 311/4/5 313/4/5
f 315/1/5 313/1/5 292/1/5
f 315/1/5 314/1/5 313/1/5
f 316/1/5 293/1/5 312/1/5
f 316/1/5 314/1/5 315/1/5
f 316/1/5 312/1/5 314/1/5
f 319/6/5 318/6/5 317/6/5
f 320/6/5 318/6/5 319/6/5
f 323/6/5 321/6/5 320/6/5
f 324/6/5 321/6/5 323/6/5
f 326/6/5 323/6/5 322/6/5
f 327/6/5 323/6/5 326/6/5
f 328/6/5 325/6/5 324/6/5
f 329/6/5 325/6/5 328/6/5
f 330/2/6 331/2/6 332/2/6
f 332/2/6 331/2/6 333/2/6
f 333/4/6 334/4/6 337/4/6
f 334/6/6 335/6/6 338/6/6
f 337/4/6 334/4/6 338/4/6
f 338/6/6 335/6/6 339/6/6
f 336/2/6 337/2/6 340/2/6
f 337/6/6 338/6/6 341/6/6
f 340/2/6 337/2/6 341/2/6
f 338/4/6 339/4/6 342/4/6
f 341/6/6 338/6/6 342/6/6
f 342/4/6 339/4/6 343/4/6
f 340/6/6 341/6/6 344/6/6
f 341/6/6 342/6/6 344/6/6
f 344/6/6 342/6/6 345/6/6
f 345/6/6 342/6/6 347/6/6
f 347/6/6 342/6/6 348/6/6
f 346/4/6 347/4/6 349/4/6
f 349/4/6 347/4/6 350/4/6
f 351/4/6 352/4/6 357/4/6
f 357/4/6 352/4/6 358/4/6
f 352/3/6 353/3/6 359/3/6
f 358/4/6 352/4/6 359/4/6
f 359/3/6 353/3/6 360/3/6
f 353/4/6 354/4/6 361/4/6
f 360/3/6 353/3/6 361/3/6
f 354/5/6 355/5/6 362/5/6
f 361/4/6 354/4/6 362/4/6
f 362/5/6 355/5/6 363/5/6
f 358/4/6 359/4/6 364/4/6
f 364/4/6 359/4/6 365/4/6
f 360/3/6 361/3/6 366/3/6
f 366/3/6 361/3/6 367/3/6
f 362/4/6 363/4/6 369/4/6
f 369/4/6 363/4/6 370/4/6
f 356/4/6 357/4/6 371/4/6
f 371/4/6 357/4/6 372/4/6
f 364/3/6 365/3/6 373/3/6
f 365/3/6 366/3/6 373/3/6
f 373/3/6 366/3/6 374/3/6
f 374/3/6 366/3/6 375/3/6
f 368/6/6 369/6/6 376/6/6
f 371/3/6 372/3/6 377/3/6
f 372/6/6 373/6/6 377/6/6
f 373/6/6 374/6/6 377/6/6
f 377/6/6 374/6/6 378/6/6
f 378/6/6 374/6/6 379/6/6
f 376/6/6 369/6/6 381/6/6
f 371/3/6 377/3/6 382/3/6
f 377/5/6 378/5/6 383/5/6
f 382/3/6 377/3/6 383/3/6
f 378/3/6 379/3/6 384/3/6
f 383/5/6 378/5/6 384/5/6
f 384/3/6 379/3/6 385/3/6
f 380/6/6 381/6/6 387/6/6
f 381/6/6 369/6/6 387/6/6
f 387/6/6 369/6/6 388/6/6
f 382/4/6 383/4/6 389/4/6
f 383/5/6 384/5/6 389/5/6
f 384/4/6 385/4/6 390/4/6
f 389/5/6 384/5/6 390/5/6
f 385/6/6 386/6/6 391/6/6
f 390/4/6 385/4/6 391/4/6
f 391/6/6 386/6/6 392/6/6
f 380/6/6 387/6/6 393/6/6
f 393/6/6 387/6/6 394/6/6
f 382/4/6 389/4/6 396/4/6
f 389/6/6 390/6/6 397/6/6
f 396/4/6 389/4/6 397/4/6
f 397/6/6 390/6/6 398/6/6
f 394/5/6 395/5/6 399/5/6
f 399/5/6 395/5/6 400/5/6
f 396/5/6 397/5/6 401/5/6
f 397/4/6 398/4/6 402/4/6
f 401/5/6 397/5/6 402/5/6
f 402/4/6 398/4/6 403/4/6
f 404/6/6 405/6/6 406/6/6
f 406/6/6 405/6/6 407/6/6
f 409/6/6 410/6/6 413/6/6
f 413/6/6 410/6/6 414/6/6
f 411/6/6 412/6/6 415/6/6
f 415/6/6 412/6/6 416/6/6
f 407/4/6 408/4/6 418/4/6
f 418/4/6 408/4/6 419/4/6
f 414/6/6 415/6/6 421/6/6
f 421/6/6 415/6/6 422/6/6
f 420/6/6 421/6/6 424/6/6
f 424/6/6 421/6/6 425/6/6
f 422/6/6 423/6/6 426/6/6
f 426/6/6 423/6/6 427/6/6
f 416/6/6 417/6/6 429/6/6
f 428/6/6 429/6/6 433/6/6
f 429/6/6 417/6/6 434/6/6
f 433/6/6 429/6/6 434/6/6
f 430/6/6 431/6/6 435/6/6
f 432/6/6 433/6/6 436/6/6
f 436/6/6 433/6/6 437/6/6
f 434/6/6 417/6/6 438/6/6
f 430/6/6 435/6/6 439/6/6
f 437/6/6 438/6/6 439/6/6
f 436/6/6 437/6/6 439/6/6
f 435/6/6 436/6/6 439/6/6
f 438/6/6 417/6/6 440/6/6
f 439/6/6 438/6/6 440/6/6
