# MagicaVoxel @ Ephtracy

# group
o 

# material
mtllib Lava1.mtl
usemtl palette

# normals
vn -1 0 0
vn 1 0 0
vn 0 0 1
vn 0 0 -1
vn 0 -1 0
vn 0 1 0

# texcoords
vt 0.0175781 0.5
vt 0.0683594 0.5
vt 0.0917969 0.5
vt 0.279297 0.5
vt 0.865234 0.5
vt 0.873047 0.5

# verts
v 0 2 0
v 0 2 -0.8
v 0 2.1 0
v 0 2.1 -0.1
v 0 2.1 -0.3
v 0 2.1 -0.5
v 0 2.1 -0.7
v 0 2.1 -0.8
v 0 2.2 0
v 0 2.2 -0.1
v 0 2.2 -0.3
v 0 2.2 -0.5
v 0 2.2 -0.6
v 0 2.2 -0.7
v 0 2.2 -0.8
v 0 2.3 0
v 0 2.3 -0.6
v 0.1 2.3 -0.2
v 0.1 2.3 -0.3
v 0.1 2.4 -0.2
v 0.1 2.4 -0.3
v 0.4 2.1 -0.1
v 0.4 2.1 -0.2
v 0.4 2.1 -0.6
v 0.4 2.1 -0.7
v 0.4 2.2 -0.1
v 0.4 2.2 -0.2
v 0.4 2.2 -0.6
v 0.4 2.2 -0.7
v 0.5 2.1 -0.4
v 0.5 2.1 -0.6
v 0.5 2.2 -0.4
v 0.5 2.2 -0.6
v 0.6 2.1 -0.2
v 0.6 2.1 -0.3
v 0.6 2.1 -0.4
v 0.6 2.2 -0.2
v 0.6 2.2 -0.4
v 0.6 2.2 -0.5
v 0.6 2.2 -0.6
v 0.6 2.2 -0.7
v 0.6 2.2 -0.8
v 0.6 2.3 -0.5
v 0.6 2.3 -0.8
v 0.7 2.2 -0.2
v 0.7 2.2 -0.4
v 0.7 2.2 -0.5
v 0.7 2.3 -0.2
v 0.7 2.3 -0.5
v 0.1 2.2 0
v 0.1 2.2 -0.1
v 0.1 2.2 -0.3
v 0.1 2.2 -0.4
v 0.1 2.2 -0.5
v 0.1 2.2 -0.6
v 0.1 2.3 0
v 0.1 2.3 -0.1
v 0.1 2.3 -0.3
v 0.1 2.3 -0.4
v 0.1 2.3 -0.5
v 0.1 2.3 -0.6
v 0.2 2.2 -0.1
v 0.2 2.2 -0.2
v 0.2 2.2 -0.3
v 0.2 2.2 -0.4
v 0.2 2.2 -0.5
v 0.2 2.3 -0.1
v 0.2 2.3 -0.2
v 0.2 2.3 -0.4
v 0.2 2.3 -0.5
v 0.2 2.4 -0.2
v 0.2 2.4 -0.3
v 0.3 2.1 -0.1
v 0.3 2.1 -0.2
v 0.3 2.1 -0.3
v 0.3 2.1 -0.4
v 0.3 2.1 -0.5
v 0.3 2.1 -0.6
v 0.3 2.1 -0.7
v 0.3 2.2 -0.1
v 0.3 2.2 -0.2
v 0.3 2.2 -0.3
v 0.3 2.2 -0.5
v 0.3 2.2 -0.6
v 0.3 2.2 -0.7
v 0.4 2.1 -0.2
v 0.4 2.1 -0.3
v 0.4 2.1 -0.5
v 0.4 2.1 -0.6
v 0.4 2.2 -0.2
v 0.4 2.2 -0.3
v 0.4 2.2 -0.5
v 0.4 2.2 -0.6
v 0.8 2 0
v 0.8 2 -0.8
v 0.8 2.1 0
v 0.8 2.1 -0.1
v 0.8 2.1 -0.3
v 0.8 2.1 -0.5
v 0.8 2.1 -0.7
v 0.8 2.1 -0.8
v 0.8 2.2 0
v 0.8 2.2 -0.1
v 0.8 2.2 -0.2
v 0.8 2.2 -0.3
v 0.8 2.2 -0.5
v 0.8 2.2 -0.7
v 0.8 2.2 -0.8
v 0.8 2.3 -0.2
v 0.8 2.3 -0.8
v 0 2 0
v 0 2.1 0
v 0 2.2 0
v 0 2.3 0
v 0.1 2.1 0
v 0.1 2.2 0
v 0.1 2.3 0
v 0.3 2.1 0
v 0.3 2.2 0
v 0.5 2.1 0
v 0.5 2.2 0
v 0.7 2.1 0
v 0.7 2.2 0
v 0.8 2 0
v 0.8 2.1 0
v 0.8 2.2 0
v 0.1 2.2 -0.1
v 0.1 2.3 -0.1
v 0.2 2.2 -0.1
v 0.2 2.3 -0.1
v 0.1 2.3 -0.2
v 0.1 2.4 -0.2
v 0.2 2.3 -0.2
v 0.2 2.4 -0.2
v 0.3 2.1 -0.2
v 0.3 2.2 -0.2
v 0.4 2.1 -0.2
v 0.4 2.2 -0.2
v 0.7 2.2 -0.2
v 0.7 2.3 -0.2
v 0.8 2.2 -0.2
v 0.8 2.3 -0.2
v 0.1 2.2 -0.4
v 0.1 2.3 -0.4
v 0.2 2.2 -0.4
v 0.2 2.3 -0.4
v 0.5 2.1 -0.4
v 0.5 2.2 -0.4
v 0.6 2.1 -0.4
v 0.6 2.2 -0.4
v 0.3 2.1 -0.5
v 0.3 2.2 -0.5
v 0.4 2.1 -0.5
v 0.4 2.2 -0.5
v 0.6 2.2 -0.5
v 0.6 2.3 -0.5
v 0.7 2.2 -0.5
v 0.7 2.3 -0.5
v 0.4 2.1 -0.6
v 0.4 2.2 -0.6
v 0.5 2.1 -0.6
v 0.5 2.2 -0.6
v 0.3 2.1 -0.7
v 0.3 2.2 -0.7
v 0.4 2.1 -0.7
v 0.4 2.2 -0.7
v 0.3 2.1 -0.1
v 0.3 2.2 -0.1
v 0.4 2.1 -0.1
v 0.4 2.2 -0.1
v 0.4 2.1 -0.2
v 0.4 2.2 -0.2
v 0.5 2.1 -0.2
v 0.6 2.1 -0.2
v 0.6 2.2 -0.2
v 0.1 2.2 -0.3
v 0.1 2.3 -0.3
v 0.1 2.4 -0.3
v 0.2 2.2 -0.3
v 0.2 2.4 -0.3
v 0.3 2.1 -0.3
v 0.3 2.2 -0.3
v 0.4 2.1 -0.3
v 0.4 2.2 -0.3
v 0.1 2.2 -0.5
v 0.1 2.3 -0.5
v 0.2 2.2 -0.5
v 0.2 2.3 -0.5
v 0 2.2 -0.6
v 0 2.3 -0.6
v 0.1 2.2 -0.6
v 0.1 2.3 -0.6
v 0.3 2.1 -0.6
v 0.3 2.2 -0.6
v 0.4 2.1 -0.6
v 0.4 2.2 -0.6
v 0 2 -0.8
v 0 2.1 -0.8
v 0 2.2 -0.8
v 0.1 2.1 -0.8
v 0.1 2.2 -0.8
v 0.3 2.1 -0.8
v 0.3 2.2 -0.8
v 0.5 2.1 -0.8
v 0.5 2.2 -0.8
v 0.6 2.2 -0.8
v 0.6 2.3 -0.8
v 0.7 2.1 -0.8
v 0.7 2.2 -0.8
v 0.8 2 -0.8
v 0.8 2.1 -0.8
v 0.8 2.2 -0.8
v 0.8 2.3 -0.8
v 0 2 0
v 0.8 2 0
v 0.3 2 -0.1
v 0.4 2 -0.1
v 0.3 2 -0.2
v 0.4 2 -0.2
v 0.5 2 -0.2
v 0.6 2 -0.2
v 0.3 2 -0.3
v 0.4 2 -0.3
v 0.5 2 -0.3
v 0.6 2 -0.3
v 0.3 2 -0.4
v 0.4 2 -0.4
v 0.5 2 -0.4
v 0.6 2 -0.4
v 0.3 2 -0.5
v 0.4 2 -0.5
v 0.3 2 -0.6
v 0.4 2 -0.6
v 0.5 2 -0.6
v 0.3 2 -0.7
v 0.4 2 -0.7
v 0 2 -0.8
v 0.8 2 -0.8
v 0.3 2.1 -0.1
v 0.4 2.1 -0.1
v 0.3 2.1 -0.2
v 0.4 2.1 -0.2
v 0.5 2.1 -0.2
v 0.6 2.1 -0.2
v 0.3 2.1 -0.3
v 0.4 2.1 -0.3
v 0.5 2.1 -0.3
v 0.6 2.1 -0.3
v 0.3 2.1 -0.4
v 0.4 2.1 -0.4
v 0.5 2.1 -0.4
v 0.6 2.1 -0.4
v 0.3 2.1 -0.5
v 0.4 2.1 -0.5
v 0.3 2.1 -0.6
v 0.4 2.1 -0.6
v 0.5 2.1 -0.6
v 0.3 2.1 -0.7
v 0.4 2.1 -0.7
v 0.1 2.2 0
v 0.3 2.2 0
v 0.5 2.2 0
v 0.7 2.2 0
v 0.8 2.2 0
v 0.1 2.2 -0.1
v 0.2 2.2 -0.1
v 0.3 2.2 -0.1
v 0.4 2.2 -0.1
v 0.5 2.2 -0.1
v 0.6 2.2 -0.1
v 0.7 2.2 -0.1
v 0.8 2.2 -0.1
v 0.2 2.2 -0.2
v 0.3 2.2 -0.2
v 0.4 2.2 -0.2
v 0.6 2.2 -0.2
v 0.7 2.2 -0.2
v 0.8 2.2 -0.2
v 0.1 2.2 -0.3
v 0.2 2.2 -0.3
v 0.3 2.2 -0.3
v 0.4 2.2 -0.3
v 0.1 2.2 -0.4
v 0.2 2.2 -0.4
v 0.5 2.2 -0.4
v 0.6 2.2 -0.4
v 0.7 2.2 -0.4
v 0.1 2.2 -0.5
v 0.2 2.2 -0.5
v 0.3 2.2 -0.5
v 0.4 2.2 -0.5
v 0.6 2.2 -0.5
v 0.7 2.2 -0.5
v 0 2.2 -0.6
v 0.1 2.2 -0.6
v 0.2 2.2 -0.6
v 0.3 2.2 -0.6
v 0.4 2.2 -0.6
v 0.5 2.2 -0.6
v 0.6 2.2 -0.6
v 0 2.2 -0.7
v 0.1 2.2 -0.7
v 0.3 2.2 -0.7
v 0.4 2.2 -0.7
v 0.5 2.2 -0.7
v 0.6 2.2 -0.7
v 0 2.2 -0.8
v 0.1 2.2 -0.8
v 0.3 2.2 -0.8
v 0.5 2.2 -0.8
v 0.6 2.2 -0.8
v 0 2.3 0
v 0.1 2.3 0
v 0.1 2.3 -0.1
v 0.2 2.3 -0.1
v 0.1 2.3 -0.2
v 0.2 2.3 -0.2
v 0.7 2.3 -0.2
v 0.8 2.3 -0.2
v 0.1 2.3 -0.3
v 0.1 2.3 -0.4
v 0.2 2.3 -0.4
v 0.1 2.3 -0.5
v 0.2 2.3 -0.5
v 0.6 2.3 -0.5
v 0.7 2.3 -0.5
v 0 2.3 -0.6
v 0.1 2.3 -0.6
v 0.6 2.3 -0.8
v 0.8 2.3 -0.8
v 0.1 2.4 -0.2
v 0.2 2.4 -0.2
v 0.1 2.4 -0.3
v 0.2 2.4 -0.3

# faces
f 3/1/1 2/1/1 1/1/1
f 4/1/1 2/1/1 3/1/1
f 5/1/1 2/1/1 4/1/1
f 6/1/1 2/1/1 5/1/1
f 7/1/1 2/1/1 6/1/1
f 8/1/1 2/1/1 7/1/1
f 9/5/1 4/5/1 3/5/1
f 10/4/1 5/4/1 4/4/1
f 10/5/1 4/5/1 9/5/1
f 11/3/1 6/3/1 5/3/1
f 11/4/1 5/4/1 10/4/1
f 12/4/1 7/4/1 6/4/1
f 12/3/1 6/3/1 11/3/1
f 13/4/1 7/4/1 12/4/1
f 14/5/1 8/5/1 7/5/1
f 14/4/1 7/4/1 13/4/1
f 15/5/1 8/5/1 14/5/1
f 16/6/1 10/6/1 9/6/1
f 16/6/1 11/6/1 10/6/1
f 16/6/1 12/6/1 11/6/1
f 16/6/1 13/6/1 12/6/1
f 17/6/1 13/6/1 16/6/1
f 20/6/1 19/6/1 18/6/1
f 21/6/1 19/6/1 20/6/1
f 26/3/1 23/3/1 22/3/1
f 27/3/1 23/3/1 26/3/1
f 28/3/1 25/3/1 24/3/1
f 29/3/1 25/3/1 28/3/1
f 32/3/1 31/3/1 30/3/1
f 33/3/1 31/3/1 32/3/1
f 37/3/1 35/3/1 34/3/1
f 37/3/1 36/3/1 35/3/1
f 38/3/1 36/3/1 37/3/1
f 43/6/1 42/6/1 41/6/1
f 43/6/1 41/6/1 40/6/1
f 43/6/1 40/6/1 39/6/1
f 44/6/1 42/6/1 43/6/1
f 48/6/1 46/6/1 45/6/1
f 48/6/1 47/6/1 46/6/1
f 49/6/1 47/6/1 48/6/1
f 50/6/2 51/6/2 56/6/2
f 56/6/2 51/6/2 57/6/2
f 52/6/2 53/6/2 58/6/2
f 58/6/2 53/6/2 59/6/2
f 54/6/2 55/6/2 60/6/2
f 60/6/2 55/6/2 61/6/2
f 62/6/2 63/6/2 67/6/2
f 63/6/2 64/6/2 67/6/2
f 67/6/2 64/6/2 68/6/2
f 65/6/2 66/6/2 69/6/2
f 69/6/2 66/6/2 70/6/2
f 68/6/2 64/6/2 71/6/2
f 71/6/2 64/6/2 72/6/2
f 73/4/2 74/4/2 80/4/2
f 80/4/2 74/4/2 81/4/2
f 75/3/2 76/3/2 82/3/2
f 76/3/2 77/3/2 82/3/2
f 82/3/2 77/3/2 83/3/2
f 78/3/2 79/3/2 84/3/2
f 84/3/2 79/3/2 85/3/2
f 86/3/2 87/3/2 90/3/2
f 90/3/2 87/3/2 91/3/2
f 88/3/2 89/3/2 92/3/2
f 92/3/2 89/3/2 93/3/2
f 94/1/2 95/1/2 96/1/2
f 96/1/2 95/1/2 97/1/2
f 97/1/2 95/1/2 98/1/2
f 98/1/2 95/1/2 99/1/2
f 99/1/2 95/1/2 100/1/2
f 100/1/2 95/1/2 101/1/2
f 96/5/2 97/5/2 102/5/2
f 97/4/2 98/4/2 103/4/2
f 102/5/2 97/5/2 103/5/2
f 103/4/2 98/4/2 104/4/2
f 98/3/2 99/3/2 105/3/2
f 104/4/2 98/4/2 105/4/2
f 99/4/2 100/4/2 106/4/2
f 105/3/2 99/3/2 106/3/2
f 100/5/2 101/5/2 107/5/2
f 106/4/2 100/4/2 107/4/2
f 107/5/2 101/5/2 108/5/2
f 104/6/2 105/6/2 109/6/2
f 107/6/2 108/6/2 109/6/2
f 106/6/2 107/6/2 109/6/2
f 105/6/2 106/6/2 109/6/2
f 109/6/2 108/6/2 110/6/2
f 115/1/3 112/1/3 111/1/3
f 115/5/3 113/5/3 112/5/3
f 116/6/3 114/6/3 113/6/3
f 116/5/3 113/5/3 115/5/3
f 117/6/3 114/6/3 116/6/3
f 118/1/3 115/1/3 111/1/3
f 118/4/3 116/4/3 115/4/3
f 119/4/3 116/4/3 118/4/3
f 120/1/3 118/1/3 111/1/3
f 120/3/3 119/3/3 118/3/3
f 121/3/3 119/3/3 120/3/3
f 122/1/3 120/1/3 111/1/3
f 122/4/3 121/4/3 120/4/3
f 123/4/3 121/4/3 122/4/3
f 124/1/3 122/1/3 111/1/3
f 125/5/3 123/5/3 122/5/3
f 125/1/3 122/1/3 124/1/3
f 126/5/3 123/5/3 125/5/3
f 129/6/3 128/6/3 127/6/3
f 130/6/3 128/6/3 129/6/3
f 133/6/3 132/6/3 131/6/3
f 134/6/3 132/6/3 133/6/3
f 137/3/3 136/3/3 135/3/3
f 138/3/3 136/3/3 137/3/3
f 141/6/3 140/6/3 139/6/3
f 142/6/3 140/6/3 141/6/3
f 145/6/3 144/6/3 143/6/3
f 146/6/3 144/6/3 145/6/3
f 149/3/3 148/3/3 147/3/3
f 150/3/3 148/3/3 149/3/3
f 153/3/3 152/3/3 151/3/3
f 154/3/3 152/3/3 153/3/3
f 157/6/3 156/6/3 155/6/3
f 158/6/3 156/6/3 157/6/3
f 161/3/3 160/3/3 159/3/3
f 162/3/3 160/3/3 161/3/3
f 165/3/3 164/3/3 163/3/3
f 166/3/3 164/3/3 165/3/3
f 167/3/4 168/3/4 169/3/4
f 169/3/4 168/3/4 170/3/4
f 171/3/4 172/3/4 173/3/4
f 173/3/4 172/3/4 174/3/4
f 174/3/4 172/3/4 175/3/4
f 176/6/4 177/6/4 179/6/4
f 177/6/4 178/6/4 179/6/4
f 179/6/4 178/6/4 180/6/4
f 181/3/4 182/3/4 183/3/4
f 183/3/4 182/3/4 184/3/4
f 185/6/4 186/6/4 187/6/4
f 187/6/4 186/6/4 188/6/4
f 189/6/4 190/6/4 191/6/4
f 191/6/4 190/6/4 192/6/4
f 193/3/4 194/3/4 195/3/4
f 195/3/4 194/3/4 196/3/4
f 197/1/4 198/1/4 200/1/4
f 198/5/4 199/5/4 200/5/4
f 200/5/4 199/5/4 201/5/4
f 197/1/4 200/1/4 202/1/4
f 200/4/4 201/4/4 202/4/4
f 202/4/4 201/4/4 203/4/4
f 197/1/4 202/1/4 204/1/4
f 202/3/4 203/3/4 204/3/4
f 204/3/4 203/3/4 205/3/4
f 204/4/4 205/4/4 206/4/4
f 204/4/4 206/4/4 208/4/4
f 197/1/4 204/1/4 208/1/4
f 206/6/4 207/6/4 209/6/4
f 208/4/4 206/4/4 209/4/4
f 197/1/4 208/1/4 210/1/4
f 208/5/4 209/5/4 211/5/4
f 210/1/4 208/1/4 211/1/4
f 209/6/4 207/6/4 212/6/4
f 211/5/4 209/5/4 212/5/4
f 212/6/4 207/6/4 213/6/4
f 216/1/5 215/1/5 214/1/5
f 217/1/5 215/1/5 216/1/5
f 218/1/5 216/1/5 214/1/5
f 218/2/5 217/2/5 216/2/5
f 219/1/5 215/1/5 217/1/5
f 219/2/5 217/2/5 218/2/5
f 220/1/5 215/1/5 219/1/5
f 221/1/5 215/1/5 220/1/5
f 222/1/5 218/1/5 214/1/5
f 222/1/5 219/1/5 218/1/5
f 223/4/5 220/4/5 219/4/5
f 223/1/5 219/1/5 222/1/5
f 224/2/5 221/2/5 220/2/5
f 224/4/5 220/4/5 223/4/5
f 225/1/5 215/1/5 221/1/5
f 225/2/5 221/2/5 224/2/5
f 226/2/5 224/2/5 223/2/5
f 226/2/5 223/2/5 222/2/5
f 226/1/5 222/1/5 214/1/5
f 227/2/5 224/2/5 226/2/5
f 228/4/5 225/4/5 224/4/5
f 228/2/5 224/2/5 227/2/5
f 229/1/5 215/1/5 225/1/5
f 229/4/5 225/4/5 228/4/5
f 230/4/5 227/4/5 226/4/5
f 230/1/5 226/1/5 214/1/5
f 231/2/5 228/2/5 227/2/5
f 231/4/5 227/4/5 230/4/5
f 232/1/5 230/1/5 214/1/5
f 232/1/5 231/1/5 230/1/5
f 233/2/5 228/2/5 231/2/5
f 233/1/5 231/1/5 232/1/5
f 234/1/5 229/1/5 228/1/5
f 234/2/5 228/2/5 233/2/5
f 235/1/5 232/1/5 214/1/5
f 235/4/5 233/4/5 232/4/5
f 236/1/5 234/1/5 233/1/5
f 236/4/5 233/4/5 235/4/5
f 237/1/5 235/1/5 214/1/5
f 237/1/5 236/1/5 235/1/5
f 238/1/5 229/1/5 234/1/5
f 238/1/5 236/1/5 237/1/5
f 238/1/5 215/1/5 229/1/5
f 238/1/5 234/1/5 236/1/5
f 239/2/6 240/2/6 241/2/6
f 241/2/6 240/2/6 242/2/6
f 242/4/6 243/4/6 246/4/6
f 243/2/6 244/2/6 247/2/6
f 246/4/6 243/4/6 247/4/6
f 247/2/6 244/2/6 248/2/6
f 245/2/6 246/2/6 249/2/6
f 246/2/6 247/2/6 249/2/6
f 249/2/6 247/2/6 250/2/6
f 247/4/6 248/4/6 251/4/6
f 250/2/6 247/2/6 251/2/6
f 251/4/6 248/4/6 252/4/6
f 249/4/6 250/4/6 253/4/6
f 250/2/6 251/2/6 254/2/6
f 253/4/6 250/4/6 254/4/6
f 254/2/6 251/2/6 256/2/6
f 256/2/6 251/2/6 257/2/6
f 255/4/6 256/4/6 258/4/6
f 258/4/6 256/4/6 259/4/6
f 260/4/6 261/4/6 265/4/6
f 265/4/6 261/4/6 266/4/6
f 261/3/6 262/3/6 267/3/6
f 266/4/6 261/4/6 267/4/6
f 267/3/6 262/3/6 268/3/6
f 262/4/6 263/4/6 269/4/6
f 268/3/6 262/3/6 269/3/6
f 269/4/6 263/4/6 270/4/6
f 263/5/6 264/5/6 271/5/6
f 270/4/6 263/4/6 271/4/6
f 271/5/6 264/5/6 272/5/6
f 266/4/6 267/4/6 273/4/6
f 273/4/6 267/4/6 274/4/6
f 269/3/6 270/3/6 275/3/6
f 268/3/6 269/3/6 275/3/6
f 271/4/6 272/4/6 276/4/6
f 270/4/6 271/4/6 276/4/6
f 275/3/6 270/3/6 276/3/6
f 276/4/6 272/4/6 277/4/6
f 277/4/6 272/4/6 278/4/6
f 273/5/6 274/5/6 280/5/6
f 274/3/6 275/3/6 281/3/6
f 280/5/6 274/5/6 281/5/6
f 281/3/6 275/3/6 282/3/6
f 279/4/6 280/4/6 283/4/6
f 280/3/6 281/3/6 284/3/6
f 283/4/6 280/4/6 284/4/6
f 276/3/6 277/3/6 286/3/6
f 286/3/6 277/3/6 287/3/6
f 284/3/6 281/3/6 289/3/6
f 289/3/6 281/3/6 290/3/6
f 286/5/6 287/5/6 292/5/6
f 285/3/6 286/3/6 292/3/6
f 292/5/6 287/5/6 293/5/6
f 288/5/6 289/5/6 295/5/6
f 289/4/6 290/4/6 296/4/6
f 295/5/6 289/5/6 296/5/6
f 290/3/6 291/3/6 297/3/6
f 296/4/6 290/4/6 297/4/6
f 297/3/6 291/3/6 298/3/6
f 285/3/6 292/3/6 299/3/6
f 299/3/6 292/3/6 300/3/6
f 294/4/6 295/4/6 301/4/6
f 295/3/6 296/3/6 302/3/6
f 301/4/6 295/4/6 302/4/6
f 296/3/6 297/3/6 302/3/6
f 302/3/6 297/3/6 303/3/6
f 298/3/6 299/3/6 304/3/6
f 299/5/6 300/5/6 305/5/6
f 304/3/6 299/3/6 305/3/6
f 305/5/6 300/5/6 306/5/6
f 301/5/6 302/5/6 307/5/6
f 302/4/6 303/4/6 308/4/6
f 307/5/6 302/5/6 308/5/6
f 303/3/6 304/3/6 309/3/6
f 308/4/6 303/4/6 309/4/6
f 304/3/6 305/3/6 309/3/6
f 305/4/6 306/4/6 310/4/6
f 309/3/6 305/3/6 310/3/6
f 310/4/6 306/4/6 311/4/6
f 312/6/6 313/6/6 314/6/6
f 312/6/6 314/6/6 316/6/6
f 314/6/6 315/6/6 316/6/6
f 316/6/6 315/6/6 317/6/6
f 312/6/6 316/6/6 320/6/6
f 312/6/6 320/6/6 321/6/6
f 312/6/6 321/6/6 323/6/6
f 321/6/6 322/6/6 323/6/6
f 323/6/6 322/6/6 324/6/6
f 318/6/6 319/6/6 326/6/6
f 312/6/6 323/6/6 327/6/6
f 327/6/6 323/6/6 328/6/6
f 325/6/6 326/6/6 329/6/6
f 326/6/6 319/6/6 330/6/6
f 329/6/6 326/6/6 330/6/6
f 331/6/6 332/6/6 333/6/6
f 333/6/6 332/6/6 334/6/6
