# MagicaVoxel @ Ephtracy

# group
o 

# material
mtllib Grass1.mtl
usemtl palette

# normals
vn -1 0 0
vn 1 0 0
vn 0 0 1
vn 0 0 -1
vn 0 -1 0
vn 0 1 0

# texcoords
vt 0.767578 0.5
vt 0.794922 0.5

# verts
v 0 2 0
v 0 2 -0.8
v 0 2.1 0
v 0 2.1 -0.2
v 0 2.1 -0.3
v 0 2.1 -0.5
v 0 2.1 -0.6
v 0 2.1 -0.8
v 0 2.2 -0.2
v 0 2.2 -0.3
v 0 2.2 -0.5
v 0 2.2 -0.6
v 0.1 2.1 -0.1
v 0.1 2.1 -0.2
v 0.1 2.2 -0.2
v 0.1 2.3 -0.1
v 0.1 2.3 -0.2
v 0.2 2.1 0
v 0.2 2.1 -0.1
v 0.2 2.1 -0.3
v 0.2 2.1 -0.4
v 0.2 2.1 -0.7
v 0.2 2.1 -0.8
v 0.2 2.2 0
v 0.2 2.2 -0.1
v 0.2 2.2 -0.7
v 0.2 2.2 -0.8
v 0.2 2.3 -0.3
v 0.2 2.3 -0.4
v 0.3 2.1 -0.4
v 0.3 2.1 -0.6
v 0.3 2.2 -0.4
v 0.3 2.2 -0.5
v 0.3 2.3 -0.5
v 0.3 2.3 -0.6
v 0.4 2.1 -0.2
v 0.4 2.1 -0.3
v 0.4 2.2 -0.2
v 0.4 2.2 -0.3
v 0.5 2.1 0
v 0.5 2.1 -0.1
v 0.5 2.1 -0.7
v 0.5 2.1 -0.8
v 0.5 2.2 0
v 0.5 2.2 -0.1
v 0.5 2.2 -0.7
v 0.5 2.2 -0.8
v 0.6 2.1 -0.4
v 0.6 2.1 -0.6
v 0.6 2.2 -0.4
v 0.6 2.2 -0.6
v 0.7 2.1 -0.2
v 0.7 2.1 -0.3
v 0.7 2.2 -0.2
v 0.7 2.2 -0.3
v 0.1 2.1 -0.2
v 0.1 2.1 -0.3
v 0.1 2.1 -0.5
v 0.1 2.1 -0.6
v 0.1 2.2 -0.2
v 0.1 2.2 -0.3
v 0.1 2.2 -0.5
v 0.1 2.2 -0.6
v 0.2 2.1 -0.1
v 0.2 2.1 -0.2
v 0.2 2.2 -0.1
v 0.2 2.3 -0.1
v 0.2 2.3 -0.2
v 0.3 2.1 0
v 0.3 2.1 -0.1
v 0.3 2.1 -0.7
v 0.3 2.1 -0.8
v 0.3 2.2 0
v 0.3 2.2 -0.1
v 0.3 2.2 -0.3
v 0.3 2.2 -0.4
v 0.3 2.2 -0.7
v 0.3 2.2 -0.8
v 0.3 2.3 -0.3
v 0.3 2.3 -0.4
v 0.4 2.1 -0.3
v 0.4 2.1 -0.6
v 0.4 2.2 -0.3
v 0.4 2.2 -0.5
v 0.4 2.3 -0.5
v 0.4 2.3 -0.6
v 0.5 2.1 -0.2
v 0.5 2.1 -0.3
v 0.5 2.2 -0.2
v 0.5 2.2 -0.3
v 0.6 2.1 0
v 0.6 2.1 -0.1
v 0.6 2.1 -0.7
v 0.6 2.1 -0.8
v 0.6 2.2 0
v 0.6 2.2 -0.1
v 0.6 2.2 -0.7
v 0.6 2.2 -0.8
v 0.7 2.1 -0.4
v 0.7 2.1 -0.5
v 0.7 2.2 -0.4
v 0.7 2.2 -0.5
v 0.8 2 0
v 0.8 2 -0.8
v 0.8 2.1 0
v 0.8 2.1 -0.2
v 0.8 2.1 -0.3
v 0.8 2.1 -0.5
v 0.8 2.1 -0.6
v 0.8 2.1 -0.8
v 0.8 2.2 -0.2
v 0.8 2.2 -0.3
v 0.8 2.2 -0.5
v 0.8 2.2 -0.6
v 0 2 0
v 0 2.1 0
v 0.2 2.1 0
v 0.2 2.2 0
v 0.3 2.1 0
v 0.3 2.2 0
v 0.5 2.1 0
v 0.5 2.2 0
v 0.6 2.1 0
v 0.6 2.2 0
v 0.8 2 0
v 0.8 2.1 0
v 0.1 2.1 -0.1
v 0.1 2.3 -0.1
v 0.2 2.1 -0.1
v 0.2 2.2 -0.1
v 0.2 2.3 -0.1
v 0 2.1 -0.2
v 0 2.2 -0.2
v 0.1 2.1 -0.2
v 0.1 2.2 -0.2
v 0.4 2.1 -0.2
v 0.4 2.2 -0.2
v 0.5 2.1 -0.2
v 0.5 2.2 -0.2
v 0.7 2.1 -0.2
v 0.7 2.2 -0.2
v 0.8 2.1 -0.2
v 0.8 2.2 -0.2
v 0.2 2.1 -0.3
v 0.2 2.3 -0.3
v 0.3 2.2 -0.3
v 0.3 2.3 -0.3
v 0.4 2.1 -0.3
v 0.4 2.2 -0.3
v 0.6 2.1 -0.4
v 0.6 2.2 -0.4
v 0.7 2.1 -0.4
v 0.7 2.2 -0.4
v 0 2.1 -0.5
v 0 2.2 -0.5
v 0.1 2.1 -0.5
v 0.1 2.2 -0.5
v 0.3 2.2 -0.5
v 0.3 2.3 -0.5
v 0.4 2.2 -0.5
v 0.4 2.3 -0.5
v 0.7 2.1 -0.5
v 0.7 2.2 -0.5
v 0.8 2.1 -0.5
v 0.8 2.2 -0.5
v 0.2 2.1 -0.7
v 0.2 2.2 -0.7
v 0.3 2.1 -0.7
v 0.3 2.2 -0.7
v 0.5 2.1 -0.7
v 0.5 2.2 -0.7
v 0.6 2.1 -0.7
v 0.6 2.2 -0.7
v 0.2 2.1 -0.1
v 0.2 2.2 -0.1
v 0.3 2.1 -0.1
v 0.3 2.2 -0.1
v 0.5 2.1 -0.1
v 0.5 2.2 -0.1
v 0.6 2.1 -0.1
v 0.6 2.2 -0.1
v 0.1 2.1 -0.2
v 0.1 2.2 -0.2
v 0.1 2.3 -0.2
v 0.2 2.1 -0.2
v 0.2 2.3 -0.2
v 0 2.1 -0.3
v 0 2.2 -0.3
v 0.1 2.1 -0.3
v 0.1 2.2 -0.3
v 0.4 2.1 -0.3
v 0.4 2.2 -0.3
v 0.5 2.1 -0.3
v 0.5 2.2 -0.3
v 0.7 2.1 -0.3
v 0.7 2.2 -0.3
v 0.8 2.1 -0.3
v 0.8 2.2 -0.3
v 0.2 2.1 -0.4
v 0.2 2.3 -0.4
v 0.3 2.1 -0.4
v 0.3 2.2 -0.4
v 0.3 2.3 -0.4
v 0 2.1 -0.6
v 0 2.2 -0.6
v 0.1 2.1 -0.6
v 0.1 2.2 -0.6
v 0.3 2.1 -0.6
v 0.3 2.3 -0.6
v 0.4 2.1 -0.6
v 0.4 2.3 -0.6
v 0.6 2.1 -0.6
v 0.6 2.2 -0.6
v 0.8 2.1 -0.6
v 0.8 2.2 -0.6
v 0 2 -0.8
v 0 2.1 -0.8
v 0.2 2.1 -0.8
v 0.2 2.2 -0.8
v 0.3 2.1 -0.8
v 0.3 2.2 -0.8
v 0.5 2.1 -0.8
v 0.5 2.2 -0.8
v 0.6 2.1 -0.8
v 0.6 2.2 -0.8
v 0.8 2 -0.8
v 0.8 2.1 -0.8
v 0 2 0
v 0.8 2 0
v 0 2 -0.8
v 0.8 2 -0.8
v 0 2.1 0
v 0.2 2.1 0
v 0.3 2.1 0
v 0.5 2.1 0
v 0.6 2.1 0
v 0.8 2.1 0
v 0.1 2.1 -0.1
v 0.2 2.1 -0.1
v 0.3 2.1 -0.1
v 0.5 2.1 -0.1
v 0.6 2.1 -0.1
v 0 2.1 -0.2
v 0.1 2.1 -0.2
v 0.2 2.1 -0.2
v 0.4 2.1 -0.2
v 0.5 2.1 -0.2
v 0.7 2.1 -0.2
v 0.8 2.1 -0.2
v 0 2.1 -0.3
v 0.1 2.1 -0.3
v 0.2 2.1 -0.3
v 0.4 2.1 -0.3
v 0.5 2.1 -0.3
v 0.7 2.1 -0.3
v 0.8 2.1 -0.3
v 0.2 2.1 -0.4
v 0.3 2.1 -0.4
v 0.6 2.1 -0.4
v 0.7 2.1 -0.4
v 0 2.1 -0.5
v 0.1 2.1 -0.5
v 0.7 2.1 -0.5
v 0.8 2.1 -0.5
v 0 2.1 -0.6
v 0.1 2.1 -0.6
v 0.3 2.1 -0.6
v 0.4 2.1 -0.6
v 0.6 2.1 -0.6
v 0.8 2.1 -0.6
v 0.2 2.1 -0.7
v 0.3 2.1 -0.7
v 0.5 2.1 -0.7
v 0.6 2.1 -0.7
v 0 2.1 -0.8
v 0.2 2.1 -0.8
v 0.3 2.1 -0.8
v 0.5 2.1 -0.8
v 0.6 2.1 -0.8
v 0.8 2.1 -0.8
v 0.2 2.2 0
v 0.3 2.2 0
v 0.5 2.2 0
v 0.6 2.2 0
v 0.2 2.2 -0.1
v 0.3 2.2 -0.1
v 0.5 2.2 -0.1
v 0.6 2.2 -0.1
v 0 2.2 -0.2
v 0.1 2.2 -0.2
v 0.4 2.2 -0.2
v 0.5 2.2 -0.2
v 0.7 2.2 -0.2
v 0.8 2.2 -0.2
v 0 2.2 -0.3
v 0.1 2.2 -0.3
v 0.3 2.2 -0.3
v 0.4 2.2 -0.3
v 0.5 2.2 -0.3
v 0.7 2.2 -0.3
v 0.8 2.2 -0.3
v 0.3 2.2 -0.4
v 0.6 2.2 -0.4
v 0.7 2.2 -0.4
v 0 2.2 -0.5
v 0.1 2.2 -0.5
v 0.3 2.2 -0.5
v 0.4 2.2 -0.5
v 0.7 2.2 -0.5
v 0.8 2.2 -0.5
v 0 2.2 -0.6
v 0.1 2.2 -0.6
v 0.6 2.2 -0.6
v 0.8 2.2 -0.6
v 0.2 2.2 -0.7
v 0.3 2.2 -0.7
v 0.5 2.2 -0.7
v 0.6 2.2 -0.7
v 0.2 2.2 -0.8
v 0.3 2.2 -0.8
v 0.5 2.2 -0.8
v 0.6 2.2 -0.8
v 0.1 2.3 -0.1
v 0.2 2.3 -0.1
v 0.1 2.3 -0.2
v 0.2 2.3 -0.2
v 0.2 2.3 -0.3
v 0.3 2.3 -0.3
v 0.2 2.3 -0.4
v 0.3 2.3 -0.4
v 0.3 2.3 -0.5
v 0.4 2.3 -0.5
v 0.3 2.3 -0.6
v 0.4 2.3 -0.6

# faces
f 3/1/1 2/1/1 1/1/1
f 4/1/1 2/1/1 3/1/1
f 5/1/1 2/1/1 4/1/1
f 6/1/1 2/1/1 5/1/1
f 7/1/1 2/1/1 6/1/1
f 8/1/1 2/1/1 7/1/1
f 9/2/1 5/2/1 4/2/1
f 10/2/1 5/2/1 9/2/1
f 11/2/1 7/2/1 6/2/1
f 12/2/1 7/2/1 11/2/1
f 15/2/1 14/2/1 13/2/1
f 16/2/1 15/2/1 13/2/1
f 17/2/1 15/2/1 16/2/1
f 24/2/1 19/2/1 18/2/1
f 25/2/1 19/2/1 24/2/1
f 26/2/1 23/2/1 22/2/1
f 27/2/1 23/2/1 26/2/1
f 28/2/1 21/2/1 20/2/1
f 29/2/1 21/2/1 28/2/1
f 32/2/1 31/2/1 30/2/1
f 33/2/1 31/2/1 32/2/1
f 34/2/1 31/2/1 33/2/1
f 35/2/1 31/2/1 34/2/1
f 38/2/1 37/2/1 36/2/1
f 39/2/1 37/2/1 38/2/1
f 44/2/1 41/2/1 40/2/1
f 45/2/1 41/2/1 44/2/1
f 46/2/1 43/2/1 42/2/1
f 47/2/1 43/2/1 46/2/1
f 50/2/1 49/2/1 48/2/1
f 51/2/1 49/2/1 50/2/1
f 54/2/1 53/2/1 52/2/1
f 55/2/1 53/2/1 54/2/1
f 56/2/2 57/2/2 60/2/2
f 60/2/2 57/2/2 61/2/2
f 58/2/2 59/2/2 62/2/2
f 62/2/2 59/2/2 63/2/2
f 64/2/2 65/2/2 66/2/2
f 66/2/2 65/2/2 67/2/2
f 67/2/2 65/2/2 68/2/2
f 69/2/2 70/2/2 73/2/2
f 73/2/2 70/2/2 74/2/2
f 71/2/2 72/2/2 77/2/2
f 77/2/2 72/2/2 78/2/2
f 75/2/2 76/2/2 79/2/2
f 79/2/2 76/2/2 80/2/2
f 81/2/2 82/2/2 83/2/2
f 83/2/2 82/2/2 84/2/2
f 84/2/2 82/2/2 85/2/2
f 85/2/2 82/2/2 86/2/2
f 87/2/2 88/2/2 89/2/2
f 89/2/2 88/2/2 90/2/2
f 91/2/2 92/2/2 95/2/2
f 95/2/2 92/2/2 96/2/2
f 93/2/2 94/2/2 97/2/2
f 97/2/2 94/2/2 98/2/2
f 99/2/2 100/2/2 101/2/2
f 101/2/2 100/2/2 102/2/2
f 103/1/2 104/1/2 105/1/2
f 105/1/2 104/1/2 106/1/2
f 106/1/2 104/1/2 107/1/2
f 107/1/2 104/1/2 108/1/2
f 108/1/2 104/1/2 109/1/2
f 109/1/2 104/1/2 110/1/2
f 106/2/2 107/2/2 111/2/2
f 111/2/2 107/2/2 112/2/2
f 108/2/2 109/2/2 113/2/2
f 113/2/2 109/2/2 114/2/2
f 117/1/3 116/1/3 115/1/3
f 119/1/3 117/1/3 115/1/3
f 119/2/3 118/2/3 117/2/3
f 120/2/3 118/2/3 119/2/3
f 121/1/3 119/1/3 115/1/3
f 123/1/3 121/1/3 115/1/3
f 123/2/3 122/2/3 121/2/3
f 124/2/3 122/2/3 123/2/3
f 125/1/3 123/1/3 115/1/3
f 126/1/3 123/1/3 125/1/3
f 129/2/3 128/2/3 127/2/3
f 130/2/3 128/2/3 129/2/3
f 131/2/3 128/2/3 130/2/3
f 134/2/3 133/2/3 132/2/3
f 135/2/3 133/2/3 134/2/3
f 138/2/3 137/2/3 136/2/3
f 139/2/3 137/2/3 138/2/3
f 142/2/3 141/2/3 140/2/3
f 143/2/3 141/2/3 142/2/3
f 146/2/3 145/2/3 144/2/3
f 147/2/3 145/2/3 146/2/3
f 148/2/3 146/2/3 144/2/3
f 149/2/3 146/2/3 148/2/3
f 152/2/3 151/2/3 150/2/3
f 153/2/3 151/2/3 152/2/3
f 156/2/3 155/2/3 154/2/3
f 157/2/3 155/2/3 156/2/3
f 160/2/3 159/2/3 158/2/3
f 161/2/3 159/2/3 160/2/3
f 164/2/3 163/2/3 162/2/3
f 165/2/3 163/2/3 164/2/3
f 168/2/3 167/2/3 166/2/3
f 169/2/3 167/2/3 168/2/3
f 172/2/3 171/2/3 170/2/3
f 173/2/3 171/2/3 172/2/3
f 174/2/4 175/2/4 176/2/4
f 176/2/4 175/2/4 177/2/4
f 178/2/4 179/2/4 180/2/4
f 180/2/4 179/2/4 181/2/4
f 182/2/4 183/2/4 185/2/4
f 183/2/4 184/2/4 185/2/4
f 185/2/4 184/2/4 186/2/4
f 187/2/4 188/2/4 189/2/4
f 189/2/4 188/2/4 190/2/4
f 191/2/4 192/2/4 193/2/4
f 193/2/4 192/2/4 194/2/4
f 195/2/4 196/2/4 197/2/4
f 197/2/4 196/2/4 198/2/4
f 199/2/4 200/2/4 201/2/4
f 201/2/4 200/2/4 202/2/4
f 202/2/4 200/2/4 203/2/4
f 204/2/4 205/2/4 206/2/4
f 206/2/4 205/2/4 207/2/4
f 208/2/4 209/2/4 210/2/4
f 210/2/4 209/2/4 211/2/4
f 212/2/4 213/2/4 214/2/4
f 214/2/4 213/2/4 215/2/4
f 216/1/4 217/1/4 218/1/4
f 216/1/4 218/1/4 220/1/4
f 218/2/4 219/2/4 220/2/4
f 220/2/4 219/2/4 221/2/4
f 216/1/4 220/1/4 222/1/4
f 216/1/4 222/1/4 224/1/4
f 222/2/4 223/2/4 224/2/4
f 224/2/4 223/2/4 225/2/4
f 216/1/4 224/1/4 226/1/4
f 226/1/4 224/1/4 227/1/4
f 230/1/5 229/1/5 228/1/5
f 231/1/5 229/1/5 230/1/5
f 232/1/6 233/1/6 238/1/6
f 238/1/6 233/1/6 239/1/6
f 234/1/6 235/1/6 240/1/6
f 240/1/6 235/1/6 241/1/6
f 236/1/6 237/1/6 242/1/6
f 232/1/6 238/1/6 243/1/6
f 243/1/6 238/1/6 244/1/6
f 240/1/6 241/1/6 245/1/6
f 241/1/6 242/1/6 245/1/6
f 239/1/6 240/1/6 245/1/6
f 245/1/6 242/1/6 246/1/6
f 246/1/6 242/1/6 247/1/6
f 242/1/6 237/1/6 248/1/6
f 247/1/6 242/1/6 248/1/6
f 248/1/6 237/1/6 249/1/6
f 244/1/6 245/1/6 251/1/6
f 245/1/6 246/1/6 251/1/6
f 251/1/6 246/1/6 252/1/6
f 252/1/6 246/1/6 253/1/6
f 247/1/6 248/1/6 254/1/6
f 254/1/6 248/1/6 255/1/6
f 250/1/6 251/1/6 257/1/6
f 251/1/6 252/1/6 257/1/6
f 255/1/6 256/1/6 259/1/6
f 254/1/6 255/1/6 259/1/6
f 253/1/6 254/1/6 259/1/6
f 259/1/6 256/1/6 260/1/6
f 257/1/6 258/1/6 261/1/6
f 250/1/6 257/1/6 261/1/6
f 261/1/6 258/1/6 262/1/6
f 260/1/6 256/1/6 263/1/6
f 263/1/6 256/1/6 264/1/6
f 262/1/6 258/1/6 266/1/6
f 266/1/6 258/1/6 267/1/6
f 253/1/6 259/1/6 268/1/6
f 268/1/6 259/1/6 269/1/6
f 266/1/6 267/1/6 271/1/6
f 269/1/6 270/1/6 271/1/6
f 268/1/6 269/1/6 271/1/6
f 267/1/6 268/1/6 271/1/6
f 265/1/6 266/1/6 271/1/6
f 271/1/6 270/1/6 272/1/6
f 272/1/6 270/1/6 273/1/6
f 273/1/6 270/1/6 274/1/6
f 265/1/6 271/1/6 275/1/6
f 275/1/6 271/1/6 276/1/6
f 272/1/6 273/1/6 277/1/6
f 277/1/6 273/1/6 278/1/6
f 274/1/6 270/1/6 279/1/6
f 279/1/6 270/1/6 280/1/6
f 281/2/6 282/2/6 285/2/6
f 285/2/6 282/2/6 286/2/6
f 283/2/6 284/2/6 287/2/6
f 287/2/6 284/2/6 288/2/6
f 289/2/6 290/2/6 295/2/6
f 295/2/6 290/2/6 296/2/6
f 291/2/6 292/2/6 298/2/6
f 298/2/6 292/2/6 299/2/6
f 293/2/6 294/2/6 300/2/6
f 300/2/6 294/2/6 301/2/6
f 297/2/6 298/2/6 302/2/6
f 302/2/6 298/2/6 307/2/6
f 307/2/6 298/2/6 308/2/6
f 303/2/6 304/2/6 309/2/6
f 305/2/6 306/2/6 311/2/6
f 311/2/6 306/2/6 312/2/6
f 309/2/6 310/2/6 313/2/6
f 303/2/6 309/2/6 313/2/6
f 313/2/6 310/2/6 314/2/6
f 315/2/6 316/2/6 319/2/6
f 319/2/6 316/2/6 320/2/6
f 317/2/6 318/2/6 321/2/6
f 321/2/6 318/2/6 322/2/6
f 323/2/6 324/2/6 325/2/6
f 325/2/6 324/2/6 326/2/6
f 327/2/6 328/2/6 329/2/6
f 329/2/6 328/2/6 330/2/6
f 331/2/6 332/2/6 333/2/6
f 333/2/6 332/2/6 334/2/6
