# MagicaVoxel @ Ephtracy

# group
o 

# material
mtllib YellowText2.mtl
usemtl palette

# normals
vn -1 0 0
vn 1 0 0
vn 0 0 1
vn 0 0 -1
vn 0 -1 0
vn 0 1 0

# texcoords
vt 0.0449219 0.5
vt 0.509766 0.5
vt 0.673828 0.5

# verts
v 0 2 0
v 0 2 -0.1
v 0 2 -0.2
v 0 2 -0.5
v 0 2 -0.7
v 0 2 -0.8
v 0 2.1 0
v 0 2.1 -0.1
v 0 2.1 -0.2
v 0 2.1 -0.5
v 0 2.1 -0.7
v 0 2.1 -0.8
v 0 2.2 -0.1
v 0 2.2 -0.2
v 0 2.2 -0.5
v 0 2.2 -0.7
v 0.1 2.1 0
v 0.1 2.1 -0.1
v 0.1 2.1 -0.2
v 0.1 2.1 -0.5
v 0.1 2.1 -0.7
v 0.1 2.1 -0.8
v 0.1 2.2 0
v 0.1 2.2 -0.1
v 0.1 2.2 -0.2
v 0.1 2.2 -0.5
v 0.1 2.2 -0.7
v 0.1 2.2 -0.8
v 0.3 2.1 -0.4
v 0.3 2.1 -0.5
v 0.3 2.2 -0.4
v 0.3 2.2 -0.5
v 0.5 2.1 -0.6
v 0.5 2.1 -0.8
v 0.5 2.2 -0.6
v 0.5 2.2 -0.8
v 0.6 2.1 0
v 0.6 2.1 -0.2
v 0.6 2.1 -0.3
v 0.6 2.1 -0.4
v 0.6 2.2 0
v 0.6 2.2 -0.2
v 0.6 2.2 -0.3
v 0.6 2.2 -0.4
v 0.7 2.1 -0.2
v 0.7 2.1 -0.3
v 0.7 2.2 -0.2
v 0.7 2.2 -0.3
v 0.1 2.1 -0.1
v 0.1 2.1 -0.2
v 0.1 2.1 -0.6
v 0.1 2.1 -0.7
v 0.1 2.2 -0.1
v 0.1 2.2 -0.2
v 0.1 2.2 -0.6
v 0.1 2.2 -0.7
v 0.2 2.1 -0.2
v 0.2 2.1 -0.3
v 0.2 2.1 -0.4
v 0.2 2.1 -0.5
v 0.2 2.1 -0.7
v 0.2 2.1 -0.8
v 0.2 2.2 -0.2
v 0.2 2.2 -0.3
v 0.2 2.2 -0.4
v 0.2 2.2 -0.5
v 0.2 2.2 -0.7
v 0.2 2.2 -0.8
v 0.3 2.1 0
v 0.3 2.1 -0.1
v 0.3 2.2 0
v 0.3 2.2 -0.1
v 0.5 2.1 -0.3
v 0.5 2.1 -0.4
v 0.5 2.1 -0.5
v 0.5 2.1 -0.6
v 0.5 2.2 -0.3
v 0.5 2.2 -0.4
v 0.5 2.2 -0.5
v 0.5 2.2 -0.6
v 0.6 2.1 -0.4
v 0.6 2.1 -0.5
v 0.6 2.2 -0.4
v 0.6 2.2 -0.5
v 0.7 2.1 0
v 0.7 2.1 -0.1
v 0.7 2.1 -0.3
v 0.7 2.1 -0.4
v 0.7 2.1 -0.7
v 0.7 2.1 -0.8
v 0.7 2.2 0
v 0.7 2.2 -0.1
v 0.7 2.2 -0.3
v 0.7 2.2 -0.4
v 0.7 2.2 -0.7
v 0.7 2.2 -0.8
v 0.8 2 0
v 0.8 2 -0.1
v 0.8 2 -0.3
v 0.8 2 -0.6
v 0.8 2 -0.7
v 0.8 2 -0.8
v 0.8 2.1 0
v 0.8 2.1 -0.1
v 0.8 2.1 -0.3
v 0.8 2.1 -0.6
v 0.8 2.1 -0.7
v 0.8 2.1 -0.8
v 0.8 2.2 -0.1
v 0.8 2.2 -0.3
v 0.8 2.2 -0.6
v 0.8 2.2 -0.7
v 0 2 0
v 0 2.1 0
v 0.1 2 0
v 0.1 2.1 0
v 0.1 2.2 0
v 0.3 2 0
v 0.3 2.1 0
v 0.3 2.2 0
v 0.6 2 0
v 0.6 2.1 0
v 0.6 2.2 0
v 0.7 2 0
v 0.7 2.1 0
v 0.7 2.2 0
v 0.8 2 0
v 0.8 2.1 0
v 0 2.1 -0.1
v 0 2.2 -0.1
v 0.1 2.1 -0.1
v 0.1 2.2 -0.1
v 0.7 2.1 -0.1
v 0.7 2.2 -0.1
v 0.8 2.1 -0.1
v 0.8 2.2 -0.1
v 0.1 2.1 -0.2
v 0.1 2.2 -0.2
v 0.2 2.1 -0.2
v 0.2 2.2 -0.2
v 0.2 2.1 -0.3
v 0.2 2.2 -0.3
v 0.5 2.1 -0.3
v 0.5 2.2 -0.3
v 0.6 2.1 -0.3
v 0.6 2.2 -0.3
v 0.7 2.1 -0.3
v 0.7 2.2 -0.3
v 0.5 2.1 -0.4
v 0.5 2.2 -0.4
v 0.6 2.1 -0.4
v 0.6 2.2 -0.4
v 0 2.1 -0.5
v 0 2.2 -0.5
v 0.1 2.1 -0.5
v 0.1 2.2 -0.5
v 0.2 2.1 -0.5
v 0.2 2.2 -0.5
v 0.3 2.1 -0.5
v 0.3 2.2 -0.5
v 0.5 2.1 -0.6
v 0.5 2.2 -0.6
v 0.8 2.1 -0.6
v 0.8 2.2 -0.6
v 0.1 2.1 -0.7
v 0.1 2.2 -0.7
v 0.2 2.1 -0.7
v 0.2 2.2 -0.7
v 0.1 2.1 -0.1
v 0.1 2.2 -0.1
v 0.3 2.1 -0.1
v 0.3 2.2 -0.1
v 0 2.1 -0.2
v 0 2.2 -0.2
v 0.1 2.1 -0.2
v 0.1 2.2 -0.2
v 0.6 2.1 -0.2
v 0.6 2.2 -0.2
v 0.7 2.1 -0.2
v 0.7 2.2 -0.2
v 0.7 2.1 -0.3
v 0.7 2.2 -0.3
v 0.8 2.1 -0.3
v 0.8 2.2 -0.3
v 0.2 2.1 -0.4
v 0.2 2.2 -0.4
v 0.3 2.1 -0.4
v 0.3 2.2 -0.4
v 0.6 2.1 -0.4
v 0.6 2.2 -0.4
v 0.7 2.1 -0.4
v 0.7 2.2 -0.4
v 0.5 2.1 -0.5
v 0.5 2.2 -0.5
v 0.6 2.1 -0.5
v 0.6 2.2 -0.5
v 0.1 2.1 -0.6
v 0.1 2.2 -0.6
v 0.3 2.1 -0.6
v 0.4 2.1 -0.6
v 0.5 2.1 -0.6
v 0.5 2.2 -0.6
v 0 2.1 -0.7
v 0 2.2 -0.7
v 0.1 2.1 -0.7
v 0.1 2.2 -0.7
v 0.7 2.1 -0.7
v 0.7 2.2 -0.7
v 0.8 2.1 -0.7
v 0.8 2.2 -0.7
v 0 2 -0.8
v 0 2.1 -0.8
v 0.1 2 -0.8
v 0.1 2.1 -0.8
v 0.1 2.2 -0.8
v 0.2 2 -0.8
v 0.2 2.1 -0.8
v 0.2 2.2 -0.8
v 0.5 2 -0.8
v 0.5 2.1 -0.8
v 0.5 2.2 -0.8
v 0.7 2 -0.8
v 0.7 2.1 -0.8
v 0.7 2.2 -0.8
v 0.8 2 -0.8
v 0.8 2.1 -0.8
v 0 2 0
v 0.1 2 0
v 0.3 2 0
v 0.6 2 0
v 0.7 2 0
v 0.8 2 0
v 0 2 -0.1
v 0.1 2 -0.1
v 0.3 2 -0.1
v 0.4 2 -0.1
v 0.5 2 -0.1
v 0.7 2 -0.1
v 0.8 2 -0.1
v 0 2 -0.2
v 0.1 2 -0.2
v 0.2 2 -0.2
v 0.4 2 -0.2
v 0.5 2 -0.2
v 0.6 2 -0.2
v 0.7 2 -0.2
v 0.2 2 -0.3
v 0.5 2 -0.3
v 0.6 2 -0.3
v 0.7 2 -0.3
v 0.8 2 -0.3
v 0.2 2 -0.4
v 0.3 2 -0.4
v 0.5 2 -0.4
v 0.6 2 -0.4
v 0.7 2 -0.4
v 0 2 -0.5
v 0.1 2 -0.5
v 0.2 2 -0.5
v 0.3 2 -0.5
v 0.5 2 -0.5
v 0.6 2 -0.5
v 0.1 2 -0.6
v 0.3 2 -0.6
v 0.4 2 -0.6
v 0.5 2 -0.6
v 0.8 2 -0.6
v 0 2 -0.7
v 0.1 2 -0.7
v 0.2 2 -0.7
v 0.3 2 -0.7
v 0.4 2 -0.7
v 0.7 2 -0.7
v 0.8 2 -0.7
v 0 2 -0.8
v 0.1 2 -0.8
v 0.2 2 -0.8
v 0.5 2 -0.8
v 0.7 2 -0.8
v 0.8 2 -0.8
v 0 2.1 0
v 0.1 2.1 0
v 0.3 2.1 0
v 0.6 2.1 0
v 0.7 2.1 0
v 0.8 2.1 0
v 0 2.1 -0.1
v 0.1 2.1 -0.1
v 0.3 2.1 -0.1
v 0.4 2.1 -0.1
v 0.5 2.1 -0.1
v 0.7 2.1 -0.1
v 0.8 2.1 -0.1
v 0 2.1 -0.2
v 0.1 2.1 -0.2
v 0.2 2.1 -0.2
v 0.4 2.1 -0.2
v 0.5 2.1 -0.2
v 0.6 2.1 -0.2
v 0.7 2.1 -0.2
v 0.2 2.1 -0.3
v 0.5 2.1 -0.3
v 0.6 2.1 -0.3
v 0.7 2.1 -0.3
v 0.8 2.1 -0.3
v 0.2 2.1 -0.4
v 0.3 2.1 -0.4
v 0.5 2.1 -0.4
v 0.6 2.1 -0.4
v 0.7 2.1 -0.4
v 0 2.1 -0.5
v 0.1 2.1 -0.5
v 0.2 2.1 -0.5
v 0.3 2.1 -0.5
v 0.5 2.1 -0.5
v 0.6 2.1 -0.5
v 0.1 2.1 -0.6
v 0.3 2.1 -0.6
v 0.4 2.1 -0.6
v 0.5 2.1 -0.6
v 0.8 2.1 -0.6
v 0 2.1 -0.7
v 0.1 2.1 -0.7
v 0.2 2.1 -0.7
v 0.3 2.1 -0.7
v 0.4 2.1 -0.7
v 0.7 2.1 -0.7
v 0.8 2.1 -0.7
v 0 2.1 -0.8
v 0.1 2.1 -0.8
v 0.2 2.1 -0.8
v 0.5 2.1 -0.8
v 0.7 2.1 -0.8
v 0.8 2.1 -0.8
v 0.1 2.2 0
v 0.3 2.2 0
v 0.6 2.2 0
v 0.7 2.2 0
v 0 2.2 -0.1
v 0.1 2.2 -0.1
v 0.3 2.2 -0.1
v 0.7 2.2 -0.1
v 0.8 2.2 -0.1
v 0 2.2 -0.2
v 0.1 2.2 -0.2
v 0.2 2.2 -0.2
v 0.6 2.2 -0.2
v 0.7 2.2 -0.2
v 0.2 2.2 -0.3
v 0.5 2.2 -0.3
v 0.6 2.2 -0.3
v 0.7 2.2 -0.3
v 0.8 2.2 -0.3
v 0.2 2.2 -0.4
v 0.3 2.2 -0.4
v 0.5 2.2 -0.4
v 0.6 2.2 -0.4
v 0.7 2.2 -0.4
v 0 2.2 -0.5
v 0.1 2.2 -0.5
v 0.2 2.2 -0.5
v 0.3 2.2 -0.5
v 0.5 2.2 -0.5
v 0.6 2.2 -0.5
v 0.1 2.2 -0.6
v 0.5 2.2 -0.6
v 0.8 2.2 -0.6
v 0 2.2 -0.7
v 0.1 2.2 -0.7
v 0.2 2.2 -0.7
v 0.7 2.2 -0.7
v 0.8 2.2 -0.7
v 0.1 2.2 -0.8
v 0.2 2.2 -0.8
v 0.5 2.2 -0.8
v 0.7 2.2 -0.8

# faces
f 7/1/1 2/1/1 1/1/1
f 8/2/1 3/2/1 2/2/1
f 8/1/1 2/1/1 7/1/1
f 9/1/1 4/1/1 3/1/1
f 9/2/1 3/2/1 8/2/1
f 10/2/1 5/2/1 4/2/1
f 10/1/1 4/1/1 9/1/1
f 11/1/1 6/1/1 5/1/1
f 11/2/1 5/2/1 10/2/1
f 12/1/1 6/1/1 11/1/1
f 13/2/1 9/2/1 8/2/1
f 14/2/1 9/2/1 13/2/1
f 15/2/1 11/2/1 10/2/1
f 16/2/1 11/2/1 15/2/1
f 23/2/1 18/2/1 17/2/1
f 24/2/1 18/2/1 23/2/1
f 25/2/1 20/2/1 19/2/1
f 26/2/1 20/2/1 25/2/1
f 27/2/1 22/2/1 21/2/1
f 28/2/1 22/2/1 27/2/1
f 31/2/1 30/2/1 29/2/1
f 32/2/1 30/2/1 31/2/1
f 35/2/1 34/2/1 33/2/1
f 36/2/1 34/2/1 35/2/1
f 41/2/1 38/2/1 37/2/1
f 42/2/1 38/2/1 41/2/1
f 43/2/1 40/2/1 39/2/1
f 44/2/1 40/2/1 43/2/1
f 47/2/1 46/2/1 45/2/1
f 48/2/1 46/2/1 47/2/1
f 49/2/2 50/2/2 53/2/2
f 53/2/2 50/2/2 54/2/2
f 51/2/2 52/2/2 55/2/2
f 55/2/2 52/2/2 56/2/2
f 57/2/2 58/2/2 63/2/2
f 63/2/2 58/2/2 64/2/2
f 59/2/2 60/2/2 65/2/2
f 65/2/2 60/2/2 66/2/2
f 61/2/2 62/2/2 67/2/2
f 67/2/2 62/2/2 68/2/2
f 69/2/2 70/2/2 71/2/2
f 71/2/2 70/2/2 72/2/2
f 73/2/2 74/2/2 77/2/2
f 77/2/2 74/2/2 78/2/2
f 75/2/2 76/2/2 79/2/2
f 79/2/2 76/2/2 80/2/2
f 81/2/2 82/2/2 83/2/2
f 83/2/2 82/2/2 84/2/2
f 85/2/2 86/2/2 91/2/2
f 91/2/2 86/2/2 92/2/2
f 87/2/2 88/2/2 93/2/2
f 93/2/2 88/2/2 94/2/2
f 89/2/2 90/2/2 95/2/2
f 95/2/2 90/2/2 96/2/2
f 97/1/2 98/1/2 103/1/2
f 98/2/2 99/2/2 104/2/2
f 103/1/2 98/1/2 104/1/2
f 99/1/2 100/1/2 105/1/2
f 104/2/2 99/2/2 105/2/2
f 100/2/2 101/2/2 106/2/2
f 105/1/2 100/1/2 106/1/2
f 101/1/2 102/1/2 107/1/2
f 106/2/2 101/2/2 107/2/2
f 107/1/2 102/1/2 108/1/2
f 104/2/2 105/2/2 109/2/2
f 109/2/2 105/2/2 110/2/2
f 106/2/2 107/2/2 111/2/2
f 111/2/2 107/2/2 112/2/2
f 115/1/3 114/1/3 113/1/3
f 116/1/3 114/1/3 115/1/3
f 118/2/3 116/2/3 115/2/3
f 118/2/3 117/2/3 116/2/3
f 119/2/3 117/2/3 118/2/3
f 120/2/3 117/2/3 119/2/3
f 121/1/3 119/1/3 118/1/3
f 122/1/3 119/1/3 121/1/3
f 124/2/3 122/2/3 121/2/3
f 124/2/3 123/2/3 122/2/3
f 125/2/3 123/2/3 124/2/3
f 126/2/3 123/2/3 125/2/3
f 127/1/3 125/1/3 124/1/3
f 128/1/3 125/1/3 127/1/3
f 131/2/3 130/2/3 129/2/3
f 132/2/3 130/2/3 131/2/3
f 135/2/3 134/2/3 133/2/3
f 136/2/3 134/2/3 135/2/3
f 139/2/3 138/2/3 137/2/3
f 140/2/3 138/2/3 139/2/3
f 143/2/3 142/2/3 141/2/3
f 144/2/3 142/2/3 143/2/3
f 147/2/3 146/2/3 145/2/3
f 148/2/3 146/2/3 147/2/3
f 151/2/3 150/2/3 149/2/3
f 152/2/3 150/2/3 151/2/3
f 155/2/3 154/2/3 153/2/3
f 156/2/3 154/2/3 155/2/3
f 159/2/3 158/2/3 157/2/3
f 160/2/3 158/2/3 159/2/3
f 163/2/3 162/2/3 161/2/3
f 164/2/3 162/2/3 163/2/3
f 167/2/3 166/2/3 165/2/3
f 168/2/3 166/2/3 167/2/3
f 169/2/4 170/2/4 171/2/4
f 171/2/4 170/2/4 172/2/4
f 173/2/4 174/2/4 175/2/4
f 175/2/4 174/2/4 176/2/4
f 177/2/4 178/2/4 179/2/4
f 179/2/4 178/2/4 180/2/4
f 181/2/4 182/2/4 183/2/4
f 183/2/4 182/2/4 184/2/4
f 185/2/4 186/2/4 187/2/4
f 187/2/4 186/2/4 188/2/4
f 189/2/4 190/2/4 191/2/4
f 191/2/4 190/2/4 192/2/4
f 193/2/4 194/2/4 195/2/4
f 195/2/4 194/2/4 196/2/4
f 197/2/4 198/2/4 199/2/4
f 199/2/4 198/2/4 200/2/4
f 200/2/4 198/2/4 201/2/4
f 201/2/4 198/2/4 202/2/4
f 203/2/4 204/2/4 205/2/4
f 205/2/4 204/2/4 206/2/4
f 207/2/4 208/2/4 209/2/4
f 209/2/4 208/2/4 210/2/4
f 211/1/4 212/1/4 213/1/4
f 213/1/4 212/1/4 214/1/4
f 213/2/4 214/2/4 216/2/4
f 214/2/4 215/2/4 216/2/4
f 216/2/4 215/2/4 217/2/4
f 217/2/4 215/2/4 218/2/4
f 216/1/4 217/1/4 219/1/4
f 219/1/4 217/1/4 220/1/4
f 219/2/4 220/2/4 222/2/4
f 220/2/4 221/2/4 222/2/4
f 222/2/4 221/2/4 223/2/4
f 223/2/4 221/2/4 224/2/4
f 222/1/4 223/1/4 225/1/4
f 225/1/4 223/1/4 226/1/4
f 233/1/5 228/1/5 227/1/5
f 234/2/5 229/2/5 228/2/5
f 234/1/5 228/1/5 233/1/5
f 235/1/5 230/1/5 229/1/5
f 235/2/5 229/2/5 234/2/5
f 236/1/5 230/1/5 235/1/5
f 237/1/5 230/1/5 236/1/5
f 238/1/5 232/1/5 231/1/5
f 238/2/5 231/2/5 230/2/5
f 239/1/5 232/1/5 238/1/5
f 240/2/5 234/2/5 233/2/5
f 241/1/5 235/1/5 234/1/5
f 241/2/5 234/2/5 240/2/5
f 241/1/5 236/1/5 235/1/5
f 242/1/5 236/1/5 241/1/5
f 243/3/5 237/3/5 236/3/5
f 243/1/5 236/1/5 242/1/5
f 244/1/5 230/1/5 237/1/5
f 244/3/5 237/3/5 243/3/5
f 245/2/5 239/2/5 238/2/5
f 245/1/5 230/1/5 244/1/5
f 245/2/5 238/2/5 230/2/5
f 246/2/5 239/2/5 245/2/5
f 247/1/5 243/1/5 242/1/5
f 247/2/5 242/2/5 241/2/5
f 247/1/5 246/1/5 245/1/5
f 247/1/5 245/1/5 244/1/5
f 247/1/5 244/1/5 243/1/5
f 248/1/5 246/1/5 247/1/5
f 249/1/5 246/1/5 248/1/5
f 250/2/5 239/2/5 246/2/5
f 250/1/5 246/1/5 249/1/5
f 251/2/5 239/2/5 250/2/5
f 252/2/5 247/2/5 241/2/5
f 252/2/5 248/2/5 247/2/5
f 253/2/5 248/2/5 252/2/5
f 254/1/5 249/1/5 248/1/5
f 254/2/5 248/2/5 253/2/5
f 255/2/5 250/2/5 249/2/5
f 255/1/5 249/1/5 254/1/5
f 256/1/5 251/1/5 250/1/5
f 256/2/5 250/2/5 255/2/5
f 257/1/5 241/1/5 240/1/5
f 258/2/5 252/2/5 241/2/5
f 258/1/5 241/1/5 257/1/5
f 259/3/5 253/3/5 252/3/5
f 259/2/5 252/2/5 258/2/5
f 260/2/5 255/2/5 254/2/5
f 260/3/5 253/3/5 259/3/5
f 260/2/5 254/2/5 253/2/5
f 261/2/5 255/2/5 260/2/5
f 262/1/5 256/1/5 255/1/5
f 262/2/5 255/2/5 261/2/5
f 263/2/5 258/2/5 257/2/5
f 263/2/5 259/2/5 258/2/5
f 263/2/5 261/2/5 260/2/5
f 263/2/5 260/2/5 259/2/5
f 264/2/5 261/2/5 263/2/5
f 265/2/5 261/2/5 264/2/5
f 266/1/5 262/1/5 261/1/5
f 266/2/5 261/2/5 265/2/5
f 267/1/5 256/1/5 262/1/5
f 267/1/5 262/1/5 266/1/5
f 267/1/5 251/1/5 256/1/5
f 268/2/5 263/2/5 257/2/5
f 269/1/5 264/1/5 263/1/5
f 269/2/5 263/2/5 268/2/5
f 270/1/5 264/1/5 269/1/5
f 271/3/5 265/3/5 264/3/5
f 271/1/5 264/1/5 270/1/5
f 272/1/5 266/1/5 265/1/5
f 272/3/5 265/3/5 271/3/5
f 273/2/5 267/2/5 266/2/5
f 274/2/5 267/2/5 273/2/5
f 275/1/5 269/1/5 268/1/5
f 276/2/5 270/2/5 269/2/5
f 276/1/5 269/1/5 275/1/5
f 277/1/5 271/1/5 270/1/5
f 277/2/5 270/2/5 276/2/5
f 277/1/5 272/1/5 271/1/5
f 278/1/5 266/1/5 272/1/5
f 278/1/5 272/1/5 277/1/5
f 278/2/5 273/2/5 266/2/5
f 279/1/5 274/1/5 273/1/5
f 279/2/5 273/2/5 278/2/5
f 280/1/5 274/1/5 279/1/5
f 281/1/6 282/1/6 287/1/6
f 287/1/6 282/1/6 288/1/6
f 283/1/6 284/1/6 289/1/6
f 289/1/6 284/1/6 290/1/6
f 290/1/6 284/1/6 291/1/6
f 285/1/6 286/1/6 292/1/6
f 292/1/6 286/1/6 293/1/6
f 288/1/6 289/1/6 295/1/6
f 289/1/6 290/1/6 295/1/6
f 295/1/6 290/1/6 296/1/6
f 290/3/6 291/3/6 297/3/6
f 296/1/6 290/1/6 297/1/6
f 291/1/6 284/1/6 298/1/6
f 297/3/6 291/3/6 298/3/6
f 298/1/6 284/1/6 299/1/6
f 296/1/6 297/1/6 301/1/6
f 299/1/6 300/1/6 301/1/6
f 298/1/6 299/1/6 301/1/6
f 297/1/6 298/1/6 301/1/6
f 301/1/6 300/1/6 302/1/6
f 302/1/6 300/1/6 303/1/6
f 303/1/6 300/1/6 304/1/6
f 302/1/6 303/1/6 308/1/6
f 308/1/6 303/1/6 309/1/6
f 304/1/6 305/1/6 310/1/6
f 294/1/6 295/1/6 311/1/6
f 311/1/6 295/1/6 312/1/6
f 306/3/6 307/3/6 313/3/6
f 313/3/6 307/3/6 314/3/6
f 309/1/6 310/1/6 316/1/6
f 315/1/6 316/1/6 320/1/6
f 310/1/6 305/1/6 321/1/6
f 316/1/6 310/1/6 321/1/6
f 320/1/6 316/1/6 321/1/6
f 317/1/6 318/1/6 323/1/6
f 323/1/6 318/1/6 324/1/6
f 318/3/6 319/3/6 325/3/6
f 324/1/6 318/1/6 325/1/6
f 319/1/6 320/1/6 326/1/6
f 325/3/6 319/3/6 326/3/6
f 322/1/6 323/1/6 329/1/6
f 329/1/6 323/1/6 330/1/6
f 324/1/6 325/1/6 331/1/6
f 325/1/6 326/1/6 331/1/6
f 326/1/6 320/1/6 332/1/6
f 331/1/6 326/1/6 332/1/6
f 327/1/6 328/1/6 333/1/6
f 333/1/6 328/1/6 334/1/6
f 335/2/6 336/2/6 340/2/6
f 340/2/6 336/2/6 341/2/6
f 337/2/6 338/2/6 342/2/6
f 339/2/6 340/2/6 344/2/6
f 344/2/6 340/2/6 345/2/6
f 342/2/6 343/2/6 347/2/6
f 337/2/6 342/2/6 347/2/6
f 347/2/6 343/2/6 348/2/6
f 345/2/6 346/2/6 349/2/6
f 348/2/6 343/2/6 352/2/6
f 352/2/6 343/2/6 353/2/6
f 349/2/6 350/2/6 354/2/6
f 345/2/6 349/2/6 354/2/6
f 354/2/6 350/2/6 355/2/6
f 355/2/6 350/2/6 356/2/6
f 351/2/6 352/2/6 357/2/6
f 357/2/6 352/2/6 358/2/6
f 345/2/6 354/2/6 360/2/6
f 360/2/6 354/2/6 361/2/6
f 355/2/6 356/2/6 362/2/6
f 356/2/6 357/2/6 362/2/6
f 362/2/6 357/2/6 363/2/6
f 363/2/6 357/2/6 364/2/6
f 360/2/6 361/2/6 365/2/6
f 359/2/6 360/2/6 365/2/6
f 362/2/6 363/2/6 365/2/6
f 361/2/6 362/2/6 365/2/6
f 365/2/6 363/2/6 366/2/6
f 359/2/6 365/2/6 368/2/6
f 368/2/6 365/2/6 369/2/6
f 366/2/6 367/2/6 371/2/6
f 371/2/6 367/2/6 372/2/6
f 369/2/6 370/2/6 373/2/6
f 373/2/6 370/2/6 374/2/6
f 366/2/6 371/2/6 375/2/6
f 375/2/6 371/2/6 376/2/6
