# MagicaVoxel @ Ephtracy

# group
o 

# material
mtllib Road turn Mid 1.mtl
usemtl palette

# normals
vn -1 0 0
vn 1 0 0
vn 0 0 1
vn 0 0 -1
vn 0 -1 0
vn 0 1 0

# texcoords
vt 0.537109 0.5
vt 0.880859 0.5
vt 0.904297 0.5

# verts
v 0 2 0
v 0 2 -0.8
v 0 2.2 0
v 0 2.2 -0.1
v 0 2.2 -0.8
v 0 2.3 -0.1
v 0 2.3 -0.8
v 0.1 2.2 0
v 0.1 2.2 -0.1
v 0.1 2.3 0
v 0.1 2.3 -0.1
v 0.1 2.3 -0.3
v 0.1 2.3 -0.5
v 0.1 2.4 -0.3
v 0.1 2.4 -0.5
v 0.2 2.2 -0.1
v 0.2 2.2 -0.2
v 0.2 2.3 -0.1
v 0.2 2.3 -0.2
v 0.2 2.3 -0.3
v 0.2 2.4 -0.2
v 0.2 2.4 -0.3
v 0.7 2.1 -0.1
v 0.7 2.1 -0.4
v 0.7 2.2 -0.1
v 0.7 2.2 -0.4
v 0.7 2.2 -0.5
v 0.7 2.2 -0.7
v 0.7 2.3 -0.5
v 0.7 2.3 -0.7
v 0.1 2.2 -0.1
v 0.1 2.2 -0.2
v 0.1 2.3 -0.1
v 0.1 2.3 -0.2
v 0.2 2.1 -0.1
v 0.2 2.1 -0.2
v 0.2 2.2 -0.1
v 0.2 2.2 -0.2
v 0.3 2.3 -0.3
v 0.3 2.3 -0.5
v 0.3 2.4 -0.3
v 0.3 2.4 -0.5
v 0.4 2.3 -0.2
v 0.4 2.3 -0.3
v 0.4 2.4 -0.2
v 0.4 2.4 -0.3
v 0.6 2.1 -0.2
v 0.6 2.1 -0.3
v 0.6 2.1 -0.4
v 0.6 2.2 -0.2
v 0.6 2.2 -0.3
v 0.6 2.2 -0.4
v 0.6 2.2 -0.5
v 0.6 2.2 -0.6
v 0.6 2.2 -0.7
v 0.6 2.3 -0.5
v 0.6 2.3 -0.6
v 0.6 2.3 -0.7
v 0.8 2 0
v 0.8 2 -0.8
v 0.8 2.2 0
v 0.8 2.2 -0.8
v 0.8 2.3 0
v 0.8 2.3 -0.8
v 0 2 0
v 0 2.2 0
v 0.1 2.2 0
v 0.1 2.3 0
v 0.8 2 0
v 0.8 2.2 0
v 0.8 2.3 0
v 0 2.2 -0.1
v 0 2.3 -0.1
v 0.1 2.2 -0.1
v 0.1 2.3 -0.1
v 0.1 2.2 -0.2
v 0.1 2.3 -0.2
v 0.2 2.1 -0.2
v 0.2 2.2 -0.2
v 0.2 2.3 -0.2
v 0.2 2.4 -0.2
v 0.4 2.1 -0.2
v 0.4 2.2 -0.2
v 0.4 2.3 -0.2
v 0.4 2.4 -0.2
v 0.5 2.1 -0.2
v 0.6 2.1 -0.2
v 0.6 2.2 -0.2
v 0.1 2.3 -0.3
v 0.1 2.4 -0.3
v 0.2 2.3 -0.3
v 0.2 2.4 -0.3
v 0.6 2.1 -0.4
v 0.6 2.2 -0.4
v 0.7 2.1 -0.4
v 0.7 2.2 -0.4
v 0.6 2.2 -0.7
v 0.6 2.3 -0.7
v 0.7 2.2 -0.7
v 0.7 2.3 -0.7
v 0.1 2.2 -0.1
v 0.1 2.3 -0.1
v 0.2 2.1 -0.1
v 0.2 2.2 -0.1
v 0.2 2.3 -0.1
v 0.5 2.1 -0.1
v 0.7 2.1 -0.1
v 0.7 2.2 -0.1
v 0.3 2.3 -0.3
v 0.3 2.4 -0.3
v 0.4 2.3 -0.3
v 0.4 2.4 -0.3
v 0.1 2.3 -0.5
v 0.1 2.4 -0.5
v 0.3 2.3 -0.5
v 0.3 2.4 -0.5
v 0.6 2.2 -0.5
v 0.6 2.3 -0.5
v 0.7 2.2 -0.5
v 0.7 2.3 -0.5
v 0 2 -0.8
v 0 2.2 -0.8
v 0 2.3 -0.8
v 0.8 2 -0.8
v 0.8 2.2 -0.8
v 0.8 2.3 -0.8
v 0 2 0
v 0.8 2 0
v 0.5 2 -0.1
v 0.7 2 -0.1
v 0.5 2 -0.2
v 0.6 2 -0.2
v 0.6 2 -0.4
v 0.7 2 -0.4
v 0 2 -0.8
v 0.8 2 -0.8
v 0.2 2.2 -0.1
v 0.7 2.2 -0.1
v 0.2 2.2 -0.2
v 0.4 2.2 -0.2
v 0.6 2.2 -0.2
v 0.6 2.2 -0.3
v 0.6 2.2 -0.4
v 0.7 2.2 -0.4
v 0.2 2.1 -0.1
v 0.5 2.1 -0.1
v 0.7 2.1 -0.1
v 0.2 2.1 -0.2
v 0.4 2.1 -0.2
v 0.5 2.1 -0.2
v 0.6 2.1 -0.2
v 0.6 2.1 -0.3
v 0.6 2.1 -0.4
v 0.7 2.1 -0.4
v 0 2.2 0
v 0.1 2.2 0
v 0 2.2 -0.1
v 0.1 2.2 -0.1
v 0.2 2.2 -0.1
v 0.1 2.2 -0.2
v 0.2 2.2 -0.2
v 0.6 2.2 -0.5
v 0.7 2.2 -0.5
v 0.6 2.2 -0.6
v 0.6 2.2 -0.7
v 0.7 2.2 -0.7
v 0.1 2.3 0
v 0.8 2.3 0
v 0 2.3 -0.1
v 0.1 2.3 -0.1
v 0.2 2.3 -0.1
v 0.1 2.3 -0.2
v 0.2 2.3 -0.2
v 0.4 2.3 -0.2
v 0.1 2.3 -0.3
v 0.2 2.3 -0.3
v 0.3 2.3 -0.3
v 0.4 2.3 -0.3
v 0.1 2.3 -0.5
v 0.3 2.3 -0.5
v 0.5 2.3 -0.5
v 0.6 2.3 -0.5
v 0.7 2.3 -0.5
v 0.5 2.3 -0.6
v 0.6 2.3 -0.6
v 0.6 2.3 -0.7
v 0.7 2.3 -0.7
v 0 2.3 -0.8
v 0.8 2.3 -0.8
v 0.2 2.4 -0.2
v 0.4 2.4 -0.2
v 0.1 2.4 -0.3
v 0.2 2.4 -0.3
v 0.3 2.4 -0.3
v 0.4 2.4 -0.3
v 0.1 2.4 -0.5
v 0.3 2.4 -0.5

# faces
f 3/2/1 2/2/1 1/2/1
f 4/2/1 2/2/1 3/2/1
f 5/2/1 2/2/1 4/2/1
f 6/1/1 5/1/1 4/1/1
f 7/1/1 5/1/1 6/1/1
f 10/1/1 9/1/1 8/1/1
f 11/1/1 9/1/1 10/1/1
f 14/2/1 13/2/1 12/2/1
f 15/2/1 13/2/1 14/2/1
f 18/1/1 17/1/1 16/1/1
f 19/1/1 17/1/1 18/1/1
f 21/3/1 20/3/1 19/3/1
f 22/3/1 20/3/1 21/3/1
f 25/2/1 24/2/1 23/2/1
f 26/2/1 24/2/1 25/2/1
f 29/1/1 28/1/1 27/1/1
f 30/1/1 28/1/1 29/1/1
f 31/1/2 32/1/2 33/1/2
f 33/1/2 32/1/2 34/1/2
f 35/2/2 36/2/2 37/2/2
f 37/2/2 36/2/2 38/2/2
f 39/2/2 40/2/2 41/2/2
f 41/2/2 40/2/2 42/2/2
f 43/3/2 44/3/2 45/3/2
f 45/3/2 44/3/2 46/3/2
f 47/3/2 48/3/2 50/3/2
f 48/2/2 49/2/2 51/2/2
f 50/3/2 48/3/2 51/3/2
f 51/2/2 49/2/2 52/2/2
f 53/3/2 54/3/2 56/3/2
f 54/1/2 55/1/2 57/1/2
f 56/3/2 54/3/2 57/3/2
f 57/1/2 55/1/2 58/1/2
f 59/2/2 60/2/2 61/2/2
f 61/2/2 60/2/2 62/2/2
f 61/1/2 62/1/2 63/1/2
f 63/1/2 62/1/2 64/1/2
f 67/2/3 66/2/3 65/2/3
f 69/2/3 67/2/3 65/2/3
f 70/1/3 68/1/3 67/1/3
f 70/2/3 67/2/3 69/2/3
f 71/1/3 68/1/3 70/1/3
f 74/1/3 73/1/3 72/1/3
f 75/1/3 73/1/3 74/1/3
f 79/2/3 77/2/3 76/2/3
f 80/2/3 77/2/3 79/2/3
f 82/2/3 79/2/3 78/2/3
f 83/2/3 79/2/3 82/2/3
f 84/3/3 81/3/3 80/3/3
f 85/3/3 81/3/3 84/3/3
f 86/3/3 83/3/3 82/3/3
f 87/3/3 83/3/3 86/3/3
f 88/3/3 83/3/3 87/3/3
f 91/2/3 90/2/3 89/2/3
f 92/2/3 90/2/3 91/2/3
f 95/1/3 94/1/3 93/1/3
f 96/1/3 94/1/3 95/1/3
f 99/1/3 98/1/3 97/1/3
f 100/1/3 98/1/3 99/1/3
f 101/1/4 102/1/4 104/1/4
f 104/1/4 102/1/4 105/1/4
f 103/2/4 104/2/4 106/2/4
f 106/2/4 104/2/4 107/2/4
f 107/2/4 104/2/4 108/2/4
f 109/3/4 110/3/4 111/3/4
f 111/3/4 110/3/4 112/3/4
f 113/2/4 114/2/4 115/2/4
f 115/2/4 114/2/4 116/2/4
f 117/1/4 118/1/4 119/1/4
f 119/1/4 118/1/4 120/1/4
f 121/2/4 122/2/4 124/2/4
f 122/1/4 123/1/4 125/1/4
f 124/2/4 122/2/4 125/2/4
f 125/1/4 123/1/4 126/1/4
f 129/2/5 128/2/5 127/2/5
f 130/2/5 128/2/5 129/2/5
f 131/2/5 129/2/5 127/2/5
f 131/3/5 130/3/5 129/3/5
f 132/3/5 130/3/5 131/3/5
f 133/2/5 132/2/5 131/2/5
f 133/3/5 130/3/5 132/3/5
f 134/2/5 128/2/5 130/2/5
f 134/3/5 130/3/5 133/3/5
f 135/2/5 133/2/5 131/2/5
f 135/2/5 131/2/5 127/2/5
f 135/2/5 134/2/5 133/2/5
f 136/2/5 128/2/5 134/2/5
f 136/2/5 134/2/5 135/2/5
f 139/1/5 138/1/5 137/1/5
f 140/1/5 138/1/5 139/1/5
f 141/1/5 138/1/5 140/1/5
f 142/1/5 138/1/5 141/1/5
f 143/1/5 138/1/5 142/1/5
f 144/1/5 138/1/5 143/1/5
f 145/2/6 146/2/6 148/2/6
f 148/2/6 146/2/6 149/2/6
f 146/3/6 147/3/6 150/3/6
f 149/2/6 146/2/6 150/2/6
f 150/3/6 147/3/6 151/3/6
f 151/3/6 147/3/6 152/3/6
f 152/3/6 147/3/6 153/3/6
f 153/3/6 147/3/6 154/3/6
f 155/2/6 156/2/6 157/2/6
f 157/2/6 156/2/6 158/2/6
f 158/2/6 159/2/6 160/2/6
f 160/2/6 159/2/6 161/2/6
f 162/1/6 163/1/6 164/1/6
f 164/1/6 163/1/6 165/1/6
f 165/1/6 163/1/6 166/1/6
f 167/1/6 168/1/6 170/1/6
f 170/1/6 168/1/6 171/1/6
f 169/1/6 170/1/6 172/1/6
f 171/1/6 168/1/6 173/1/6
f 173/1/6 168/1/6 174/1/6
f 169/1/6 172/1/6 175/1/6
f 172/2/6 173/2/6 175/2/6
f 175/2/6 173/2/6 176/2/6
f 174/1/6 168/1/6 178/1/6
f 169/1/6 175/1/6 179/1/6
f 177/1/6 178/1/6 180/1/6
f 178/1/6 168/1/6 181/1/6
f 180/1/6 178/1/6 181/1/6
f 181/1/6 168/1/6 182/1/6
f 182/1/6 168/1/6 183/1/6
f 179/1/6 180/1/6 184/1/6
f 180/1/6 181/1/6 184/1/6
f 181/3/6 182/3/6 184/3/6
f 184/3/6 182/3/6 185/3/6
f 184/1/6 185/1/6 186/1/6
f 183/1/6 168/1/6 187/1/6
f 169/1/6 179/1/6 188/1/6
f 186/1/6 187/1/6 188/1/6
f 184/1/6 186/1/6 188/1/6
f 179/1/6 184/1/6 188/1/6
f 187/1/6 168/1/6 189/1/6
f 188/1/6 187/1/6 189/1/6
f 190/3/6 191/3/6 193/3/6
f 193/3/6 191/3/6 194/3/6
f 194/3/6 191/3/6 195/3/6
f 192/2/6 193/2/6 196/2/6
f 193/2/6 194/2/6 196/2/6
f 196/2/6 194/2/6 197/2/6
