# MagicaVoxel @ Ephtracy

# group
o 

# material
mtllib Road Mid 2.mtl
usemtl palette

# normals
vn -1 0 0
vn 1 0 0
vn 0 0 1
vn 0 0 -1
vn 0 -1 0
vn 0 1 0

# texcoords
vt 0.537109 0.5
vt 0.869141 0.5
vt 0.880859 0.5
vt 0.904297 0.5

# verts
v 0 2 0
v 0 2 -0.8
v 0 2.2 0
v 0 2.2 -0.8
v 0 2.3 0
v 0 2.3 -0.8
v 0.3 2.2 -0.1
v 0.3 2.2 -0.2
v 0.3 2.3 -0.1
v 0.3 2.3 -0.2
v 0.6 2.2 -0.6
v 0.6 2.2 -0.7
v 0.6 2.3 -0.6
v 0.6 2.3 -0.7
v 0.7 2.1 -0.1
v 0.7 2.1 -0.4
v 0.7 2.2 -0.1
v 0.7 2.2 -0.2
v 0.7 2.2 -0.4
v 0.2 2.1 -0.1
v 0.2 2.1 -0.2
v 0.2 2.2 -0.1
v 0.2 2.2 -0.2
v 0.2 2.3 -0.1
v 0.2 2.3 -0.2
v 0.5 2.2 -0.6
v 0.5 2.2 -0.7
v 0.5 2.3 -0.6
v 0.5 2.3 -0.7
v 0.6 2.1 -0.2
v 0.6 2.1 -0.3
v 0.6 2.1 -0.4
v 0.6 2.2 -0.2
v 0.6 2.2 -0.3
v 0.6 2.2 -0.4
v 0.8 2 0
v 0.8 2 -0.8
v 0.8 2.2 0
v 0.8 2.2 -0.8
v 0.8 2.3 0
v 0.8 2.3 -0.8
v 0 2 0
v 0 2.2 0
v 0 2.3 0
v 0.8 2 0
v 0.8 2.2 0
v 0.8 2.3 0
v 0.2 2.1 -0.2
v 0.2 2.2 -0.2
v 0.2 2.3 -0.2
v 0.3 2.2 -0.2
v 0.3 2.3 -0.2
v 0.4 2.1 -0.2
v 0.4 2.2 -0.2
v 0.5 2.1 -0.2
v 0.6 2.1 -0.2
v 0.6 2.2 -0.2
v 0.6 2.1 -0.4
v 0.6 2.2 -0.4
v 0.7 2.1 -0.4
v 0.7 2.2 -0.4
v 0.5 2.2 -0.7
v 0.5 2.3 -0.7
v 0.6 2.2 -0.7
v 0.6 2.3 -0.7
v 0.2 2.1 -0.1
v 0.2 2.2 -0.1
v 0.2 2.3 -0.1
v 0.3 2.2 -0.1
v 0.3 2.3 -0.1
v 0.5 2.1 -0.1
v 0.6 2.2 -0.1
v 0.7 2.1 -0.1
v 0.7 2.2 -0.1
v 0.5 2.2 -0.6
v 0.5 2.3 -0.6
v 0.6 2.2 -0.6
v 0.6 2.3 -0.6
v 0 2 -0.8
v 0 2.2 -0.8
v 0 2.3 -0.8
v 0.8 2 -0.8
v 0.8 2.2 -0.8
v 0.8 2.3 -0.8
v 0 2 0
v 0.8 2 0
v 0.5 2 -0.1
v 0.7 2 -0.1
v 0.5 2 -0.2
v 0.6 2 -0.2
v 0.6 2 -0.4
v 0.7 2 -0.4
v 0 2 -0.8
v 0.8 2 -0.8
v 0.3 2.2 -0.1
v 0.6 2.2 -0.1
v 0.7 2.2 -0.1
v 0.3 2.2 -0.2
v 0.4 2.2 -0.2
v 0.6 2.2 -0.2
v 0.7 2.2 -0.2
v 0.6 2.2 -0.3
v 0.6 2.2 -0.4
v 0.7 2.2 -0.4
v 0.2 2.1 -0.1
v 0.5 2.1 -0.1
v 0.7 2.1 -0.1
v 0.2 2.1 -0.2
v 0.4 2.1 -0.2
v 0.5 2.1 -0.2
v 0.6 2.1 -0.2
v 0.6 2.1 -0.3
v 0.6 2.1 -0.4
v 0.7 2.1 -0.4
v 0.5 2.2 -0.6
v 0.6 2.2 -0.6
v 0.5 2.2 -0.7
v 0.6 2.2 -0.7
v 0 2.3 0
v 0.8 2.3 0
v 0.2 2.3 -0.1
v 0.3 2.3 -0.1
v 0.6 2.3 -0.1
v 0.7 2.3 -0.1
v 0.2 2.3 -0.2
v 0.3 2.3 -0.2
v 0.6 2.3 -0.2
v 0.7 2.3 -0.2
v 0.2 2.3 -0.3
v 0.3 2.3 -0.3
v 0.5 2.3 -0.3
v 0.6 2.3 -0.3
v 0.2 2.3 -0.4
v 0.3 2.3 -0.4
v 0.5 2.3 -0.4
v 0.6 2.3 -0.4
v 0.1 2.3 -0.6
v 0.2 2.3 -0.6
v 0.5 2.3 -0.6
v 0.6 2.3 -0.6
v 0.1 2.3 -0.7
v 0.2 2.3 -0.7
v 0.5 2.3 -0.7
v 0.6 2.3 -0.7
v 0 2.3 -0.8
v 0.8 2.3 -0.8

# faces
f 3/3/1 2/3/1 1/3/1
f 4/3/1 2/3/1 3/3/1
f 5/1/1 4/1/1 3/1/1
f 6/1/1 4/1/1 5/1/1
f 9/1/1 8/1/1 7/1/1
f 10/1/1 8/1/1 9/1/1
f 13/1/1 12/1/1 11/1/1
f 14/1/1 12/1/1 13/1/1
f 17/3/1 16/3/1 15/3/1
f 18/3/1 16/3/1 17/3/1
f 19/3/1 16/3/1 18/3/1
f 20/3/2 21/3/2 22/3/2
f 22/3/2 21/3/2 23/3/2
f 22/1/2 23/1/2 24/1/2
f 24/1/2 23/1/2 25/1/2
f 26/1/2 27/1/2 28/1/2
f 28/1/2 27/1/2 29/1/2
f 30/4/2 31/4/2 33/4/2
f 31/3/2 32/3/2 34/3/2
f 33/4/2 31/4/2 34/4/2
f 34/3/2 32/3/2 35/3/2
f 36/3/2 37/3/2 38/3/2
f 38/3/2 37/3/2 39/3/2
f 38/1/2 39/1/2 40/1/2
f 40/1/2 39/1/2 41/1/2
f 45/3/3 43/3/3 42/3/3
f 46/1/3 44/1/3 43/1/3
f 46/3/3 43/3/3 45/3/3
f 47/1/3 44/1/3 46/1/3
f 51/3/3 49/3/3 48/3/3
f 51/1/3 50/1/3 49/1/3
f 52/1/3 50/1/3 51/1/3
f 53/3/3 51/3/3 48/3/3
f 54/3/3 51/3/3 53/3/3
f 55/4/3 54/4/3 53/4/3
f 56/4/3 54/4/3 55/4/3
f 57/4/3 54/4/3 56/4/3
f 60/1/3 59/1/3 58/1/3
f 61/1/3 59/1/3 60/1/3
f 64/1/3 63/1/3 62/1/3
f 65/1/3 63/1/3 64/1/3
f 66/3/4 67/3/4 69/3/4
f 67/1/4 68/1/4 69/1/4
f 69/1/4 68/1/4 70/1/4
f 66/3/4 69/3/4 71/3/4
f 71/3/4 69/3/4 72/3/4
f 71/3/4 72/3/4 73/3/4
f 73/3/4 72/3/4 74/3/4
f 75/1/4 76/1/4 77/1/4
f 77/1/4 76/1/4 78/1/4
f 79/3/4 80/3/4 82/3/4
f 80/1/4 81/1/4 83/1/4
f 82/3/4 80/3/4 83/3/4
f 83/1/4 81/1/4 84/1/4
f 87/3/5 86/3/5 85/3/5
f 88/3/5 86/3/5 87/3/5
f 89/3/5 87/3/5 85/3/5
f 89/4/5 88/4/5 87/4/5
f 90/4/5 88/4/5 89/4/5
f 91/3/5 90/3/5 89/3/5
f 91/4/5 88/4/5 90/4/5
f 92/3/5 86/3/5 88/3/5
f 92/4/5 88/4/5 91/4/5
f 93/3/5 91/3/5 89/3/5
f 93/3/5 89/3/5 85/3/5
f 93/3/5 92/3/5 91/3/5
f 94/3/5 86/3/5 92/3/5
f 94/3/5 92/3/5 93/3/5
f 98/1/5 96/1/5 95/1/5
f 99/1/5 96/1/5 98/1/5
f 100/2/5 97/2/5 96/2/5
f 100/1/5 96/1/5 99/1/5
f 101/2/5 97/2/5 100/2/5
f 102/1/5 101/1/5 100/1/5
f 103/1/5 101/1/5 102/1/5
f 104/1/5 101/1/5 103/1/5
f 105/3/6 106/3/6 108/3/6
f 108/3/6 106/3/6 109/3/6
f 106/4/6 107/4/6 110/4/6
f 109/3/6 106/3/6 110/3/6
f 110/4/6 107/4/6 111/4/6
f 111/4/6 107/4/6 112/4/6
f 112/4/6 107/4/6 113/4/6
f 113/4/6 107/4/6 114/4/6
f 115/3/6 116/3/6 117/3/6
f 117/3/6 116/3/6 118/3/6
f 119/1/6 120/1/6 121/1/6
f 121/1/6 120/1/6 122/1/6
f 122/1/6 120/1/6 123/1/6
f 123/1/6 120/1/6 124/1/6
f 119/1/6 121/1/6 125/1/6
f 122/1/6 123/1/6 126/1/6
f 123/2/6 124/2/6 127/2/6
f 126/1/6 123/1/6 127/1/6
f 124/1/6 120/1/6 128/1/6
f 127/2/6 124/2/6 128/2/6
f 126/1/6 127/1/6 129/1/6
f 125/1/6 126/1/6 129/1/6
f 127/1/6 128/1/6 129/1/6
f 119/1/6 125/1/6 129/1/6
f 129/1/6 128/1/6 130/1/6
f 130/1/6 128/1/6 131/1/6
f 131/1/6 128/1/6 132/1/6
f 119/1/6 129/1/6 133/1/6
f 129/2/6 130/2/6 133/2/6
f 130/1/6 131/1/6 134/1/6
f 133/2/6 130/2/6 134/2/6
f 131/2/6 132/2/6 135/2/6
f 134/1/6 131/1/6 135/1/6
f 132/1/6 128/1/6 136/1/6
f 135/2/6 132/2/6 136/2/6
f 134/1/6 135/1/6 137/1/6
f 133/1/6 134/1/6 137/1/6
f 135/1/6 136/1/6 137/1/6
f 119/1/6 133/1/6 137/1/6
f 137/1/6 136/1/6 138/1/6
f 138/1/6 136/1/6 139/1/6
f 136/1/6 128/1/6 140/1/6
f 139/1/6 136/1/6 140/1/6
f 119/1/6 137/1/6 141/1/6
f 137/2/6 138/2/6 141/2/6
f 138/1/6 139/1/6 142/1/6
f 141/2/6 138/2/6 142/2/6
f 142/1/6 139/1/6 143/1/6
f 140/1/6 128/1/6 144/1/6
f 119/1/6 141/1/6 145/1/6
f 143/1/6 144/1/6 145/1/6
f 142/1/6 143/1/6 145/1/6
f 141/1/6 142/1/6 145/1/6
f 128/1/6 120/1/6 146/1/6
f 145/1/6 144/1/6 146/1/6
f 144/1/6 128/1/6 146/1/6
