# MagicaVoxel @ Ephtracy

# group
o 

# material
mtllib Road turn 1.mtl
usemtl palette

# normals
vn -1 0 0
vn 1 0 0
vn 0 0 1
vn 0 0 -1
vn 0 -1 0
vn 0 1 0

# texcoords
vt 0.205078 0.5
vt 0.537109 0.5
vt 0.880859 0.5
vt 0.904297 0.5

# verts
v 0 2 0
v 0 2 -0.8
v 0 2.2 0
v 0 2.2 -0.8
v 0.1 2.2 0
v 0.1 2.2 -0.1
v 0.1 2.3 0
v 0.1 2.3 -0.1
v 0.2 2.2 -0.1
v 0.2 2.2 -0.3
v 0.2 2.3 -0.1
v 0.2 2.3 -0.3
v 0.3 2.2 -0.3
v 0.3 2.2 -0.4
v 0.3 2.3 -0.3
v 0.3 2.4 -0.3
v 0.3 2.4 -0.4
v 0.5 2.2 -0.4
v 0.5 2.2 -0.5
v 0.5 2.3 -0.4
v 0.5 2.3 -0.5
v 0.7 2.1 -0.1
v 0.7 2.1 -0.4
v 0.7 2.1 -0.5
v 0.7 2.1 -0.7
v 0.7 2.2 -0.1
v 0.7 2.2 -0.4
v 0.7 2.2 -0.5
v 0.7 2.2 -0.7
v 0.7 2.3 -0.5
v 0.7 2.3 -0.7
v 0.2 2.1 -0.1
v 0.2 2.1 -0.2
v 0.2 2.2 -0.1
v 0.2 2.2 -0.2
v 0.6 2.1 -0.2
v 0.6 2.1 -0.3
v 0.6 2.1 -0.4
v 0.6 2.1 -0.5
v 0.6 2.1 -0.7
v 0.6 2.2 -0.2
v 0.6 2.2 -0.3
v 0.6 2.2 -0.4
v 0.6 2.2 -0.5
v 0.6 2.2 -0.7
v 0.6 2.3 -0.3
v 0.6 2.3 -0.4
v 0.6 2.4 -0.3
v 0.6 2.4 -0.4
v 0.8 2 0
v 0.8 2 -0.8
v 0.8 2.2 0
v 0.8 2.2 -0.7
v 0.8 2.2 -0.8
v 0.8 2.3 0
v 0.8 2.3 -0.7
v 0 2 0
v 0 2.2 0
v 0.1 2.2 0
v 0.1 2.3 0
v 0.8 2 0
v 0.8 2.2 0
v 0.8 2.3 0
v 0.2 2.1 -0.2
v 0.2 2.2 -0.2
v 0.4 2.1 -0.2
v 0.4 2.2 -0.2
v 0.5 2.1 -0.2
v 0.6 2.1 -0.2
v 0.6 2.2 -0.2
v 0.3 2.3 -0.3
v 0.3 2.4 -0.3
v 0.6 2.3 -0.3
v 0.6 2.4 -0.3
v 0.6 2.1 -0.4
v 0.6 2.2 -0.4
v 0.7 2.1 -0.4
v 0.7 2.2 -0.4
v 0.6 2.1 -0.7
v 0.6 2.2 -0.7
v 0.7 2.1 -0.7
v 0.7 2.2 -0.7
v 0.1 2.2 -0.1
v 0.1 2.3 -0.1
v 0.2 2.1 -0.1
v 0.2 2.2 -0.1
v 0.2 2.3 -0.1
v 0.5 2.1 -0.1
v 0.7 2.1 -0.1
v 0.7 2.2 -0.1
v 0.2 2.2 -0.3
v 0.2 2.3 -0.3
v 0.3 2.2 -0.3
v 0.3 2.3 -0.3
v 0.3 2.2 -0.4
v 0.3 2.4 -0.4
v 0.5 2.2 -0.4
v 0.5 2.3 -0.4
v 0.6 2.3 -0.4
v 0.6 2.4 -0.4
v 0.5 2.2 -0.5
v 0.5 2.3 -0.5
v 0.6 2.1 -0.5
v 0.6 2.2 -0.5
v 0.7 2.1 -0.5
v 0.7 2.2 -0.5
v 0.7 2.3 -0.5
v 0.7 2.2 -0.7
v 0.7 2.3 -0.7
v 0.8 2.2 -0.7
v 0.8 2.3 -0.7
v 0 2 -0.8
v 0 2.2 -0.8
v 0.8 2 -0.8
v 0.8 2.2 -0.8
v 0 2 0
v 0.8 2 0
v 0.5 2 -0.1
v 0.7 2 -0.1
v 0.5 2 -0.2
v 0.6 2 -0.2
v 0.6 2 -0.4
v 0.7 2 -0.4
v 0 2 -0.8
v 0.8 2 -0.8
v 0.2 2.2 -0.1
v 0.7 2.2 -0.1
v 0.2 2.2 -0.2
v 0.4 2.2 -0.2
v 0.6 2.2 -0.2
v 0.6 2.2 -0.3
v 0.6 2.2 -0.4
v 0.7 2.2 -0.4
v 0.2 2.1 -0.1
v 0.5 2.1 -0.1
v 0.7 2.1 -0.1
v 0.2 2.1 -0.2
v 0.4 2.1 -0.2
v 0.5 2.1 -0.2
v 0.6 2.1 -0.2
v 0.6 2.1 -0.3
v 0.6 2.1 -0.4
v 0.7 2.1 -0.4
v 0.6 2.1 -0.5
v 0.7 2.1 -0.5
v 0.6 2.1 -0.7
v 0.7 2.1 -0.7
v 0 2.2 0
v 0.1 2.2 0
v 0.1 2.2 -0.1
v 0.2 2.2 -0.1
v 0.1 2.2 -0.3
v 0.2 2.2 -0.3
v 0.3 2.2 -0.3
v 0.2 2.2 -0.4
v 0.3 2.2 -0.4
v 0.5 2.2 -0.4
v 0.5 2.2 -0.5
v 0.6 2.2 -0.5
v 0.1 2.2 -0.7
v 0.5 2.2 -0.7
v 0.6 2.2 -0.7
v 0.7 2.2 -0.7
v 0.8 2.2 -0.7
v 0 2.2 -0.8
v 0.8 2.2 -0.8
v 0.1 2.3 0
v 0.8 2.3 0
v 0.1 2.3 -0.1
v 0.2 2.3 -0.1
v 0.2 2.3 -0.3
v 0.3 2.3 -0.3
v 0.6 2.3 -0.3
v 0.5 2.3 -0.4
v 0.6 2.3 -0.4
v 0.5 2.3 -0.5
v 0.7 2.3 -0.5
v 0.7 2.3 -0.7
v 0.8 2.3 -0.7
v 0.3 2.4 -0.3
v 0.6 2.4 -0.3
v 0.3 2.4 -0.4
v 0.6 2.4 -0.4

# faces
f 3/3/1 2/3/1 1/3/1
f 4/3/1 2/3/1 3/3/1
f 7/2/1 6/2/1 5/2/1
f 8/2/1 6/2/1 7/2/1
f 11/2/1 10/2/1 9/2/1
f 12/2/1 10/2/1 11/2/1
f 15/2/1 14/2/1 13/2/1
f 16/2/1 14/2/1 15/2/1
f 17/2/1 14/2/1 16/2/1
f 20/2/1 19/2/1 18/2/1
f 21/2/1 19/2/1 20/2/1
f 26/3/1 23/3/1 22/3/1
f 27/3/1 23/3/1 26/3/1
f 28/3/1 25/3/1 24/3/1
f 29/3/1 25/3/1 28/3/1
f 30/2/1 29/2/1 28/2/1
f 31/2/1 29/2/1 30/2/1
f 32/3/2 33/3/2 34/3/2
f 34/3/2 33/3/2 35/3/2
f 36/4/2 37/4/2 41/4/2
f 37/3/2 38/3/2 42/3/2
f 41/4/2 37/4/2 42/4/2
f 42/3/2 38/3/2 43/3/2
f 39/3/2 40/3/2 44/3/2
f 44/3/2 40/3/2 45/3/2
f 46/2/2 47/2/2 48/2/2
f 48/2/2 47/2/2 49/2/2
f 50/3/2 51/3/2 52/3/2
f 52/3/2 51/3/2 53/3/2
f 53/3/2 51/3/2 54/3/2
f 52/2/2 53/2/2 55/2/2
f 55/2/2 53/2/2 56/2/2
f 59/3/3 58/3/3 57/3/3
f 61/3/3 59/3/3 57/3/3
f 62/2/3 60/2/3 59/2/3
f 62/3/3 59/3/3 61/3/3
f 63/2/3 60/2/3 62/2/3
f 66/3/3 65/3/3 64/3/3
f 67/3/3 65/3/3 66/3/3
f 68/4/3 67/4/3 66/4/3
f 69/4/3 67/4/3 68/4/3
f 70/4/3 67/4/3 69/4/3
f 73/2/3 72/2/3 71/2/3
f 74/2/3 72/2/3 73/2/3
f 77/2/3 76/2/3 75/2/3
f 78/2/3 76/2/3 77/2/3
f 81/3/3 80/3/3 79/3/3
f 82/3/3 80/3/3 81/3/3
f 83/2/4 84/2/4 86/2/4
f 86/2/4 84/2/4 87/2/4
f 85/3/4 86/3/4 88/3/4
f 88/3/4 86/3/4 89/3/4
f 89/3/4 86/3/4 90/3/4
f 91/2/4 92/2/4 93/2/4
f 93/2/4 92/2/4 94/2/4
f 95/2/4 96/2/4 97/2/4
f 97/2/4 96/2/4 98/2/4
f 98/2/4 96/2/4 99/2/4
f 99/2/4 96/2/4 100/2/4
f 101/2/4 102/2/4 104/2/4
f 103/2/4 104/2/4 105/2/4
f 104/2/4 102/2/4 106/2/4
f 105/2/4 104/2/4 106/2/4
f 106/2/4 102/2/4 107/2/4
f 108/2/4 109/2/4 110/2/4
f 110/2/4 109/2/4 111/2/4
f 112/3/4 113/3/4 114/3/4
f 114/3/4 113/3/4 115/3/4
f 118/3/5 117/3/5 116/3/5
f 119/3/5 117/3/5 118/3/5
f 120/3/5 118/3/5 116/3/5
f 120/4/5 119/4/5 118/4/5
f 121/4/5 119/4/5 120/4/5
f 122/3/5 121/3/5 120/3/5
f 122/4/5 119/4/5 121/4/5
f 123/3/5 117/3/5 119/3/5
f 123/4/5 119/4/5 122/4/5
f 124/3/5 122/3/5 120/3/5
f 124/3/5 120/3/5 116/3/5
f 124/3/5 123/3/5 122/3/5
f 125/3/5 117/3/5 123/3/5
f 125/3/5 123/3/5 124/3/5
f 128/2/5 127/2/5 126/2/5
f 129/2/5 127/2/5 128/2/5
f 130/2/5 127/2/5 129/2/5
f 131/2/5 127/2/5 130/2/5
f 132/2/5 127/2/5 131/2/5
f 133/2/5 127/2/5 132/2/5
f 134/3/6 135/3/6 137/3/6
f 137/3/6 135/3/6 138/3/6
f 135/4/6 136/4/6 139/4/6
f 138/3/6 135/3/6 139/3/6
f 139/4/6 136/4/6 140/4/6
f 140/4/6 136/4/6 141/4/6
f 141/4/6 136/4/6 142/4/6
f 142/4/6 136/4/6 143/4/6
f 144/3/6 145/3/6 146/3/6
f 146/3/6 145/3/6 147/3/6
f 148/3/6 149/3/6 150/3/6
f 148/3/6 150/3/6 152/3/6
f 150/3/6 151/3/6 152/3/6
f 152/3/6 151/3/6 153/3/6
f 152/1/6 153/1/6 155/1/6
f 153/3/6 154/3/6 155/3/6
f 155/3/6 154/3/6 156/3/6
f 155/1/6 156/1/6 158/1/6
f 156/1/6 157/1/6 158/1/6
f 148/3/6 152/3/6 160/3/6
f 152/1/6 155/1/6 160/1/6
f 155/1/6 158/1/6 160/1/6
f 158/3/6 159/3/6 161/3/6
f 160/1/6 158/1/6 161/1/6
f 161/3/6 159/3/6 162/3/6
f 148/3/6 160/3/6 165/3/6
f 163/3/6 164/3/6 165/3/6
f 162/3/6 163/3/6 165/3/6
f 161/3/6 162/3/6 165/3/6
f 160/3/6 161/3/6 165/3/6
f 165/3/6 164/3/6 166/3/6
f 167/2/6 168/2/6 169/2/6
f 169/2/6 168/2/6 170/2/6
f 170/2/6 168/2/6 171/2/6
f 171/2/6 168/2/6 172/2/6
f 172/2/6 168/2/6 173/2/6
f 173/2/6 168/2/6 175/2/6
f 174/2/6 175/2/6 176/2/6
f 175/2/6 168/2/6 177/2/6
f 176/2/6 175/2/6 177/2/6
f 177/2/6 168/2/6 178/2/6
f 178/2/6 168/2/6 179/2/6
f 180/2/6 181/2/6 182/2/6
f 182/2/6 181/2/6 183/2/6
