# MagicaVoxel @ Ephtracy

# group
o 

# material
mtllib Road Half 4.mtl
usemtl palette

# normals
vn -1 0 0
vn 1 0 0
vn 0 0 1
vn 0 0 -1
vn 0 -1 0
vn 0 1 0

# texcoords
vt 0.369141 0.5
vt 0.533203 0.5
vt 0.537109 0.5
vt 0.560547 0.5
vt 0.869141 0.5
vt 0.880859 0.5
vt 0.896484 0.5

# verts
v 0 2 0
v 0 2 -0.8
v 0 2.2 0
v 0 2.2 -0.7
v 0 2.2 -0.8
v 0 2.3 0
v 0 2.3 -0.7
v 0.7 2.2 -0.6
v 0.7 2.2 -0.7
v 0.7 2.3 -0.6
v 0.7 2.3 -0.7
v 0.6 2.2 -0.6
v 0.6 2.2 -0.7
v 0.6 2.3 -0.6
v 0.6 2.3 -0.7
v 0.8 2 0
v 0.8 2 -0.8
v 0.8 2.2 0
v 0.8 2.2 -0.7
v 0.8 2.2 -0.8
v 0.8 2.3 0
v 0.8 2.3 -0.7
v 0 2 0
v 0 2.2 0
v 0 2.3 0
v 0.8 2 0
v 0.8 2.2 0
v 0.8 2.3 0
v 0.6 2.2 -0.6
v 0.6 2.3 -0.6
v 0.7 2.2 -0.6
v 0.7 2.3 -0.6
v 0 2.2 -0.7
v 0 2.3 -0.7
v 0.6 2.2 -0.7
v 0.6 2.3 -0.7
v 0.7 2.2 -0.7
v 0.7 2.3 -0.7
v 0.8 2.2 -0.7
v 0.8 2.3 -0.7
v 0 2 -0.8
v 0 2.2 -0.8
v 0.8 2 -0.8
v 0.8 2.2 -0.8
v 0 2 0
v 0.8 2 0
v 0 2 -0.8
v 0.8 2 -0.8
v 0.6 2.2 -0.6
v 0.7 2.2 -0.6
v 0 2.2 -0.7
v 0.6 2.2 -0.7
v 0.7 2.2 -0.7
v 0.8 2.2 -0.7
v 0 2.2 -0.8
v 0.8 2.2 -0.8
v 0 2.3 0
v 0.8 2.3 0
v 0.1 2.3 -0.1
v 0.2 2.3 -0.1
v 0.3 2.3 -0.1
v 0.7 2.3 -0.1
v 0.1 2.3 -0.2
v 0.2 2.3 -0.2
v 0.3 2.3 -0.3
v 0.7 2.3 -0.3
v 0.1 2.3 -0.4
v 0.2 2.3 -0.4
v 0.5 2.3 -0.4
v 0.6 2.3 -0.4
v 0.7 2.3 -0.4
v 0.1 2.3 -0.5
v 0.2 2.3 -0.5
v 0.3 2.3 -0.5
v 0.5 2.3 -0.5
v 0.6 2.3 -0.5
v 0.7 2.3 -0.5
v 0.2 2.3 -0.6
v 0.3 2.3 -0.6
v 0.5 2.3 -0.6
v 0.6 2.3 -0.6
v 0.7 2.3 -0.6
v 0 2.3 -0.7
v 0.6 2.3 -0.7
v 0.7 2.3 -0.7
v 0.8 2.3 -0.7

# faces
f 3/6/1 2/6/1 1/6/1
f 4/6/1 2/6/1 3/6/1
f 5/6/1 2/6/1 4/6/1
f 6/3/1 4/3/1 3/3/1
f 7/3/1 4/3/1 6/3/1
f 10/3/1 9/3/1 8/3/1
f 11/3/1 9/3/1 10/3/1
f 12/3/2 13/3/2 14/3/2
f 14/3/2 13/3/2 15/3/2
f 16/6/2 17/6/2 18/6/2
f 18/6/2 17/6/2 19/6/2
f 19/6/2 17/6/2 20/6/2
f 18/3/2 19/3/2 21/3/2
f 21/3/2 19/3/2 22/3/2
f 26/6/3 24/6/3 23/6/3
f 27/3/3 25/3/3 24/3/3
f 27/6/3 24/6/3 26/6/3
f 28/3/3 25/3/3 27/3/3
f 29/3/4 30/3/4 31/3/4
f 31/3/4 30/3/4 32/3/4
f 33/3/4 34/3/4 35/3/4
f 35/3/4 34/3/4 36/3/4
f 37/3/4 38/3/4 39/3/4
f 39/3/4 38/3/4 40/3/4
f 41/6/4 42/6/4 43/6/4
f 43/6/4 42/6/4 44/6/4
f 47/6/5 46/6/5 45/6/5
f 48/6/5 46/6/5 47/6/5
f 49/7/6 50/7/6 52/7/6
f 52/7/6 50/7/6 53/7/6
f 51/6/6 52/6/6 55/6/6
f 53/6/6 54/6/6 55/6/6
f 52/6/6 53/6/6 55/6/6
f 55/6/6 54/6/6 56/6/6
f 57/3/6 58/3/6 59/3/6
f 59/3/6 58/3/6 60/3/6
f 60/3/6 58/3/6 61/3/6
f 61/3/6 58/3/6 62/3/6
f 57/3/6 59/3/6 63/3/6
f 59/4/6 60/4/6 63/4/6
f 60/3/6 61/3/6 64/3/6
f 63/4/6 60/4/6 64/4/6
f 61/1/6 62/1/6 65/1/6
f 64/3/6 61/3/6 65/3/6
f 63/3/6 64/3/6 65/3/6
f 62/3/6 58/3/6 66/3/6
f 65/1/6 62/1/6 66/1/6
f 63/3/6 65/3/6 67/3/6
f 57/3/6 63/3/6 67/3/6
f 65/3/6 66/3/6 67/3/6
f 67/3/6 66/3/6 68/3/6
f 68/3/6 66/3/6 69/3/6
f 69/3/6 66/3/6 70/3/6
f 66/3/6 58/3/6 71/3/6
f 70/3/6 66/3/6 71/3/6
f 57/3/6 67/3/6 72/3/6
f 67/1/6 68/1/6 72/1/6
f 68/3/6 69/3/6 73/3/6
f 72/1/6 68/1/6 73/1/6
f 73/3/6 69/3/6 74/3/6
f 69/4/6 70/4/6 75/4/6
f 74/3/6 69/3/6 75/3/6
f 70/1/6 71/1/6 76/1/6
f 75/4/6 70/4/6 76/4/6
f 71/3/6 58/3/6 77/3/6
f 76/1/6 71/1/6 77/1/6
f 73/2/6 74/2/6 78/2/6
f 72/3/6 73/3/6 78/3/6
f 74/3/6 75/3/6 79/3/6
f 78/2/6 74/2/6 79/2/6
f 75/2/6 76/2/6 80/2/6
f 79/3/6 75/3/6 80/3/6
f 76/3/6 77/3/6 81/3/6
f 80/2/6 76/2/6 81/2/6
f 77/3/6 58/3/6 82/3/6
f 81/3/6 77/3/6 82/3/6
f 80/3/6 81/3/6 83/3/6
f 78/3/6 79/3/6 83/3/6
f 79/3/6 80/3/6 83/3/6
f 57/3/6 72/3/6 83/3/6
f 72/3/6 78/3/6 83/3/6
f 83/3/6 81/3/6 84/3/6
f 82/3/6 58/3/6 85/3/6
f 85/3/6 58/3/6 86/3/6
