# MagicaVoxel @ Ephtracy

# group
o 

# material
mtllib Road Mid 4.mtl
usemtl palette

# normals
vn -1 0 0
vn 1 0 0
vn 0 0 1
vn 0 0 -1
vn 0 -1 0
vn 0 1 0

# texcoords
vt 0.537109 0.5
vt 0.880859 0.5
vt 0.904297 0.5
vt 0.978516 0.5
vt 0.982422 0.5

# verts
v 0 2 0
v 0 2 -0.8
v 0 2.2 0
v 0 2.2 -0.8
v 0 2.3 0
v 0 2.3 -0.8
v 0.1 2.3 -0.3
v 0.1 2.3 -0.6
v 0.1 2.4 -0.3
v 0.1 2.4 -0.6
v 0.2 2.3 -0.1
v 0.2 2.3 -0.2
v 0.2 2.3 -0.3
v 0.2 2.4 -0.3
v 0.2 2.4 -0.6
v 0.2 2.5 -0.1
v 0.2 2.5 -0.2
v 0.2 2.5 -0.6
v 0.7 2.1 -0.1
v 0.7 2.1 -0.4
v 0.7 2.2 -0.1
v 0.7 2.2 -0.4
v 0.2 2.1 -0.1
v 0.2 2.1 -0.2
v 0.2 2.2 -0.1
v 0.2 2.2 -0.2
v 0.5 2.3 -0.3
v 0.5 2.3 -0.6
v 0.5 2.4 -0.1
v 0.5 2.4 -0.3
v 0.5 2.5 -0.1
v 0.5 2.5 -0.6
v 0.6 2.1 -0.2
v 0.6 2.1 -0.3
v 0.6 2.1 -0.4
v 0.6 2.2 -0.2
v 0.6 2.2 -0.3
v 0.6 2.2 -0.4
v 0.6 2.3 -0.1
v 0.6 2.3 -0.3
v 0.6 2.4 -0.1
v 0.6 2.4 -0.3
v 0.8 2 0
v 0.8 2 -0.8
v 0.8 2.2 0
v 0.8 2.2 -0.8
v 0.8 2.3 0
v 0.8 2.3 -0.8
v 0 2 0
v 0 2.2 0
v 0 2.3 0
v 0.8 2 0
v 0.8 2.2 0
v 0.8 2.3 0
v 0.2 2.3 -0.1
v 0.2 2.5 -0.1
v 0.5 2.3 -0.1
v 0.5 2.4 -0.1
v 0.5 2.5 -0.1
v 0.6 2.3 -0.1
v 0.6 2.4 -0.1
v 0.2 2.1 -0.2
v 0.2 2.2 -0.2
v 0.3 2.1 -0.2
v 0.3 2.2 -0.2
v 0.4 2.1 -0.2
v 0.4 2.2 -0.2
v 0.5 2.1 -0.2
v 0.6 2.1 -0.2
v 0.6 2.2 -0.2
v 0.1 2.3 -0.3
v 0.1 2.4 -0.3
v 0.2 2.3 -0.3
v 0.2 2.4 -0.3
v 0.6 2.1 -0.4
v 0.6 2.2 -0.4
v 0.7 2.1 -0.4
v 0.7 2.2 -0.4
v 0.2 2.1 -0.1
v 0.2 2.2 -0.1
v 0.4 2.1 -0.1
v 0.5 2.1 -0.1
v 0.7 2.1 -0.1
v 0.7 2.2 -0.1
v 0.5 2.3 -0.3
v 0.5 2.4 -0.3
v 0.6 2.3 -0.3
v 0.6 2.4 -0.3
v 0.1 2.3 -0.6
v 0.1 2.4 -0.6
v 0.2 2.4 -0.6
v 0.2 2.5 -0.6
v 0.3 2.3 -0.6
v 0.3 2.5 -0.6
v 0.5 2.3 -0.6
v 0.5 2.5 -0.6
v 0 2 -0.8
v 0 2.2 -0.8
v 0 2.3 -0.8
v 0.8 2 -0.8
v 0.8 2.2 -0.8
v 0.8 2.3 -0.8
v 0 2 0
v 0.8 2 0
v 0.2 2 -0.1
v 0.4 2 -0.1
v 0.5 2 -0.1
v 0.7 2 -0.1
v 0.2 2 -0.2
v 0.4 2 -0.2
v 0.5 2 -0.2
v 0.6 2 -0.2
v 0.6 2 -0.4
v 0.7 2 -0.4
v 0 2 -0.8
v 0.8 2 -0.8
v 0.2 2.2 -0.1
v 0.7 2.2 -0.1
v 0.2 2.2 -0.2
v 0.3 2.2 -0.2
v 0.4 2.2 -0.2
v 0.6 2.2 -0.2
v 0.6 2.2 -0.3
v 0.6 2.2 -0.4
v 0.7 2.2 -0.4
v 0.2 2.1 -0.1
v 0.4 2.1 -0.1
v 0.5 2.1 -0.1
v 0.7 2.1 -0.1
v 0.2 2.1 -0.2
v 0.3 2.1 -0.2
v 0.4 2.1 -0.2
v 0.5 2.1 -0.2
v 0.6 2.1 -0.2
v 0.6 2.1 -0.3
v 0.6 2.1 -0.4
v 0.7 2.1 -0.4
v 0 2.3 0
v 0.8 2.3 0
v 0.2 2.3 -0.1
v 0.5 2.3 -0.1
v 0.6 2.3 -0.1
v 0.1 2.3 -0.2
v 0.2 2.3 -0.2
v 0.1 2.3 -0.3
v 0.2 2.3 -0.3
v 0.5 2.3 -0.3
v 0.6 2.3 -0.3
v 0.1 2.3 -0.6
v 0.3 2.3 -0.6
v 0.5 2.3 -0.6
v 0 2.3 -0.8
v 0.8 2.3 -0.8
v 0.5 2.4 -0.1
v 0.6 2.4 -0.1
v 0.1 2.4 -0.3
v 0.2 2.4 -0.3
v 0.5 2.4 -0.3
v 0.6 2.4 -0.3
v 0.1 2.4 -0.6
v 0.2 2.4 -0.6
v 0.2 2.5 -0.1
v 0.5 2.5 -0.1
v 0.2 2.5 -0.2
v 0.3 2.5 -0.2
v 0.3 2.5 -0.3
v 0.4 2.5 -0.3
v 0.3 2.5 -0.4
v 0.4 2.5 -0.4
v 0.2 2.5 -0.6
v 0.3 2.5 -0.6
v 0.5 2.5 -0.6

# faces
f 3/2/1 2/2/1 1/2/1
f 4/2/1 2/2/1 3/2/1
f 5/1/1 4/1/1 3/1/1
f 6/1/1 4/1/1 5/1/1
f 9/4/1 8/4/1 7/4/1
f 10/4/1 8/4/1 9/4/1
f 14/4/1 13/4/1 12/4/1
f 16/1/1 12/1/1 11/1/1
f 17/4/1 15/4/1 14/4/1
f 17/1/1 12/1/1 16/1/1
f 17/4/1 14/4/1 12/4/1
f 18/4/1 15/4/1 17/4/1
f 21/2/1 20/2/1 19/2/1
f 22/2/1 20/2/1 21/2/1
f 23/1/2 24/1/2 25/1/2
f 25/1/2 24/1/2 26/1/2
f 27/1/2 28/1/2 30/1/2
f 29/1/2 30/1/2 31/1/2
f 30/1/2 28/1/2 32/1/2
f 31/1/2 30/1/2 32/1/2
f 33/3/2 34/3/2 36/3/2
f 34/2/2 35/2/2 37/2/2
f 36/3/2 34/3/2 37/3/2
f 37/2/2 35/2/2 38/2/2
f 39/4/2 40/4/2 41/4/2
f 41/4/2 40/4/2 42/4/2
f 43/2/2 44/2/2 45/2/2
f 45/2/2 44/2/2 46/2/2
f 45/1/2 46/1/2 47/1/2
f 47/1/2 46/1/2 48/1/2
f 52/2/3 50/2/3 49/2/3
f 53/1/3 51/1/3 50/1/3
f 53/2/3 50/2/3 52/2/3
f 54/1/3 51/1/3 53/1/3
f 57/1/3 56/1/3 55/1/3
f 58/1/3 56/1/3 57/1/3
f 59/1/3 56/1/3 58/1/3
f 60/4/3 58/4/3 57/4/3
f 61/4/3 58/4/3 60/4/3
f 64/1/3 63/1/3 62/1/3
f 65/1/3 63/1/3 64/1/3
f 66/2/3 65/2/3 64/2/3
f 67/2/3 65/2/3 66/2/3
f 68/3/3 67/3/3 66/3/3
f 69/3/3 67/3/3 68/3/3
f 70/3/3 67/3/3 69/3/3
f 73/4/3 72/4/3 71/4/3
f 74/4/3 72/4/3 73/4/3
f 77/1/3 76/1/3 75/1/3
f 78/1/3 76/1/3 77/1/3
f 79/2/4 80/2/4 81/2/4
f 81/2/4 80/2/4 82/2/4
f 82/2/4 80/2/4 83/2/4
f 83/2/4 80/2/4 84/2/4
f 85/4/4 86/4/4 87/4/4
f 87/4/4 86/4/4 88/4/4
f 89/4/4 90/4/4 91/4/4
f 89/4/4 91/4/4 93/4/4
f 91/4/4 92/4/4 93/4/4
f 93/4/4 92/4/4 94/4/4
f 93/1/4 94/1/4 95/1/4
f 95/1/4 94/1/4 96/1/4
f 97/2/4 98/2/4 100/2/4
f 98/1/4 99/1/4 101/1/4
f 100/2/4 98/2/4 101/2/4
f 101/1/4 99/1/4 102/1/4
f 105/2/5 104/2/5 103/2/5
f 106/2/5 104/2/5 105/2/5
f 107/2/5 104/2/5 106/2/5
f 108/2/5 104/2/5 107/2/5
f 109/2/5 105/2/5 103/2/5
f 109/1/5 106/1/5 105/1/5
f 110/2/5 107/2/5 106/2/5
f 110/1/5 106/1/5 109/1/5
f 111/3/5 108/3/5 107/3/5
f 111/2/5 107/2/5 110/2/5
f 112/3/5 108/3/5 111/3/5
f 113/2/5 110/2/5 109/2/5
f 113/3/5 108/3/5 112/3/5
f 113/2/5 112/2/5 111/2/5
f 113/2/5 111/2/5 110/2/5
f 114/2/5 104/2/5 108/2/5
f 114/3/5 108/3/5 113/3/5
f 115/2/5 113/2/5 109/2/5
f 115/2/5 109/2/5 103/2/5
f 115/2/5 114/2/5 113/2/5
f 116/2/5 104/2/5 114/2/5
f 116/2/5 114/2/5 115/2/5
f 119/1/5 118/1/5 117/1/5
f 120/1/5 118/1/5 119/1/5
f 121/1/5 118/1/5 120/1/5
f 122/1/5 118/1/5 121/1/5
f 123/1/5 118/1/5 122/1/5
f 124/1/5 118/1/5 123/1/5
f 125/1/5 118/1/5 124/1/5
f 126/1/6 127/1/6 130/1/6
f 130/1/6 127/1/6 131/1/6
f 127/2/6 128/2/6 132/2/6
f 131/1/6 127/1/6 132/1/6
f 128/3/6 129/3/6 133/3/6
f 132/2/6 128/2/6 133/2/6
f 133/3/6 129/3/6 134/3/6
f 134/3/6 129/3/6 135/3/6
f 135/3/6 129/3/6 136/3/6
f 136/3/6 129/3/6 137/3/6
f 138/1/6 139/1/6 140/1/6
f 140/1/6 139/1/6 141/1/6
f 141/1/6 139/1/6 142/1/6
f 138/1/6 140/1/6 143/1/6
f 143/1/6 140/1/6 144/1/6
f 138/1/6 143/1/6 145/1/6
f 143/4/6 144/4/6 145/4/6
f 145/4/6 144/4/6 146/4/6
f 142/1/6 139/1/6 148/1/6
f 138/1/6 145/1/6 149/1/6
f 147/1/6 148/1/6 151/1/6
f 149/1/6 150/1/6 152/1/6
f 150/1/6 151/1/6 152/1/6
f 138/1/6 149/1/6 152/1/6
f 151/1/6 148/1/6 153/1/6
f 152/1/6 151/1/6 153/1/6
f 148/1/6 139/1/6 153/1/6
f 154/4/6 155/4/6 158/4/6
f 158/4/6 155/4/6 159/4/6
f 156/4/6 157/4/6 160/4/6
f 160/4/6 157/4/6 161/4/6
f 162/1/6 163/1/6 164/1/6
f 164/1/6 163/1/6 165/1/6
f 164/4/6 165/4/6 166/4/6
f 165/1/6 163/1/6 166/1/6
f 166/1/6 163/1/6 167/1/6
f 164/4/6 166/4/6 168/4/6
f 166/4/6 167/4/6 168/4/6
f 167/1/6 163/1/6 169/1/6
f 168/4/6 167/4/6 169/4/6
f 164/4/6 168/4/6 170/4/6
f 168/1/6 169/1/6 171/1/6
f 170/4/6 168/4/6 171/4/6
f 169/1/6 163/1/6 172/1/6
f 171/1/6 169/1/6 172/1/6
