# MagicaVoxel @ Ephtracy

# group
o 

# material
mtllib Road turn 2.mtl
usemtl palette

# normals
vn -1 0 0
vn 1 0 0
vn 0 0 1
vn 0 0 -1
vn 0 -1 0
vn 0 1 0

# texcoords
vt 0.205078 0.5
vt 0.537109 0.5
vt 0.880859 0.5
vt 0.904297 0.5

# verts
v 0 2 0
v 0 2 -0.8
v 0 2.2 0
v 0 2.2 -0.1
v 0 2.2 -0.8
v 0 2.3 0
v 0 2.3 -0.1
v 0.2 2.2 -0.1
v 0.2 2.2 -0.3
v 0.2 2.3 -0.1
v 0.2 2.3 -0.3
v 0.4 2.2 -0.3
v 0.4 2.2 -0.4
v 0.4 2.3 -0.3
v 0.4 2.3 -0.4
v 0.5 2.2 -0.4
v 0.5 2.2 -0.5
v 0.5 2.3 -0.3
v 0.5 2.3 -0.4
v 0.5 2.3 -0.5
v 0.5 2.4 -0.3
v 0.5 2.4 -0.4
v 0.7 2.1 -0.1
v 0.7 2.1 -0.4
v 0.7 2.2 -0.1
v 0.7 2.2 -0.4
v 0.7 2.2 -0.5
v 0.7 2.2 -0.7
v 0.7 2.2 -0.8
v 0.7 2.3 -0.5
v 0.7 2.3 -0.8
v 0.2 2.1 -0.1
v 0.2 2.1 -0.2
v 0.2 2.2 -0.1
v 0.2 2.2 -0.2
v 0.6 2.1 -0.2
v 0.6 2.1 -0.3
v 0.6 2.1 -0.4
v 0.6 2.2 -0.2
v 0.6 2.2 -0.3
v 0.6 2.2 -0.4
v 0.6 2.3 -0.3
v 0.6 2.3 -0.4
v 0.6 2.4 -0.3
v 0.6 2.4 -0.4
v 0.8 2 0
v 0.8 2 -0.8
v 0.8 2.2 0
v 0.8 2.2 -0.8
v 0.8 2.3 0
v 0.8 2.3 -0.8
v 0 2 0
v 0 2.2 0
v 0 2.3 0
v 0.8 2 0
v 0.8 2.2 0
v 0.8 2.3 0
v 0.2 2.1 -0.2
v 0.2 2.2 -0.2
v 0.4 2.1 -0.2
v 0.4 2.2 -0.2
v 0.5 2.1 -0.2
v 0.6 2.1 -0.2
v 0.6 2.2 -0.2
v 0.5 2.3 -0.3
v 0.5 2.4 -0.3
v 0.6 2.3 -0.3
v 0.6 2.4 -0.3
v 0.6 2.1 -0.4
v 0.6 2.2 -0.4
v 0.7 2.1 -0.4
v 0.7 2.2 -0.4
v 0 2.2 -0.1
v 0 2.3 -0.1
v 0.2 2.1 -0.1
v 0.2 2.2 -0.1
v 0.2 2.3 -0.1
v 0.5 2.1 -0.1
v 0.7 2.1 -0.1
v 0.7 2.2 -0.1
v 0.2 2.2 -0.3
v 0.2 2.3 -0.3
v 0.4 2.2 -0.3
v 0.4 2.3 -0.3
v 0.4 2.2 -0.4
v 0.4 2.3 -0.4
v 0.5 2.2 -0.4
v 0.5 2.3 -0.4
v 0.5 2.4 -0.4
v 0.6 2.3 -0.4
v 0.6 2.4 -0.4
v 0.5 2.2 -0.5
v 0.5 2.3 -0.5
v 0.6 2.2 -0.5
v 0.7 2.2 -0.5
v 0.7 2.3 -0.5
v 0 2 -0.8
v 0 2.2 -0.8
v 0.7 2.2 -0.8
v 0.7 2.3 -0.8
v 0.8 2 -0.8
v 0.8 2.2 -0.8
v 0.8 2.3 -0.8
v 0 2 0
v 0.8 2 0
v 0.5 2 -0.1
v 0.7 2 -0.1
v 0.5 2 -0.2
v 0.6 2 -0.2
v 0.6 2 -0.4
v 0.7 2 -0.4
v 0 2 -0.8
v 0.8 2 -0.8
v 0.2 2.2 -0.1
v 0.7 2.2 -0.1
v 0.2 2.2 -0.2
v 0.4 2.2 -0.2
v 0.6 2.2 -0.2
v 0.6 2.2 -0.3
v 0.6 2.2 -0.4
v 0.7 2.2 -0.4
v 0.2 2.1 -0.1
v 0.5 2.1 -0.1
v 0.7 2.1 -0.1
v 0.2 2.1 -0.2
v 0.4 2.1 -0.2
v 0.5 2.1 -0.2
v 0.6 2.1 -0.2
v 0.6 2.1 -0.3
v 0.6 2.1 -0.4
v 0.7 2.1 -0.4
v 0 2.2 -0.1
v 0.2 2.2 -0.1
v 0.1 2.2 -0.3
v 0.2 2.2 -0.3
v 0.4 2.2 -0.3
v 0.1 2.2 -0.4
v 0.2 2.2 -0.4
v 0.4 2.2 -0.4
v 0.5 2.2 -0.4
v 0.4 2.2 -0.5
v 0.5 2.2 -0.5
v 0.6 2.2 -0.5
v 0.7 2.2 -0.5
v 0.4 2.2 -0.6
v 0.5 2.2 -0.6
v 0.4 2.2 -0.7
v 0.5 2.2 -0.7
v 0.6 2.2 -0.7
v 0.7 2.2 -0.7
v 0 2.2 -0.8
v 0.7 2.2 -0.8
v 0 2.3 0
v 0.8 2.3 0
v 0 2.3 -0.1
v 0.2 2.3 -0.1
v 0.2 2.3 -0.3
v 0.4 2.3 -0.3
v 0.5 2.3 -0.3
v 0.6 2.3 -0.3
v 0.4 2.3 -0.4
v 0.5 2.3 -0.4
v 0.6 2.3 -0.4
v 0.5 2.3 -0.5
v 0.7 2.3 -0.5
v 0.7 2.3 -0.8
v 0.8 2.3 -0.8
v 0.5 2.4 -0.3
v 0.6 2.4 -0.3
v 0.5 2.4 -0.4
v 0.6 2.4 -0.4

# faces
f 3/3/1 2/3/1 1/3/1
f 4/3/1 2/3/1 3/3/1
f 5/3/1 2/3/1 4/3/1
f 6/2/1 4/2/1 3/2/1
f 7/2/1 4/2/1 6/2/1
f 10/2/1 9/2/1 8/2/1
f 11/2/1 9/2/1 10/2/1
f 14/2/1 13/2/1 12/2/1
f 15/2/1 13/2/1 14/2/1
f 19/2/1 17/2/1 16/2/1
f 20/2/1 17/2/1 19/2/1
f 21/2/1 19/2/1 18/2/1
f 22/2/1 19/2/1 21/2/1
f 25/3/1 24/3/1 23/3/1
f 26/3/1 24/3/1 25/3/1
f 30/2/1 29/2/1 28/2/1
f 30/2/1 28/2/1 27/2/1
f 31/2/1 29/2/1 30/2/1
f 32/3/2 33/3/2 34/3/2
f 34/3/2 33/3/2 35/3/2
f 36/4/2 37/4/2 39/4/2
f 37/3/2 38/3/2 40/3/2
f 39/4/2 37/4/2 40/4/2
f 40/3/2 38/3/2 41/3/2
f 42/2/2 43/2/2 44/2/2
f 44/2/2 43/2/2 45/2/2
f 46/3/2 47/3/2 48/3/2
f 48/3/2 47/3/2 49/3/2
f 48/2/2 49/2/2 50/2/2
f 50/2/2 49/2/2 51/2/2
f 55/3/3 53/3/3 52/3/3
f 56/2/3 54/2/3 53/2/3
f 56/3/3 53/3/3 55/3/3
f 57/2/3 54/2/3 56/2/3
f 60/3/3 59/3/3 58/3/3
f 61/3/3 59/3/3 60/3/3
f 62/4/3 61/4/3 60/4/3
f 63/4/3 61/4/3 62/4/3
f 64/4/3 61/4/3 63/4/3
f 67/2/3 66/2/3 65/2/3
f 68/2/3 66/2/3 67/2/3
f 71/2/3 70/2/3 69/2/3
f 72/2/3 70/2/3 71/2/3
f 73/2/4 74/2/4 76/2/4
f 76/2/4 74/2/4 77/2/4
f 75/3/4 76/3/4 78/3/4
f 78/3/4 76/3/4 79/3/4
f 79/3/4 76/3/4 80/3/4
f 81/2/4 82/2/4 83/2/4
f 83/2/4 82/2/4 84/2/4
f 85/2/4 86/2/4 87/2/4
f 87/2/4 86/2/4 88/2/4
f 88/2/4 89/2/4 90/2/4
f 90/2/4 89/2/4 91/2/4
f 92/2/4 93/2/4 94/2/4
f 94/2/4 93/2/4 95/2/4
f 95/2/4 93/2/4 96/2/4
f 97/3/4 98/3/4 99/3/4
f 97/3/4 99/3/4 101/3/4
f 99/2/4 100/2/4 102/2/4
f 101/3/4 99/3/4 102/3/4
f 102/2/4 100/2/4 103/2/4
f 106/3/5 105/3/5 104/3/5
f 107/3/5 105/3/5 106/3/5
f 108/3/5 106/3/5 104/3/5
f 108/4/5 107/4/5 106/4/5
f 109/4/5 107/4/5 108/4/5
f 110/3/5 109/3/5 108/3/5
f 110/4/5 107/4/5 109/4/5
f 111/3/5 105/3/5 107/3/5
f 111/4/5 107/4/5 110/4/5
f 112/3/5 110/3/5 108/3/5
f 112/3/5 108/3/5 104/3/5
f 112/3/5 111/3/5 110/3/5
f 113/3/5 105/3/5 111/3/5
f 113/3/5 111/3/5 112/3/5
f 116/2/5 115/2/5 114/2/5
f 117/2/5 115/2/5 116/2/5
f 118/2/5 115/2/5 117/2/5
f 119/2/5 115/2/5 118/2/5
f 120/2/5 115/2/5 119/2/5
f 121/2/5 115/2/5 120/2/5
f 122/3/6 123/3/6 125/3/6
f 125/3/6 123/3/6 126/3/6
f 123/4/6 124/4/6 127/4/6
f 126/3/6 123/3/6 127/3/6
f 127/4/6 124/4/6 128/4/6
f 128/4/6 124/4/6 129/4/6
f 129/4/6 124/4/6 130/4/6
f 130/4/6 124/4/6 131/4/6
f 132/3/6 133/3/6 134/3/6
f 134/3/6 133/3/6 135/3/6
f 132/3/6 134/3/6 137/3/6
f 134/1/6 135/1/6 137/1/6
f 135/3/6 136/3/6 138/3/6
f 137/1/6 135/1/6 138/1/6
f 138/3/6 136/3/6 139/3/6
f 137/3/6 138/3/6 141/3/6
f 139/1/6 140/1/6 141/1/6
f 138/3/6 139/3/6 141/3/6
f 141/1/6 140/1/6 142/1/6
f 137/3/6 141/3/6 145/3/6
f 141/3/6 142/3/6 145/3/6
f 142/3/6 143/3/6 145/3/6
f 145/3/6 143/3/6 146/3/6
f 137/3/6 145/3/6 147/3/6
f 145/1/6 146/1/6 147/1/6
f 146/3/6 143/3/6 148/3/6
f 147/1/6 146/1/6 148/1/6
f 143/2/6 144/2/6 149/2/6
f 148/3/6 143/3/6 149/3/6
f 149/2/6 144/2/6 150/2/6
f 132/3/6 137/3/6 151/3/6
f 147/3/6 148/3/6 151/3/6
f 149/3/6 150/3/6 151/3/6
f 148/3/6 149/3/6 151/3/6
f 137/3/6 147/3/6 151/3/6
f 151/3/6 150/3/6 152/3/6
f 153/2/6 154/2/6 155/2/6
f 155/2/6 154/2/6 156/2/6
f 156/2/6 154/2/6 157/2/6
f 157/2/6 154/2/6 158/2/6
f 158/2/6 154/2/6 159/2/6
f 159/2/6 154/2/6 160/2/6
f 158/2/6 159/2/6 161/2/6
f 161/2/6 159/2/6 162/2/6
f 160/2/6 154/2/6 163/2/6
f 162/2/6 163/2/6 164/2/6
f 163/2/6 154/2/6 165/2/6
f 164/2/6 163/2/6 165/2/6
f 165/2/6 154/2/6 166/2/6
f 166/2/6 154/2/6 167/2/6
f 168/2/6 169/2/6 170/2/6
f 170/2/6 169/2/6 171/2/6
