# MagicaVoxel @ Ephtracy

# group
o 

# material
mtllib Road Mid 1.mtl
usemtl palette

# normals
vn -1 0 0
vn 1 0 0
vn 0 0 1
vn 0 0 -1
vn 0 -1 0
vn 0 1 0

# texcoords
vt 0.537109 0.5
vt 0.880859 0.5
vt 0.904297 0.5

# verts
v 0 2 0
v 0 2 -0.8
v 0 2.2 0
v 0 2.2 -0.8
v 0 2.3 0
v 0 2.3 -0.8
v 0.2 2.2 -0.1
v 0.2 2.2 -0.2
v 0.2 2.3 -0.1
v 0.2 2.3 -0.2
v 0.3 2.2 -0.3
v 0.3 2.2 -0.4
v 0.3 2.2 -0.5
v 0.3 2.3 -0.3
v 0.3 2.3 -0.5
v 0.6 2.2 -0.2
v 0.6 2.2 -0.3
v 0.6 2.2 -0.5
v 0.6 2.2 -0.7
v 0.6 2.3 -0.2
v 0.6 2.3 -0.3
v 0.6 2.3 -0.5
v 0.6 2.3 -0.7
v 0.7 2.1 -0.1
v 0.7 2.1 -0.4
v 0.7 2.2 -0.1
v 0.7 2.2 -0.4
v 0.1 2.2 -0.1
v 0.1 2.2 -0.5
v 0.1 2.3 -0.1
v 0.1 2.3 -0.5
v 0.2 2.1 -0.1
v 0.2 2.1 -0.2
v 0.2 2.2 -0.1
v 0.2 2.2 -0.2
v 0.5 2.2 -0.5
v 0.5 2.2 -0.7
v 0.5 2.3 -0.5
v 0.5 2.3 -0.7
v 0.6 2.1 -0.2
v 0.6 2.1 -0.3
v 0.6 2.1 -0.4
v 0.6 2.2 -0.2
v 0.6 2.2 -0.3
v 0.6 2.2 -0.4
v 0.8 2 0
v 0.8 2 -0.8
v 0.8 2.2 0
v 0.8 2.2 -0.8
v 0.8 2.3 0
v 0.8 2.3 -0.8
v 0 2 0
v 0 2.2 0
v 0 2.3 0
v 0.8 2 0
v 0.8 2.2 0
v 0.8 2.3 0
v 0.2 2.1 -0.2
v 0.2 2.2 -0.2
v 0.4 2.1 -0.2
v 0.4 2.2 -0.2
v 0.5 2.1 -0.2
v 0.6 2.1 -0.2
v 0.6 2.2 -0.2
v 0.3 2.2 -0.3
v 0.3 2.3 -0.3
v 0.4 2.2 -0.3
v 0.6 2.2 -0.3
v 0.6 2.3 -0.3
v 0.6 2.1 -0.4
v 0.6 2.2 -0.4
v 0.7 2.1 -0.4
v 0.7 2.2 -0.4
v 0.1 2.2 -0.5
v 0.1 2.3 -0.5
v 0.2 2.2 -0.5
v 0.3 2.2 -0.5
v 0.3 2.3 -0.5
v 0.5 2.2 -0.7
v 0.5 2.3 -0.7
v 0.6 2.2 -0.7
v 0.6 2.3 -0.7
v 0.1 2.2 -0.1
v 0.1 2.3 -0.1
v 0.2 2.1 -0.1
v 0.2 2.2 -0.1
v 0.2 2.3 -0.1
v 0.5 2.1 -0.1
v 0.7 2.1 -0.1
v 0.7 2.2 -0.1
v 0.2 2.2 -0.2
v 0.2 2.3 -0.2
v 0.4 2.2 -0.2
v 0.6 2.2 -0.2
v 0.6 2.3 -0.2
v 0.5 2.2 -0.5
v 0.5 2.3 -0.5
v 0.6 2.2 -0.5
v 0.6 2.3 -0.5
v 0 2 -0.8
v 0 2.2 -0.8
v 0 2.3 -0.8
v 0.8 2 -0.8
v 0.8 2.2 -0.8
v 0.8 2.3 -0.8
v 0 2 0
v 0.8 2 0
v 0.5 2 -0.1
v 0.7 2 -0.1
v 0.5 2 -0.2
v 0.6 2 -0.2
v 0.6 2 -0.4
v 0.7 2 -0.4
v 0 2 -0.8
v 0.8 2 -0.8
v 0.2 2.2 -0.1
v 0.7 2.2 -0.1
v 0.2 2.2 -0.2
v 0.4 2.2 -0.2
v 0.6 2.2 -0.2
v 0.6 2.2 -0.3
v 0.6 2.2 -0.4
v 0.7 2.2 -0.4
v 0.2 2.1 -0.1
v 0.5 2.1 -0.1
v 0.7 2.1 -0.1
v 0.2 2.1 -0.2
v 0.4 2.1 -0.2
v 0.5 2.1 -0.2
v 0.6 2.1 -0.2
v 0.6 2.1 -0.3
v 0.6 2.1 -0.4
v 0.7 2.1 -0.4
v 0.1 2.2 -0.1
v 0.2 2.2 -0.1
v 0.2 2.2 -0.2
v 0.4 2.2 -0.2
v 0.6 2.2 -0.2
v 0.3 2.2 -0.3
v 0.4 2.2 -0.3
v 0.6 2.2 -0.3
v 0.2 2.2 -0.4
v 0.3 2.2 -0.4
v 0.1 2.2 -0.5
v 0.2 2.2 -0.5
v 0.3 2.2 -0.5
v 0.5 2.2 -0.5
v 0.6 2.2 -0.5
v 0.5 2.2 -0.7
v 0.6 2.2 -0.7
v 0 2.3 0
v 0.8 2.3 0
v 0.1 2.3 -0.1
v 0.2 2.3 -0.1
v 0.2 2.3 -0.2
v 0.6 2.3 -0.2
v 0.3 2.3 -0.3
v 0.6 2.3 -0.3
v 0.1 2.3 -0.5
v 0.3 2.3 -0.5
v 0.5 2.3 -0.5
v 0.6 2.3 -0.5
v 0.5 2.3 -0.7
v 0.6 2.3 -0.7
v 0 2.3 -0.8
v 0.8 2.3 -0.8

# faces
f 3/2/1 2/2/1 1/2/1
f 4/2/1 2/2/1 3/2/1
f 5/1/1 4/1/1 3/1/1
f 6/1/1 4/1/1 5/1/1
f 9/1/1 8/1/1 7/1/1
f 10/1/1 8/1/1 9/1/1
f 14/1/1 12/1/1 11/1/1
f 14/1/1 13/1/1 12/1/1
f 15/1/1 13/1/1 14/1/1
f 20/1/1 17/1/1 16/1/1
f 21/1/1 17/1/1 20/1/1
f 22/1/1 19/1/1 18/1/1
f 23/1/1 19/1/1 22/1/1
f 26/2/1 25/2/1 24/2/1
f 27/2/1 25/2/1 26/2/1
f 28/1/2 29/1/2 30/1/2
f 30/1/2 29/1/2 31/1/2
f 32/2/2 33/2/2 34/2/2
f 34/2/2 33/2/2 35/2/2
f 36/1/2 37/1/2 38/1/2
f 38/1/2 37/1/2 39/1/2
f 40/3/2 41/3/2 43/3/2
f 41/2/2 42/2/2 44/2/2
f 43/3/2 41/3/2 44/3/2
f 44/2/2 42/2/2 45/2/2
f 46/2/2 47/2/2 48/2/2
f 48/2/2 47/2/2 49/2/2
f 48/1/2 49/1/2 50/1/2
f 50/1/2 49/1/2 51/1/2
f 55/2/3 53/2/3 52/2/3
f 56/1/3 54/1/3 53/1/3
f 56/2/3 53/2/3 55/2/3
f 57/1/3 54/1/3 56/1/3
f 60/2/3 59/2/3 58/2/3
f 61/2/3 59/2/3 60/2/3
f 62/3/3 61/3/3 60/3/3
f 63/3/3 61/3/3 62/3/3
f 64/3/3 61/3/3 63/3/3
f 67/1/3 66/1/3 65/1/3
f 68/1/3 66/1/3 67/1/3
f 69/1/3 66/1/3 68/1/3
f 72/1/3 71/1/3 70/1/3
f 73/1/3 71/1/3 72/1/3
f 76/1/3 75/1/3 74/1/3
f 77/1/3 75/1/3 76/1/3
f 78/1/3 75/1/3 77/1/3
f 81/1/3 80/1/3 79/1/3
f 82/1/3 80/1/3 81/1/3
f 83/1/4 84/1/4 86/1/4
f 86/1/4 84/1/4 87/1/4
f 85/2/4 86/2/4 88/2/4
f 88/2/4 86/2/4 89/2/4
f 89/2/4 86/2/4 90/2/4
f 91/1/4 92/1/4 93/1/4
f 93/1/4 92/1/4 94/1/4
f 94/1/4 92/1/4 95/1/4
f 96/1/4 97/1/4 98/1/4
f 98/1/4 97/1/4 99/1/4
f 100/2/4 101/2/4 103/2/4
f 101/1/4 102/1/4 104/1/4
f 103/2/4 101/2/4 104/2/4
f 104/1/4 102/1/4 105/1/4
f 108/2/5 107/2/5 106/2/5
f 109/2/5 107/2/5 108/2/5
f 110/2/5 108/2/5 106/2/5
f 110/3/5 109/3/5 108/3/5
f 111/3/5 109/3/5 110/3/5
f 112/2/5 111/2/5 110/2/5
f 112/3/5 109/3/5 111/3/5
f 113/2/5 107/2/5 109/2/5
f 113/3/5 109/3/5 112/3/5
f 114/2/5 112/2/5 110/2/5
f 114/2/5 110/2/5 106/2/5
f 114/2/5 113/2/5 112/2/5
f 115/2/5 107/2/5 113/2/5
f 115/2/5 113/2/5 114/2/5
f 118/1/5 117/1/5 116/1/5
f 119/1/5 117/1/5 118/1/5
f 120/1/5 117/1/5 119/1/5
f 121/1/5 117/1/5 120/1/5
f 122/1/5 117/1/5 121/1/5
f 123/1/5 117/1/5 122/1/5
f 124/2/6 125/2/6 127/2/6
f 127/2/6 125/2/6 128/2/6
f 125/3/6 126/3/6 129/3/6
f 128/2/6 125/2/6 129/2/6
f 129/3/6 126/3/6 130/3/6
f 130/3/6 126/3/6 131/3/6
f 131/3/6 126/3/6 132/3/6
f 132/3/6 126/3/6 133/3/6
f 134/2/6 135/2/6 136/2/6
f 136/2/6 137/2/6 139/2/6
f 137/3/6 138/3/6 140/3/6
f 139/2/6 137/2/6 140/2/6
f 140/3/6 138/3/6 141/3/6
f 134/2/6 136/2/6 142/2/6
f 136/2/6 139/2/6 142/2/6
f 142/2/6 139/2/6 143/2/6
f 134/2/6 142/2/6 144/2/6
f 142/3/6 143/3/6 145/3/6
f 144/2/6 142/2/6 145/2/6
f 145/3/6 143/3/6 146/3/6
f 147/2/6 148/2/6 149/2/6
f 149/2/6 148/2/6 150/2/6
f 151/1/6 152/1/6 153/1/6
f 153/1/6 152/1/6 154/1/6
f 154/1/6 152/1/6 155/1/6
f 155/1/6 152/1/6 156/1/6
f 156/1/6 152/1/6 158/1/6
f 151/1/6 153/1/6 159/1/6
f 157/1/6 158/1/6 160/1/6
f 160/1/6 158/1/6 161/1/6
f 158/1/6 152/1/6 162/1/6
f 161/1/6 158/1/6 162/1/6
f 160/1/6 161/1/6 163/1/6
f 159/1/6 160/1/6 163/1/6
f 162/1/6 152/1/6 164/1/6
f 151/1/6 159/1/6 165/1/6
f 163/1/6 164/1/6 165/1/6
f 159/1/6 163/1/6 165/1/6
f 164/1/6 152/1/6 166/1/6
f 165/1/6 164/1/6 166/1/6
