# MagicaVoxel @ Ephtracy

# group
o 

# material
mtllib Grass 3.mtl
usemtl palette

# normals
vn -1 0 0
vn 1 0 0
vn 0 0 1
vn 0 0 -1
vn 0 -1 0
vn 0 1 0

# texcoords
vt 0.462891 0.5
vt 0.841797 0.5
vt 0.880859 0.5

# verts
v 0 2 0
v 0 2 -0.8
v 0 2.2 0
v 0 2.2 -0.8
v 0.1 2.3 -0.2
v 0.1 2.3 -0.3
v 0.1 2.4 -0.2
v 0.1 2.4 -0.3
v 0.2 2.2 -0.2
v 0.2 2.2 -0.3
v 0.2 2.3 -0.2
v 0.2 2.3 -0.3
v 0.2 2.4 -0.2
v 0.2 2.4 -0.3
v 0.2 2.5 -0.2
v 0.2 2.5 -0.3
v 0.4 2.1 -0.5
v 0.4 2.1 -0.6
v 0.4 2.2 -0.5
v 0.4 2.2 -0.6
v 0.6 2.2 -0.6
v 0.6 2.2 -0.7
v 0.6 2.3 -0.6
v 0.6 2.3 -0.7
v 0.6 2.4 -0.6
v 0.6 2.4 -0.7
v 0.7 2.1 -0.1
v 0.7 2.1 -0.2
v 0.7 2.2 -0.1
v 0.7 2.2 -0.2
v 0.3 2.1 -0.5
v 0.3 2.1 -0.6
v 0.3 2.2 -0.2
v 0.3 2.2 -0.3
v 0.3 2.2 -0.5
v 0.3 2.2 -0.6
v 0.3 2.4 -0.2
v 0.3 2.4 -0.3
v 0.3 2.5 -0.2
v 0.3 2.5 -0.3
v 0.6 2.1 -0.1
v 0.6 2.1 -0.2
v 0.6 2.2 -0.1
v 0.6 2.2 -0.2
v 0.7 2.2 -0.6
v 0.7 2.2 -0.7
v 0.7 2.3 -0.6
v 0.7 2.3 -0.7
v 0.7 2.4 -0.6
v 0.7 2.4 -0.7
v 0.8 2 0
v 0.8 2 -0.8
v 0.8 2.2 0
v 0.8 2.2 -0.8
v 0 2 0
v 0 2.2 0
v 0.8 2 0
v 0.8 2.2 0
v 0.1 2.3 -0.2
v 0.1 2.4 -0.2
v 0.2 2.2 -0.2
v 0.2 2.3 -0.2
v 0.2 2.4 -0.2
v 0.2 2.5 -0.2
v 0.3 2.2 -0.2
v 0.3 2.4 -0.2
v 0.3 2.5 -0.2
v 0.6 2.1 -0.2
v 0.6 2.2 -0.2
v 0.7 2.1 -0.2
v 0.7 2.2 -0.2
v 0.3 2.1 -0.6
v 0.3 2.2 -0.6
v 0.4 2.1 -0.6
v 0.4 2.2 -0.6
v 0.6 2.2 -0.6
v 0.6 2.3 -0.6
v 0.6 2.4 -0.6
v 0.7 2.2 -0.6
v 0.7 2.3 -0.6
v 0.7 2.4 -0.6
v 0.6 2.1 -0.1
v 0.6 2.2 -0.1
v 0.7 2.1 -0.1
v 0.7 2.2 -0.1
v 0.1 2.3 -0.3
v 0.1 2.4 -0.3
v 0.2 2.2 -0.3
v 0.2 2.3 -0.3
v 0.2 2.4 -0.3
v 0.2 2.5 -0.3
v 0.3 2.2 -0.3
v 0.3 2.4 -0.3
v 0.3 2.5 -0.3
v 0.3 2.1 -0.5
v 0.3 2.2 -0.5
v 0.4 2.1 -0.5
v 0.4 2.2 -0.5
v 0.6 2.2 -0.7
v 0.6 2.3 -0.7
v 0.6 2.4 -0.7
v 0.7 2.2 -0.7
v 0.7 2.3 -0.7
v 0.7 2.4 -0.7
v 0 2 -0.8
v 0 2.2 -0.8
v 0.8 2 -0.8
v 0.8 2.2 -0.8
v 0 2 0
v 0.8 2 0
v 0 2 -0.8
v 0.8 2 -0.8
v 0.1 2.3 -0.2
v 0.2 2.3 -0.2
v 0.1 2.3 -0.3
v 0.2 2.3 -0.3
v 0.6 2.1 -0.1
v 0.7 2.1 -0.1
v 0.6 2.1 -0.2
v 0.7 2.1 -0.2
v 0.3 2.1 -0.5
v 0.4 2.1 -0.5
v 0.3 2.1 -0.6
v 0.4 2.1 -0.6
v 0 2.2 0
v 0.8 2.2 0
v 0.6 2.2 -0.1
v 0.7 2.2 -0.1
v 0.2 2.2 -0.2
v 0.3 2.2 -0.2
v 0.6 2.2 -0.2
v 0.7 2.2 -0.2
v 0.2 2.2 -0.3
v 0.3 2.2 -0.3
v 0.3 2.2 -0.5
v 0.4 2.2 -0.5
v 0.3 2.2 -0.6
v 0.4 2.2 -0.6
v 0.6 2.2 -0.6
v 0.7 2.2 -0.6
v 0.6 2.2 -0.7
v 0.7 2.2 -0.7
v 0 2.2 -0.8
v 0.8 2.2 -0.8
v 0.1 2.4 -0.2
v 0.2 2.4 -0.2
v 0.1 2.4 -0.3
v 0.2 2.4 -0.3
v 0.6 2.4 -0.6
v 0.7 2.4 -0.6
v 0.6 2.4 -0.7
v 0.7 2.4 -0.7
v 0.2 2.5 -0.2
v 0.3 2.5 -0.2
v 0.2 2.5 -0.3
v 0.3 2.5 -0.3

# faces
f 3/3/1 2/3/1 1/3/1
f 4/3/1 2/3/1 3/3/1
f 7/1/1 6/1/1 5/1/1
f 8/1/1 6/1/1 7/1/1
f 11/1/1 10/1/1 9/1/1
f 12/1/1 10/1/1 11/1/1
f 15/2/1 14/2/1 13/2/1
f 16/2/1 14/2/1 15/2/1
f 19/3/1 18/3/1 17/3/1
f 20/3/1 18/3/1 19/3/1
f 23/1/1 22/1/1 21/1/1
f 24/1/1 22/1/1 23/1/1
f 25/2/1 24/2/1 23/2/1
f 26/2/1 24/2/1 25/2/1
f 29/3/1 28/3/1 27/3/1
f 30/3/1 28/3/1 29/3/1
f 31/3/2 32/3/2 35/3/2
f 35/3/2 32/3/2 36/3/2
f 33/1/2 34/1/2 37/1/2
f 37/1/2 34/1/2 38/1/2
f 37/2/2 38/2/2 39/2/2
f 39/2/2 38/2/2 40/2/2
f 41/3/2 42/3/2 43/3/2
f 43/3/2 42/3/2 44/3/2
f 45/1/2 46/1/2 47/1/2
f 47/1/2 46/1/2 48/1/2
f 47/2/2 48/2/2 49/2/2
f 49/2/2 48/2/2 50/2/2
f 51/3/2 52/3/2 53/3/2
f 53/3/2 52/3/2 54/3/2
f 57/3/3 56/3/3 55/3/3
f 58/3/3 56/3/3 57/3/3
f 62/1/3 60/1/3 59/1/3
f 63/1/3 60/1/3 62/1/3
f 65/1/3 62/1/3 61/1/3
f 65/1/3 63/1/3 62/1/3
f 66/2/3 64/2/3 63/2/3
f 66/1/3 63/1/3 65/1/3
f 67/2/3 64/2/3 66/2/3
f 70/3/3 69/3/3 68/3/3
f 71/3/3 69/3/3 70/3/3
f 74/3/3 73/3/3 72/3/3
f 75/3/3 73/3/3 74/3/3
f 79/1/3 77/1/3 76/1/3
f 80/2/3 78/2/3 77/2/3
f 80/1/3 77/1/3 79/1/3
f 81/2/3 78/2/3 80/2/3
f 82/3/4 83/3/4 84/3/4
f 84/3/4 83/3/4 85/3/4
f 86/1/4 87/1/4 89/1/4
f 89/1/4 87/1/4 90/1/4
f 88/1/4 89/1/4 92/1/4
f 89/1/4 90/1/4 92/1/4
f 90/2/4 91/2/4 93/2/4
f 92/1/4 90/1/4 93/1/4
f 93/2/4 91/2/4 94/2/4
f 95/3/4 96/3/4 97/3/4
f 97/3/4 96/3/4 98/3/4
f 99/1/4 100/1/4 102/1/4
f 100/2/4 101/2/4 103/2/4
f 102/1/4 100/1/4 103/1/4
f 103/2/4 101/2/4 104/2/4
f 105/3/4 106/3/4 107/3/4
f 107/3/4 106/3/4 108/3/4
f 111/3/5 110/3/5 109/3/5
f 112/3/5 110/3/5 111/3/5
f 115/1/5 114/1/5 113/1/5
f 116/1/5 114/1/5 115/1/5
f 117/3/6 118/3/6 119/3/6
f 119/3/6 118/3/6 120/3/6
f 121/3/6 122/3/6 123/3/6
f 123/3/6 122/3/6 124/3/6
f 125/3/6 126/3/6 127/3/6
f 127/3/6 126/3/6 128/3/6
f 125/3/6 127/3/6 129/3/6
f 129/3/6 127/3/6 130/3/6
f 130/3/6 127/3/6 131/3/6
f 128/3/6 126/3/6 132/3/6
f 125/3/6 129/3/6 133/3/6
f 130/3/6 131/3/6 134/3/6
f 131/3/6 132/3/6 134/3/6
f 134/3/6 132/3/6 135/3/6
f 133/3/6 134/3/6 135/3/6
f 135/3/6 132/3/6 136/3/6
f 133/3/6 135/3/6 137/3/6
f 136/3/6 132/3/6 138/3/6
f 138/3/6 132/3/6 139/3/6
f 132/3/6 126/3/6 140/3/6
f 139/3/6 132/3/6 140/3/6
f 138/3/6 139/3/6 141/3/6
f 137/3/6 138/3/6 141/3/6
f 140/3/6 126/3/6 142/3/6
f 125/3/6 133/3/6 143/3/6
f 141/3/6 142/3/6 143/3/6
f 137/3/6 141/3/6 143/3/6
f 133/3/6 137/3/6 143/3/6
f 142/3/6 126/3/6 144/3/6
f 143/3/6 142/3/6 144/3/6
f 145/1/6 146/1/6 147/1/6
f 147/1/6 146/1/6 148/1/6
f 149/2/6 150/2/6 151/2/6
f 151/2/6 150/2/6 152/2/6
f 153/2/6 154/2/6 155/2/6
f 155/2/6 154/2/6 156/2/6
