# MagicaVoxel @ Ephtracy

# group
o 

# material
mtllib Grass 2.mtl
usemtl palette

# normals
vn -1 0 0
vn 1 0 0
vn 0 0 1
vn 0 0 -1
vn 0 -1 0
vn 0 1 0

# texcoords
vt 0.537109 0.5
vt 0.880859 0.5
vt 0.896484 0.5
vt 0.978516 0.5

# verts
v 0 2 0
v 0 2 -0.8
v 0 2.2 0
v 0 2.2 -0.8
v 0.1 2.2 -0.6
v 0.1 2.2 -0.7
v 0.1 2.3 -0.6
v 0.1 2.3 -0.7
v 0.5 2.2 -0.3
v 0.5 2.2 -0.5
v 0.5 2.2 -0.6
v 0.5 2.3 -0.3
v 0.5 2.3 -0.6
v 0.2 2.2 -0.6
v 0.2 2.2 -0.7
v 0.2 2.3 -0.6
v 0.2 2.3 -0.7
v 0.7 2.2 -0.3
v 0.7 2.2 -0.6
v 0.7 2.3 -0.3
v 0.7 2.3 -0.6
v 0.8 2 0
v 0.8 2 -0.8
v 0.8 2.2 0
v 0.8 2.2 -0.8
v 0 2 0
v 0 2.2 0
v 0.8 2 0
v 0.8 2.2 0
v 0.5 2.2 -0.3
v 0.5 2.3 -0.3
v 0.7 2.2 -0.3
v 0.7 2.3 -0.3
v 0.1 2.2 -0.6
v 0.1 2.3 -0.6
v 0.2 2.2 -0.6
v 0.2 2.3 -0.6
v 0.5 2.2 -0.6
v 0.5 2.3 -0.6
v 0.7 2.2 -0.6
v 0.7 2.3 -0.6
v 0.1 2.2 -0.7
v 0.1 2.3 -0.7
v 0.2 2.2 -0.7
v 0.2 2.3 -0.7
v 0 2 -0.8
v 0 2.2 -0.8
v 0.8 2 -0.8
v 0.8 2.2 -0.8
v 0 2 0
v 0.8 2 0
v 0 2 -0.8
v 0.8 2 -0.8
v 0 2.2 0
v 0.8 2.2 0
v 0.5 2.2 -0.3
v 0.7 2.2 -0.3
v 0.1 2.2 -0.4
v 0.2 2.2 -0.4
v 0.3 2.2 -0.5
v 0.5 2.2 -0.5
v 0.1 2.2 -0.6
v 0.2 2.2 -0.6
v 0.3 2.2 -0.6
v 0.4 2.2 -0.6
v 0.5 2.2 -0.6
v 0.7 2.2 -0.6
v 0.1 2.2 -0.7
v 0.2 2.2 -0.7
v 0.4 2.2 -0.7
v 0.7 2.2 -0.7
v 0 2.2 -0.8
v 0.8 2.2 -0.8
v 0.5 2.3 -0.3
v 0.7 2.3 -0.3
v 0.1 2.3 -0.6
v 0.2 2.3 -0.6
v 0.5 2.3 -0.6
v 0.7 2.3 -0.6
v 0.1 2.3 -0.7
v 0.2 2.3 -0.7

# faces
f 3/2/1 2/2/1 1/2/1
f 4/2/1 2/2/1 3/2/1
f 7/4/1 6/4/1 5/4/1
f 8/4/1 6/4/1 7/4/1
f 12/4/1 10/4/1 9/4/1
f 12/4/1 11/4/1 10/4/1
f 13/4/1 11/4/1 12/4/1
f 14/4/2 15/4/2 16/4/2
f 16/4/2 15/4/2 17/4/2
f 18/4/2 19/4/2 20/4/2
f 20/4/2 19/4/2 21/4/2
f 22/2/2 23/2/2 24/2/2
f 24/2/2 23/2/2 25/2/2
f 28/2/3 27/2/3 26/2/3
f 29/2/3 27/2/3 28/2/3
f 32/4/3 31/4/3 30/4/3
f 33/4/3 31/4/3 32/4/3
f 36/4/3 35/4/3 34/4/3
f 37/4/3 35/4/3 36/4/3
f 38/4/4 39/4/4 40/4/4
f 40/4/4 39/4/4 41/4/4
f 42/4/4 43/4/4 44/4/4
f 44/4/4 43/4/4 45/4/4
f 46/2/4 47/2/4 48/2/4
f 48/2/4 47/2/4 49/2/4
f 52/2/5 51/2/5 50/2/5
f 53/2/5 51/2/5 52/2/5
f 54/2/6 55/2/6 56/2/6
f 56/2/6 55/2/6 57/2/6
f 54/2/6 56/2/6 58/2/6
f 58/2/6 56/2/6 59/2/6
f 59/2/6 56/2/6 60/2/6
f 60/2/6 56/2/6 61/2/6
f 54/2/6 58/2/6 62/2/6
f 58/1/6 59/1/6 62/1/6
f 59/2/6 60/2/6 63/2/6
f 62/1/6 59/1/6 63/1/6
f 60/3/6 61/3/6 64/3/6
f 63/2/6 60/2/6 64/2/6
f 64/3/6 61/3/6 65/3/6
f 65/3/6 61/3/6 66/3/6
f 57/2/6 55/2/6 67/2/6
f 54/2/6 62/2/6 68/2/6
f 64/2/6 65/2/6 69/2/6
f 63/2/6 64/2/6 69/2/6
f 65/3/6 66/3/6 70/3/6
f 66/3/6 67/3/6 70/3/6
f 69/2/6 65/2/6 70/2/6
f 67/2/6 55/2/6 71/2/6
f 70/3/6 67/3/6 71/3/6
f 68/2/6 69/2/6 72/2/6
f 54/2/6 68/2/6 72/2/6
f 70/2/6 71/2/6 72/2/6
f 69/2/6 70/2/6 72/2/6
f 71/2/6 55/2/6 73/2/6
f 72/2/6 71/2/6 73/2/6
f 74/4/6 75/4/6 78/4/6
f 78/4/6 75/4/6 79/4/6
f 76/4/6 77/4/6 80/4/6
f 80/4/6 77/4/6 81/4/6
